<?xml version="1.0" standalone="no"?>
  <!DOCTYPE svg PUBLIC "-//W3C//DTD SVG 1.1//EN" "http://www.w3.org/Graphics/SVG/1.1/DTD/svg11.dtd" >
  <svg>
  <metadata>
  Created by TNB FontFinisher
  </metadata>
  <defs>
  <font id="SunLifeSans-Regular"  horiz-adv-x="1328" vert-adv-y="1380" >
    <font-face
      font-family="Sun Life Sans Regular"
      font-style="Regular"
      font-weight="400"
      font-stretch="normal"
      panose-1="2 11 5 4 3 3 4 3 3 3"
      units-per-em="1000"
      ascent="1265"
      descent="-356"
    />
      <missing-glyph  d="M50 0L50 703L560 703L560 0ZM120 53L488 53L304 307ZM103 119L272 351L103 584ZM507 119L507 584L338 351ZM304 396L488 650L120 650Z"  horiz-adv-x="610" vert-adv-y="1000"  /> 
      <glyph glyph-name="space" unicode="&#x20;" d=""  horiz-adv-x="308" vert-adv-y="1000"  />
      <glyph glyph-name="exclam" unicode="&#x21;" d="M182 -10Q159 -10 143 6Q127 22 127 45Q127 68 143 84Q159 100 182 100Q205 100 221 84Q237 68 237 45Q237 22 221 6Q205 -10 182 -10ZM165 203Q154 203 154 214L132 702Q132 713 143 713L221 713Q232 713 232 702L210 214Q210 203 199 203Z"  horiz-adv-x="310" vert-adv-y="1000"  />
      <glyph glyph-name="quotedbl" unicode="&#x22;" d="M92 497Q81 497 81 508L71 702Q69 713 81 713L151 713Q163 713 161 702L151 508Q151 497 140 497ZM263 497Q252 497 252 508L242 702Q240 713 252 713L322 713Q334 713 332 702L322 508Q322 497 311 497Z"  horiz-adv-x="403" vert-adv-y="1000"  />
      <glyph glyph-name="numbersign" unicode="&#x23;" d="M146 0Q135 0 137 11L166 198L50 198Q39 198 39 209L39 257Q39 268 50 268L177 268L203 434L86 434Q75 434 75 445L75 494Q75 505 86 505L214 505L244 692Q246 703 257 703L313 703Q324 703 322 692L292 505L453 505L483 692Q485 703 496 703L552 703Q563 703 561 692L531 505L647 505Q658 505 658 494L658 445Q658 434 647 434L520 434L494 268L612 268Q623 268 623 257L623 209Q623 198 612 198L483 198L454 11Q452 0 441 0L385 0Q374 0 376 11L405 198L243 198L214 11Q212 0 201 0ZM254 268L416 268L442 434L281 434Z"  horiz-adv-x="696" vert-adv-y="1000"  />
      <glyph glyph-name="dollar" unicode="&#x24;" d="M285 -110Q274 -110 274 -99L274 14L268 14Q210 14 162 23Q114 32 73 51Q64 55 67 65L84 131Q87 140 96 137Q137 117 181 107Q224 96 276 96Q356 96 395 125Q433 153 433 204Q433 239 415 260Q396 280 365 292Q334 304 297 313Q260 322 223 334Q186 346 155 366Q124 386 106 420Q87 453 87 506Q87 560 112 597Q136 634 179 656Q221 677 274 684L274 802Q274 813 285 813L339 813Q350 813 350 802L350 687Q398 686 439 677Q479 667 509 656Q519 652 515 642L497 578Q494 570 484 573Q453 587 413 597Q373 606 329 606Q262 606 221 582Q179 558 179 510Q179 476 198 456Q217 435 248 423Q279 410 317 401Q354 391 392 379Q429 367 460 348Q491 328 510 296Q529 263 529 212Q529 142 486 90Q442 38 350 21L350 -99Q350 -110 339 -110Z"  horiz-adv-x="600" vert-adv-y="1000"  />
      <glyph glyph-name="percent" unicode="&#x25;" d="M195 -46Q184 -46 189 -36L506 739Q509 749 521 749L577 749Q587 749 584 739L266 -36Q263 -46 251 -46ZM181 341Q125 341 92 367Q58 392 44 435Q30 477 30 527Q30 578 44 620Q58 662 92 688Q125 713 181 713Q238 713 271 688Q304 662 318 620Q332 577 332 527Q332 477 318 435Q304 392 271 367Q238 341 181 341ZM591 -10Q535 -10 502 16Q469 41 455 84Q440 126 440 176Q440 226 455 269Q469 311 502 337Q535 362 591 362Q648 362 681 337Q714 311 729 269Q743 227 743 176Q743 126 729 84Q714 41 681 16Q647 -10 591 -10ZM181 400Q214 400 232 421Q250 441 257 471Q263 501 263 527Q263 554 257 583Q250 612 232 633Q214 653 181 653Q148 653 130 633Q112 612 106 583Q99 554 99 527Q99 501 106 471Q112 441 130 421Q148 400 181 400ZM591 49Q624 49 642 70Q660 90 667 120Q674 150 674 176Q674 203 667 232Q660 261 643 282Q625 302 591 302Q557 302 540 282Q522 261 516 232Q510 203 510 176Q510 150 517 121Q523 91 541 70Q558 49 591 49Z"  horiz-adv-x="773" vert-adv-y="1000"  />
      <glyph glyph-name="ampersand" unicode="&#x26;" d="M264 -10Q158 -10 96 44Q34 97 34 189Q34 245 58 282Q82 319 120 345Q158 370 200 390L199 392Q168 430 145 471Q121 512 121 558Q121 613 148 647Q174 681 215 697Q256 713 298 713Q382 713 426 671Q469 628 469 563Q469 514 449 479Q429 444 397 419Q365 394 328 373L476 201Q493 239 500 280Q506 321 503 360Q501 371 513 371L578 371Q588 371 590 360Q595 302 581 243Q566 184 534 133L641 9Q646 0 637 0L546 0Q533 0 528 9L478 67Q439 32 386 11Q332 -10 264 -10ZM269 66Q320 66 359 83Q398 99 426 127L249 333Q200 307 164 276Q127 244 127 194Q127 136 167 101Q206 66 269 66ZM281 428Q325 451 355 481Q385 510 385 557Q385 575 377 594Q369 613 351 626Q333 638 303 638Q271 638 243 619Q215 599 215 555Q215 524 236 492Q256 459 281 428Z"  horiz-adv-x="652" vert-adv-y="1000"  />
      <glyph glyph-name="quotesingle" unicode="&#x27;" d="M92 497Q81 497 81 508L71 702Q69 713 81 713L151 713Q163 713 161 702L151 508Q151 497 140 497Z"  horiz-adv-x="232" vert-adv-y="1000"  />
      <glyph glyph-name="parenleft" unicode="&#x28;" d="M250 -165Q239 -172 234 -163Q179 -97 141 -18Q103 62 84 147Q65 232 65 313Q65 395 84 480Q103 564 141 644Q179 724 234 789Q239 798 250 791L296 761Q305 754 299 745Q260 686 229 615Q198 544 181 468Q163 391 163 313Q163 235 181 159Q198 82 229 11Q260 -60 299 -119Q305 -129 296 -135Z"  horiz-adv-x="338" vert-adv-y="1000"  />
      <glyph glyph-name="parenright" unicode="&#x29;" d="M88 -165L42 -135Q33 -129 39 -119Q78 -60 109 11Q140 82 158 159Q175 235 175 313Q175 391 158 468Q140 544 109 615Q78 686 39 745Q33 754 42 761L88 791Q99 798 104 789Q160 724 198 644Q235 564 254 480Q273 395 273 313Q273 232 254 147Q235 62 198 -18Q160 -97 104 -163Q99 -172 88 -165Z"  horiz-adv-x="338" vert-adv-y="1000"  />
      <glyph glyph-name="asterisk" unicode="&#x2a;" d="M353 427Q345 420 338 430L272 529L205 430Q197 421 190 428L152 454Q144 460 150 469L224 563L108 598Q96 601 101 611L116 655Q119 665 129 662L242 621L238 742Q238 753 249 753L296 753Q308 753 306 742L301 621L415 661Q424 666 428 655L443 611Q448 601 436 598L320 563L393 469Q399 461 391 453Z"  horiz-adv-x="544" vert-adv-y="1000"  />
      <glyph glyph-name="plus" unicode="&#x2b;" d="M271 45Q260 45 260 56L260 264L52 264Q41 264 41 275L41 333Q41 344 52 344L260 344L260 551Q260 562 271 562L329 562Q340 562 340 551L340 344L547 344Q558 344 558 333L558 275Q558 264 547 264L340 264L340 56Q340 45 329 45Z"  horiz-adv-x="600" vert-adv-y="1000"  />
      <glyph glyph-name="comma" unicode="&#x2c;" d="M46 -123Q35 -123 38 -112Q52 -63 66 -15Q79 33 88 82Q90 93 101 93L169 93Q180 93 178 82Q153 -17 117 -113Q114 -123 102 -123Z"  horiz-adv-x="251" vert-adv-y="1000"  />
      <glyph glyph-name="hyphen" unicode="&#x2d;" d="M96 246Q85 246 85 257L85 309Q85 320 96 320L415 320Q426 320 426 309L426 257Q426 246 415 246Z"  horiz-adv-x="511" vert-adv-y="1000"  />
      <glyph glyph-name="period" unicode="&#x2e;" d="M125 -10Q102 -10 86 6Q69 22 69 45Q69 68 86 84Q102 100 125 100Q148 100 164 84Q180 68 180 45Q180 22 164 6Q148 -10 125 -10Z"  horiz-adv-x="249" vert-adv-y="1000"  />
      <glyph glyph-name="slash" unicode="&#x2f;" d="M43 -46L-13 -46Q-24 -46 -19 -36L298 739Q301 749 313 749L369 749Q379 749 376 739L58 -36Q55 -46 43 -46Z"  horiz-adv-x="358" vert-adv-y="1000"  />
      <glyph glyph-name="zero" unicode="&#x30;" d="M299 -10Q230 -10 182 17Q133 44 101 91Q69 140 54 207Q38 273 38 351Q38 429 54 496Q69 563 101 612Q133 659 182 686Q230 713 299 713Q369 713 418 686Q467 659 498 612Q530 563 546 496Q561 429 561 351Q561 273 546 207Q530 140 498 91Q467 44 418 17Q369 -10 299 -10ZM299 73Q343 73 374 95Q404 116 424 153Q444 191 453 242Q462 292 462 351Q462 410 453 461Q444 512 424 549Q404 587 374 609Q343 630 299 630Q256 630 226 609Q195 587 175 549Q156 512 147 461Q137 410 137 351Q137 292 147 242Q156 191 175 153Q195 116 226 95Q256 73 299 73Z"  horiz-adv-x="600" vert-adv-y="1000"  />
      <glyph glyph-name="one" unicode="&#x31;" d="M318 0Q307 0 307 11L307 604L102 491Q92 484 92 496L92 568Q92 578 102 584L321 702Q325 705 331 707Q337 708 341 708L396 708Q407 708 407 697L407 11Q407 0 396 0Z"  horiz-adv-x="600" vert-adv-y="1000"  />
      <glyph glyph-name="two" unicode="&#x32;" d="M75 0Q64 0 64 11L64 44Q64 106 84 151Q104 195 137 228Q170 261 209 287Q248 312 287 334Q326 356 359 380Q392 404 412 434Q432 464 432 504Q432 559 399 595Q366 631 291 631Q230 631 184 612Q138 593 100 564Q92 558 86 567L59 618Q54 630 62 635Q109 673 167 693Q224 713 298 713Q419 713 474 657Q529 601 529 511Q529 452 503 409Q477 366 436 335Q394 303 348 276Q301 249 260 222Q218 195 191 163Q164 130 163 85L526 85Q537 85 537 74L537 11Q537 0 526 0Z"  horiz-adv-x="600" vert-adv-y="1000"  />
      <glyph glyph-name="three" unicode="&#x33;" d="M263 -10Q212 -10 162 1Q112 12 74 37Q65 44 71 53L100 111Q105 122 114 115Q181 70 258 70Q341 70 384 107Q426 144 426 202Q426 261 386 294Q346 326 260 326L198 326Q187 326 187 337L187 392Q187 403 198 403L253 403Q333 403 376 432Q418 460 418 518Q418 565 384 599Q350 632 278 632Q240 632 205 622Q170 611 134 590Q124 584 119 594L91 645Q86 654 95 661Q134 687 185 700Q236 713 289 713Q363 713 412 689Q461 664 486 623Q510 581 510 530Q510 470 478 428Q445 385 383 365Q525 332 525 192Q525 138 496 92Q466 46 408 18Q349 -10 263 -10Z"  horiz-adv-x="600" vert-adv-y="1000"  />
      <glyph glyph-name="four" unicode="&#x34;" d="M356 0Q345 0 345 11L345 188L49 188Q38 188 38 199L38 258Q38 268 45 278L325 694Q334 703 343 703L429 703Q440 703 440 692L440 269L552 269Q563 269 563 258L563 199Q563 188 552 188L440 188L440 11Q440 0 429 0ZM130 269L345 269L345 586Z"  horiz-adv-x="600" vert-adv-y="1000"  />
      <glyph glyph-name="five" unicode="&#x35;" d="M264 -10Q209 -11 154 3Q99 17 61 42Q53 50 58 59L90 116Q95 127 104 120Q179 71 264 71Q346 71 391 111Q436 150 436 216Q436 284 397 319Q357 354 286 354Q247 354 216 345Q184 335 156 319Q145 313 135 316L98 325Q86 327 88 338L111 692Q113 703 123 703L499 703Q510 703 510 692L510 629Q510 618 499 618L194 618L180 404Q208 415 240 422Q271 429 307 429Q411 429 472 375Q533 320 533 218Q533 153 503 102Q472 50 413 21Q353 -9 264 -10Z"  horiz-adv-x="600" vert-adv-y="1000"  />
      <glyph glyph-name="six" unicode="&#x36;" d="M310 -10Q224 -10 167 29Q109 67 81 135Q53 202 53 288Q53 374 81 452Q109 529 164 589Q218 648 297 682Q376 715 477 712Q488 712 488 701L492 639Q494 627 482 629Q394 633 326 600Q257 567 214 508Q170 449 155 373Q190 400 234 418Q278 435 328 435Q399 435 448 408Q497 381 522 334Q547 286 547 224Q547 148 515 96Q483 43 429 17Q375 -10 310 -10ZM310 69Q372 69 412 108Q451 146 451 222Q451 280 415 320Q379 360 308 360Q265 360 223 342Q181 324 149 294Q151 182 194 126Q237 69 310 69Z"  horiz-adv-x="600" vert-adv-y="1000"  />
      <glyph glyph-name="seven" unicode="&#x37;" d="M147 0Q136 0 141 10L442 618L79 618Q68 618 68 629L68 692Q68 703 79 703L513 703Q524 703 527 692L536 656Q539 645 534 635L252 10Q249 0 237 0Z"  horiz-adv-x="600" vert-adv-y="1000"  />
      <glyph glyph-name="eight" unicode="&#x38;" d="M297 -10Q229 -10 171 9Q112 27 76 68Q40 109 40 179Q40 227 63 262Q86 297 124 322Q161 346 204 364Q168 381 138 404Q108 427 90 460Q72 492 72 539Q72 620 134 667Q196 713 299 713Q409 713 468 666Q526 619 526 541Q526 481 488 442Q449 402 395 376Q438 359 476 335Q513 310 536 274Q559 237 559 182Q559 117 523 74Q486 31 426 11Q366 -10 297 -10ZM299 67Q375 67 420 97Q464 127 464 185Q464 228 437 254Q410 280 368 299Q325 317 277 334Q240 319 208 298Q175 276 155 248Q135 220 135 184Q135 120 182 94Q228 67 299 67ZM318 405Q371 428 403 460Q435 492 435 535Q435 586 399 612Q362 637 299 637Q236 637 200 612Q164 586 164 536Q164 501 186 477Q207 453 242 437Q277 420 318 405Z"  horiz-adv-x="600" vert-adv-y="1000"  />
      <glyph glyph-name="nine" unicode="&#x39;" d="M122 -9Q112 -9 110 2L106 64Q106 76 117 74Q205 71 273 104Q341 136 385 195Q429 254 443 329Q408 301 365 285Q321 268 270 268Q164 268 108 327Q52 386 52 479Q52 555 84 607Q116 659 170 686Q224 713 289 713Q376 713 433 675Q490 636 518 569Q546 501 546 415Q546 329 518 252Q490 174 436 114Q381 54 302 21Q223 -12 122 -9ZM291 342Q335 342 376 361Q416 379 450 409Q448 522 405 578Q361 633 288 633Q227 633 188 595Q148 557 148 481Q148 423 184 383Q220 342 291 342Z"  horiz-adv-x="600" vert-adv-y="1000"  />
      <glyph glyph-name="colon" unicode="&#x3a;" d="M125 -10Q102 -10 86 6Q69 22 69 45Q69 68 86 84Q102 100 125 100Q148 100 164 84Q180 68 180 45Q180 22 164 6Q148 -10 125 -10ZM125 405Q102 405 86 421Q69 437 69 460Q69 483 86 499Q102 515 125 515Q148 515 164 499Q180 483 180 460Q180 437 164 421Q148 405 125 405Z"  horiz-adv-x="249" vert-adv-y="1000"  />
      <glyph glyph-name="semicolon" unicode="&#x3b;" d="M46 -123Q35 -123 38 -112Q52 -63 66 -15Q79 33 88 82Q90 93 101 93L169 93Q180 93 178 82Q153 -17 117 -113Q114 -123 102 -123ZM129 405Q106 405 90 421Q74 437 74 460Q74 483 90 499Q106 515 129 515Q152 515 168 499Q184 483 184 460Q184 437 168 421Q152 405 129 405Z"  horiz-adv-x="251" vert-adv-y="1000"  />
      <glyph glyph-name="less" unicode="&#x3c;" d="M549 13L52 264Q42 267 42 279L42 322Q42 334 52 337L549 588Q559 592 559 581L559 505Q559 494 549 490L164 300L549 111Q559 107 559 96L559 20Q559 9 549 13Z"  horiz-adv-x="600" vert-adv-y="1000"  />
      <glyph glyph-name="equal" unicode="&#x3d;" d="M52 393Q41 393 41 404L41 462Q41 473 52 473L547 473Q558 473 558 462L558 404Q558 393 547 393ZM52 135Q41 135 41 146L41 204Q41 215 52 215L547 215Q558 215 558 204L558 146Q558 135 547 135Z"  horiz-adv-x="600" vert-adv-y="1000"  />
      <glyph glyph-name="greater" unicode="&#x3e;" d="M51 13Q41 9 41 20L41 96Q41 107 51 111L436 300L51 490Q41 494 41 505L41 581Q41 592 51 588L548 337Q558 334 558 322L558 279Q558 267 548 264Z"  horiz-adv-x="600" vert-adv-y="1000"  />
      <glyph glyph-name="question" unicode="&#x3f;" d="M230 -10Q208 -10 192 6Q176 22 176 45Q176 68 192 84Q208 100 230 100Q253 100 270 84Q286 68 286 45Q286 22 270 6Q253 -10 230 -10ZM217 203Q207 203 202 213Q197 229 194 243Q191 256 191 269Q191 315 218 346Q244 377 280 405Q303 423 326 442Q348 460 363 482Q377 504 377 534Q377 580 348 607Q318 633 266 633Q228 633 192 621Q156 608 121 581Q112 574 108 585L85 641Q81 652 90 658Q135 688 182 701Q229 713 279 713Q365 713 417 669Q469 625 469 542Q469 497 452 466Q435 434 410 411Q384 388 357 368Q332 349 309 329Q286 309 273 282Q259 255 260 214Q262 203 250 203Z"  horiz-adv-x="536" vert-adv-y="1000"  />
      <glyph glyph-name="at" unicode="&#x40;" d="M469 -55Q334 -55 242 -9Q150 38 103 122Q56 205 56 317Q56 391 82 462Q108 532 159 589Q210 645 287 679Q363 713 463 713Q576 713 659 676Q742 638 787 570Q832 501 832 407Q832 320 799 259Q765 198 713 166Q660 134 602 134Q559 134 537 152Q514 170 508 198Q489 170 459 152Q428 134 384 134Q322 134 288 175Q253 216 253 272Q253 340 284 396Q315 451 371 485Q426 518 497 518Q580 518 637 493Q647 488 644 477L595 305Q586 272 586 253Q586 235 594 224Q602 212 624 212Q655 212 686 234Q716 256 736 299Q756 342 756 405Q756 476 722 530Q687 584 621 615Q555 645 460 645Q379 645 318 617Q256 589 215 543Q174 496 154 438Q133 379 133 317Q133 225 173 156Q212 86 288 48Q363 10 472 10Q516 10 557 16Q598 22 627 30Q639 34 641 22L651 -17Q653 -28 643 -31Q609 -41 561 -48Q513 -55 469 -55ZM407 208Q441 208 461 221Q480 234 491 255Q501 276 507 298L548 441Q538 444 526 446Q514 448 497 448Q453 448 417 427Q380 406 359 369Q338 331 339 283Q340 250 358 229Q376 208 407 208Z"  horiz-adv-x="887" vert-adv-y="1000"  />
      <glyph glyph-name="A" unicode="&#x41;" d="M547 -5Q538 -7 533 3L472 177L166 177L101 3Q98 -7 87 -4L15 11Q11 12 9 16Q7 19 9 23Q39 101 73 190Q107 278 142 369Q177 459 211 544Q244 628 272 698Q275 708 287 708L360 708Q370 708 375 698Q414 600 459 485Q503 370 548 252Q592 134 631 25Q634 15 624 12ZM193 258L443 258Q423 314 402 370Q381 425 361 479Q351 506 342 537Q332 568 324 599L318 599Q310 567 299 536Q288 504 278 478Q277 475 268 453Q259 431 247 400Q235 368 223 337Q211 306 203 284Q194 262 193 258Z"  horiz-adv-x="640" vert-adv-y="1000"  />
      <glyph glyph-name="B" unicode="&#x42;" d="M283 -10Q172 -10 88 2Q78 4 78 14L78 687Q78 698 89 700Q136 707 186 710Q235 713 281 713Q411 713 482 666Q552 618 552 526Q552 462 522 426Q491 389 445 372Q487 359 520 337Q553 315 572 279Q591 243 591 189Q591 91 512 41Q432 -10 283 -10ZM302 69Q391 69 441 101Q491 132 491 196Q491 258 449 292Q407 326 330 326L178 326L178 77Q214 73 240 71Q265 69 302 69ZM178 403L315 403Q350 403 382 413Q413 423 433 448Q453 473 453 516Q453 576 408 605Q363 633 286 633Q252 633 229 632Q206 630 178 627Z"  horiz-adv-x="641" vert-adv-y="1000"  />
      <glyph glyph-name="C" unicode="&#x43;" d="M355 -10Q246 -10 181 36Q115 81 86 163Q56 244 56 351Q56 460 89 541Q122 622 192 668Q262 713 372 713Q434 713 479 701Q523 688 557 669Q568 664 564 653L544 586Q541 575 531 581Q491 604 453 615Q414 625 372 625Q156 625 156 351Q156 215 211 147Q265 78 366 78Q413 78 456 91Q499 104 536 127Q545 134 550 123L574 65Q579 54 571 49Q529 20 470 5Q411 -10 355 -10Z"  horiz-adv-x="606" vert-adv-y="1000"  />
      <glyph glyph-name="D" unicode="&#x44;" d="M271 -10Q218 -10 174 -6Q129 -2 89 5Q78 7 78 18L78 685Q78 696 89 698Q129 706 176 710Q222 713 271 713Q464 713 549 620Q633 527 633 351Q633 177 549 84Q464 -10 271 -10ZM279 76Q404 76 469 141Q534 205 534 352Q534 499 469 563Q404 627 279 627Q251 627 226 625Q201 623 178 621L178 81Q200 78 225 77Q250 76 279 76Z"  horiz-adv-x="689" vert-adv-y="1000"  />
      <glyph glyph-name="E" unicode="&#x45;" d="M89 0Q78 0 78 11L78 692Q78 703 89 703L525 703Q536 703 536 692L536 627Q536 616 525 616L178 616L178 401L491 401Q502 401 502 390L502 326Q502 315 491 315L178 315L178 87L533 87Q544 87 544 76L544 11Q544 0 533 0Z"  horiz-adv-x="592" vert-adv-y="1000"  />
      <glyph glyph-name="F" unicode="&#x46;" d="M89 0Q78 0 78 11L78 692Q78 703 89 703L509 703Q520 703 520 692L520 626Q520 615 509 615L178 615L178 393L475 393Q486 393 486 382L486 317Q486 306 475 306L178 306L178 11Q178 0 167 0Z"  horiz-adv-x="557" vert-adv-y="1000"  />
      <glyph glyph-name="G" unicode="&#x47;" d="M366 -10Q254 -10 186 34Q117 78 87 159Q56 240 56 351Q56 460 90 541Q124 622 196 668Q268 713 381 713Q443 713 488 701Q533 688 567 669Q577 664 573 653L553 586Q550 574 541 581Q501 605 463 615Q424 625 380 625Q156 625 156 351Q156 206 212 141Q268 76 369 76Q450 76 505 99L505 275L372 275Q361 275 361 286L361 349Q361 360 372 360L586 360Q597 360 597 349L597 57Q597 46 587 41Q498 -10 366 -10Z"  horiz-adv-x="666" vert-adv-y="1000"  />
      <glyph glyph-name="H" unicode="&#x48;" d="M89 0Q78 0 78 11L78 692Q78 703 89 703L167 703Q178 703 178 692L178 400L539 400L539 692Q539 703 550 703L627 703Q638 703 638 692L638 11Q638 0 627 0L550 0Q539 0 539 11L539 314L178 314L178 11Q178 0 167 0Z"  horiz-adv-x="716" vert-adv-y="1000"  />
      <glyph glyph-name="I" unicode="&#x49;" d="M89 0Q78 0 78 11L78 692Q78 703 89 703L167 703Q178 703 178 692L178 11Q178 0 167 0Z"  horiz-adv-x="256" vert-adv-y="1000"  />
      <glyph glyph-name="J" unicode="&#x4a;" d="M-68 -186Q-80 -186 -80 -175L-87 -116Q-87 -105 -77 -105Q-4 -103 37 -62Q78 -21 78 83L78 692Q78 703 89 703L166 703Q177 703 177 692L177 87Q177 -51 113 -117Q48 -183 -68 -186Z"  horiz-adv-x="255" vert-adv-y="1000"  />
      <glyph glyph-name="K" unicode="&#x4b;" d="M511 -7Q501 -11 494 -1Q467 32 429 76Q391 119 348 168Q305 217 261 265Q217 312 178 352L178 11Q178 0 167 0L89 0Q78 0 78 11L78 692Q78 703 89 703L167 703Q178 703 178 692L178 389Q231 438 286 493Q340 547 391 602Q442 657 482 705Q490 713 499 709L576 690Q585 686 579 677Q554 648 518 609Q481 570 439 528Q397 486 356 446Q314 405 279 372Q317 335 361 289Q404 242 449 194Q493 146 532 102Q571 58 598 25Q604 16 594 14Z"  horiz-adv-x="599" vert-adv-y="1000"  />
      <glyph glyph-name="L" unicode="&#x4c;" d="M89 0Q78 0 78 11L78 692Q78 703 89 703L167 703Q178 703 178 692L178 87L509 87Q520 87 520 76L520 11Q520 0 509 0Z"  horiz-adv-x="541" vert-adv-y="1000"  />
      <glyph glyph-name="M" unicode="&#x4d;" d="M140 -6L69 -1Q58 1 59 11Q67 118 78 236Q88 353 100 470Q112 587 123 692Q125 703 135 703L198 703Q209 703 214 693Q264 583 316 466Q367 349 413 242Q419 229 426 210Q433 191 438 170L443 170Q448 191 456 212Q463 232 470 247Q516 355 567 470Q618 584 667 693Q670 703 682 703L749 703Q759 703 761 692Q772 592 784 476Q795 360 806 241Q817 121 825 11Q826 1 815 -1L739 -6Q729 -7 727 4L696 411Q693 437 692 470Q690 502 689 532L683 532Q672 500 659 469Q645 438 634 412Q594 323 554 227Q513 131 476 44Q473 34 461 34L415 34Q403 34 400 44Q367 124 325 220Q283 316 241 413Q231 437 219 470Q206 502 196 530L190 530Q189 502 187 470Q184 438 182 412Q177 350 172 281Q166 211 161 140Q156 69 151 4Q151 -8 140 -6Z"  horiz-adv-x="884" vert-adv-y="1000"  />
      <glyph glyph-name="N" unicode="&#x4e;" d="M89 0Q78 0 78 11L78 692Q78 703 89 703L148 703Q157 703 166 694Q246 585 329 470Q412 354 482 250Q493 235 505 216Q517 197 526 178L532 178Q529 198 529 220Q528 242 528 264L528 692Q528 703 539 703L614 703Q625 703 625 692L625 11Q625 0 614 0L552 0Q541 0 535 9Q465 118 385 234Q304 349 226 456Q215 472 201 492Q187 512 176 531L170 531Q172 510 173 487Q174 463 174 437L174 11Q174 0 163 0Z"  horiz-adv-x="703" vert-adv-y="1000"  />
      <glyph glyph-name="O" unicode="&#x4f;" d="M350 -10Q242 -10 178 38Q113 86 85 168Q56 249 56 351Q56 427 72 493Q88 559 123 609Q157 658 213 686Q269 713 350 713Q458 713 523 665Q587 617 616 535Q645 453 645 351Q645 249 616 168Q587 86 523 38Q458 -10 350 -10ZM350 76Q420 76 463 110Q505 144 525 206Q544 268 544 351Q544 435 525 497Q505 559 463 593Q420 627 350 627Q281 627 238 593Q195 559 176 497Q156 435 156 351Q156 268 176 206Q195 144 238 110Q281 76 350 76Z"  horiz-adv-x="701" vert-adv-y="1000"  />
      <glyph glyph-name="P" unicode="&#x50;" d="M89 0Q78 0 78 11L78 685Q78 696 89 698Q130 705 179 709Q227 713 278 713Q416 713 490 662Q564 610 564 501Q564 430 528 383Q491 335 427 312Q363 288 281 288Q253 288 227 289Q201 290 178 292L178 11Q178 0 167 0ZM286 366Q376 366 420 402Q464 438 464 502Q464 539 447 569Q429 598 390 616Q351 634 284 634Q261 634 233 633Q204 631 178 629L178 373Q206 369 234 368Q262 366 286 366Z"  horiz-adv-x="592" vert-adv-y="1000"  />
      <glyph glyph-name="Q" unicode="&#x51;" d="M653 -158Q619 -139 575 -110Q531 -81 489 -52Q446 -22 416 -4Q386 -10 350 -10Q242 -10 178 38Q113 86 85 168Q56 249 56 351Q56 427 72 493Q88 559 123 609Q157 658 213 686Q269 713 350 713Q458 713 523 665Q587 617 616 535Q645 453 645 351Q645 243 613 157Q580 71 505 27Q537 9 573 -11Q609 -31 644 -49Q678 -67 702 -79Q712 -84 706 -93L668 -154Q663 -164 653 -158ZM350 76Q420 76 463 110Q505 144 525 206Q544 268 544 351Q544 435 525 497Q505 559 463 593Q420 627 350 627Q281 627 238 593Q195 559 176 497Q156 435 156 351Q156 268 176 206Q195 144 238 110Q281 76 350 76Z"  horiz-adv-x="701" vert-adv-y="1000"  />
      <glyph glyph-name="R" unicode="&#x52;" d="M530 -7Q520 -10 514 -1Q468 69 415 148Q361 227 308 298Q300 297 292 297Q283 297 274 297Q246 297 223 299Q200 300 178 302L178 11Q178 0 167 0L89 0Q78 0 78 11L78 685Q78 696 89 698Q133 706 178 710Q223 713 275 713Q407 713 483 665Q558 617 558 505Q558 438 520 388Q482 338 407 315Q441 272 479 221Q516 169 552 119Q587 68 614 25Q621 17 610 13ZM286 374Q366 374 412 407Q458 440 458 505Q458 571 411 603Q364 634 281 634Q253 634 230 633Q207 632 178 628L178 381Q210 377 231 376Q252 374 286 374Z"  horiz-adv-x="625" vert-adv-y="1000"  />
      <glyph glyph-name="S" unicode="&#x53;" d="M244 -10Q182 -10 130 -1Q77 9 33 30Q23 34 27 45L45 116Q48 125 58 122Q103 100 150 89Q196 78 252 78Q338 78 380 109Q422 139 422 194Q422 231 402 253Q381 275 348 288Q315 301 275 311Q235 321 195 334Q155 346 122 368Q89 389 69 425Q48 460 48 517Q48 585 84 629Q119 672 179 693Q238 713 308 713Q367 713 418 703Q468 692 503 678Q514 674 510 663L490 595Q487 586 477 589Q443 604 400 615Q356 625 309 625Q237 625 193 599Q148 573 148 522Q148 485 169 463Q189 441 223 428Q256 415 297 405Q337 395 377 382Q417 369 451 348Q484 327 505 293Q525 258 525 203Q525 142 496 94Q466 46 404 18Q342 -10 244 -10Z"  horiz-adv-x="564" vert-adv-y="1000"  />
      <glyph glyph-name="T" unicode="&#x54;" d="M259 0Q248 0 248 11L248 616L26 616Q15 616 15 627L15 692Q15 703 26 703L569 703Q580 703 580 692L580 627Q580 616 569 616L348 616L348 11Q348 0 337 0Z"  horiz-adv-x="595" vert-adv-y="1000"  />
      <glyph glyph-name="U" unicode="&#x55;" d="M346 -10Q253 -10 193 20Q132 50 102 118Q72 186 72 298L72 692Q72 703 83 703L161 703Q172 703 172 692L172 292Q172 172 214 124Q256 76 346 76Q437 76 479 124Q521 172 521 292L521 692Q521 703 532 703L610 703Q621 703 621 692L621 298Q621 186 591 118Q561 50 500 20Q439 -10 346 -10Z"  horiz-adv-x="693" vert-adv-y="1000"  />
      <glyph glyph-name="V" unicode="&#x56;" d="M284 -5Q273 -5 268 5Q254 37 231 96Q207 155 178 230Q149 305 119 386Q88 466 60 543Q32 619 9 681Q4 691 16 693L97 707Q109 709 112 699Q147 598 189 482Q230 365 272 258Q284 227 296 194Q308 160 321 113L327 113Q341 160 353 194Q365 227 377 258Q406 329 435 405Q463 481 491 557Q518 632 540 699Q545 709 555 706L629 691Q641 687 636 678Q613 617 584 541Q555 464 524 384Q493 304 464 230Q434 155 410 97Q386 38 371 5Q368 -5 356 -5Z"  horiz-adv-x="645" vert-adv-y="1000"  />
      <glyph glyph-name="W" unicode="&#x57;" d="M243 -5Q233 -5 228 5Q216 38 196 97Q176 156 152 231Q127 306 102 387Q76 467 52 544Q27 620 8 681Q4 692 16 694L96 708Q106 710 110 699Q139 599 175 482Q210 365 245 258Q256 227 266 194Q275 160 287 113L292 113Q304 160 315 194Q325 227 335 258Q372 365 408 482Q444 599 472 699Q476 710 486 710L557 710Q567 710 571 699Q600 599 636 482Q672 365 709 258Q720 227 730 194Q739 160 752 113L757 113Q768 160 778 194Q788 227 798 258Q833 365 869 482Q905 599 934 699Q938 710 948 708L1021 694Q1033 692 1029 681Q1010 620 986 544Q961 467 936 387Q910 306 886 231Q861 156 841 97Q821 38 809 5Q806 -5 795 -5L719 -5Q709 -5 704 5Q691 39 669 102Q647 164 621 242Q595 320 568 400Q557 434 547 470Q536 505 523 556L518 556Q505 505 495 471Q484 437 473 403Q447 323 421 244Q394 165 372 102Q350 39 337 5Q332 -5 322 -5Z"  horiz-adv-x="1037" vert-adv-y="1000"  />
      <glyph glyph-name="X" unicode="&#x58;" d="M541 -7Q529 -9 524 -1Q478 63 422 140Q366 216 311 286Q256 216 200 139Q144 62 98 -1Q91 -9 81 -6L12 14Q1 19 9 27Q41 71 85 128Q128 185 175 246Q222 306 263 360Q223 413 179 470Q135 526 95 580Q55 633 24 676Q17 684 28 688L107 709Q116 712 124 704Q165 646 217 574Q268 502 317 437Q365 502 417 574Q468 646 511 704Q518 712 528 709L597 688Q601 687 603 684Q604 680 600 676Q570 634 530 581Q490 528 447 472Q404 415 365 364Q407 310 454 249Q500 187 544 129Q587 71 619 27Q626 18 616 14Z"  horiz-adv-x="628" vert-adv-y="1000"  />
      <glyph glyph-name="Y" unicode="&#x59;" d="M266 0Q255 0 255 11L255 284Q214 346 170 415Q125 483 83 552Q40 621 4 681Q-1 691 9 693L93 707Q105 709 109 699Q138 648 174 591Q210 533 242 481Q258 456 274 429Q290 402 308 368L314 368Q331 402 349 430Q367 458 384 484Q418 535 456 594Q493 652 523 699Q528 710 539 706L610 691Q620 688 615 678Q579 621 534 553Q489 484 442 416Q395 347 354 289L354 11Q354 0 343 0Z"  horiz-adv-x="619" vert-adv-y="1000"  />
      <glyph glyph-name="Z" unicode="&#x5a;" d="M44 0Q33 0 31 11L22 58Q21 63 23 68Q25 73 27 77Q53 107 82 144Q110 181 135 214L320 484Q346 521 372 556Q397 590 422 621L213 614L46 614Q35 614 35 625L37 692Q37 703 48 703L522 703Q533 703 535 692L543 642Q545 630 538 622Q513 591 484 555Q455 519 432 487L244 219Q219 182 193 148Q167 114 141 82L375 88L533 88Q544 88 544 77L544 11Q544 0 533 0Z"  horiz-adv-x="568" vert-adv-y="1000"  />
      <glyph glyph-name="bracketleft" unicode="&#x5b;" d="M76 -162Q65 -162 65 -151L65 778Q65 789 76 789L276 789Q287 789 287 778L287 722Q287 711 276 711L164 711L164 -84L276 -84Q287 -84 287 -95L287 -151Q287 -162 276 -162Z"  horiz-adv-x="324" vert-adv-y="1000"  />
      <glyph glyph-name="backslash" unicode="&#x5c;" d="M320 -46Q308 -46 305 -36L-13 739Q-16 749 -6 749L50 749Q62 749 65 739L382 -36Q387 -46 376 -46Z"  horiz-adv-x="370" vert-adv-y="1000"  />
      <glyph glyph-name="bracketright" unicode="&#x5d;" d="M248 -162L48 -162Q37 -162 37 -151L37 -95Q37 -84 48 -84L160 -84L160 711L48 711Q37 711 37 722L37 778Q37 789 48 789L248 789Q259 789 259 778L259 -151Q259 -162 248 -162Z"  horiz-adv-x="324" vert-adv-y="1000"  />
      <glyph glyph-name="asciicircum" unicode="&#x5e;" d="M127 185L61 205Q51 210 55 219Q72 261 93 312Q114 363 138 416Q161 469 183 519Q205 568 224 608Q242 648 254 671Q259 681 270 681L327 681Q338 681 343 671Q355 648 374 608Q392 568 414 519Q436 469 460 416Q483 363 505 312Q526 261 543 219Q547 210 537 205L471 185Q462 181 457 191Q435 249 409 314Q382 379 354 445Q326 511 299 571Q272 511 244 445Q215 379 189 314Q163 249 141 191Q136 181 127 185Z"  horiz-adv-x="598" vert-adv-y="1000"  />
      <glyph glyph-name="underscore" unicode="&#x5f;" d="M0 -176Q-11 -176 -11 -165L-11 -114Q-11 -103 0 -103L520 -103Q531 -103 531 -114L531 -165Q531 -176 520 -176Z"  horiz-adv-x="520" vert-adv-y="1000"  />
      <glyph glyph-name="grave" unicode="&#x60;" d="M298 574Q287 574 281 583Q248 626 211 672Q174 718 134 764Q129 773 139 773L218 773Q228 773 235 764Q269 721 303 675Q336 628 367 583Q373 574 362 574Z"  horiz-adv-x="506" vert-adv-y="1000"  />
      <glyph glyph-name="a" unicode="&#x61;" d="M214 -10Q168 -10 129 6Q90 21 67 54Q43 87 43 140Q43 289 255 289Q281 289 310 287Q339 285 364 282L364 318Q364 383 339 411Q314 439 251 439Q206 439 166 427Q125 414 90 393Q81 389 76 397L58 449Q52 459 64 464Q105 487 155 501Q204 515 265 515Q339 515 381 494Q422 472 439 428Q456 383 456 313L456 150Q456 113 463 88Q469 62 488 39Q496 30 485 25L442 -2Q431 -7 422 -3Q398 8 380 46Q353 22 312 6Q270 -10 214 -10ZM241 58Q276 58 309 71Q342 83 364 104L364 219Q336 224 312 226Q288 227 268 227Q197 227 165 205Q133 182 133 143Q133 100 164 79Q195 58 241 58Z"  horiz-adv-x="531" vert-adv-y="1000"  />
      <glyph glyph-name="b" unicode="&#x62;" d="M261 -10Q201 -10 157 -2Q112 7 82 23Q72 28 72 39L72 753Q72 764 83 764L155 764Q166 764 166 753L166 471Q231 515 304 515Q380 515 426 484Q471 452 492 395Q512 337 512 258Q512 161 480 102Q448 43 392 17Q335 -10 261 -10ZM261 65Q309 65 344 83Q379 100 398 141Q417 182 417 253Q417 344 387 391Q356 438 281 438Q250 438 221 427Q191 416 166 399L166 81Q188 72 211 69Q233 65 261 65Z"  horiz-adv-x="563" vert-adv-y="1000"  />
      <glyph glyph-name="c" unicode="&#x63;" d="M281 -10Q199 -10 148 25Q97 59 74 119Q50 178 50 252Q50 325 75 385Q99 444 151 480Q203 515 283 515Q384 515 449 475Q458 469 453 459L429 408Q425 397 416 404Q393 418 362 427Q330 436 296 436Q239 436 206 409Q173 382 160 340Q146 298 146 252Q146 207 160 165Q174 123 207 96Q239 69 296 69Q331 69 363 78Q394 87 417 101Q426 107 430 98L452 47Q454 43 453 38Q452 33 448 31Q420 13 374 2Q328 -10 281 -10Z"  horiz-adv-x="487" vert-adv-y="1000"  />
      <glyph glyph-name="d" unicode="&#x64;" d="M268 -10Q203 -10 154 18Q105 45 78 103Q50 161 50 254Q50 373 105 444Q159 515 275 515Q311 515 341 506Q371 497 396 483L396 753Q396 764 407 764L480 764Q491 764 491 753L491 150Q491 113 497 88Q503 62 522 39Q529 30 520 25L477 -2Q467 -7 457 -4Q432 9 415 44Q386 21 349 6Q312 -10 268 -10ZM286 65Q319 65 347 77Q375 89 396 106L396 409Q374 423 348 432Q322 440 293 440Q145 440 145 254Q145 184 163 143Q181 101 213 83Q244 65 286 65Z"  horiz-adv-x="565" vert-adv-y="1000"  />
      <glyph glyph-name="e" unicode="&#x65;" d="M297 -10Q211 -10 157 25Q102 60 76 119Q50 178 50 251Q50 324 77 384Q103 444 157 480Q210 515 291 515Q373 515 421 483Q469 451 490 397Q511 342 511 274L511 243Q509 232 499 232L147 232Q153 152 194 109Q235 66 309 66Q346 66 383 76Q420 85 453 105Q457 109 461 108Q465 107 466 102L488 52Q492 42 483 36Q450 14 400 2Q349 -10 297 -10ZM148 296L420 296Q419 335 407 368Q394 400 367 420Q339 439 291 439Q236 439 196 407Q156 375 148 296Z"  horiz-adv-x="561" vert-adv-y="1000"  />
      <glyph glyph-name="f" unicode="&#x66;" d="M99 0Q88 0 88 11L88 434L19 434Q8 434 8 445L8 494Q8 505 19 505L88 505L88 545Q88 608 103 660Q117 712 158 743Q199 774 278 774Q306 774 332 770Q357 766 380 758Q390 755 387 743L371 685Q368 674 358 677Q340 683 321 687Q302 691 282 691Q230 691 206 659Q182 626 182 546L182 505L317 505Q328 505 328 494L328 445Q328 434 317 434L182 434L182 11Q182 0 171 0Z"  horiz-adv-x="337" vert-adv-y="1000"  />
      <glyph glyph-name="g" unicode="&#x67;" d="M247 -268Q174 -268 127 -248Q79 -228 56 -195Q33 -161 33 -121Q33 -75 65 -43Q96 -11 145 2Q129 13 120 29Q110 45 110 68Q110 93 126 113Q141 133 169 149Q108 169 77 215Q46 261 46 325Q46 379 68 422Q89 465 136 490Q183 515 258 515Q278 515 296 513Q314 510 330 505L502 505Q513 505 513 494L513 454Q513 444 502 441L436 432Q469 386 469 329Q469 235 411 186Q353 137 258 137Q247 137 237 138Q226 138 216 139Q209 129 204 119Q199 108 199 97Q199 76 223 67Q247 58 285 55Q323 51 366 46Q409 40 447 27Q485 13 509 -15Q533 -43 533 -94Q533 -157 493 -195Q453 -233 388 -251Q323 -268 247 -268ZM260 -198Q340 -198 390 -177Q439 -156 439 -107Q439 -76 414 -62Q389 -47 350 -41Q311 -35 268 -31Q225 -26 188 -16Q160 -29 140 -51Q119 -73 119 -105Q119 -128 132 -150Q144 -171 175 -185Q206 -198 260 -198ZM258 204Q314 204 349 235Q384 265 384 327Q384 385 350 417Q316 449 257 449Q187 449 159 414Q131 379 131 327Q131 269 167 237Q202 204 258 204Z"  horiz-adv-x="540" vert-adv-y="1000"  />
      <glyph glyph-name="h" unicode="&#x68;" d="M83 0Q72 0 72 11L72 753Q72 764 83 764L155 764Q166 764 166 753L166 454Q204 479 249 497Q294 515 346 515Q444 515 483 457Q521 398 521 286L521 11Q521 0 510 0L438 0Q427 0 427 11L427 273Q427 359 402 396Q376 432 317 432Q276 432 236 418Q196 403 166 382L166 11Q166 0 155 0Z"  horiz-adv-x="591" vert-adv-y="1000"  />
      <glyph glyph-name="i" unicode="&#x69;" d="M84 0Q73 0 73 11L73 494Q73 505 84 505L156 505Q167 505 167 494L167 11Q167 0 156 0ZM120 662Q97 662 81 679Q64 695 64 718Q64 741 81 758Q97 774 120 774Q143 774 160 758Q176 741 176 718Q176 695 160 679Q143 662 120 662Z"  horiz-adv-x="240" vert-adv-y="1000"  />
      <glyph glyph-name="j" unicode="&#x6a;" d="M-62 -251Q-73 -251 -73 -240L-77 -179Q-79 -168 -67 -168Q-25 -166 6 -148Q37 -130 55 -90Q72 -50 72 18L72 494Q72 505 83 505L155 505Q166 505 166 494L166 18Q166 -118 106 -183Q45 -248 -62 -251ZM119 662Q96 662 80 679Q63 695 63 718Q63 741 80 758Q96 774 119 774Q143 774 159 758Q175 741 175 718Q175 695 159 679Q143 662 119 662Z"  horiz-adv-x="238" vert-adv-y="1000"  />
      <glyph glyph-name="k" unicode="&#x6b;" d="M435 -4Q423 -6 417 2Q388 33 345 75Q302 117 256 163Q209 208 166 246L166 11Q166 0 155 0L83 0Q72 0 72 11L72 753Q72 764 83 764L155 764Q166 764 166 753L166 285Q231 337 296 395Q360 453 409 503Q415 511 427 509L502 494Q513 491 505 483Q478 454 435 415Q391 376 345 338Q299 299 261 269Q291 243 327 211Q363 178 400 144Q436 109 468 78Q500 46 523 22Q526 19 525 16Q524 13 519 12Z"  horiz-adv-x="528" vert-adv-y="1000"  />
      <glyph glyph-name="l" unicode="&#x6c;" d="M198 -5Q162 -3 134 11Q105 25 89 60Q72 94 72 155L72 753Q72 764 83 764L155 764Q166 764 166 753L166 182Q166 124 179 101Q191 77 229 66Q240 64 235 54L214 5Q209 -5 198 -5Z"  horiz-adv-x="247" vert-adv-y="1000"  />
      <glyph glyph-name="m" unicode="&#x6d;" d="M85 0Q74 0 74 11L74 353Q74 389 68 415Q62 440 43 464Q36 472 45 478L88 504Q98 509 108 506Q122 499 135 484Q147 469 155 446Q193 474 239 495Q285 515 338 515Q391 515 426 497Q460 478 479 441Q518 469 568 492Q617 515 675 515Q768 515 805 459Q842 402 842 290L842 11Q842 0 831 0L759 0Q748 0 748 11L748 276Q748 362 725 397Q701 432 646 432Q606 432 568 417Q529 401 498 379Q502 360 504 339Q505 317 505 292L505 11Q505 0 494 0L422 0Q411 0 411 11L411 276Q411 362 388 397Q364 432 309 432Q272 432 235 418Q197 403 169 383L169 11Q169 0 158 0Z"  horiz-adv-x="912" vert-adv-y="1000"  />
      <glyph glyph-name="n" unicode="&#x6e;" d="M85 0Q74 0 74 11L74 353Q74 389 68 415Q62 440 43 464Q36 472 45 478L88 504Q98 509 108 506Q138 491 155 446Q195 473 244 494Q292 515 348 515Q446 515 485 457Q524 398 524 286L524 11Q524 0 513 0L440 0Q429 0 429 11L429 273Q429 359 404 396Q378 432 319 432Q278 432 239 418Q199 403 169 382L169 11Q169 0 158 0Z"  horiz-adv-x="593" vert-adv-y="1000"  />
      <glyph glyph-name="o" unicode="&#x6f;" d="M294 -10Q206 -10 152 25Q98 59 74 119Q50 178 50 252Q50 326 74 386Q98 445 152 480Q206 515 294 515Q383 515 437 480Q490 445 515 386Q539 326 539 252Q539 178 515 119Q490 59 437 25Q383 -10 294 -10ZM294 65Q374 65 408 117Q442 168 442 252Q442 337 408 389Q374 440 294 440Q215 440 181 389Q146 337 146 252Q146 168 181 117Q215 65 294 65Z"  horiz-adv-x="589" vert-adv-y="1000"  />
      <glyph glyph-name="p" unicode="&#x70;" d="M85 -250Q74 -250 74 -239L74 355Q74 392 68 418Q62 443 43 466Q36 475 45 480L88 507Q98 512 108 509Q120 502 132 489Q144 476 152 456Q181 481 220 498Q259 515 305 515Q403 515 459 454Q515 392 515 252Q515 132 458 61Q401 -10 285 -10Q251 -10 222 -3Q193 5 169 18L169 -239Q169 -250 158 -250ZM272 65Q420 65 420 251Q420 357 383 399Q345 440 280 440Q247 440 219 428Q190 416 169 399L169 96Q191 82 217 74Q243 65 272 65Z"  horiz-adv-x="565" vert-adv-y="1000"  />
      <glyph glyph-name="q" unicode="&#x71;" d="M407 -250Q396 -250 396 -239L396 18Q371 5 343 -3Q314 -10 280 -10Q164 -10 107 61Q50 132 50 252Q50 390 110 453Q169 515 268 515Q312 515 349 500Q386 484 415 461Q431 494 457 509Q467 512 477 507L520 480Q529 475 522 466Q503 443 497 418Q491 392 491 355L491 -239Q491 -250 480 -250ZM293 65Q352 65 396 94L396 399Q375 416 347 428Q318 440 285 440Q220 440 183 399Q145 357 145 251Q145 65 293 65Z"  horiz-adv-x="565" vert-adv-y="1000"  />
      <glyph glyph-name="r" unicode="&#x72;" d="M85 0Q74 0 74 11L74 353Q74 389 68 415Q62 440 43 464Q36 472 45 478L88 504Q99 510 108 505Q125 498 138 479Q151 460 159 435Q178 465 212 490Q246 515 301 515Q320 515 336 513Q351 510 362 508Q372 505 370 494L357 429Q353 418 343 421Q333 424 320 426Q307 428 292 428Q212 428 169 369L169 11Q169 0 158 0Z"  horiz-adv-x="381" vert-adv-y="1000"  />
      <glyph glyph-name="s" unicode="&#x73;" d="M196 -10Q150 -10 110 -3Q69 4 34 20Q23 24 27 35L43 90Q46 99 56 96Q91 80 126 72Q161 63 202 63Q318 63 318 141Q318 170 298 185Q278 200 247 209Q215 217 179 226Q143 235 112 250Q80 265 60 293Q40 321 40 369Q40 420 68 452Q95 484 141 500Q187 515 241 515Q286 515 325 508Q363 500 391 489Q402 485 398 474L383 423Q380 412 369 417Q342 428 310 435Q277 441 242 441Q193 441 163 425Q132 409 132 374Q132 346 152 331Q172 316 204 307Q236 298 272 289Q307 280 339 265Q371 250 391 223Q411 195 411 148Q411 80 360 35Q308 -10 196 -10Z"  horiz-adv-x="446" vert-adv-y="1000"  />
      <glyph glyph-name="t" unicode="&#x74;" d="M257 -10Q187 -10 151 16Q114 42 101 88Q88 134 88 193L88 434L10 434Q-1 434 -1 445L-1 494Q-1 505 10 505L88 505L88 659Q88 670 99 670L171 670Q182 670 182 659L182 505L332 505Q343 505 343 494L343 445Q343 434 332 434L182 434L182 195Q182 129 204 100Q225 71 271 71Q289 71 306 75Q323 78 338 84Q349 88 349 77L357 20Q359 9 348 5Q328 -2 305 -6Q281 -10 257 -10Z"  horiz-adv-x="376" vert-adv-y="1000"  />
      <glyph glyph-name="u" unicode="&#x75;" d="M245 -10Q148 -10 110 50Q71 109 71 221L71 494Q71 505 82 505L154 505Q165 505 165 494L165 232Q165 147 190 110Q214 73 273 73Q317 73 356 89Q395 105 426 129L426 494Q426 505 437 505L509 505Q520 505 520 494L520 150Q520 113 526 88Q532 62 551 39Q560 30 549 25L506 -2Q496 -7 486 -4Q472 4 459 20Q446 36 438 59Q398 32 350 11Q302 -10 245 -10Z"  horiz-adv-x="594" vert-adv-y="1000"  />
      <glyph glyph-name="v" unicode="&#x76;" d="M237 -5Q226 -5 221 5Q209 29 190 71Q170 112 146 165Q122 217 97 274Q72 330 49 384Q26 438 8 482Q5 493 15 494L91 509Q101 510 106 501Q132 432 164 354Q195 275 226 202Q236 180 245 158Q254 135 265 102L271 102Q282 135 291 158Q299 180 309 202Q341 275 372 354Q403 432 428 501Q433 511 443 509L512 495Q524 492 519 482Q501 438 479 384Q456 330 432 274Q407 217 384 165Q360 112 341 71Q321 29 309 5Q304 -5 292 -5Z"  horiz-adv-x="527" vert-adv-y="1000"  />
      <glyph glyph-name="w" unicode="&#x77;" d="M201 -5Q189 -5 186 5Q176 29 160 71Q143 113 123 166Q103 218 82 275Q61 331 42 385Q22 438 7 482Q4 492 15 494L89 509Q101 511 104 501Q126 432 152 353Q178 273 204 202Q212 180 220 158Q227 135 237 102L242 102Q251 135 259 158Q266 180 273 202Q299 275 325 354Q350 432 371 501Q374 511 385 511L435 511Q446 511 449 501Q470 432 496 354Q522 275 547 202Q555 180 562 158Q569 135 579 102L583 102Q593 135 601 158Q609 180 616 202Q643 274 669 353Q695 432 717 501Q720 511 731 509L799 495Q810 492 807 482Q792 438 773 385Q753 331 732 275Q710 218 691 166Q671 113 655 71Q638 29 628 5Q623 -5 612 -5L553 -5Q541 -5 538 5Q528 28 513 68Q498 108 481 158Q463 208 444 260Q437 283 430 306Q423 329 413 363L409 363Q399 329 392 306Q384 283 376 260Q358 208 340 158Q322 108 308 68Q293 28 283 5Q278 -5 267 -5Z"  horiz-adv-x="814" vert-adv-y="1000"  />
      <glyph glyph-name="x" unicode="&#x78;" d="M81 -7L12 10Q2 13 8 21Q31 51 64 93Q97 134 133 178Q169 222 198 257Q170 292 137 334Q104 375 73 415Q42 455 21 484Q14 491 24 495L98 512Q109 516 115 506Q145 466 181 417Q217 367 252 322Q287 367 323 417Q359 466 389 506Q395 516 406 512L474 495Q484 492 477 483Q455 455 424 416Q393 377 360 336Q327 294 299 260L488 21Q494 13 484 10L408 -7Q397 -11 391 -1Q359 43 321 95Q283 146 245 194Q208 146 169 95Q129 43 97 -1Q90 -11 81 -7Z"  horiz-adv-x="496" vert-adv-y="1000"  />
      <glyph glyph-name="y" unicode="&#x79;" d="M112 -261L63 -216Q54 -208 63 -201Q106 -163 147 -114Q187 -64 216 -9Q198 29 172 89Q146 149 116 220Q86 290 58 359Q29 428 8 482Q3 492 15 494L91 509Q102 511 105 501Q131 431 162 350Q192 269 223 194Q231 173 240 150Q249 126 260 92L266 92Q278 126 288 149Q297 172 305 194Q337 271 371 351Q404 431 429 501Q434 511 444 509L513 495Q525 492 520 482Q497 426 467 357Q437 288 406 219Q375 150 348 91Q321 31 304 -6Q271 -79 224 -147Q176 -215 128 -261Q120 -267 112 -261Z"  horiz-adv-x="528" vert-adv-y="1000"  />
      <glyph glyph-name="z" unicode="&#x7a;" d="M36 0Q25 0 23 11L20 41Q19 51 26 60Q45 81 66 106Q87 131 104 153L243 340Q262 366 281 390Q300 414 319 436L163 431L39 431Q28 431 28 442L28 494Q28 505 39 505L423 505Q433 505 435 494L439 463Q441 451 433 445Q393 400 356 352L216 166Q197 140 178 116Q158 92 139 69L314 74L429 74Q440 74 440 63L440 11Q440 0 429 0Z"  horiz-adv-x="469" vert-adv-y="1000"  />
      <glyph glyph-name="braceleft" unicode="&#x7b;" d="M253 -162Q183 -162 145 -120Q107 -78 107 -8Q107 41 118 89Q128 137 128 184Q128 225 115 245Q101 265 83 272Q64 278 49 278L41 278Q30 278 30 289L30 338Q30 349 41 349L49 349Q64 349 83 356Q101 362 115 382Q128 402 128 443Q128 490 118 538Q107 586 107 634Q107 705 145 747Q183 789 253 789L282 789Q293 789 293 778L293 722Q293 711 282 711L276 711Q204 711 204 622Q204 577 214 531Q224 484 224 436Q224 379 199 353Q173 326 138 315L138 312Q173 300 199 274Q224 247 224 191Q224 142 214 96Q204 50 204 4Q204 -84 276 -84L282 -84Q293 -84 293 -95L293 -151Q293 -162 282 -162Z"  horiz-adv-x="337" vert-adv-y="1000"  />
      <glyph glyph-name="bar" unicode="&#x7c;" d="M99 -192Q88 -192 88 -181L88 809Q88 820 99 820L170 820Q181 820 181 809L181 -181Q181 -192 170 -192Z"  horiz-adv-x="270" vert-adv-y="1000"  />
      <glyph glyph-name="braceright" unicode="&#x7d;" d="M84 -162L55 -162Q44 -162 44 -151L44 -95Q44 -84 55 -84L61 -84Q133 -84 133 4Q133 50 123 96Q113 142 113 191Q113 247 139 274Q164 300 199 312L199 315Q164 326 139 353Q113 379 113 436Q113 484 123 531Q133 577 133 622Q133 711 61 711L55 711Q44 711 44 722L44 778Q44 789 55 789L84 789Q154 789 192 747Q230 705 230 634Q230 586 220 538Q209 490 209 443Q209 402 223 382Q236 362 255 356Q274 349 288 349L296 349Q307 349 307 338L307 289Q307 278 296 278L288 278Q274 278 255 272Q236 265 223 245Q209 225 209 184Q209 137 220 89Q230 41 230 -8Q230 -78 192 -120Q154 -162 84 -162Z"  horiz-adv-x="337" vert-adv-y="1000"  />
      <glyph glyph-name="asciitilde" unicode="&#x7e;" d="M85 222Q74 222 74 233Q77 298 112 339Q147 380 211 380Q243 380 271 371Q299 361 331 346Q362 331 391 318Q419 305 445 305Q507 305 514 372Q516 383 526 383L580 383Q591 383 591 372Q589 307 554 266Q519 225 455 225Q423 225 395 235Q367 244 335 260Q304 275 276 288Q247 300 221 300Q158 300 151 233Q149 222 139 222Z"  horiz-adv-x="668" vert-adv-y="1000"  />
      <glyph glyph-name="nbspace" unicode="&#xa0;" d=""  horiz-adv-x="308" vert-adv-y="1000"  />
      <glyph glyph-name="exclamdown" unicode="&#xa1;" d="M168 -208L90 -208Q79 -208 79 -197L101 291Q101 302 112 302L146 302Q157 302 157 291L179 -197Q179 -208 168 -208ZM129 405Q106 405 90 421Q74 437 74 460Q74 483 90 499Q106 515 129 515Q152 515 168 499Q184 483 184 460Q184 437 168 421Q152 405 129 405Z"  horiz-adv-x="298" vert-adv-y="1000"  />
      <glyph glyph-name="cent" unicode="&#xa2;" d="M300 -30Q289 -30 289 -19L289 91Q220 99 178 135Q135 171 115 227Q95 283 95 351Q95 418 116 474Q136 529 179 566Q222 603 289 611L289 723Q289 734 300 734L355 734Q366 734 366 723L366 612Q442 606 494 574Q503 568 498 558L474 507Q470 496 461 503Q438 517 407 526Q375 535 341 535Q284 535 251 508Q218 481 205 439Q191 397 191 351Q191 306 205 264Q219 222 252 195Q285 168 341 168Q376 168 408 177Q439 186 462 200Q471 206 475 197L497 146Q499 142 498 137Q497 132 493 130Q444 99 366 91L366 -19Q366 -30 355 -30Z"  horiz-adv-x="600" vert-adv-y="1000"  />
      <glyph glyph-name="sterling" unicode="&#xa3;" d="M52 0Q41 0 41 11L41 72Q41 83 52 83L97 83Q128 128 142 178Q155 228 160 279L93 279Q82 279 82 290L82 352Q82 363 93 363L164 363Q165 396 166 428Q166 460 168 491Q172 553 192 604Q211 654 258 684Q305 713 390 713Q434 713 473 706Q512 698 541 686Q552 681 547 671L529 613Q526 603 515 607Q490 618 462 625Q433 632 398 632Q345 632 316 612Q287 591 275 555Q263 519 260 470Q258 443 258 417Q257 390 256 363L436 363Q447 363 447 352L447 290Q447 279 436 279L252 279Q248 230 235 182Q221 133 191 83L531 83Q542 83 542 72L542 11Q542 0 531 0Z"  horiz-adv-x="600" vert-adv-y="1000"  />
      <glyph glyph-name="currency" unicode="&#xa4;" d="M89 109L51 146Q44 154 51 161L130 241Q112 266 104 295Q95 323 95 351Q95 380 104 409Q112 437 130 462L51 541Q44 549 51 556L89 594Q97 602 105 594L183 516Q233 551 294 551Q323 551 351 542Q379 533 404 515L484 594Q492 602 500 594L537 556Q545 549 537 541L459 462Q494 412 494 351Q494 323 485 294Q476 265 459 240L537 161Q545 154 537 146L500 109Q492 101 484 109L404 187Q379 169 351 161Q323 153 294 153Q264 153 236 161Q208 169 183 187L105 109Q97 101 89 109ZM295 221Q347 221 387 258Q406 278 416 303Q425 328 425 353Q425 378 416 402Q407 425 388 444Q347 482 295 482Q270 482 245 473Q220 463 201 444Q182 425 173 401Q163 377 163 352Q163 327 173 303Q183 278 202 258Q241 221 295 221Z"  horiz-adv-x="588" vert-adv-y="1000"  />
      <glyph glyph-name="yen" unicode="&#xa5;" d="M256 0Q245 0 245 11L245 165L73 165Q62 165 62 176L62 223Q62 234 73 234L245 234L245 285Q230 309 215 336L73 336Q62 336 62 347L62 394Q62 405 73 405L177 405Q139 475 102 547Q64 618 32 681Q27 691 38 693L113 707Q124 709 129 699Q154 648 184 591Q213 533 241 481Q255 456 269 429Q282 402 298 368L303 368Q333 433 364 484Q393 535 425 594Q457 652 483 699Q487 709 499 706L562 691Q573 687 568 678Q535 618 495 546Q455 474 414 405L516 405Q527 405 527 394L527 347Q527 336 516 336L374 336L345 289L345 234L516 234Q527 234 527 223L527 176Q527 165 516 165L345 165L345 11Q345 0 334 0Z"  horiz-adv-x="600" vert-adv-y="1000"  />
      <glyph glyph-name="brokenbar" unicode="&#xa6;" d="M99 -192Q88 -192 88 -181L88 230Q88 241 99 241L170 241Q181 241 181 230L181 -181Q181 -192 170 -192ZM99 387Q88 387 88 398L88 809Q88 820 99 820L170 820Q181 820 181 809L181 398Q181 387 170 387Z"  horiz-adv-x="270" vert-adv-y="1000"  />
      <glyph glyph-name="section" unicode="&#xa7;" d="M239 -86Q194 -86 154 -79Q113 -72 78 -56Q67 -52 71 -41L87 14Q90 23 100 20Q135 4 170 -5Q204 -13 245 -13Q362 -13 362 66Q362 98 342 117Q321 135 288 147Q255 159 219 171Q182 182 149 199Q116 216 96 245Q75 274 75 321Q75 362 96 396Q116 429 148 453Q126 472 112 499Q98 526 98 566Q98 617 126 650Q153 682 199 698Q245 713 299 713Q343 713 382 706Q421 698 449 687Q460 683 456 672L440 621Q437 611 427 614Q400 625 367 632Q334 639 299 639Q250 639 220 623Q190 606 190 571Q190 540 211 522Q231 503 264 491Q297 479 334 468Q370 456 403 439Q436 422 457 393Q477 364 477 317Q477 275 456 242Q434 208 402 184Q425 165 440 139Q454 112 454 72Q454 3 402 -42Q350 -86 239 -86ZM328 223Q354 238 370 259Q385 280 385 308Q385 342 361 360Q336 377 299 389Q261 400 222 414Q196 398 182 377Q167 356 167 330Q167 297 191 279Q215 261 253 249Q290 237 328 223Z"  horiz-adv-x="550" vert-adv-y="1000"  />
      <glyph glyph-name="dieresis" unicode="&#xa8;" d="M178 607Q155 607 139 623Q123 639 123 661Q123 684 139 700Q155 715 178 715Q201 715 217 700Q232 684 232 661Q232 639 217 623Q201 607 178 607ZM363 607Q341 607 325 623Q309 639 309 661Q309 684 325 700Q341 715 363 715Q386 715 402 700Q418 684 418 661Q418 639 402 623Q386 607 363 607Z"  horiz-adv-x="541" vert-adv-y="1000"  />
      <glyph glyph-name="copyright" unicode="&#xa9;" d="M434 -10Q353 -10 286 17Q219 43 170 92Q121 140 94 206Q67 272 67 351Q67 456 114 538Q161 620 244 667Q326 713 434 713Q515 713 583 686Q650 659 699 611Q748 562 775 496Q802 430 802 351Q802 272 775 206Q748 140 699 92Q649 43 582 17Q515 -10 434 -10ZM434 53Q522 53 590 92Q658 130 697 198Q736 265 736 351Q736 438 698 505Q659 572 591 611Q523 649 434 649Q345 649 277 611Q209 572 171 505Q133 438 133 351Q133 265 172 198Q210 130 278 92Q346 53 434 53ZM438 150Q376 150 338 177Q299 203 281 248Q263 293 263 349Q263 405 282 450Q300 495 339 522Q378 549 439 549Q515 549 565 518Q572 515 568 506L550 468Q546 459 540 464Q523 475 499 482Q475 489 449 489Q406 489 381 469Q356 448 346 416Q336 384 336 349Q336 315 347 283Q357 251 382 231Q407 210 449 210Q475 210 499 217Q523 224 541 235Q547 240 551 232L567 194Q569 191 568 188Q567 184 564 182Q543 168 508 159Q473 150 438 150Z"  horiz-adv-x="881" vert-adv-y="1000"  />
      <glyph glyph-name="ordfeminine" unicode="&#xaa;" d="M166 291Q119 291 85 316Q50 340 50 394Q50 497 195 497Q209 497 228 495Q246 493 265 491L265 514Q265 555 249 574Q232 593 191 593Q163 593 136 585Q109 576 86 562Q77 556 72 566L61 599Q56 608 66 614Q94 630 128 639Q161 648 202 648Q277 648 304 615Q331 582 331 511L331 400Q331 378 335 361Q338 344 351 327Q358 320 349 314L323 299Q312 294 303 298Q296 303 289 311Q282 318 277 328Q258 312 231 302Q203 291 166 291ZM184 341Q232 341 265 372L265 445Q229 451 203 451Q156 451 135 436Q114 421 114 396Q114 368 134 355Q153 341 184 341Z"  horiz-adv-x="390" vert-adv-y="1000"  />
      <glyph glyph-name="guillemotleft" unicode="&#xab;" d="M227 57Q218 50 211 59L49 244Q41 253 49 261L211 446Q218 457 227 448L275 414Q283 408 276 399L149 253L276 107Q282 98 275 91ZM431 57Q422 50 415 59L253 244Q245 253 253 261L415 446Q422 457 431 448L479 414Q487 408 480 399L353 253L480 107Q486 98 479 91Z"  horiz-adv-x="520" vert-adv-y="1000"  />
      <glyph glyph-name="logicalnot" unicode="&#xac;" d="M499 125Q488 125 488 136L488 315L67 315Q56 315 56 326L56 382Q56 393 67 393L554 393Q565 393 565 382L565 136Q565 125 554 125Z"  horiz-adv-x="622" vert-adv-y="1000"  />
      <glyph glyph-name="uni00AD" unicode="&#xad;" d="M96 246Q85 246 85 257L85 309Q85 320 96 320L415 320Q426 320 426 309L426 257Q426 246 415 246Z"  horiz-adv-x="511" vert-adv-y="1000"  />
      <glyph glyph-name="registered" unicode="&#xae;" d="M249 395Q194 395 151 419Q107 443 82 485Q57 526 57 578Q57 631 82 673Q107 715 151 740Q194 764 249 764Q304 764 348 740Q391 715 416 673Q441 631 441 578Q441 526 416 485Q391 443 348 419Q304 395 249 395ZM299 484Q286 503 272 524Q257 545 244 561L218 561L218 487L170 487L170 675Q186 679 203 680Q220 681 238 681Q279 681 303 667Q326 653 326 621Q326 587 290 570Q303 555 322 531Q340 507 350 493ZM249 433Q291 433 324 452Q357 471 377 504Q396 537 396 578Q396 620 377 654Q357 687 324 707Q291 726 249 726Q209 726 176 707Q143 687 124 654Q105 620 105 578Q105 537 124 504Q143 471 176 452Q209 433 249 433ZM242 597Q278 597 278 621Q278 646 241 646Q236 646 231 646Q226 646 218 644L218 598Q226 597 231 597Q235 597 242 597Z"  horiz-adv-x="499" vert-adv-y="1000"  />
      <glyph glyph-name="macron" unicode="&#xaf;" d="M141 612Q130 612 130 623L130 683Q130 694 141 694L368 694Q379 694 379 683L379 623Q379 612 368 612Z"  horiz-adv-x="508" vert-adv-y="1000"  />
      <glyph glyph-name="degree" unicode="&#xb0;" d="M228 393Q180 393 143 413Q105 433 84 469Q62 505 62 552Q62 599 84 636Q105 672 143 693Q180 713 228 713Q275 713 312 693Q349 672 370 636Q391 600 391 552Q391 506 370 470Q349 434 312 414Q275 393 228 393ZM228 458Q267 458 293 485Q319 511 319 552Q319 595 294 621Q268 647 228 647Q187 647 161 621Q134 594 134 552Q134 510 160 484Q186 458 228 458Z"  horiz-adv-x="466" vert-adv-y="1000"  />
      <glyph glyph-name="plusminus" unicode="&#xb1;" d="M271 158Q260 158 260 169L260 377L52 377Q41 377 41 388L41 446Q41 457 52 457L260 457L260 664Q260 675 271 675L329 675Q340 675 340 664L340 457L547 457Q558 457 558 446L558 388Q558 377 547 377L340 377L340 169Q340 158 329 158ZM52 0Q41 0 41 11L41 69Q41 80 52 80L547 80Q558 80 558 69L558 11Q558 0 547 0Z"  horiz-adv-x="600" vert-adv-y="1000"  />
      <glyph glyph-name="twosuperior" unicode="&#xb2;" d="M72 288Q61 288 61 299L61 322Q61 363 77 392Q93 420 118 440Q143 460 171 476Q198 491 223 506Q248 520 264 539Q280 558 280 584Q280 613 262 632Q244 651 205 651Q171 651 145 640Q118 628 94 611Q86 604 79 614L59 649Q52 660 62 665Q94 688 131 701Q167 713 211 713Q286 713 321 679Q356 644 356 588Q356 550 337 524Q318 497 289 478Q260 458 229 440Q197 422 172 401Q147 380 137 351L349 351Q360 351 360 340L360 299Q360 288 349 288Z"  horiz-adv-x="413" vert-adv-y="1000"  />
      <glyph glyph-name="threesuperior" unicode="&#xb3;" d="M178 282Q112 282 59 311Q49 318 54 327L74 367Q78 376 88 371Q111 356 132 350Q153 344 176 344Q220 344 243 363Q265 381 265 412Q265 442 244 460Q223 477 177 477L135 477Q124 477 124 488L124 522Q124 533 135 533L174 533Q216 533 239 548Q262 563 262 594Q262 620 245 636Q227 652 189 652Q147 652 100 628Q90 622 85 632L65 665Q61 675 69 681Q98 698 131 706Q163 713 194 713Q267 713 300 681Q333 649 333 602Q333 537 262 506Q342 480 342 405Q342 356 301 319Q259 282 178 282Z"  horiz-adv-x="394" vert-adv-y="1000"  />
      <glyph glyph-name="acute" unicode="&#xb4;" d="M144 574Q133 574 139 583Q170 628 204 675Q237 721 271 764Q278 773 288 773L367 773Q377 773 372 764Q332 718 295 672Q258 626 225 583Q219 574 208 574Z"  horiz-adv-x="506" vert-adv-y="1000"  />
      <glyph glyph-name="mu" unicode="&#xb5;" d="M84 -232Q73 -232 73 -221L73 494Q73 505 84 505L157 505Q168 505 168 494L168 232Q168 147 192 110Q216 73 275 73Q320 73 359 89Q397 105 428 129L428 494Q428 505 439 505L512 505Q523 505 523 494L523 150Q523 113 529 88Q535 62 554 39Q561 30 552 25L509 -2Q499 -7 489 -4Q475 4 462 20Q448 35 440 59Q400 32 352 11Q304 -10 248 -10Q223 -10 203 -6Q183 -1 167 6L167 -221Q167 -232 156 -232Z"  horiz-adv-x="597" vert-adv-y="1000"  />
      <glyph glyph-name="paragraph" unicode="&#xb6;" d="M280 -146Q269 -146 269 -135L269 322Q208 323 160 349Q111 374 83 417Q54 459 54 511Q54 577 88 620Q121 662 179 683Q236 703 309 703L618 703Q629 703 629 692L629 640Q629 629 618 629L556 629L556 -135Q556 -146 545 -146L478 -146Q467 -146 467 -135L467 629L358 629L358 -135Q358 -146 347 -146Z"  horiz-adv-x="698" vert-adv-y="1000"  />
      <glyph glyph-name="periodcentered" unicode="&#xb7;" d="M132 207Q109 207 93 223Q76 239 76 262Q76 285 93 301Q109 317 132 317Q155 317 171 301Q187 285 187 262Q187 239 171 223Q155 207 132 207Z"  horiz-adv-x="258" vert-adv-y="1000"  />
      <glyph glyph-name="cedilla" unicode="&#xb8;" d="M237 -201Q202 -201 176 -195Q166 -192 169 -182L180 -149Q184 -138 194 -141Q205 -144 215 -145Q224 -146 235 -146Q281 -146 281 -116Q281 -81 215 -72Q204 -70 207 -60L225 0L276 0L264 -39Q310 -46 334 -65Q358 -83 358 -120Q358 -156 328 -179Q298 -201 237 -201Z"  horiz-adv-x="506" vert-adv-y="1000"  />
      <glyph glyph-name="onesuperior" unicode="&#xb9;" d="M191 288Q180 288 180 299L180 626L63 563Q53 556 53 568L53 618Q53 629 63 634L190 705Q200 710 211 710L247 710Q258 710 258 699L258 299Q258 288 247 288Z"  horiz-adv-x="394" vert-adv-y="1000"  />
      <glyph glyph-name="ordmasculine" unicode="&#xba;" d="M218 291Q159 291 122 315Q85 338 69 379Q52 419 52 469Q52 520 69 561Q85 601 122 625Q159 648 218 648Q278 648 315 625Q351 601 368 561Q384 520 384 469Q384 419 368 379Q351 338 315 315Q278 291 218 291ZM218 346Q271 346 293 380Q315 414 315 469Q315 526 293 560Q271 593 218 593Q165 593 144 560Q122 526 122 469Q122 414 144 380Q165 346 218 346Z"  horiz-adv-x="437" vert-adv-y="1000"  />
      <glyph glyph-name="guillemotright" unicode="&#xbb;" d="M88 57L41 91Q33 98 39 107L167 253L39 399Q32 408 41 414L88 448Q97 456 104 446L267 261Q274 253 267 244L104 59Q97 51 88 57ZM292 57L245 91Q237 98 243 107L371 253L243 399Q236 408 245 414L292 448Q301 456 308 446L471 261Q478 253 471 244L308 59Q301 51 292 57Z"  horiz-adv-x="520" vert-adv-y="1000"  />
      <glyph glyph-name="onequarter" unicode="&#xbc;" d="M213 -3Q209 -3 207 0Q205 3 207 7L494 703Q499 713 510 713L568 713Q579 713 574 703L287 7Q283 -3 272 -3ZM191 288Q180 288 180 299L180 626L63 563Q53 556 53 568L53 618Q53 629 63 634L190 705Q200 710 211 710L247 710Q258 710 258 699L258 299Q258 288 247 288ZM617 0Q606 0 606 11L606 107L436 107Q425 107 425 118L425 149Q425 162 432 169L595 410Q603 419 613 419L671 419Q682 419 682 408L682 167L744 167Q755 167 755 156L755 118Q755 107 744 107L682 107L682 11Q682 0 671 0ZM502 167L606 167L606 318Z"  horiz-adv-x="806" vert-adv-y="1000"  />
      <glyph glyph-name="onehalf" unicode="&#xbd;" d="M207 -3Q203 -3 201 0Q199 3 201 7L488 703Q491 713 503 713L562 713Q573 713 568 703L281 7Q275 -3 265 -3ZM191 288Q180 288 180 299L180 626L63 563Q53 556 53 568L53 618Q53 630 63 634L190 705Q200 710 211 710L247 710Q258 710 258 699L258 299Q258 288 247 288ZM510 0Q499 0 499 11L499 34Q499 75 515 104Q531 132 556 152Q581 172 609 188Q636 203 661 218Q686 232 702 251Q718 270 718 296Q718 325 700 344Q682 363 643 363Q609 363 583 352Q556 340 532 323Q524 316 517 326L497 361Q490 372 499 377Q531 400 568 413Q604 425 649 425Q724 425 759 391Q794 356 794 300Q794 262 775 236Q756 209 727 190Q698 170 667 152Q635 134 610 113Q585 92 575 63L787 63Q798 63 798 52L798 11Q798 0 787 0Z"  horiz-adv-x="850" vert-adv-y="1000"  />
      <glyph glyph-name="threequarters" unicode="&#xbe;" d="M261 -3Q250 -3 254 7L542 703Q545 713 557 713L616 713Q627 713 622 703L335 7Q329 -3 319 -3ZM178 282Q112 282 59 311Q49 318 54 327L74 367Q78 376 88 371Q111 356 132 350Q153 344 176 344Q220 344 243 363Q265 381 265 412Q265 442 244 460Q223 477 177 477L135 477Q124 477 124 488L124 522Q124 533 135 533L174 533Q216 533 239 548Q262 563 262 594Q262 620 245 636Q227 652 189 652Q147 652 100 628Q90 622 85 632L65 665Q61 675 69 681Q98 698 131 706Q163 713 194 713Q267 713 300 681Q333 649 333 602Q333 537 262 506Q342 480 342 405Q342 356 301 319Q259 282 178 282ZM663 0Q652 0 652 11L652 107L483 107Q472 107 472 118L472 149Q472 162 478 169L642 410Q648 419 659 419L718 419Q729 419 729 408L729 167L790 167Q801 167 801 156L801 118Q801 107 790 107L729 107L729 11Q729 0 718 0ZM549 167L652 167L652 318Z"  horiz-adv-x="847" vert-adv-y="1000"  />
      <glyph glyph-name="questiondown" unicode="&#xbf;" d="M255 -208Q169 -208 117 -164Q65 -120 65 -37Q65 9 82 40Q99 71 125 94Q151 117 177 137Q203 156 226 176Q248 196 262 224Q276 251 274 291Q272 302 284 302L317 302Q327 302 332 292Q337 276 340 263Q343 249 343 236Q343 190 317 159Q290 128 254 100Q231 82 209 64Q186 46 172 24Q157 1 157 -29Q157 -75 187 -102Q216 -128 268 -128Q306 -128 342 -116Q378 -103 413 -76Q422 -69 426 -80L449 -136Q453 -147 444 -153Q399 -183 352 -196Q305 -208 255 -208ZM304 405Q281 405 265 421Q248 437 248 460Q248 483 265 499Q281 515 304 515Q327 515 343 499Q358 483 358 460Q358 437 343 421Q327 405 304 405Z"  horiz-adv-x="507" vert-adv-y="1000"  />
      <glyph glyph-name="Agrave" unicode="&#xc0;" d="M547 -5Q538 -7 533 3L472 177L166 177L101 3Q98 -7 87 -4L15 11Q11 12 9 16Q7 19 9 23Q39 101 73 190Q107 278 142 369Q177 459 211 544Q244 628 272 698Q275 708 287 708L360 708Q370 708 375 698Q414 600 459 485Q503 370 548 252Q592 134 631 25Q634 15 624 12ZM193 258L443 258Q423 314 402 370Q381 425 361 479Q351 506 342 537Q332 568 324 599L318 599Q310 567 299 536Q288 504 278 478Q277 475 268 453Q259 431 247 400Q235 368 223 337Q211 306 203 284Q194 262 193 258ZM367 769Q356 769 350 778Q317 821 280 867Q243 913 203 959Q198 968 208 968L287 968Q297 968 304 959Q338 916 372 870Q405 823 436 778Q442 769 431 769Z"  horiz-adv-x="640" vert-adv-y="1000"  />
      <glyph glyph-name="Aacute" unicode="&#xc1;" d="M547 -5Q538 -7 533 3L472 177L166 177L101 3Q98 -7 87 -4L15 11Q11 12 9 16Q7 19 9 23Q39 101 73 190Q107 278 142 369Q177 459 211 544Q244 628 272 698Q275 708 287 708L360 708Q370 708 375 698Q414 600 459 485Q503 370 548 252Q592 134 631 25Q634 15 624 12ZM193 258L443 258Q423 314 402 370Q381 425 361 479Q351 506 342 537Q332 568 324 599L318 599Q310 567 299 536Q288 504 278 478Q277 475 268 453Q259 431 247 400Q235 368 223 337Q211 306 203 284Q194 262 193 258ZM208 769Q197 769 203 778Q234 823 268 870Q301 916 335 959Q342 968 352 968L431 968Q441 968 436 959Q396 913 359 867Q322 821 289 778Q283 769 272 769Z"  horiz-adv-x="640" vert-adv-y="1000"  />
      <glyph glyph-name="Acircumflex" unicode="&#xc2;" d="M547 -5Q538 -7 533 3L472 177L166 177L101 3Q98 -7 87 -4L15 11Q11 12 9 16Q7 19 9 23Q39 101 73 190Q107 278 142 369Q177 459 211 544Q244 628 272 698Q275 708 287 708L360 708Q370 708 375 698Q414 600 459 485Q503 370 548 252Q592 134 631 25Q634 15 624 12ZM193 258L443 258Q423 314 402 370Q381 425 361 479Q351 506 342 537Q332 568 324 599L318 599Q310 567 299 536Q288 504 278 478Q277 475 268 453Q259 431 247 400Q235 368 223 337Q211 306 203 284Q194 262 193 258ZM154 769Q143 769 149 778Q181 823 216 872Q250 920 284 963Q290 971 302 971L336 971Q348 971 354 963Q388 920 423 872Q458 823 489 778Q495 769 485 769L421 769Q409 769 403 778Q384 804 363 831Q341 858 319 884Q297 858 276 831Q255 804 235 778Q229 769 218 769Z"  horiz-adv-x="640" vert-adv-y="1000"  />
      <glyph glyph-name="Atilde" unicode="&#xc3;" d="M547 -5Q538 -7 533 3L472 177L166 177L101 3Q98 -7 87 -4L15 11Q11 12 9 16Q7 19 9 23Q39 101 73 190Q107 278 142 369Q177 459 211 544Q244 628 272 698Q275 708 287 708L360 708Q370 708 375 698Q414 600 459 485Q503 370 548 252Q592 134 631 25Q634 15 624 12ZM193 258L443 258Q423 314 402 370Q381 425 361 479Q351 506 342 537Q332 568 324 599L318 599Q310 567 299 536Q288 504 278 478Q277 475 268 453Q259 431 247 400Q235 368 223 337Q211 306 203 284Q194 262 193 258ZM382 787Q361 787 345 797Q328 807 313 818Q299 829 286 839Q272 848 259 848Q243 848 234 835Q225 821 218 800Q214 789 206 796L171 823Q161 829 165 840Q176 883 202 907Q227 931 258 931Q279 931 296 921Q313 911 328 900Q342 889 355 880Q368 870 381 870Q397 870 406 884Q415 897 422 918Q425 928 434 922L468 895Q477 889 475 878Q465 835 439 811Q413 787 382 787Z"  horiz-adv-x="640" vert-adv-y="1000"  />
      <glyph glyph-name="Adieresis" unicode="&#xc4;" d="M547 -5Q538 -7 533 3L472 177L166 177L101 3Q98 -7 87 -4L15 11Q11 12 9 16Q7 19 9 23Q39 101 73 190Q107 278 142 369Q177 459 211 544Q244 628 272 698Q275 708 287 708L360 708Q370 708 375 698Q414 600 459 485Q503 370 548 252Q592 134 631 25Q634 15 624 12ZM193 258L443 258Q423 314 402 370Q381 425 361 479Q351 506 342 537Q332 568 324 599L318 599Q310 567 299 536Q288 504 278 478Q277 475 268 453Q259 431 247 400Q235 368 223 337Q211 306 203 284Q194 262 193 258ZM228 799Q205 799 189 815Q173 831 173 853Q173 876 189 892Q205 907 228 907Q251 907 267 892Q282 876 282 853Q282 831 267 815Q251 799 228 799ZM413 799Q391 799 375 815Q359 831 359 853Q359 876 375 892Q391 907 413 907Q436 907 452 892Q468 876 468 853Q468 831 452 815Q436 799 413 799Z"  horiz-adv-x="640" vert-adv-y="1000"  />
      <glyph glyph-name="Aring" unicode="&#xc5;" d="M547 -5Q538 -7 533 3L472 177L166 177L101 3Q98 -7 87 -4L15 11Q11 12 9 16Q7 19 9 23Q39 101 73 190Q107 278 142 369Q177 459 211 544Q244 628 272 698Q275 708 287 708L360 708Q370 708 375 698Q414 600 459 485Q503 370 548 252Q592 134 631 25Q634 15 624 12ZM193 258L443 258Q423 314 402 370Q381 425 361 479Q351 506 342 537Q332 568 324 599L318 599Q310 567 299 536Q288 504 278 478Q277 475 268 453Q259 431 247 400Q235 368 223 337Q211 306 203 284Q194 262 193 258ZM322 774Q271 774 239 808Q207 841 207 888Q207 935 239 969Q271 1002 322 1002Q373 1002 405 969Q437 935 437 888Q437 841 405 808Q373 774 322 774ZM322 829Q348 829 365 847Q381 864 381 888Q381 911 365 929Q348 947 322 947Q297 947 280 929Q263 911 263 888Q263 864 280 847Q297 829 322 829Z"  horiz-adv-x="640" vert-adv-y="1000"  />
      <glyph glyph-name="AE" unicode="&#xc6;" d="M84 -4L12 11Q8 12 7 15Q5 18 8 22Q56 99 111 187Q166 275 224 366Q281 456 335 540Q389 624 435 694Q444 703 453 703L923 703Q934 703 934 692L934 627Q934 616 923 616L575 616L575 401L889 401Q900 401 900 390L900 326Q900 315 889 315L575 315L575 87L930 87Q941 87 941 76L941 11Q941 0 930 0L486 0Q475 0 475 11L475 177L209 177L99 2Q94 -8 84 -4ZM257 258L475 258L475 599L470 599Q454 567 435 536Q416 504 399 478Q364 425 328 370Q292 314 257 258Z"  horiz-adv-x="989" vert-adv-y="1000"  />
      <glyph glyph-name="Ccedilla" unicode="&#xc7;" d="M342 -201Q307 -201 281 -195Q271 -192 274 -182L285 -149Q289 -138 299 -141Q310 -144 320 -145Q329 -146 340 -146Q386 -146 386 -116Q386 -81 320 -72Q309 -70 312 -60L327 -9Q228 -3 169 44Q109 91 83 170Q56 249 56 351Q56 460 89 541Q122 622 192 668Q262 713 372 713Q434 713 479 701Q523 688 557 669Q568 664 564 653L544 586Q541 575 531 581Q491 604 453 615Q414 625 372 625Q156 625 156 351Q156 215 211 147Q265 78 366 78Q413 78 456 91Q499 104 536 127Q545 134 550 123L574 65Q579 54 571 49Q533 23 482 8Q430 -7 378 -9L369 -39Q415 -46 439 -65Q463 -83 463 -120Q463 -156 433 -179Q403 -201 342 -201Z"  horiz-adv-x="606" vert-adv-y="1000"  />
      <glyph glyph-name="Egrave" unicode="&#xc8;" d="M89 0Q78 0 78 11L78 692Q78 703 89 703L525 703Q536 703 536 692L536 627Q536 616 525 616L178 616L178 401L491 401Q502 401 502 390L502 326Q502 315 491 315L178 315L178 87L533 87Q544 87 544 76L544 11Q544 0 533 0ZM343 769Q332 769 326 778Q293 821 256 867Q219 913 179 959Q174 968 184 968L263 968Q273 968 280 959Q314 916 348 870Q381 823 412 778Q418 769 407 769Z"  horiz-adv-x="592" vert-adv-y="1000"  />
      <glyph glyph-name="Eacute" unicode="&#xc9;" d="M89 0Q78 0 78 11L78 692Q78 703 89 703L525 703Q536 703 536 692L536 627Q536 616 525 616L178 616L178 401L491 401Q502 401 502 390L502 326Q502 315 491 315L178 315L178 87L533 87Q544 87 544 76L544 11Q544 0 533 0ZM208 766Q197 766 203 775Q234 820 268 867Q301 913 335 956Q342 965 352 965L431 965Q441 965 436 956Q396 910 359 864Q322 818 289 775Q283 766 272 766Z"  horiz-adv-x="592" vert-adv-y="1000"  />
      <glyph glyph-name="Ecircumflex" unicode="&#xca;" d="M89 0Q78 0 78 11L78 692Q78 703 89 703L525 703Q536 703 536 692L536 627Q536 616 525 616L178 616L178 401L491 401Q502 401 502 390L502 326Q502 315 491 315L178 315L178 87L533 87Q544 87 544 76L544 11Q544 0 533 0ZM130 769Q119 769 125 778Q157 823 192 872Q226 920 260 963Q266 971 278 971L312 971Q324 971 330 963Q364 920 399 872Q434 823 465 778Q471 769 461 769L397 769Q385 769 379 778Q360 804 339 831Q317 858 295 884Q273 858 252 831Q231 804 211 778Q205 769 194 769Z"  horiz-adv-x="592" vert-adv-y="1000"  />
      <glyph glyph-name="Edieresis" unicode="&#xcb;" d="M89 0Q78 0 78 11L78 692Q78 703 89 703L525 703Q536 703 536 692L536 627Q536 616 525 616L178 616L178 401L491 401Q502 401 502 390L502 326Q502 315 491 315L178 315L178 87L533 87Q544 87 544 76L544 11Q544 0 533 0ZM203 802Q180 802 164 818Q148 834 148 856Q148 879 164 895Q180 910 203 910Q226 910 242 895Q257 879 257 856Q257 834 242 818Q226 802 203 802ZM388 802Q366 802 350 818Q334 834 334 856Q334 879 350 895Q366 910 388 910Q411 910 427 895Q443 879 443 856Q443 834 427 818Q411 802 388 802Z"  horiz-adv-x="592" vert-adv-y="1000"  />
      <glyph glyph-name="Igrave" unicode="&#xcc;" d="M89 0Q78 0 78 11L78 692Q78 703 89 703L167 703Q178 703 178 692L178 11Q178 0 167 0ZM175 769Q164 769 158 778Q125 821 88 867Q51 913 11 959Q6 968 16 968L95 968Q105 968 112 959Q146 916 180 870Q213 823 244 778Q250 769 239 769Z"  horiz-adv-x="256" vert-adv-y="1000"  />
      <glyph glyph-name="Iacute" unicode="&#xcd;" d="M89 0Q78 0 78 11L78 692Q78 703 89 703L167 703Q178 703 178 692L178 11Q178 0 167 0ZM16 769Q5 769 11 778Q42 823 76 870Q109 916 143 959Q150 968 160 968L239 968Q249 968 244 959Q204 913 167 867Q130 821 97 778Q91 769 80 769Z"  horiz-adv-x="256" vert-adv-y="1000"  />
      <glyph glyph-name="Icircumflex" unicode="&#xce;" d="M89 0Q78 0 78 11L78 692Q78 703 89 703L167 703Q178 703 178 692L178 11Q178 0 167 0ZM-37 769Q-48 769 -42 778Q-10 823 25 872Q59 920 93 963Q99 971 111 971L145 971Q157 971 163 963Q197 920 232 872Q267 823 298 778Q304 769 294 769L230 769Q218 769 212 778Q193 804 172 831Q150 858 128 884Q106 858 85 831Q64 804 44 778Q38 769 27 769Z"  horiz-adv-x="256" vert-adv-y="1000"  />
      <glyph glyph-name="Idieresis" unicode="&#xcf;" d="M89 0Q78 0 78 11L78 692Q78 703 89 703L167 703Q178 703 178 692L178 11Q178 0 167 0ZM35 802Q12 802 -4 818Q-20 834 -20 856Q-20 879 -4 895Q12 910 35 910Q58 910 74 895Q89 879 89 856Q89 834 74 818Q58 802 35 802ZM220 802Q198 802 182 818Q166 834 166 856Q166 879 182 895Q198 910 220 910Q243 910 259 895Q275 879 275 856Q275 834 259 818Q243 802 220 802Z"  horiz-adv-x="256" vert-adv-y="1000"  />
      <glyph glyph-name="Eth" unicode="&#xd0;" d="M271 -10Q218 -10 174 -6Q129 -2 89 5Q78 7 78 18L78 311L2 311Q-9 311 -9 322L-9 380Q-9 391 2 391L78 391L78 685Q78 696 89 698Q129 706 176 710Q222 713 271 713Q464 713 549 620Q633 527 633 351Q633 177 549 84Q464 -10 271 -10ZM279 76Q404 76 469 141Q534 205 534 352Q534 499 469 563Q404 627 279 627Q251 627 226 625Q201 623 178 621L178 391L294 391Q305 391 305 380L305 322Q305 311 294 311L178 311L178 81Q200 78 225 77Q250 76 279 76Z"  horiz-adv-x="689" vert-adv-y="1000"  />
      <glyph glyph-name="Ntilde" unicode="&#xd1;" d="M89 0Q78 0 78 11L78 692Q78 703 89 703L148 703Q157 703 166 694Q246 585 329 470Q412 354 482 250Q493 235 505 216Q517 197 526 178L532 178Q529 198 529 220Q528 242 528 264L528 692Q528 703 539 703L614 703Q625 703 625 692L625 11Q625 0 614 0L552 0Q541 0 535 9Q465 118 385 234Q304 349 226 456Q215 472 201 492Q187 512 176 531L170 531Q172 510 173 487Q174 463 174 437L174 11Q174 0 163 0ZM414 784Q393 784 377 794Q360 804 345 815Q331 826 318 836Q304 845 291 845Q275 845 266 832Q257 818 250 797Q246 786 238 793L203 820Q193 826 197 837Q208 880 234 904Q259 928 290 928Q311 928 328 918Q345 908 360 897Q374 886 387 877Q400 867 413 867Q429 867 438 881Q447 894 454 915Q457 925 466 919L500 892Q509 886 507 875Q497 832 471 808Q445 784 414 784Z"  horiz-adv-x="703" vert-adv-y="1000"  />
      <glyph glyph-name="Ograve" unicode="&#xd2;" d="M350 -10Q242 -10 178 38Q113 86 85 168Q56 249 56 351Q56 427 72 493Q88 559 123 609Q157 658 213 686Q269 713 350 713Q458 713 523 665Q587 617 616 535Q645 453 645 351Q645 249 616 168Q587 86 523 38Q458 -10 350 -10ZM350 76Q420 76 463 110Q505 144 525 206Q544 268 544 351Q544 435 525 497Q505 559 463 593Q420 627 350 627Q281 627 238 593Q195 559 176 497Q156 435 156 351Q156 268 176 206Q195 144 238 110Q281 76 350 76ZM397 769Q386 769 380 778Q347 821 310 867Q273 913 233 959Q228 968 238 968L317 968Q327 968 334 959Q368 916 402 870Q435 823 466 778Q472 769 461 769Z"  horiz-adv-x="701" vert-adv-y="1000"  />
      <glyph glyph-name="Oacute" unicode="&#xd3;" d="M350 -10Q242 -10 178 38Q113 86 85 168Q56 249 56 351Q56 427 72 493Q88 559 123 609Q157 658 213 686Q269 713 350 713Q458 713 523 665Q587 617 616 535Q645 453 645 351Q645 249 616 168Q587 86 523 38Q458 -10 350 -10ZM350 76Q420 76 463 110Q505 144 525 206Q544 268 544 351Q544 435 525 497Q505 559 463 593Q420 627 350 627Q281 627 238 593Q195 559 176 497Q156 435 156 351Q156 268 176 206Q195 144 238 110Q281 76 350 76ZM238 769Q227 769 233 778Q264 823 298 870Q331 916 365 959Q372 968 382 968L461 968Q471 968 466 959Q426 913 389 867Q352 821 319 778Q313 769 302 769Z"  horiz-adv-x="701" vert-adv-y="1000"  />
      <glyph glyph-name="Ocircumflex" unicode="&#xd4;" d="M350 -10Q242 -10 178 38Q113 86 85 168Q56 249 56 351Q56 427 72 493Q88 559 123 609Q157 658 213 686Q269 713 350 713Q458 713 523 665Q587 617 616 535Q645 453 645 351Q645 249 616 168Q587 86 523 38Q458 -10 350 -10ZM350 76Q420 76 463 110Q505 144 525 206Q544 268 544 351Q544 435 525 497Q505 559 463 593Q420 627 350 627Q281 627 238 593Q195 559 176 497Q156 435 156 351Q156 268 176 206Q195 144 238 110Q281 76 350 76ZM184 769Q173 769 179 778Q211 823 246 872Q280 920 314 963Q320 971 332 971L366 971Q378 971 384 963Q418 920 453 872Q488 823 519 778Q525 769 515 769L451 769Q439 769 433 778Q414 804 393 831Q371 858 349 884Q327 858 306 831Q285 804 265 778Q259 769 248 769Z"  horiz-adv-x="701" vert-adv-y="1000"  />
      <glyph glyph-name="Otilde" unicode="&#xd5;" d="M350 -10Q242 -10 178 38Q113 86 85 168Q56 249 56 351Q56 427 72 493Q88 559 123 609Q157 658 213 686Q269 713 350 713Q458 713 523 665Q587 617 616 535Q645 453 645 351Q645 249 616 168Q587 86 523 38Q458 -10 350 -10ZM350 76Q420 76 463 110Q505 144 525 206Q544 268 544 351Q544 435 525 497Q505 559 463 593Q420 627 350 627Q281 627 238 593Q195 559 176 497Q156 435 156 351Q156 268 176 206Q195 144 238 110Q281 76 350 76ZM412 787Q391 787 375 797Q358 807 343 818Q329 829 316 839Q302 848 289 848Q273 848 264 835Q255 821 248 800Q244 789 236 796L201 823Q191 829 195 840Q206 883 232 907Q257 931 288 931Q309 931 326 921Q343 911 358 900Q372 889 385 880Q398 870 411 870Q427 870 436 884Q445 897 452 918Q455 928 464 922L498 895Q507 889 505 878Q495 835 469 811Q443 787 412 787Z"  horiz-adv-x="701" vert-adv-y="1000"  />
      <glyph glyph-name="Odieresis" unicode="&#xd6;" d="M350 -10Q242 -10 178 38Q113 86 85 168Q56 249 56 351Q56 427 72 493Q88 559 123 609Q157 658 213 686Q269 713 350 713Q458 713 523 665Q587 617 616 535Q645 453 645 351Q645 249 616 168Q587 86 523 38Q458 -10 350 -10ZM350 76Q420 76 463 110Q505 144 525 206Q544 268 544 351Q544 435 525 497Q505 559 463 593Q420 627 350 627Q281 627 238 593Q195 559 176 497Q156 435 156 351Q156 268 176 206Q195 144 238 110Q281 76 350 76ZM257 799Q234 799 218 815Q202 831 202 853Q202 876 218 892Q234 907 257 907Q280 907 296 892Q311 876 311 853Q311 831 296 815Q280 799 257 799ZM442 799Q420 799 404 815Q388 831 388 853Q388 876 404 892Q420 907 442 907Q465 907 481 892Q497 876 497 853Q497 831 481 815Q465 799 442 799Z"  horiz-adv-x="701" vert-adv-y="1000"  />
      <glyph glyph-name="multiply" unicode="&#xd7;" d="M102 65L61 106Q55 114 61 122L243 304L61 486Q55 494 61 502L102 543Q110 549 118 543L300 361L482 543Q490 549 498 543L539 502Q545 494 539 486L357 304L539 122Q545 114 539 106L498 65Q490 59 482 65L300 247L118 65Q110 59 102 65Z"  horiz-adv-x="600" vert-adv-y="1000"  />
      <glyph glyph-name="Oslash" unicode="&#xd8;" d="M158 -46Q147 -46 152 -36L181 36Q114 82 85 165Q56 248 56 351Q56 427 72 493Q88 559 123 609Q157 658 213 686Q269 713 350 713Q407 713 452 698L469 739Q472 749 484 749L540 749Q550 749 547 739L517 667Q585 621 615 538Q645 454 645 351Q645 249 616 168Q587 86 523 38Q458 -10 350 -10Q291 -10 246 5L229 -36Q226 -46 214 -46ZM219 127L419 616Q388 627 350 627Q281 627 238 593Q195 559 176 497Q156 435 156 351Q156 278 171 221Q186 163 219 127ZM350 76Q420 76 463 110Q505 144 525 206Q544 268 544 351Q544 425 529 483Q513 540 480 576L279 87Q295 82 313 79Q330 76 350 76Z"  horiz-adv-x="701" vert-adv-y="1000"  />
      <glyph glyph-name="Ugrave" unicode="&#xd9;" d="M346 -10Q253 -10 193 20Q132 50 102 118Q72 186 72 298L72 692Q72 703 83 703L161 703Q172 703 172 692L172 292Q172 172 214 124Q256 76 346 76Q437 76 479 124Q521 172 521 292L521 692Q521 703 532 703L610 703Q621 703 621 692L621 298Q621 186 591 118Q561 50 500 20Q439 -10 346 -10ZM394 769Q383 769 377 778Q344 821 307 867Q270 913 230 959Q225 968 235 968L314 968Q324 968 331 959Q365 916 399 870Q432 823 463 778Q469 769 458 769Z"  horiz-adv-x="693" vert-adv-y="1000"  />
      <glyph glyph-name="Uacute" unicode="&#xda;" d="M346 -10Q253 -10 193 20Q132 50 102 118Q72 186 72 298L72 692Q72 703 83 703L161 703Q172 703 172 692L172 292Q172 172 214 124Q256 76 346 76Q437 76 479 124Q521 172 521 292L521 692Q521 703 532 703L610 703Q621 703 621 692L621 298Q621 186 591 118Q561 50 500 20Q439 -10 346 -10ZM235 769Q224 769 230 778Q261 823 295 870Q328 916 362 959Q369 968 379 968L458 968Q468 968 463 959Q423 913 386 867Q349 821 316 778Q310 769 299 769Z"  horiz-adv-x="693" vert-adv-y="1000"  />
      <glyph glyph-name="Ucircumflex" unicode="&#xdb;" d="M346 -10Q253 -10 193 20Q132 50 102 118Q72 186 72 298L72 692Q72 703 83 703L161 703Q172 703 172 692L172 292Q172 172 214 124Q256 76 346 76Q437 76 479 124Q521 172 521 292L521 692Q521 703 532 703L610 703Q621 703 621 692L621 298Q621 186 591 118Q561 50 500 20Q439 -10 346 -10ZM180 769Q169 769 175 778Q207 823 242 872Q276 920 310 963Q316 971 328 971L362 971Q374 971 380 963Q414 920 449 872Q484 823 515 778Q521 769 511 769L447 769Q435 769 429 778Q410 804 389 831Q367 858 345 884Q323 858 302 831Q281 804 261 778Q255 769 244 769Z"  horiz-adv-x="693" vert-adv-y="1000"  />
      <glyph glyph-name="Udieresis" unicode="&#xdc;" d="M346 -10Q253 -10 193 20Q132 50 102 118Q72 186 72 298L72 692Q72 703 83 703L161 703Q172 703 172 692L172 292Q172 172 214 124Q256 76 346 76Q437 76 479 124Q521 172 521 292L521 692Q521 703 532 703L610 703Q621 703 621 692L621 298Q621 186 591 118Q561 50 500 20Q439 -10 346 -10ZM253 799Q230 799 214 815Q198 831 198 853Q198 876 214 892Q230 907 253 907Q276 907 292 892Q307 876 307 853Q307 831 292 815Q276 799 253 799ZM438 799Q416 799 400 815Q384 831 384 853Q384 876 400 892Q416 907 438 907Q461 907 477 892Q493 876 493 853Q493 831 477 815Q461 799 438 799Z"  horiz-adv-x="693" vert-adv-y="1000"  />
      <glyph glyph-name="Yacute" unicode="&#xdd;" d="M266 0Q255 0 255 11L255 284Q214 346 170 415Q125 483 83 552Q40 621 4 681Q-1 691 9 693L93 707Q105 709 109 699Q138 648 174 591Q210 533 242 481Q258 456 274 429Q290 402 308 368L314 368Q331 402 349 430Q367 458 384 484Q418 535 456 594Q493 652 523 699Q528 710 539 706L610 691Q620 688 615 678Q579 621 534 553Q489 484 442 416Q395 347 354 289L354 11Q354 0 343 0ZM198 769Q187 769 193 778Q224 823 258 870Q291 916 325 959Q332 968 342 968L421 968Q431 968 426 959Q386 913 349 867Q312 821 279 778Q273 769 262 769Z"  horiz-adv-x="619" vert-adv-y="1000"  />
      <glyph glyph-name="Thorn" unicode="&#xde;" d="M89 0Q78 0 78 11L78 692Q78 703 89 703L167 703Q178 703 178 692L178 569Q201 571 225 572Q248 573 273 573Q554 573 554 362Q554 303 531 262Q508 221 469 196Q430 171 381 160Q332 148 281 148Q250 148 229 149Q208 150 178 153L178 11Q178 0 167 0ZM282 227Q368 227 411 263Q454 299 454 363Q454 400 437 430Q420 459 383 477Q345 495 282 495Q254 495 231 494Q207 492 178 488L178 233Q208 229 230 228Q251 227 282 227Z"  horiz-adv-x="592" vert-adv-y="1000"  />
      <glyph glyph-name="germandbls" unicode="&#xdf;" d="M354 -10Q322 -10 290 -5Q257 1 231 11Q221 14 224 26L237 82Q240 91 250 88Q273 78 301 72Q328 65 352 65Q415 65 445 92Q474 119 474 165Q474 194 460 213Q445 232 422 247Q398 261 372 275Q346 289 323 307Q299 324 285 350Q270 375 270 413Q270 470 307 504Q344 537 400 555Q402 614 374 652Q345 690 289 690Q228 690 198 646Q168 601 168 503L168 11Q168 0 157 0L84 0Q73 0 73 11L73 499Q73 628 125 696Q177 764 290 764Q392 764 444 704Q495 643 489 536Q487 525 477 522Q425 513 394 490Q362 466 362 424Q362 396 377 378Q392 360 416 347Q439 333 465 320Q491 306 515 288Q538 269 553 241Q568 213 568 170Q568 82 509 36Q449 -10 354 -10Z"  horiz-adv-x="608" vert-adv-y="1000"  />
      <glyph glyph-name="agrave" unicode="&#xe0;" d="M214 -10Q168 -10 129 6Q90 21 67 54Q43 87 43 140Q43 289 255 289Q281 289 310 287Q339 285 364 282L364 318Q364 383 339 411Q314 439 251 439Q206 439 166 427Q125 414 90 393Q81 389 76 397L58 449Q52 459 64 464Q105 487 155 501Q204 515 265 515Q339 515 381 494Q422 472 439 428Q456 383 456 313L456 150Q456 113 463 88Q469 62 488 39Q496 30 485 25L442 -2Q431 -7 422 -3Q398 8 380 46Q353 22 312 6Q270 -10 214 -10ZM241 58Q276 58 309 71Q342 83 364 104L364 219Q336 224 312 226Q288 227 268 227Q197 227 165 205Q133 182 133 143Q133 100 164 79Q195 58 241 58ZM303 574Q292 574 286 583Q253 626 216 672Q179 718 139 764Q134 773 144 773L223 773Q233 773 240 764Q274 721 308 675Q341 628 372 583Q378 574 367 574Z"  horiz-adv-x="531" vert-adv-y="1000"  />
      <glyph glyph-name="aacute" unicode="&#xe1;" d="M214 -10Q168 -10 129 6Q90 21 67 54Q43 87 43 140Q43 289 255 289Q281 289 310 287Q339 285 364 282L364 318Q364 383 339 411Q314 439 251 439Q206 439 166 427Q125 414 90 393Q81 389 76 397L58 449Q52 459 64 464Q105 487 155 501Q204 515 265 515Q339 515 381 494Q422 472 439 428Q456 383 456 313L456 150Q456 113 463 88Q469 62 488 39Q496 30 485 25L442 -2Q431 -7 422 -3Q398 8 380 46Q353 22 312 6Q270 -10 214 -10ZM241 58Q276 58 309 71Q342 83 364 104L364 219Q336 224 312 226Q288 227 268 227Q197 227 165 205Q133 182 133 143Q133 100 164 79Q195 58 241 58ZM157 574Q146 574 152 583Q183 628 217 675Q250 721 284 764Q291 773 301 773L380 773Q390 773 385 764Q345 718 308 672Q271 626 238 583Q232 574 221 574Z"  horiz-adv-x="531" vert-adv-y="1000"  />
      <glyph glyph-name="acircumflex" unicode="&#xe2;" d="M214 -10Q168 -10 129 6Q90 21 67 54Q43 87 43 140Q43 289 255 289Q281 289 310 287Q339 285 364 282L364 318Q364 383 339 411Q314 439 251 439Q206 439 166 427Q125 414 90 393Q81 389 76 397L58 449Q52 459 64 464Q105 487 155 501Q204 515 265 515Q339 515 381 494Q422 472 439 428Q456 383 456 313L456 150Q456 113 463 88Q469 62 488 39Q496 30 485 25L442 -2Q431 -7 422 -3Q398 8 380 46Q353 22 312 6Q270 -10 214 -10ZM241 58Q276 58 309 71Q342 83 364 104L364 219Q336 224 312 226Q288 227 268 227Q197 227 165 205Q133 182 133 143Q133 100 164 79Q195 58 241 58ZM92 574Q81 574 87 583Q119 628 154 677Q188 725 222 768Q228 776 240 776L274 776Q286 776 292 768Q326 725 361 677Q396 628 427 583Q433 574 423 574L359 574Q347 574 341 583Q322 609 301 636Q279 663 257 689Q235 663 214 636Q193 609 173 583Q167 574 156 574Z"  horiz-adv-x="531" vert-adv-y="1000"  />
      <glyph glyph-name="atilde" unicode="&#xe3;" d="M214 -10Q168 -10 129 6Q90 21 67 54Q43 87 43 140Q43 289 255 289Q281 289 310 287Q339 285 364 282L364 318Q364 383 339 411Q314 439 251 439Q206 439 166 427Q125 414 90 393Q81 389 76 397L58 449Q52 459 64 464Q105 487 155 501Q204 515 265 515Q339 515 381 494Q422 472 439 428Q456 383 456 313L456 150Q456 113 463 88Q469 62 488 39Q496 30 485 25L442 -2Q431 -7 422 -3Q398 8 380 46Q353 22 312 6Q270 -10 214 -10ZM241 58Q276 58 309 71Q342 83 364 104L364 219Q336 224 312 226Q288 227 268 227Q197 227 165 205Q133 182 133 143Q133 100 164 79Q195 58 241 58ZM326 592Q305 592 289 602Q272 612 257 623Q243 634 230 644Q216 653 203 653Q187 653 178 640Q169 626 162 605Q158 594 150 601L115 628Q105 634 109 645Q120 688 146 712Q171 736 202 736Q223 736 240 726Q257 716 272 705Q286 694 299 685Q312 675 325 675Q341 675 350 689Q359 702 366 723Q369 733 378 727L412 700Q421 694 419 683Q409 640 383 616Q357 592 326 592Z"  horiz-adv-x="531" vert-adv-y="1000"  />
      <glyph glyph-name="adieresis" unicode="&#xe4;" d="M214 -10Q168 -10 129 6Q90 21 67 54Q43 87 43 140Q43 289 255 289Q281 289 310 287Q339 285 364 282L364 318Q364 383 339 411Q314 439 251 439Q206 439 166 427Q125 414 90 393Q81 389 76 397L58 449Q52 459 64 464Q105 487 155 501Q204 515 265 515Q339 515 381 494Q422 472 439 428Q456 383 456 313L456 150Q456 113 463 88Q469 62 488 39Q496 30 485 25L442 -2Q431 -7 422 -3Q398 8 380 46Q353 22 312 6Q270 -10 214 -10ZM241 58Q276 58 309 71Q342 83 364 104L364 219Q336 224 312 226Q288 227 268 227Q197 227 165 205Q133 182 133 143Q133 100 164 79Q195 58 241 58ZM170 607Q147 607 131 623Q115 639 115 661Q115 684 131 700Q147 715 170 715Q193 715 209 700Q224 684 224 661Q224 639 209 623Q193 607 170 607ZM355 607Q333 607 317 623Q301 639 301 661Q301 684 317 700Q333 715 355 715Q378 715 394 700Q410 684 410 661Q410 639 394 623Q378 607 355 607Z"  horiz-adv-x="531" vert-adv-y="1000"  />
      <glyph glyph-name="aring" unicode="&#xe5;" d="M214 -10Q168 -10 129 6Q90 21 67 54Q43 87 43 140Q43 289 255 289Q281 289 310 287Q339 285 364 282L364 318Q364 383 339 411Q314 439 251 439Q206 439 166 427Q125 414 90 393Q81 389 76 397L58 449Q52 459 64 464Q105 487 155 501Q204 515 265 515Q339 515 381 494Q422 472 439 428Q456 383 456 313L456 150Q456 113 463 88Q469 62 488 39Q496 30 485 25L442 -2Q431 -7 422 -3Q398 8 380 46Q353 22 312 6Q270 -10 214 -10ZM241 58Q276 58 309 71Q342 83 364 104L364 219Q336 224 312 226Q288 227 268 227Q197 227 165 205Q133 182 133 143Q133 100 164 79Q195 58 241 58ZM262 582Q211 582 179 616Q147 649 147 696Q147 743 179 777Q211 810 262 810Q313 810 345 777Q377 743 377 696Q377 649 345 616Q313 582 262 582ZM262 637Q288 637 305 655Q321 672 321 696Q321 719 305 737Q288 755 262 755Q237 755 220 737Q203 719 203 696Q203 672 220 655Q237 637 262 637Z"  horiz-adv-x="531" vert-adv-y="1000"  />
      <glyph glyph-name="ae" unicode="&#xe6;" d="M214 -10Q168 -10 129 6Q90 21 67 54Q43 87 43 140Q43 205 83 238Q122 270 195 281Q267 291 364 287L364 318Q364 383 339 411Q314 439 251 439Q206 439 166 427Q125 414 90 393Q81 389 76 397L58 449Q52 459 64 464Q105 487 155 501Q204 515 265 515Q332 515 372 498Q411 480 430 443Q459 476 503 496Q546 515 604 515Q686 515 734 483Q782 451 803 397Q824 342 824 274L824 243Q822 232 812 232L460 232Q466 152 507 109Q548 66 622 66Q659 66 696 76Q733 85 766 105Q770 109 774 108Q778 107 779 102L801 52Q805 42 796 36Q763 14 713 2Q662 -10 610 -10Q540 -10 492 14Q443 37 413 78Q379 38 332 14Q285 -10 214 -10ZM241 58Q282 58 322 76Q361 94 384 128Q366 174 364 230Q241 232 187 216Q133 199 133 146Q133 101 164 80Q194 58 241 58ZM461 296L733 296Q732 335 720 368Q707 400 680 420Q652 439 604 439Q549 439 509 407Q469 375 461 296Z"  horiz-adv-x="874" vert-adv-y="1000"  />
      <glyph glyph-name="ccedilla" unicode="&#xe7;" d="M269 -201Q234 -201 208 -195Q198 -192 201 -182L212 -149Q216 -138 226 -141Q237 -144 247 -145Q256 -146 267 -146Q313 -146 313 -116Q313 -81 247 -72Q236 -70 239 -60L254 -9Q182 -3 137 33Q92 68 71 125Q50 182 50 252Q50 325 75 385Q99 444 151 480Q203 515 283 515Q384 515 449 475Q458 469 453 459L429 408Q425 397 416 404Q393 418 362 427Q330 436 296 436Q239 436 206 409Q173 382 160 340Q146 298 146 252Q146 207 160 165Q174 123 207 96Q239 69 296 69Q331 69 363 78Q394 87 417 101Q426 107 430 98L452 47Q454 43 453 38Q452 33 448 31Q423 15 385 5Q346 -6 305 -9L296 -39Q342 -46 366 -65Q390 -83 390 -120Q390 -156 360 -179Q330 -201 269 -201Z"  horiz-adv-x="487" vert-adv-y="1000"  />
      <glyph glyph-name="egrave" unicode="&#xe8;" d="M297 -10Q211 -10 157 25Q102 60 76 119Q50 178 50 251Q50 324 77 384Q103 444 157 480Q210 515 291 515Q373 515 421 483Q469 451 490 397Q511 342 511 274L511 243Q509 232 499 232L147 232Q153 152 194 109Q235 66 309 66Q346 66 383 76Q420 85 453 105Q457 109 461 108Q465 107 466 102L488 52Q492 42 483 36Q450 14 400 2Q349 -10 297 -10ZM148 296L420 296Q419 335 407 368Q394 400 367 420Q339 439 291 439Q236 439 196 407Q156 375 148 296ZM326 574Q315 574 309 583Q276 626 239 672Q202 718 162 764Q157 773 167 773L246 773Q256 773 263 764Q297 721 331 675Q364 628 395 583Q401 574 390 574Z"  horiz-adv-x="561" vert-adv-y="1000"  />
      <glyph glyph-name="eacute" unicode="&#xe9;" d="M297 -10Q211 -10 157 25Q102 60 76 119Q50 178 50 251Q50 324 77 384Q103 444 157 480Q210 515 291 515Q373 515 421 483Q469 451 490 397Q511 342 511 274L511 243Q509 232 499 232L147 232Q153 152 194 109Q235 66 309 66Q346 66 383 76Q420 85 453 105Q457 109 461 108Q465 107 466 102L488 52Q492 42 483 36Q450 14 400 2Q349 -10 297 -10ZM148 296L420 296Q419 335 407 368Q394 400 367 420Q339 439 291 439Q236 439 196 407Q156 375 148 296ZM176 574Q165 574 171 583Q202 628 236 675Q269 721 303 764Q310 773 320 773L399 773Q409 773 404 764Q364 718 327 672Q290 626 257 583Q251 574 240 574Z"  horiz-adv-x="561" vert-adv-y="1000"  />
      <glyph glyph-name="ecircumflex" unicode="&#xea;" d="M297 -10Q211 -10 157 25Q102 60 76 119Q50 178 50 251Q50 324 77 384Q103 444 157 480Q210 515 291 515Q373 515 421 483Q469 451 490 397Q511 342 511 274L511 243Q509 232 499 232L147 232Q153 152 194 109Q235 66 309 66Q346 66 383 76Q420 85 453 105Q457 109 461 108Q465 107 466 102L488 52Q492 42 483 36Q450 14 400 2Q349 -10 297 -10ZM148 296L420 296Q419 335 407 368Q394 400 367 420Q339 439 291 439Q236 439 196 407Q156 375 148 296ZM129 574Q118 574 124 583Q156 628 191 677Q225 725 259 768Q265 776 277 776L311 776Q323 776 329 768Q363 725 398 677Q433 628 464 583Q470 574 460 574L396 574Q384 574 378 583Q359 609 338 636Q316 663 294 689Q272 663 251 636Q230 609 210 583Q204 574 193 574Z"  horiz-adv-x="561" vert-adv-y="1000"  />
      <glyph glyph-name="edieresis" unicode="&#xeb;" d="M297 -10Q211 -10 157 25Q102 60 76 119Q50 178 50 251Q50 324 77 384Q103 444 157 480Q210 515 291 515Q373 515 421 483Q469 451 490 397Q511 342 511 274L511 243Q509 232 499 232L147 232Q153 152 194 109Q235 66 309 66Q346 66 383 76Q420 85 453 105Q457 109 461 108Q465 107 466 102L488 52Q492 42 483 36Q450 14 400 2Q349 -10 297 -10ZM148 296L420 296Q419 335 407 368Q394 400 367 420Q339 439 291 439Q236 439 196 407Q156 375 148 296ZM200 607Q177 607 161 623Q145 639 145 661Q145 684 161 700Q177 715 200 715Q223 715 239 700Q254 684 254 661Q254 639 239 623Q223 607 200 607ZM385 607Q363 607 347 623Q331 639 331 661Q331 684 347 700Q363 715 385 715Q408 715 424 700Q440 684 440 661Q440 639 424 623Q408 607 385 607Z"  horiz-adv-x="561" vert-adv-y="1000"  />
      <glyph glyph-name="igrave" unicode="&#xec;" d="M84 0Q73 0 73 11L73 494Q73 505 84 505L156 505Q167 505 167 494L167 11Q167 0 156 0ZM162 574Q151 574 145 583Q112 626 75 672Q38 718 -2 764Q-7 773 3 773L82 773Q92 773 99 764Q133 721 167 675Q200 628 231 583Q237 574 226 574Z"  horiz-adv-x="240" vert-adv-y="1000"  />
      <glyph glyph-name="iacute" unicode="&#xed;" d="M84 0Q73 0 73 11L73 494Q73 505 84 505L156 505Q167 505 167 494L167 11Q167 0 156 0ZM8 574Q-3 574 3 583Q34 628 68 675Q101 721 135 764Q142 773 152 773L231 773Q241 773 236 764Q196 718 159 672Q122 626 89 583Q83 574 72 574Z"  horiz-adv-x="240" vert-adv-y="1000"  />
      <glyph glyph-name="icircumflex" unicode="&#xee;" d="M84 0Q73 0 73 11L73 494Q73 505 84 505L156 505Q167 505 167 494L167 11Q167 0 156 0ZM-45 574Q-56 574 -50 583Q-18 628 17 677Q51 725 85 768Q91 776 103 776L137 776Q149 776 155 768Q189 725 224 677Q259 628 290 583Q296 574 286 574L222 574Q210 574 204 583Q185 609 164 636Q142 663 120 689Q98 663 77 636Q56 609 36 583Q30 574 19 574Z"  horiz-adv-x="240" vert-adv-y="1000"  />
      <glyph glyph-name="idieresis" unicode="&#xef;" d="M84 0Q73 0 73 11L73 494Q73 505 84 505L156 505Q167 505 167 494L167 11Q167 0 156 0ZM27 607Q4 607 -12 623Q-28 639 -28 661Q-28 684 -12 700Q4 715 27 715Q50 715 66 700Q81 684 81 661Q81 639 66 623Q50 607 27 607ZM212 607Q190 607 174 623Q158 639 158 661Q158 684 174 700Q190 715 212 715Q235 715 251 700Q267 684 267 661Q267 639 251 623Q235 607 212 607Z"  horiz-adv-x="240" vert-adv-y="1000"  />
      <glyph glyph-name="eth" unicode="&#xf0;" d="M295 -10Q219 -10 165 20Q110 50 81 103Q52 156 52 224Q52 285 80 334Q107 382 157 411Q206 440 272 440Q313 440 354 428Q395 415 428 392Q412 445 382 488Q351 530 310 562L175 472Q166 466 166 476L164 519Q164 530 173 537L260 594Q234 608 206 620Q177 632 146 640Q135 643 139 653L162 704Q168 714 178 711Q266 687 337 646L433 710Q437 713 440 712Q442 710 442 705L443 662Q443 651 434 645L385 612Q459 554 499 469Q539 384 539 274Q539 200 512 135Q485 70 431 30Q377 -10 295 -10ZM297 57Q350 57 383 88Q415 118 430 168Q445 217 445 273Q445 281 445 289Q444 297 444 305Q413 337 372 356Q330 375 288 375Q220 375 184 333Q147 290 147 224Q147 151 187 104Q227 57 297 57Z"  horiz-adv-x="592" vert-adv-y="1000"  />
      <glyph glyph-name="ntilde" unicode="&#xf1;" d="M85 0Q74 0 74 11L74 353Q74 389 68 415Q62 440 43 464Q36 472 45 478L88 504Q98 509 108 506Q138 491 155 446Q195 473 244 494Q292 515 348 515Q446 515 485 457Q524 398 524 286L524 11Q524 0 513 0L440 0Q429 0 429 11L429 273Q429 359 404 396Q378 432 319 432Q278 432 239 418Q199 403 169 382L169 11Q169 0 158 0ZM359 592Q338 592 322 602Q305 612 290 623Q276 634 263 644Q249 653 236 653Q220 653 211 640Q202 626 195 605Q191 594 183 601L148 628Q138 634 142 645Q153 688 179 712Q204 736 235 736Q256 736 273 726Q290 716 305 705Q319 694 332 685Q345 675 358 675Q374 675 383 689Q392 702 399 723Q402 733 411 727L445 700Q454 694 452 683Q442 640 416 616Q390 592 359 592Z"  horiz-adv-x="593" vert-adv-y="1000"  />
      <glyph glyph-name="ograve" unicode="&#xf2;" d="M294 -10Q206 -10 152 25Q98 59 74 119Q50 178 50 252Q50 326 74 386Q98 445 152 480Q206 515 294 515Q383 515 437 480Q490 445 515 386Q539 326 539 252Q539 178 515 119Q490 59 437 25Q383 -10 294 -10ZM294 65Q374 65 408 117Q442 168 442 252Q442 337 408 389Q374 440 294 440Q215 440 181 389Q146 337 146 252Q146 168 181 117Q215 65 294 65ZM338 574Q327 574 321 583Q288 626 251 672Q214 718 174 764Q169 773 179 773L258 773Q268 773 275 764Q309 721 343 675Q376 628 407 583Q413 574 402 574Z"  horiz-adv-x="589" vert-adv-y="1000"  />
      <glyph glyph-name="oacute" unicode="&#xf3;" d="M294 -10Q206 -10 152 25Q98 59 74 119Q50 178 50 252Q50 326 74 386Q98 445 152 480Q206 515 294 515Q383 515 437 480Q490 445 515 386Q539 326 539 252Q539 178 515 119Q490 59 437 25Q383 -10 294 -10ZM294 65Q374 65 408 117Q442 168 442 252Q442 337 408 389Q374 440 294 440Q215 440 181 389Q146 337 146 252Q146 168 181 117Q215 65 294 65ZM179 574Q168 574 174 583Q205 628 239 675Q272 721 306 764Q313 773 323 773L402 773Q412 773 407 764Q367 718 330 672Q293 626 260 583Q254 574 243 574Z"  horiz-adv-x="589" vert-adv-y="1000"  />
      <glyph glyph-name="ocircumflex" unicode="&#xf4;" d="M294 -10Q206 -10 152 25Q98 59 74 119Q50 178 50 252Q50 326 74 386Q98 445 152 480Q206 515 294 515Q383 515 437 480Q490 445 515 386Q539 326 539 252Q539 178 515 119Q490 59 437 25Q383 -10 294 -10ZM294 65Q374 65 408 117Q442 168 442 252Q442 337 408 389Q374 440 294 440Q215 440 181 389Q146 337 146 252Q146 168 181 117Q215 65 294 65ZM129 574Q118 574 124 583Q156 628 191 677Q225 725 259 768Q265 776 277 776L311 776Q323 776 329 768Q363 725 398 677Q433 628 464 583Q470 574 460 574L396 574Q384 574 378 583Q359 609 338 636Q316 663 294 689Q272 663 251 636Q230 609 210 583Q204 574 193 574Z"  horiz-adv-x="589" vert-adv-y="1000"  />
      <glyph glyph-name="otilde" unicode="&#xf5;" d="M294 -10Q206 -10 152 25Q98 59 74 119Q50 178 50 252Q50 326 74 386Q98 445 152 480Q206 515 294 515Q383 515 437 480Q490 445 515 386Q539 326 539 252Q539 178 515 119Q490 59 437 25Q383 -10 294 -10ZM294 65Q374 65 408 117Q442 168 442 252Q442 337 408 389Q374 440 294 440Q215 440 181 389Q146 337 146 252Q146 168 181 117Q215 65 294 65ZM356 592Q335 592 319 602Q302 612 287 623Q273 634 260 644Q246 653 233 653Q217 653 208 640Q199 626 192 605Q188 594 180 601L145 628Q135 634 139 645Q150 688 176 712Q201 736 232 736Q253 736 270 726Q287 716 302 705Q316 694 329 685Q342 675 355 675Q371 675 380 689Q389 702 396 723Q399 733 408 727L442 700Q451 694 449 683Q439 640 413 616Q387 592 356 592Z"  horiz-adv-x="589" vert-adv-y="1000"  />
      <glyph glyph-name="odieresis" unicode="&#xf6;" d="M294 -10Q206 -10 152 25Q98 59 74 119Q50 178 50 252Q50 326 74 386Q98 445 152 480Q206 515 294 515Q383 515 437 480Q490 445 515 386Q539 326 539 252Q539 178 515 119Q490 59 437 25Q383 -10 294 -10ZM294 65Q374 65 408 117Q442 168 442 252Q442 337 408 389Q374 440 294 440Q215 440 181 389Q146 337 146 252Q146 168 181 117Q215 65 294 65ZM201 607Q178 607 162 623Q146 639 146 661Q146 684 162 700Q178 715 201 715Q224 715 240 700Q255 684 255 661Q255 639 240 623Q224 607 201 607ZM386 607Q364 607 348 623Q332 639 332 661Q332 684 348 700Q364 715 386 715Q409 715 425 700Q441 684 441 661Q441 639 425 623Q409 607 386 607Z"  horiz-adv-x="589" vert-adv-y="1000"  />
      <glyph glyph-name="divide" unicode="&#xf7;" d="M52 264Q41 264 41 275L41 333Q41 344 52 344L547 344Q558 344 558 333L558 275Q558 264 547 264ZM300 42Q278 42 263 58Q247 73 247 95Q247 116 263 132Q278 147 300 147Q322 147 337 132Q352 116 352 95Q352 73 337 58Q322 42 300 42ZM300 460Q278 460 263 476Q247 491 247 513Q247 535 263 550Q278 565 300 565Q322 565 337 550Q352 535 352 513Q352 491 337 476Q322 460 300 460Z"  horiz-adv-x="600" vert-adv-y="1000"  />
      <glyph glyph-name="oslash" unicode="&#xf8;" d="M153 -39Q142 -39 147 -29L166 17Q104 49 77 111Q50 173 50 252Q50 326 74 386Q98 445 152 480Q206 515 294 515Q337 515 371 506L383 535Q386 545 398 545L436 545Q446 545 443 535L423 487Q485 455 512 393Q539 330 539 252Q539 178 515 119Q490 59 437 25Q383 -10 294 -10Q251 -10 216 -1L205 -29Q202 -39 190 -39ZM199 96L341 434Q320 440 294 440Q215 440 181 389Q146 337 146 252Q146 200 159 160Q171 120 199 96ZM294 65Q374 65 408 117Q442 168 442 252Q442 304 430 344Q417 384 389 408L247 71Q268 65 294 65Z"  horiz-adv-x="589" vert-adv-y="1000"  />
      <glyph glyph-name="ugrave" unicode="&#xf9;" d="M245 -10Q148 -10 110 50Q71 109 71 221L71 494Q71 505 82 505L154 505Q165 505 165 494L165 232Q165 147 190 110Q214 73 273 73Q317 73 356 89Q395 105 426 129L426 494Q426 505 437 505L509 505Q520 505 520 494L520 150Q520 113 526 88Q532 62 551 39Q560 30 549 25L506 -2Q496 -7 486 -4Q472 4 459 20Q446 36 438 59Q398 32 350 11Q302 -10 245 -10ZM338 574Q327 574 321 583Q288 626 251 672Q214 718 174 764Q169 773 179 773L258 773Q268 773 275 764Q309 721 343 675Q376 628 407 583Q413 574 402 574Z"  horiz-adv-x="594" vert-adv-y="1000"  />
      <glyph glyph-name="uacute" unicode="&#xfa;" d="M245 -10Q148 -10 110 50Q71 109 71 221L71 494Q71 505 82 505L154 505Q165 505 165 494L165 232Q165 147 190 110Q214 73 273 73Q317 73 356 89Q395 105 426 129L426 494Q426 505 437 505L509 505Q520 505 520 494L520 150Q520 113 526 88Q532 62 551 39Q560 30 549 25L506 -2Q496 -7 486 -4Q472 4 459 20Q446 36 438 59Q398 32 350 11Q302 -10 245 -10ZM184 574Q173 574 179 583Q210 628 244 675Q277 721 311 764Q318 773 328 773L407 773Q417 773 412 764Q372 718 335 672Q298 626 265 583Q259 574 248 574Z"  horiz-adv-x="594" vert-adv-y="1000"  />
      <glyph glyph-name="ucircumflex" unicode="&#xfb;" d="M245 -10Q148 -10 110 50Q71 109 71 221L71 494Q71 505 82 505L154 505Q165 505 165 494L165 232Q165 147 190 110Q214 73 273 73Q317 73 356 89Q395 105 426 129L426 494Q426 505 437 505L509 505Q520 505 520 494L520 150Q520 113 526 88Q532 62 551 39Q560 30 549 25L506 -2Q496 -7 486 -4Q472 4 459 20Q446 36 438 59Q398 32 350 11Q302 -10 245 -10ZM130 574Q119 574 125 583Q157 628 192 677Q226 725 260 768Q266 776 278 776L312 776Q324 776 330 768Q364 725 399 677Q434 628 465 583Q471 574 461 574L397 574Q385 574 379 583Q360 609 339 636Q317 663 295 689Q273 663 252 636Q231 609 211 583Q205 574 194 574Z"  horiz-adv-x="594" vert-adv-y="1000"  />
      <glyph glyph-name="udieresis" unicode="&#xfc;" d="M245 -10Q148 -10 110 50Q71 109 71 221L71 494Q71 505 82 505L154 505Q165 505 165 494L165 232Q165 147 190 110Q214 73 273 73Q317 73 356 89Q395 105 426 129L426 494Q426 505 437 505L509 505Q520 505 520 494L520 150Q520 113 526 88Q532 62 551 39Q560 30 549 25L506 -2Q496 -7 486 -4Q472 4 459 20Q446 36 438 59Q398 32 350 11Q302 -10 245 -10ZM203 607Q180 607 164 623Q148 639 148 661Q148 684 164 700Q180 715 203 715Q226 715 242 700Q257 684 257 661Q257 639 242 623Q226 607 203 607ZM388 607Q366 607 350 623Q334 639 334 661Q334 684 350 700Q366 715 388 715Q411 715 427 700Q443 684 443 661Q443 639 427 623Q411 607 388 607Z"  horiz-adv-x="594" vert-adv-y="1000"  />
      <glyph glyph-name="yacute" unicode="&#xfd;" d="M112 -261L63 -216Q54 -208 63 -201Q106 -163 147 -114Q187 -64 216 -9Q198 29 172 89Q146 149 116 220Q86 290 58 359Q29 428 8 482Q3 492 15 494L91 509Q102 511 105 501Q131 431 162 350Q192 269 223 194Q231 173 240 150Q249 126 260 92L266 92Q278 126 288 149Q297 172 305 194Q337 271 371 351Q404 431 429 501Q434 511 444 509L513 495Q525 492 520 482Q497 426 467 357Q437 288 406 219Q375 150 348 91Q321 31 304 -6Q271 -79 224 -147Q176 -215 128 -261Q120 -267 112 -261ZM153 574Q142 574 148 583Q179 628 213 675Q246 721 280 764Q287 773 297 773L376 773Q386 773 381 764Q341 718 304 672Q267 626 234 583Q228 574 217 574Z"  horiz-adv-x="528" vert-adv-y="1000"  />
      <glyph glyph-name="thorn" unicode="&#xfe;" d="M82 -250Q71 -250 71 -239L71 753Q71 764 82 764L155 764Q166 764 166 753L166 469Q193 489 228 502Q262 515 302 515Q400 515 456 454Q512 392 512 252Q512 132 455 61Q398 -10 282 -10Q248 -10 219 -3Q190 5 166 18L166 -239Q166 -250 155 -250ZM269 65Q417 65 417 251Q417 357 380 399Q342 440 277 440Q244 440 216 428Q187 416 166 399L166 96Q188 82 214 74Q240 65 269 65Z"  horiz-adv-x="565" vert-adv-y="1000"  />
      <glyph glyph-name="ydieresis" unicode="&#xff;" d="M112 -261L63 -216Q54 -208 63 -201Q106 -163 147 -114Q187 -64 216 -9Q198 29 172 89Q146 149 116 220Q86 290 58 359Q29 428 8 482Q3 492 15 494L91 509Q102 511 105 501Q131 431 162 350Q192 269 223 194Q231 173 240 150Q249 126 260 92L266 92Q278 126 288 149Q297 172 305 194Q337 271 371 351Q404 431 429 501Q434 511 444 509L513 495Q525 492 520 482Q497 426 467 357Q437 288 406 219Q375 150 348 91Q321 31 304 -6Q271 -79 224 -147Q176 -215 128 -261Q120 -267 112 -261ZM172 607Q149 607 133 623Q117 639 117 661Q117 684 133 700Q149 715 172 715Q195 715 211 700Q226 684 226 661Q226 639 211 623Q195 607 172 607ZM357 607Q335 607 319 623Q303 639 303 661Q303 684 319 700Q335 715 357 715Q380 715 396 700Q412 684 412 661Q412 639 396 623Q380 607 357 607Z"  horiz-adv-x="528" vert-adv-y="1000"  />
      <glyph glyph-name="Amacron" unicode="&#x100;" d="M547 -5Q538 -7 533 3L472 177L166 177L101 3Q98 -7 87 -4L15 11Q11 12 9 16Q7 19 9 23Q39 101 73 190Q107 278 142 369Q177 459 211 544Q244 628 272 698Q275 708 287 708L360 708Q370 708 375 698Q414 600 459 485Q503 370 548 252Q592 134 631 25Q634 15 624 12ZM193 258L443 258Q423 314 402 370Q381 425 361 479Q351 506 342 537Q332 568 324 599L318 599Q310 567 299 536Q288 504 278 478Q277 475 268 453Q259 431 247 400Q235 368 223 337Q211 306 203 284Q194 262 193 258ZM207 806Q196 806 196 817L196 877Q196 888 207 888L434 888Q445 888 445 877L445 817Q445 806 434 806Z"  horiz-adv-x="640" vert-adv-y="1000"  />
      </font>
</defs>
</svg>
