<?xml version="1.0" standalone="no"?>
  <!DOCTYPE svg PUBLIC "-//W3C//DTD SVG 1.1//EN" "http://www.w3.org/Graphics/SVG/1.1/DTD/svg11.dtd" >
  <svg>
  <metadata>
  Created by TNB FontFinisher
  </metadata>
  <defs>
  <font id="SunLifeSans-MediumItalic"  horiz-adv-x="1346" vert-adv-y="1445" >
    <font-face
      font-family="Sun Life Sans Medium Italic"
      font-style="Regular"
      font-weight="500"
      font-stretch="normal"
      panose-1="2 11 6 4 3 3 4 10 3 3"
      units-per-em="1000"
      ascent="1265"
      descent="-356"
    />
      <missing-glyph  d="M27 0L113 703L607 703L521 0ZM101 53L458 53L311 307ZM93 119L285 351L150 584ZM485 119L542 584L349 351ZM322 396L532 650L175 650Z"  horiz-adv-x="592" vert-adv-y="1000"  /> 
      <glyph glyph-name="space" unicode="&#x20;" d=""  horiz-adv-x="305" vert-adv-y="1000"  />
      <glyph glyph-name="exclam" unicode="&#x21;" d="M169 -10Q141 -10 121 10Q101 29 101 57Q101 87 123 108Q144 129 174 129Q202 129 222 110Q241 90 241 62Q241 32 220 11Q198 -10 169 -10ZM166 216Q153 216 155 228L186 701Q188 713 199 713L303 713Q315 713 313 701L229 228Q227 216 215 216Z"  horiz-adv-x="323" vert-adv-y="1000"  />
      <glyph glyph-name="quotedbl" unicode="&#x22;" d="M110 483Q97 483 99 495L114 701Q116 713 127 713L217 713Q229 713 227 701L192 495Q190 483 178 483ZM301 483Q288 483 290 495L305 701Q307 713 318 713L408 713Q420 713 418 701L383 495Q381 483 369 483Z"  horiz-adv-x="435" vert-adv-y="1000"  />
      <glyph glyph-name="numbersign" unicode="&#x23;" d="M115 0Q103 0 106 12L154 187L53 187Q41 187 43 199L51 265Q53 277 65 277L179 277L220 426L117 426Q106 426 106 438L115 503Q115 515 128 515L244 515L293 691Q296 703 308 703L379 703Q392 703 387 691L339 515L486 515L535 691Q538 703 550 703L621 703Q634 703 629 691L581 515L682 515Q693 515 693 503L684 438Q684 426 671 426L556 426L515 277L619 277Q631 277 629 265L621 199Q619 187 607 187L491 187L443 12Q439 0 427 0L357 0Q345 0 348 12L396 187L249 187L201 12Q197 0 185 0ZM273 277L421 277L462 426L314 426Z"  horiz-adv-x="693" vert-adv-y="1000"  />
      <glyph glyph-name="dollar" unicode="&#x24;" d="M234 -110Q221 -110 223 -98L237 14Q187 17 144 27Q100 37 67 55Q58 62 61 71L89 162Q92 172 102 167Q139 146 184 133Q228 119 277 119Q343 119 374 144Q404 168 404 208Q404 240 383 259Q361 277 327 290Q293 302 255 316Q216 329 182 350Q148 370 127 405Q105 439 105 495Q105 583 164 633Q222 682 320 688L334 801Q336 813 348 813L416 813Q429 813 427 801L412 684Q449 680 481 671Q512 662 534 651Q543 646 540 636L511 548Q510 539 499 543Q469 559 428 571Q387 582 344 582Q282 582 254 558Q225 534 225 501Q225 470 247 452Q269 433 304 420Q339 407 378 394Q416 380 451 360Q486 340 508 307Q530 273 530 220Q530 144 482 88Q434 31 330 17L316 -98Q314 -110 302 -110Z"  horiz-adv-x="582" vert-adv-y="1000"  />
      <glyph glyph-name="percent" unicode="&#x25;" d="M163 -46Q156 -46 156 -41Q156 -38 157 -36L560 738Q566 749 577 749L649 749Q656 749 656 743Q656 740 655 738L252 -36Q247 -46 235 -46ZM196 341Q130 341 99 381Q68 420 68 482Q68 523 78 564Q87 605 108 639Q128 672 162 693Q195 713 243 713Q311 713 341 674Q371 635 371 571Q371 530 362 489Q352 448 332 415Q311 381 278 361Q244 341 196 341ZM568 -10Q502 -10 471 30Q440 69 440 131Q440 172 450 213Q459 254 480 288Q500 321 534 342Q567 362 615 362Q683 362 713 323Q743 284 743 220Q743 179 734 138Q724 97 704 64Q683 30 650 10Q616 -10 568 -10ZM205 416Q230 416 246 431Q262 446 271 469Q280 492 284 517Q287 541 287 560Q287 587 277 612Q267 637 234 637Q210 637 194 622Q178 607 169 584Q160 561 156 537Q152 512 152 493Q152 476 157 458Q161 440 173 428Q184 416 205 416ZM577 65Q602 65 618 80Q634 95 643 118Q652 141 656 166Q659 190 659 209Q659 236 649 261Q639 286 606 286Q582 286 566 271Q550 256 541 233Q532 210 528 186Q524 161 524 142Q524 125 529 107Q533 89 545 77Q556 65 577 65Z"  horiz-adv-x="770" vert-adv-y="1000"  />
      <glyph glyph-name="ampersand" unicode="&#x26;" d="M242 -10Q136 -10 84 39Q32 88 32 171Q32 230 58 270Q84 309 126 337Q168 365 214 387L214 388Q188 425 173 459Q158 493 158 538Q158 588 183 628Q208 667 252 690Q296 713 353 713Q433 713 475 672Q517 631 517 567Q517 517 496 481Q475 444 441 417Q407 390 367 368L469 224Q486 256 496 292Q506 328 508 362Q508 374 520 374L606 374Q618 374 618 362Q615 304 594 244Q573 183 534 132L622 9Q626 5 624 3Q622 0 617 0L500 0Q488 0 481 9L450 52Q408 23 356 7Q304 -10 242 -10ZM264 88Q302 88 335 100Q368 111 394 131L265 314Q219 288 187 258Q154 227 154 183Q154 141 182 115Q209 88 264 88ZM317 438Q358 460 385 488Q412 516 412 556Q412 581 396 599Q380 616 351 616Q316 616 297 594Q277 572 277 540Q277 514 288 490Q298 466 317 438Z"  horiz-adv-x="653" vert-adv-y="1000"  />
      <glyph glyph-name="quotesingle" unicode="&#x27;" d="M110 483Q97 483 99 495L114 701Q116 713 127 713L217 713Q229 713 227 701L192 495Q190 483 178 483Z"  horiz-adv-x="244" vert-adv-y="1000"  />
      <glyph glyph-name="parenleft" unicode="&#x28;" d="M211 -166Q201 -173 194 -163Q135 -76 106 27Q77 130 77 242Q77 341 104 440Q131 539 184 629Q236 719 312 792Q321 799 330 793L387 750Q396 744 389 734Q337 671 295 593Q253 514 229 425Q204 336 204 240Q204 140 224 58Q244 -24 285 -105Q292 -115 281 -122Z"  horiz-adv-x="360" vert-adv-y="1000"  />
      <glyph glyph-name="parenright" unicode="&#x29;" d="M62 -166L5 -123Q-4 -117 3 -107Q55 -44 97 35Q139 113 164 203Q188 292 188 387Q188 487 168 569Q148 651 107 732Q100 742 111 749L181 793Q191 800 198 790Q257 703 286 600Q315 497 315 385Q315 286 288 187Q261 88 209 -2Q156 -92 80 -165Q71 -172 62 -166Z"  horiz-adv-x="360" vert-adv-y="1000"  />
      <glyph glyph-name="asterisk" unicode="&#x2a;" d="M372 411Q363 403 356 415L307 510L234 414Q226 404 217 412L174 447Q164 454 173 463L253 555L149 587Q137 591 142 601L169 661Q175 674 185 667L285 628L295 744Q297 756 308 756L368 756Q380 756 378 744L358 627L470 668Q481 672 483 660L495 602Q497 590 485 586L373 554L430 464Q437 454 426 447Z"  horiz-adv-x="535" vert-adv-y="1000"  />
      <glyph glyph-name="plus" unicode="&#x2b;" d="M238 43Q225 43 227 55L251 251L61 251Q49 251 51 263L61 345Q63 357 74 357L264 357L288 553Q290 565 302 565L381 565Q393 565 391 553L367 357L556 357Q569 357 567 345L557 263Q555 251 543 251L354 251L330 55Q328 43 317 43Z"  horiz-adv-x="582" vert-adv-y="1000"  />
      <glyph glyph-name="comma" unicode="&#x2c;" d="M26 -126Q14 -126 18 -115Q40 -60 60 -6Q80 49 96 103Q99 115 111 115L198 115Q203 115 206 112Q208 109 206 104Q187 48 164 -7Q141 -61 117 -115Q110 -126 99 -126Z"  horiz-adv-x="264" vert-adv-y="1000"  />
      <glyph glyph-name="hyphen" unicode="&#x2d;" d="M104 236Q91 236 93 248L102 319Q104 331 115 331L444 331Q457 331 455 319L446 248Q444 236 433 236Z"  horiz-adv-x="514" vert-adv-y="1000"  />
      <glyph glyph-name="period" unicode="&#x2e;" d="M132 -10Q104 -10 85 10Q65 29 65 57Q65 87 87 108Q108 129 138 129Q166 129 185 110Q204 90 204 62Q204 32 183 11Q162 -10 132 -10Z"  horiz-adv-x="262" vert-adv-y="1000"  />
      <glyph glyph-name="slash" unicode="&#x2f;" d="M46 -46L-28 -46Q-39 -46 -36 -35L281 738Q287 749 298 749L372 749Q384 749 380 738L63 -35Q58 -46 46 -46Z"  horiz-adv-x="300" vert-adv-y="1000"  />
      <glyph glyph-name="zero" unicode="&#x30;" d="M268 -10Q154 -10 100 64Q45 138 45 265Q45 356 64 437Q82 518 120 580Q158 642 215 678Q272 713 350 713Q465 713 520 639Q574 565 574 437Q574 346 556 265Q537 184 499 122Q461 60 404 25Q346 -10 268 -10ZM281 101Q325 101 356 130Q386 158 406 205Q426 252 435 310Q444 368 444 428Q444 601 338 601Q295 601 264 573Q232 545 213 498Q193 450 184 392Q174 334 174 274Q174 189 201 145Q227 101 281 101Z"  horiz-adv-x="582" vert-adv-y="1000"  />
      <glyph glyph-name="one" unicode="&#x31;" d="M275 0Q263 0 265 12L333 572L126 462Q115 457 117 468L128 565Q130 578 140 583L367 702Q372 704 378 706Q384 708 389 708L468 708Q480 708 478 696L394 12Q392 0 381 0Z"  horiz-adv-x="582" vert-adv-y="1000"  />
      <glyph glyph-name="two" unicode="&#x32;" d="M46 0Q34 0 36 12L41 58Q47 118 72 162Q96 206 132 239Q168 271 209 297Q249 322 289 345Q329 367 362 391Q395 415 415 445Q435 475 435 516Q435 557 410 581Q385 605 330 605Q275 605 231 588Q186 570 145 541Q135 533 130 545L102 617Q97 628 107 635Q157 672 217 693Q276 713 350 713Q425 713 471 688Q517 663 538 621Q559 578 559 524Q559 465 533 422Q507 378 466 345Q424 311 377 284Q330 257 287 232Q243 206 213 178Q183 149 177 112L506 112Q518 112 516 100L506 12Q504 0 492 0Z"  horiz-adv-x="582" vert-adv-y="1000"  />
      <glyph glyph-name="three" unicode="&#x33;" d="M235 -10Q180 -10 132 2Q84 13 50 38Q40 45 47 56L96 139Q102 149 111 140Q166 94 238 94Q312 94 353 128Q394 161 394 215Q394 264 365 289Q335 313 267 313L206 313Q194 313 196 325L205 403Q207 415 219 415L275 415Q352 415 389 444Q426 473 426 522Q426 557 402 582Q377 606 321 606Q284 606 250 595Q215 584 179 563Q167 558 164 568L134 641Q131 653 140 659Q182 685 236 699Q289 713 348 713Q419 713 463 691Q507 668 527 629Q547 590 547 540Q547 479 509 432Q470 385 408 364Q519 330 519 212Q519 146 484 96Q449 46 385 18Q321 -10 235 -10Z"  horiz-adv-x="582" vert-adv-y="1000"  />
      <glyph glyph-name="four" unicode="&#x34;" d="M309 0Q297 0 299 12L319 178L43 178Q30 178 32 190L42 270Q44 284 51 292L361 693Q369 703 380 703L494 703Q507 703 505 691L455 282L556 282Q568 282 566 270L556 190Q554 178 543 178L442 178L422 12Q420 0 408 0ZM157 282L332 282L365 550Z"  horiz-adv-x="582" vert-adv-y="1000"  />
      <glyph glyph-name="five" unicode="&#x35;" d="M230 -10Q174 -10 123 4Q72 17 37 42Q27 49 34 60L87 141Q95 150 104 144Q166 97 245 97Q317 97 362 133Q406 169 406 232Q406 282 380 310Q353 337 295 337Q261 337 233 329Q205 321 179 307Q167 302 156 305L107 318Q95 321 97 333L165 691Q168 703 180 703L557 703Q569 703 567 691L556 602Q554 590 542 590L259 590L225 414Q250 422 278 427Q305 432 335 432Q437 432 484 380Q531 328 531 242Q531 168 495 111Q458 54 391 22Q323 -10 230 -10Z"  horiz-adv-x="582" vert-adv-y="1000"  />
      <glyph glyph-name="six" unicode="&#x36;" d="M280 -10Q202 -10 152 23Q102 56 78 115Q54 173 54 251Q54 341 89 425Q124 509 188 575Q252 641 341 678Q430 715 538 712Q551 712 549 700L545 617Q543 604 532 606Q457 608 391 582Q324 555 275 505Q226 455 200 386Q236 409 276 422Q315 435 359 435Q456 435 501 383Q545 330 545 247Q545 173 512 115Q478 56 419 23Q359 -10 280 -10ZM289 94Q347 94 385 131Q422 168 422 237Q422 283 398 313Q373 342 317 342Q282 342 247 328Q211 314 178 290Q177 280 177 271Q177 262 177 252Q177 170 208 132Q239 94 289 94Z"  horiz-adv-x="582" vert-adv-y="1000"  />
      <glyph glyph-name="seven" unicode="&#x37;" d="M102 0Q89 0 96 10L455 590L121 590Q108 590 110 602L121 691Q123 703 134 703L564 703Q576 703 578 691L585 639Q586 629 581 616L240 10Q233 0 222 0Z"  horiz-adv-x="582" vert-adv-y="1000"  />
      <glyph glyph-name="eight" unicode="&#x38;" d="M276 -10Q206 -10 151 8Q95 26 64 64Q32 102 32 163Q32 216 56 255Q79 293 117 320Q155 347 199 365Q160 388 134 425Q107 462 107 523Q107 578 137 621Q166 664 220 689Q274 713 348 713Q421 713 468 692Q515 670 538 634Q560 598 560 554Q560 491 522 448Q483 405 428 377Q461 361 489 338Q517 315 534 283Q550 250 550 202Q550 138 516 90Q481 42 419 16Q357 -10 276 -10ZM286 87Q353 87 391 118Q428 148 428 196Q428 232 407 255Q386 277 353 293Q320 309 283 324Q250 309 221 287Q191 265 173 238Q155 211 155 178Q155 128 192 108Q228 87 286 87ZM340 415Q389 438 417 468Q444 498 444 537Q444 572 420 594Q395 615 342 615Q288 615 256 591Q223 567 223 526Q223 482 258 459Q292 435 340 415Z"  horiz-adv-x="582" vert-adv-y="1000"  />
      <glyph glyph-name="nine" unicode="&#x39;" d="M84 -10Q71 -8 73 3L77 86Q79 99 90 97Q166 95 232 121Q298 147 348 198Q397 248 422 317Q386 294 347 281Q307 267 263 267Q166 267 122 320Q77 373 77 455Q77 530 111 588Q144 646 204 680Q264 713 342 713Q421 713 471 680Q520 647 544 589Q568 530 568 451Q568 361 533 278Q498 194 434 128Q370 62 281 25Q192 -13 84 -10ZM305 361Q340 361 376 375Q411 388 443 412Q444 422 445 432Q445 441 445 451Q445 533 414 571Q383 609 333 609Q275 609 238 572Q200 535 200 465Q200 419 225 390Q250 361 305 361Z"  horiz-adv-x="582" vert-adv-y="1000"  />
      <glyph glyph-name="colon" unicode="&#x3a;" d="M121 -10Q93 -10 73 10Q53 29 53 57Q53 87 75 108Q96 129 126 129Q154 129 174 110Q193 90 193 62Q193 32 172 11Q150 -10 121 -10ZM169 382Q141 382 122 402Q102 421 102 449Q102 479 124 500Q145 521 175 521Q203 521 222 502Q241 482 241 454Q241 424 220 403Q199 382 169 382Z"  horiz-adv-x="262" vert-adv-y="1000"  />
      <glyph glyph-name="semicolon" unicode="&#x3b;" d="M14 -126Q2 -126 7 -115Q28 -60 48 -6Q68 49 84 103Q87 115 99 115L186 115Q198 115 194 104Q175 48 152 -7Q129 -61 104 -115Q99 -126 87 -126ZM169 382Q141 382 122 402Q102 421 102 449Q102 479 124 500Q145 521 175 521Q203 521 222 502Q241 482 241 454Q241 424 220 403Q199 382 169 382Z"  horiz-adv-x="264" vert-adv-y="1000"  />
      <glyph glyph-name="less" unicode="&#x3c;" d="M509 1L56 251Q45 257 47 269L54 331Q56 343 67 348L583 601Q595 606 593 594L579 487Q577 475 567 470L205 300L524 131Q536 126 534 114L521 7Q519 -6 509 1Z"  horiz-adv-x="582" vert-adv-y="1000"  />
      <glyph glyph-name="equal" unicode="&#x3d;" d="M77 387Q65 387 67 399L77 481Q79 493 90 493L572 493Q585 493 583 481L573 399Q571 387 559 387ZM45 115Q33 115 35 127L45 209Q47 221 58 221L540 221Q553 221 551 209L541 127Q539 115 527 115Z"  horiz-adv-x="582" vert-adv-y="1000"  />
      <glyph glyph-name="greater" unicode="&#x3e;" d="M29 0Q17 -5 19 7L33 114Q35 126 45 131L407 301L88 470Q76 475 78 487L91 594Q93 607 103 600L556 350Q567 344 565 332L558 270Q556 258 545 253Z"  horiz-adv-x="582" vert-adv-y="1000"  />
      <glyph glyph-name="question" unicode="&#x3f;" d="M229 -10Q201 -10 182 10Q162 29 162 57Q162 87 184 108Q205 129 235 129Q263 129 282 110Q301 90 301 62Q301 32 280 11Q259 -10 229 -10ZM220 216Q208 216 205 228Q196 261 200 288Q205 332 232 361Q258 390 295 416Q345 451 374 477Q402 502 402 542Q402 574 382 592Q362 610 321 610Q249 610 173 556Q164 550 159 560L125 637Q120 647 130 654Q185 687 237 700Q289 713 339 713Q429 713 477 670Q524 627 524 556Q524 513 507 481Q489 449 460 425Q431 400 395 376Q368 358 343 339Q318 319 302 293Q285 267 282 228Q280 216 270 216Z"  horiz-adv-x="538" vert-adv-y="1000"  />
      <glyph glyph-name="at" unicode="&#x40;" d="M431 -55Q298 -55 213 -9Q127 38 91 122Q54 205 67 317Q76 391 111 462Q145 532 203 589Q260 645 340 679Q419 713 518 713Q630 713 707 676Q784 638 821 570Q857 501 845 407Q835 320 794 259Q753 198 698 166Q642 134 585 134Q542 134 522 152Q502 170 500 198Q477 170 445 152Q412 134 368 134Q306 134 277 175Q247 216 254 272Q262 340 300 396Q338 452 398 486Q457 519 527 519Q610 519 668 493Q679 487 674 477L608 309Q602 294 599 282Q596 270 594 261Q592 244 598 234Q604 224 623 224Q651 224 680 245Q708 265 731 306Q753 346 760 405Q768 472 742 524Q715 575 656 605Q596 635 506 635Q428 635 367 608Q305 581 261 536Q216 490 190 434Q163 377 155 317Q144 227 174 160Q203 93 272 56Q340 18 444 18Q485 18 525 25Q565 31 594 38Q606 41 608 29L614 -16Q616 -28 605 -32Q570 -42 522 -49Q473 -55 431 -55ZM410 224Q453 224 472 249Q491 273 503 302L553 427Q545 429 535 431Q525 432 511 432Q474 432 441 414Q408 395 387 363Q365 331 360 289Q357 261 371 243Q384 224 410 224Z"  horiz-adv-x="865" vert-adv-y="1000"  />
      <glyph glyph-name="A" unicode="&#x41;" d="M93 -4L-8 2Q-20 4 -15 14Q16 73 54 143Q91 213 131 288Q171 363 212 437Q252 510 289 577Q326 644 357 697Q363 708 375 708L472 708Q484 708 487 696Q502 626 520 541Q537 456 555 365Q573 273 590 184Q607 95 621 15Q623 4 611 2L501 -4Q489 -6 487 7Q485 17 482 39Q478 61 475 87Q471 112 468 133Q465 154 463 163L192 163Q189 157 177 135Q165 113 151 86Q137 58 125 36Q113 13 110 6Q104 -6 93 -4ZM245 270L445 270Q438 320 429 369Q419 418 410 464Q407 486 405 514Q402 541 402 569L396 569Q386 541 373 513Q359 485 347 463Q344 456 334 437Q323 417 310 392Q296 367 283 342Q269 316 259 297Q248 277 245 270Z"  horiz-adv-x="646" vert-adv-y="1000"  />
      <glyph glyph-name="B" unicode="&#x42;" d="M257 -10Q202 -10 153 -7Q104 -4 63 3Q50 7 52 18L133 689Q135 702 147 702Q190 708 234 711Q277 713 318 713Q450 713 515 668Q579 622 579 535Q579 470 547 431Q515 391 467 372Q528 353 563 315Q598 277 598 205Q598 140 564 92Q529 43 454 17Q379 -10 257 -10ZM299 93Q386 93 428 124Q470 154 470 210Q470 313 332 313L217 313L191 99Q244 93 299 93ZM230 415L329 415Q382 415 417 439Q451 463 451 515Q451 565 419 587Q387 608 322 608Q302 608 285 608Q268 607 252 606Z"  horiz-adv-x="636" vert-adv-y="1000"  />
      <glyph glyph-name="C" unicode="&#x43;" d="M346 -10Q250 -10 188 29Q126 68 96 139Q66 209 66 302Q66 385 88 460Q109 534 153 591Q197 648 264 681Q330 713 419 713Q481 713 529 701Q576 688 610 668Q620 663 615 651L570 563Q565 553 555 559Q523 581 486 590Q449 599 412 599Q343 599 295 562Q246 525 221 460Q196 394 196 308Q196 200 241 152Q285 104 373 104Q455 104 527 149Q536 157 541 145L568 63Q571 53 562 45Q517 17 463 4Q409 -10 346 -10Z"  horiz-adv-x="590" vert-adv-y="1000"  />
      <glyph glyph-name="D" unicode="&#x44;" d="M256 -10Q203 -10 155 -7Q106 -3 63 5Q50 9 52 20L134 689Q136 701 148 703Q214 713 301 713Q430 713 506 673Q582 632 615 561Q648 489 648 396Q648 196 552 93Q456 -10 256 -10ZM275 103Q391 103 455 171Q518 238 518 386Q518 496 468 547Q418 598 317 598Q299 598 283 597Q267 596 252 594L192 108Q212 106 233 105Q253 103 275 103Z"  horiz-adv-x="671" vert-adv-y="1000"  />
      <glyph glyph-name="E" unicode="&#x45;" d="M63 0Q50 0 52 12L135 691Q137 703 149 703L585 703Q597 703 595 691L584 599Q582 587 571 587L252 587L231 414L518 414Q529 414 529 402L517 311Q517 299 504 299L217 299L194 115L520 115Q532 115 530 103L519 12Q517 0 506 0Z"  horiz-adv-x="585" vert-adv-y="1000"  />
      <glyph glyph-name="F" unicode="&#x46;" d="M63 0Q50 0 52 12L135 691Q137 703 149 703L571 703Q583 703 581 691L570 597Q568 585 557 585L252 585L229 398L502 398Q514 398 512 386L501 294Q499 282 487 282L215 282L182 12Q180 0 168 0Z"  horiz-adv-x="553" vert-adv-y="1000"  />
      <glyph glyph-name="G" unicode="&#x47;" d="M373 -10Q268 -10 200 29Q132 67 99 137Q66 207 66 302Q66 385 88 460Q110 534 154 591Q198 648 265 681Q331 713 420 713Q483 713 532 700Q580 686 615 666Q625 661 620 649L574 559Q569 548 559 556Q528 578 491 589Q453 599 413 599Q344 599 296 563Q247 526 222 461Q196 395 196 308Q196 207 245 154Q293 101 385 101Q406 101 425 103Q443 105 460 109L480 261L367 261Q355 261 357 273L368 361Q368 373 381 373L600 373Q612 373 610 361L571 45Q569 31 559 28Q516 6 470 -2Q423 -10 373 -10Z"  horiz-adv-x="653" vert-adv-y="1000"  />
      <glyph glyph-name="H" unicode="&#x48;" d="M63 0Q50 0 52 12L135 691Q137 703 149 703L254 703Q267 703 265 691L231 412L535 412L569 691Q571 703 582 703L688 703Q700 703 698 691L615 12Q613 0 602 0L496 0Q484 0 486 12L521 299L217 299L182 12Q180 0 168 0Z"  horiz-adv-x="709" vert-adv-y="1000"  />
      <glyph glyph-name="I" unicode="&#x49;" d="M63 0Q50 0 52 12L135 691Q137 703 149 703L254 703Q267 703 265 691L182 12Q180 0 168 0Z"  horiz-adv-x="275" vert-adv-y="1000"  />
      <glyph glyph-name="J" unicode="&#x4a;" d="M-108 -197Q-121 -197 -121 -185L-134 -102Q-134 -90 -123 -90Q-43 -87 4 -43Q50 1 62 99L135 691Q137 703 149 703L254 703Q266 703 264 691L191 94Q173 -51 95 -122Q16 -193 -108 -197Z"  horiz-adv-x="275" vert-adv-y="1000"  />
      <glyph glyph-name="K" unicode="&#x4b;" d="M481 -8Q469 -10 463 0Q443 33 415 76Q386 119 353 167Q320 215 287 262Q253 309 223 349L182 12Q180 0 168 0L63 0Q50 0 52 12L135 691Q137 703 149 703L254 703Q267 703 265 691L228 391Q281 440 337 494Q393 548 445 603Q497 657 538 704Q546 712 558 710L664 687Q675 683 667 675Q641 647 603 609Q564 570 520 528Q476 486 433 446Q389 405 353 373Q383 335 418 289Q452 243 487 196Q521 149 551 106Q581 62 602 29Q608 19 597 16Z"  horiz-adv-x="624" vert-adv-y="1000"  />
      <glyph glyph-name="L" unicode="&#x4c;" d="M63 0Q50 0 52 12L135 691Q137 703 149 703L254 703Q267 703 265 691L194 115L494 115Q506 115 504 103L493 12Q491 0 480 0Z"  horiz-adv-x="536" vert-adv-y="1000"  />
      <glyph glyph-name="M" unicode="&#x4d;" d="M139 -4L42 2Q30 4 32 15Q53 118 78 236Q102 353 129 471Q155 588 178 691Q181 703 193 703L283 703Q295 703 298 691L423 287Q427 274 431 255Q435 236 437 215L442 215Q449 236 459 257Q468 277 476 292Q526 385 584 489Q642 593 697 692Q703 703 715 703L809 703Q821 703 821 691Q820 619 818 535Q816 451 813 362Q810 273 807 185Q804 96 800 15Q798 4 787 2L682 -4Q670 -6 670 7L693 370L702 483L696 483Q684 455 668 424Q652 393 639 370L463 44Q458 33 445 33L382 33Q370 33 367 45Q348 115 323 203Q297 290 272 372Q266 394 259 426Q251 457 246 482L240 482Q237 457 231 426Q225 395 221 372Q211 318 199 255Q187 192 175 128Q163 64 153 7Q151 -6 139 -4Z"  horiz-adv-x="873" vert-adv-y="1000"  />
      <glyph glyph-name="N" unicode="&#x4e;" d="M63 0Q59 0 55 3Q51 6 52 12L135 691Q137 703 148 703L229 703Q241 703 247 692Q274 646 306 590Q337 534 378 461Q418 387 470 288Q476 277 483 263Q489 249 493 235L499 235Q500 258 502 282Q503 305 506 330L550 691Q552 703 563 703L665 703Q670 703 674 700Q677 697 676 691L594 12Q592 0 581 0L501 0Q489 0 483 11Q452 73 416 141Q380 209 343 278Q306 346 271 408Q262 423 253 443Q244 463 237 485L231 485Q230 463 228 440Q226 416 223 390L177 12Q175 0 164 0Z"  horiz-adv-x="687" vert-adv-y="1000"  />
      <glyph glyph-name="O" unicode="&#x4f;" d="M325 -10Q195 -10 131 67Q66 143 66 273Q66 360 86 439Q106 518 147 580Q188 642 252 678Q315 713 402 713Q533 713 597 636Q661 559 661 429Q661 342 641 263Q621 184 580 123Q539 61 476 26Q412 -10 325 -10ZM334 103Q400 103 443 146Q486 188 508 260Q529 331 529 416Q529 599 392 599Q327 599 284 557Q240 514 219 443Q197 372 197 286Q197 103 334 103Z"  horiz-adv-x="684" vert-adv-y="1000"  />
      <glyph glyph-name="P" unicode="&#x50;" d="M63 0Q50 0 52 12L135 686Q137 698 148 700Q189 707 234 710Q279 713 322 713Q456 713 532 663Q608 612 606 499Q605 429 568 380Q531 330 466 304Q400 278 311 278Q281 278 259 279Q236 280 215 282L182 12Q180 0 168 0ZM318 381Q398 381 437 413Q476 444 477 499Q477 547 443 579Q408 610 325 610Q287 610 254 607L227 386Q249 384 273 383Q296 381 318 381Z"  horiz-adv-x="607" vert-adv-y="1000"  />
      <glyph glyph-name="Q" unicode="&#x51;" d="M601 -171Q570 -150 530 -119Q489 -87 451 -56Q413 -24 387 -4Q357 -10 325 -10Q195 -10 131 67Q66 143 66 273Q66 360 86 439Q106 518 147 580Q188 642 252 678Q315 713 402 713Q533 713 597 636Q661 559 661 429Q661 346 644 271Q626 195 589 135Q552 74 495 37Q525 18 558 -2Q591 -22 622 -40Q653 -58 675 -70Q680 -72 681 -77Q682 -81 678 -85L618 -168Q611 -178 601 -171ZM334 103Q400 103 443 146Q486 188 508 260Q529 331 529 416Q529 599 392 599Q327 599 284 557Q240 514 219 443Q197 372 197 286Q197 103 334 103Z"  horiz-adv-x="682" vert-adv-y="1000"  />
      <glyph glyph-name="R" unicode="&#x52;" d="M495 -7Q485 -10 478 1Q444 68 405 144Q365 220 324 286L306 286Q280 286 258 287Q236 288 215 290L182 12Q180 0 168 0L63 0Q50 0 52 12L135 686Q137 699 148 699Q189 707 232 710Q274 713 321 713Q410 713 474 692Q537 670 571 624Q604 577 601 500Q599 432 561 382Q522 331 448 306Q474 266 503 217Q532 167 560 118Q587 69 607 30Q612 19 601 16ZM317 388Q391 388 431 417Q471 445 473 500Q475 555 436 583Q397 610 323 610Q288 610 255 607L228 393Q248 391 271 390Q293 388 317 388Z"  horiz-adv-x="631" vert-adv-y="1000"  />
      <glyph glyph-name="S" unicode="&#x53;" d="M252 -10Q188 -10 131 1Q74 12 33 34Q23 41 26 51L56 149Q59 159 70 154Q111 132 160 118Q208 103 260 103Q331 103 365 129Q398 155 398 198Q398 232 375 252Q351 272 314 286Q277 299 236 313Q195 327 158 349Q121 371 98 408Q74 445 74 505Q74 606 146 660Q217 713 335 713Q397 713 451 701Q504 689 538 672Q549 667 545 656L514 562Q511 552 500 557Q468 574 424 586Q379 598 333 598Q266 598 235 573Q204 547 204 512Q204 479 228 459Q252 439 290 426Q327 412 369 398Q411 383 449 361Q486 339 510 304Q534 268 534 211Q534 150 505 100Q475 50 413 20Q350 -10 252 -10Z"  horiz-adv-x="559" vert-adv-y="1000"  />
      <glyph glyph-name="T" unicode="&#x54;" d="M227 0Q215 0 217 12L287 587L78 587Q65 587 67 599L78 691Q80 703 92 703L639 703Q652 703 650 691L639 599Q637 587 625 587L417 587L346 12Q344 0 333 0Z"  horiz-adv-x="603" vert-adv-y="1000"  />
      <glyph glyph-name="U" unicode="&#x55;" d="M319 -10Q186 -10 125 66Q63 142 83 307L131 691Q133 703 144 703L250 703Q262 703 260 691L212 299Q199 194 229 149Q258 104 334 104Q411 104 452 147Q492 190 505 299L554 691Q556 703 567 703L673 703Q685 703 683 691L636 307Q622 189 581 120Q540 50 475 20Q409 -10 319 -10Z"  horiz-adv-x="687" vert-adv-y="1000"  />
      <glyph glyph-name="V" unicode="&#x56;" d="M249 -5Q237 -5 234 6Q224 39 209 98Q194 156 175 230Q156 304 137 384Q118 463 100 539Q82 614 68 675Q65 687 77 689L190 707Q202 709 204 697Q223 603 247 494Q270 385 294 286Q301 257 308 226Q314 194 320 149L326 149Q343 193 358 225Q373 257 387 286Q419 352 453 424Q486 495 519 565Q551 635 579 698Q583 709 595 706L693 687Q706 685 700 674Q671 613 634 538Q597 462 558 382Q518 302 481 229Q443 155 413 96Q383 37 365 5Q360 -5 347 -5Z"  horiz-adv-x="646" vert-adv-y="1000"  />
      <glyph glyph-name="W" unicode="&#x57;" d="M211 -5Q199 -5 196 7Q189 39 177 98Q165 156 151 230Q136 304 121 384Q106 463 92 539Q78 614 67 675Q65 687 77 689L189 707Q201 709 203 697Q217 603 235 494Q252 385 271 286Q276 257 282 226Q287 194 291 149L295 149Q311 193 324 225Q337 257 350 286Q394 385 439 495Q483 604 520 698Q525 709 537 709L635 709Q647 709 649 697Q662 603 681 494Q699 385 718 286Q724 257 729 225Q734 193 739 149L743 149Q760 194 773 226Q785 257 797 286Q840 386 885 495Q929 604 966 698Q971 709 983 707L1079 689Q1090 687 1087 676Q1062 615 1030 540Q997 464 963 384Q928 304 895 230Q862 156 836 97Q809 38 793 6Q790 -5 776 -5L674 -5Q662 -5 659 7Q652 38 640 92Q628 146 614 214Q600 282 586 354Q579 388 574 424Q568 459 562 510L557 510Q538 459 524 425Q510 391 494 357Q462 285 431 216Q400 146 375 91Q350 36 334 5Q331 -5 317 -5Z"  horiz-adv-x="1033" vert-adv-y="1000"  />
      <glyph glyph-name="X" unicode="&#x58;" d="M92 -7L-5 17Q-16 20 -9 30Q27 73 76 130Q124 186 177 246Q229 306 276 359Q243 410 208 467Q172 523 140 577Q107 631 83 672Q77 682 88 686L200 710Q212 712 218 702Q247 649 285 585Q322 520 356 463Q406 522 459 586Q511 650 555 703Q561 713 574 709L672 686Q682 683 676 673Q642 633 597 580Q551 526 503 470Q455 414 411 363Q444 310 481 249Q518 188 553 131Q587 73 613 30Q616 26 615 22Q613 18 608 17L501 -7Q490 -10 483 0Q449 59 410 127Q370 194 329 258Q274 195 216 126Q158 56 111 -1Q105 -11 92 -7Z"  horiz-adv-x="641" vert-adv-y="1000"  />
      <glyph glyph-name="Y" unicode="&#x59;" d="M233 0Q221 0 223 12L255 281Q225 340 191 410Q157 479 125 549Q92 618 66 676Q60 687 73 689L180 708Q192 710 197 699Q217 653 242 597Q267 541 289 494Q300 471 312 447Q323 422 334 391L340 391Q359 422 377 448Q395 473 412 495Q435 526 462 563Q488 599 515 635Q541 671 562 700Q569 710 581 707L675 688Q686 685 680 675Q650 633 613 584Q576 534 537 482Q497 430 458 380Q419 330 385 288L352 12Q350 0 339 0Z"  horiz-adv-x="624" vert-adv-y="1000"  />
      <glyph glyph-name="Z" unicode="&#x5a;" d="M24 0Q13 0 11 12L9 80Q9 93 17 101Q44 128 74 161Q103 194 128 223L326 468Q354 500 380 532Q406 563 432 591L243 585L97 585Q85 585 87 597L98 691Q100 703 112 703L581 703Q593 703 593 691L595 619Q595 608 586 599Q560 572 531 539Q501 506 477 477L279 236Q251 202 224 172Q196 141 170 112L382 118L522 118Q535 118 533 106L521 12Q519 0 508 0Z"  horiz-adv-x="565" vert-adv-y="1000"  />
      <glyph glyph-name="bracketleft" unicode="&#x5b;" d="M34 -162Q22 -162 24 -150L138 777Q140 789 151 789L383 789Q396 789 394 777L384 698Q382 686 371 686L256 686L164 -59L279 -59Q290 -59 290 -71L280 -150Q278 -162 266 -162Z"  horiz-adv-x="356" vert-adv-y="1000"  />
      <glyph glyph-name="backslash" unicode="&#x5c;" d="M398 -46Q386 -46 381 -35L64 738Q60 749 72 749L146 749Q158 749 163 738L480 -35Q483 -46 472 -46Z"  horiz-adv-x="502" vert-adv-y="1000"  />
      <glyph glyph-name="bracketright" unicode="&#x5d;" d="M8 -162Q-5 -162 -3 -150L7 -71Q9 -59 20 -59L135 -59L227 686L112 686Q101 686 101 698L111 777Q113 789 125 789L357 789Q369 789 367 777L253 -150Q251 -162 240 -162Z"  horiz-adv-x="356" vert-adv-y="1000"  />
      <glyph glyph-name="asciicircum" unicode="&#x5e;" d="M136 180L52 205Q41 208 46 220Q67 262 94 313Q121 363 150 416Q179 469 207 519Q234 568 257 608Q280 648 294 671Q301 681 312 681L393 681Q405 681 409 670Q420 640 437 587Q454 533 474 468Q494 402 513 338Q532 273 546 221Q549 210 538 205L446 180Q434 175 432 188Q412 268 386 360Q360 451 334 535Q288 451 240 359Q192 267 153 187Q148 177 136 180Z"  horiz-adv-x="592" vert-adv-y="1000"  />
      <glyph glyph-name="underscore" unicode="&#x5f;" d="M-36 -187Q-49 -187 -47 -175L-38 -104Q-36 -92 -25 -92L488 -92Q501 -92 499 -104L490 -175Q488 -187 477 -187Z"  horiz-adv-x="514" vert-adv-y="1000"  />
      <glyph glyph-name="grave" unicode="&#x60;" d="M330 579Q319 579 312 589Q284 633 253 681Q221 728 187 777Q183 781 185 784Q187 786 192 786L290 786Q302 786 309 776Q336 733 364 685Q391 636 416 589Q423 579 410 579Z"  horiz-adv-x="489" vert-adv-y="1000"  />
      <glyph glyph-name="a" unicode="&#x61;" d="M220 -10Q157 -10 119 19Q81 48 64 96Q47 143 47 199Q47 301 82 373Q117 445 179 483Q241 521 321 521Q379 521 427 508Q474 494 516 475Q527 468 525 457L491 174Q486 133 488 106Q490 78 508 51Q514 42 504 35L441 0Q431 -6 420 -2Q383 16 373 73Q339 27 300 9Q261 -10 220 -10ZM254 89Q299 89 336 147Q372 205 387 327L397 405Q381 413 363 418Q344 423 324 423Q254 423 212 366Q170 308 170 213Q170 162 189 126Q208 89 254 89Z"  horiz-adv-x="561" vert-adv-y="1000"  />
      <glyph glyph-name="b" unicode="&#x62;" d="M248 -10Q186 -10 139 3Q91 16 58 35Q47 40 49 53L135 752Q137 764 149 764L246 764Q259 764 257 752L218 442Q252 487 291 504Q330 521 366 521Q430 521 466 493Q501 464 516 417Q530 370 530 312Q530 204 495 133Q459 61 396 26Q332 -10 248 -10ZM258 87Q329 87 368 141Q407 194 407 297Q407 349 391 386Q374 422 328 422Q283 422 243 364Q203 306 187 183L177 101Q194 95 215 91Q236 87 258 87Z"  horiz-adv-x="566" vert-adv-y="1000"  />
      <glyph glyph-name="c" unicode="&#x63;" d="M268 -10Q159 -10 104 53Q48 116 48 224Q48 305 81 373Q113 440 174 481Q234 521 318 521Q363 521 403 513Q442 504 476 484Q486 477 481 466L444 395Q439 385 428 391Q409 402 382 410Q355 418 326 418Q273 418 239 392Q205 365 189 323Q172 281 172 235Q172 166 204 130Q235 93 299 93Q330 93 358 101Q385 109 407 122Q417 128 420 117L443 47Q446 37 436 30Q405 12 360 1Q315 -10 268 -10Z"  horiz-adv-x="481" vert-adv-y="1000"  />
      <glyph glyph-name="d" unicode="&#x64;" d="M220 -10Q157 -10 120 19Q82 48 65 96Q48 143 48 199Q48 356 120 439Q192 521 310 521Q339 521 365 514Q391 507 413 496L445 752Q447 764 458 764L556 764Q568 764 566 752L496 174Q491 133 493 106Q495 78 513 51Q519 42 509 35L446 0Q436 -6 425 -2Q386 18 376 82Q342 30 301 10Q259 -10 220 -10ZM255 89Q300 89 339 147Q377 205 392 327L401 399Q385 409 364 416Q343 423 319 423Q250 423 211 369Q171 314 171 213Q171 162 190 126Q209 89 255 89Z"  horiz-adv-x="566" vert-adv-y="1000"  />
      <glyph glyph-name="e" unicode="&#x65;" d="M270 -10Q155 -10 102 53Q48 116 48 216Q48 302 87 371Q126 440 194 481Q262 521 348 521Q404 521 439 502Q474 482 490 451Q506 419 506 383Q506 294 423 239Q339 184 178 176Q188 133 217 110Q245 87 295 87Q334 87 369 98Q404 109 432 128Q442 134 445 123L463 57Q466 45 456 38Q422 17 374 4Q325 -10 270 -10ZM174 254Q236 255 286 267Q335 278 364 303Q393 328 393 367Q393 391 377 409Q361 426 329 426Q286 426 253 399Q219 372 199 333Q179 293 174 254Z"  horiz-adv-x="527" vert-adv-y="1000"  />
      <glyph glyph-name="f" unicode="&#x66;" d="M-7 -231Q-19 -234 -23 -224L-51 -151Q-55 -141 -45 -134Q2 -111 26 -74Q50 -37 58 25L113 419L47 419Q35 419 37 431L46 499Q48 511 60 511L126 511L129 531Q139 599 163 654Q186 709 235 742Q284 774 368 774Q397 774 422 770Q447 765 469 757Q480 754 476 742L445 662Q440 651 429 656Q414 661 398 664Q381 667 363 667Q314 667 288 637Q261 607 250 532L247 511L370 511Q381 511 381 499L371 431Q371 419 358 419L234 419L180 25Q169 -54 142 -104Q115 -153 77 -183Q38 -212 -7 -231Z"  horiz-adv-x="349" vert-adv-y="1000"  />
      <glyph glyph-name="g" unicode="&#x67;" d="M201 -254Q141 -254 95 -241Q49 -228 17 -205Q7 -198 12 -187L49 -108Q53 -98 63 -104Q92 -126 125 -138Q157 -150 196 -150Q243 -150 274 -134Q305 -118 324 -78Q343 -38 352 34L354 50Q323 16 289 3Q255 -10 220 -10Q157 -10 119 19Q81 48 64 96Q47 143 47 199Q47 301 82 373Q117 445 179 483Q241 521 321 521Q379 521 427 508Q474 495 516 476Q527 469 525 458L475 46Q463 -54 433 -121Q403 -187 348 -221Q292 -254 201 -254ZM254 89Q299 89 336 146Q372 202 387 325L397 405Q381 413 363 418Q344 423 324 423Q254 423 212 366Q170 308 170 213Q170 162 189 126Q208 89 254 89Z"  horiz-adv-x="561" vert-adv-y="1000"  />
      <glyph glyph-name="h" unicode="&#x68;" d="M55 0Q42 0 44 12L135 752Q137 764 149 764L246 764Q259 764 257 752L216 423Q253 477 299 499Q344 521 398 521Q462 521 496 491Q529 460 539 406Q549 352 540 279L520 116Q517 88 516 64Q515 39 516 19Q518 8 505 6L407 0Q395 0 393 11Q392 30 393 55Q394 79 398 113L417 271Q426 341 411 376Q396 411 346 411Q311 411 279 390Q246 369 221 314Q196 259 184 158L166 12Q164 0 152 0Z"  horiz-adv-x="598" vert-adv-y="1000"  />
      <glyph glyph-name="i" unicode="&#x69;" d="M55 0Q42 0 44 12L104 499Q106 511 117 511L215 511Q227 511 225 499L166 12Q164 0 152 0ZM188 638Q158 638 138 659Q117 679 117 709Q117 740 140 762Q162 784 193 784Q223 784 243 764Q263 743 263 713Q263 682 241 660Q219 638 188 638Z"  horiz-adv-x="256" vert-adv-y="1000"  />
      <glyph glyph-name="j" unicode="&#x6a;" d="M-84 -252Q-95 -252 -97 -240L-108 -153Q-110 -141 -98 -141Q-60 -139 -31 -123Q-1 -107 19 -70Q38 -33 46 32L104 499Q106 511 117 511L215 511Q227 511 225 499L168 31Q150 -111 89 -180Q28 -248 -84 -252ZM188 638Q158 638 138 659Q117 679 117 709Q117 740 140 762Q162 784 193 784Q223 784 243 764Q263 743 263 713Q263 682 241 660Q219 638 188 638Z"  horiz-adv-x="256" vert-adv-y="1000"  />
      <glyph glyph-name="k" unicode="&#x6b;" d="M409 -6Q397 -8 390 2Q367 33 334 75Q300 117 264 162Q228 206 194 244L166 12Q164 0 152 0L55 0Q42 0 44 12L135 752Q137 764 149 764L246 764Q259 764 257 752L200 293Q262 346 324 404Q385 461 434 510Q443 519 455 517L561 497Q573 495 565 486Q536 457 492 419Q448 380 401 341Q354 302 316 273Q350 238 389 193Q428 148 464 104Q500 60 525 27Q532 17 520 15Z"  horiz-adv-x="546" vert-adv-y="1000"  />
      <glyph glyph-name="l" unicode="&#x6c;" d="M187 -5Q138 -2 112 18Q85 38 75 70Q64 102 64 141Q64 161 66 181Q68 200 70 220L135 752Q137 764 148 764L246 764Q258 764 256 752L193 237Q190 215 188 196Q186 176 186 160Q186 130 196 111Q206 92 234 84Q247 81 240 71L205 5Q200 -5 187 -5Z"  horiz-adv-x="267" vert-adv-y="1000"  />
      <glyph glyph-name="m" unicode="&#x6d;" d="M64 0Q52 0 54 12L93 336Q98 377 96 405Q94 432 76 459Q70 470 80 475L143 510Q155 517 164 512Q205 491 214 416Q250 475 296 498Q342 521 394 521Q453 521 485 493Q517 465 528 414Q566 474 616 498Q665 521 717 521Q780 521 813 491Q846 460 855 406Q864 352 855 279L835 116Q832 88 831 64Q830 39 831 19Q833 8 820 6L722 0Q710 0 708 11Q707 30 708 55Q709 79 713 113L733 271Q741 341 727 376Q713 411 666 411Q634 411 605 390Q575 369 553 314Q530 259 517 158L498 12Q496 0 485 0L387 0Q374 0 376 12L409 272Q418 341 403 376Q388 411 342 411Q310 411 281 390Q251 369 228 314Q205 259 193 158L175 12Q173 0 162 0Z"  horiz-adv-x="913" vert-adv-y="1000"  />
      <glyph glyph-name="n" unicode="&#x6e;" d="M64 0Q52 0 54 12L93 336Q98 377 96 405Q94 432 76 459Q70 470 80 475L143 510Q155 517 164 512Q207 490 214 413Q253 473 303 497Q352 521 407 521Q471 521 505 491Q538 460 548 406Q558 352 549 279L529 116Q526 88 525 64Q524 39 525 19Q527 8 514 6L416 0Q404 0 402 11Q401 30 402 55Q403 79 407 113L427 271Q435 341 420 376Q405 411 355 411Q321 411 289 390Q256 369 231 314Q206 259 193 158L175 12Q173 0 162 0Z"  horiz-adv-x="607" vert-adv-y="1000"  />
      <glyph glyph-name="o" unicode="&#x6f;" d="M269 -10Q191 -10 142 18Q93 45 71 94Q48 143 48 205Q48 290 78 362Q107 433 169 477Q230 521 325 521Q404 521 453 494Q502 466 525 418Q547 369 547 306Q547 222 518 150Q488 78 427 34Q365 -10 269 -10ZM278 87Q319 87 347 106Q375 124 392 155Q408 186 416 224Q423 261 423 298Q423 356 398 390Q373 424 317 424Q262 424 230 392Q198 360 185 312Q171 263 171 213Q171 155 196 121Q221 87 278 87Z"  horiz-adv-x="582" vert-adv-y="1000"  />
      <glyph glyph-name="p" unicode="&#x70;" d="M34 -250Q21 -250 23 -238L93 336Q98 377 96 405Q94 432 76 459Q70 470 80 475L143 510Q155 517 164 512Q203 492 213 425Q249 481 293 501Q336 521 376 521Q440 521 476 493Q512 464 527 417Q542 370 542 312Q542 204 509 133Q475 61 415 26Q354 -10 274 -10Q246 -10 221 -7Q196 -3 174 3L145 -238Q143 -250 131 -250ZM267 87Q338 87 378 141Q418 194 418 297Q418 349 401 386Q383 422 337 422Q292 422 252 364Q212 306 197 183L186 101Q203 95 224 91Q245 87 267 87Z"  horiz-adv-x="577" vert-adv-y="1000"  />
      <glyph glyph-name="q" unicode="&#x71;" d="M330 -250Q318 -250 320 -238L354 48Q330 20 299 5Q267 -10 228 -10Q143 -10 96 45Q48 100 48 204Q48 299 78 371Q107 442 162 482Q217 521 294 521Q337 521 372 508Q407 495 432 473Q453 503 479 515Q489 520 500 512L552 478Q561 471 554 462Q535 440 527 415Q518 390 514 355L441 -238Q439 -250 428 -250ZM255 89Q291 89 318 116Q344 142 361 189Q378 236 385 295L397 396Q379 408 359 416Q338 423 313 423Q247 423 209 367Q171 311 171 213Q171 162 190 126Q209 89 255 89Z"  horiz-adv-x="562" vert-adv-y="1000"  />
      <glyph glyph-name="r" unicode="&#x72;" d="M64 0Q52 0 54 12L93 336Q98 370 96 401Q94 431 77 459Q69 470 80 475L143 510Q155 517 164 512Q190 499 201 473Q212 446 215 413Q240 465 275 493Q310 521 366 521Q403 521 425 513Q437 510 433 497L404 408Q401 397 389 400Q377 405 365 408Q352 410 339 410Q288 410 250 361Q212 311 198 203L175 12Q173 0 162 0Z"  horiz-adv-x="412" vert-adv-y="1000"  />
      <glyph glyph-name="s" unicode="&#x73;" d="M202 -10Q89 -10 21 29Q10 34 15 46L41 118Q46 128 56 122Q87 103 124 91Q160 78 206 79Q247 79 271 94Q294 109 294 140Q294 163 277 177Q260 190 234 200Q208 210 178 222Q148 233 122 251Q96 268 79 297Q62 325 62 370Q62 446 118 484Q174 521 260 521Q312 521 356 509Q399 497 427 482Q438 475 433 465L408 397Q403 386 394 392Q369 408 334 419Q299 429 261 429Q221 429 199 414Q177 399 177 375Q177 353 194 339Q211 325 238 315Q265 304 295 292Q325 280 352 263Q379 245 396 218Q413 191 413 149Q413 79 363 35Q312 -10 202 -10Z"  horiz-adv-x="455" vert-adv-y="1000"  />
      <glyph glyph-name="t" unicode="&#x74;" d="M245 -10Q169 -10 134 22Q99 53 93 107Q87 160 96 225L123 419L49 419Q37 419 39 431L48 499Q50 511 62 511L136 511L157 661Q159 673 171 673L268 673Q280 673 278 661L257 511L392 511Q404 511 402 499L393 431Q391 419 379 419L244 419L215 211Q207 151 223 125Q239 98 282 98Q316 98 343 108Q354 111 354 100L352 22Q352 10 341 6Q319 -1 295 -6Q271 -10 245 -10Z"  horiz-adv-x="392" vert-adv-y="1000"  />
      <glyph glyph-name="u" unicode="&#x75;" d="M223 -10Q123 -10 90 53Q57 116 70 225L104 499Q106 511 118 511L215 511Q228 511 226 499L193 237Q185 167 201 134Q216 100 265 100Q300 100 333 121Q365 142 390 197Q415 252 427 353L445 499Q447 511 459 511L556 511Q569 511 567 499L527 175Q522 134 525 107Q527 79 544 52Q550 41 541 36L478 1Q466 -6 456 -1Q435 10 422 34Q409 57 406 96Q369 41 323 16Q276 -10 223 -10Z"  horiz-adv-x="598" vert-adv-y="1000"  />
      <glyph glyph-name="v" unicode="&#x76;" d="M198 -5Q185 -5 182 6Q173 30 160 73Q146 115 131 168Q115 220 99 277Q82 333 67 387Q52 440 41 483Q38 495 50 497L156 516Q168 518 170 506Q184 443 201 371Q218 298 234 231Q240 212 245 191Q249 169 255 138L260 138Q274 168 286 190Q297 212 307 231Q344 298 383 371Q421 444 452 507Q458 518 469 515L565 497Q577 495 571 484Q547 441 517 387Q486 333 453 276Q420 219 389 166Q358 113 333 71Q307 29 291 5Q284 -5 273 -5Z"  horiz-adv-x="543" vert-adv-y="1000"  />
      <glyph glyph-name="w" unicode="&#x77;" d="M177 -5Q164 -5 161 6Q154 30 143 73Q131 115 118 168Q104 220 90 277Q76 333 64 387Q51 440 41 483Q38 495 50 497L155 516Q167 518 169 506Q181 443 195 370Q209 297 224 231Q229 212 233 191Q237 169 241 138L246 138Q258 168 267 190Q276 212 285 231Q317 297 349 370Q381 443 407 507Q411 518 423 518L493 518Q505 518 507 506Q518 443 532 370Q546 297 560 231Q565 212 569 190Q572 168 577 138L581 138Q593 169 603 191Q612 212 622 231Q653 297 685 370Q717 443 744 507Q750 518 761 515L854 497Q867 495 861 484Q841 441 815 387Q788 333 760 277Q732 220 706 167Q679 114 658 72Q636 29 623 5Q616 -5 605 -5L525 -5Q513 -5 510 6Q500 38 485 101Q470 164 454 233Q450 253 447 274Q443 295 438 326L434 326Q421 295 412 274Q402 253 393 233Q372 187 351 143Q329 98 312 62Q295 26 284 5Q277 -5 266 -5Z"  horiz-adv-x="833" vert-adv-y="1000"  />
      <glyph glyph-name="x" unicode="&#x78;" d="M83 -8L-10 13Q-21 15 -14 25Q11 54 48 96Q85 137 125 181Q164 225 196 259Q174 293 148 335Q121 376 97 417Q72 457 55 485Q50 496 61 498L162 519Q174 521 179 511Q199 474 224 431Q248 387 273 347Q308 388 344 432Q380 475 411 512Q419 522 430 518L526 498Q536 495 530 486Q505 459 470 420Q434 380 397 339Q360 298 329 264Q353 228 381 184Q409 140 436 98Q463 56 482 26Q487 15 476 13L371 -8Q359 -10 354 0Q332 39 305 86Q278 132 252 175Q214 132 175 85Q135 38 102 -1Q96 -10 83 -8Z"  horiz-adv-x="512" vert-adv-y="1000"  />
      <glyph glyph-name="y" unicode="&#x79;" d="M79 -264L18 -201Q10 -193 19 -185Q63 -148 108 -102Q153 -55 187 -4Q174 35 155 95Q136 155 115 224Q94 293 75 361Q55 429 41 483Q39 495 50 497L156 516Q168 518 170 506Q184 441 202 366Q220 291 238 223Q243 203 248 181Q253 159 259 128L264 128Q278 159 289 181Q300 203 310 223Q346 293 385 368Q423 442 453 507Q459 518 470 515L565 497Q570 496 572 493Q574 489 571 484Q548 439 519 386Q489 332 458 276Q426 219 396 166Q365 113 340 69Q314 24 297 -6Q270 -53 237 -101Q203 -148 167 -190Q131 -232 97 -264Q87 -272 79 -264Z"  horiz-adv-x="544" vert-adv-y="1000"  />
      <glyph glyph-name="z" unicode="&#x7a;" d="M14 0Q2 0 2 12L5 57Q5 70 14 77Q33 96 54 119Q75 141 93 161L241 332Q261 355 281 377Q300 398 319 418L177 414L68 414Q56 414 58 426L67 499Q69 511 80 511L467 511Q479 511 479 499L478 453Q478 448 476 442Q474 436 469 433Q450 414 429 392Q408 370 390 349L242 181Q222 156 202 135Q182 113 162 93L321 97L423 97Q436 97 434 85L425 12Q423 0 411 0Z"  horiz-adv-x="475" vert-adv-y="1000"  />
      <glyph glyph-name="braceleft" unicode="&#x7b;" d="M222 -162Q150 -162 113 -120Q75 -77 84 -4Q90 43 106 87Q122 131 127 176Q132 216 121 236Q110 255 93 261Q76 267 61 267L54 267Q41 267 43 279L51 347Q53 359 65 359L72 359Q87 359 106 365Q124 371 140 391Q156 410 161 450Q166 496 162 540Q157 584 162 631Q171 703 219 746Q267 789 339 789L380 789Q392 789 390 777L381 698Q379 686 367 686L360 686Q297 686 286 605Q281 564 285 523Q288 482 283 437Q276 380 248 353Q219 326 178 315L177 311Q215 301 238 274Q260 247 253 189Q247 145 233 104Q219 63 214 22Q205 -59 269 -59L276 -59Q288 -59 286 -71L276 -150Q276 -162 263 -162Z"  horiz-adv-x="359" vert-adv-y="1000"  />
      <glyph glyph-name="bar" unicode="&#x7c;" d="M51 -192Q39 -192 41 -180L162 808Q164 820 175 820L272 820Q285 820 283 808L162 -180Q160 -192 148 -192Z"  horiz-adv-x="286" vert-adv-y="1000"  />
      <glyph glyph-name="braceright" unicode="&#x7d;" d="M16 -162Q4 -162 6 -150L15 -71Q17 -59 29 -59L36 -59Q100 -59 110 22Q115 63 112 104Q108 145 113 190Q120 247 149 274Q178 301 218 312L219 316Q181 327 159 354Q136 380 143 438Q149 482 163 524Q177 565 182 605Q191 686 127 686L120 686Q108 686 110 698L120 777Q120 789 133 789L174 789Q246 789 284 747Q321 704 312 631Q306 584 290 540Q274 496 269 451Q264 411 275 392Q286 372 304 366Q321 360 335 360L342 360Q355 360 353 348L345 280Q343 268 331 268L324 268Q310 268 291 262Q272 256 256 237Q240 217 235 177Q230 131 235 87Q239 43 234 -4Q225 -76 177 -119Q129 -162 57 -162Z"  horiz-adv-x="359" vert-adv-y="1000"  />
      <glyph glyph-name="asciitilde" unicode="&#x7e;" d="M90 209Q77 209 79 221Q91 301 135 348Q178 394 246 394Q280 394 307 384Q334 374 362 359Q391 345 417 332Q443 318 470 318Q525 318 541 383Q543 395 555 395L628 395Q641 395 639 383Q626 304 583 258Q540 211 472 211Q438 211 411 221Q384 231 356 245Q327 260 301 273Q274 286 248 286Q191 286 177 221Q175 209 163 209Z"  horiz-adv-x="684" vert-adv-y="1000"  />
      <glyph glyph-name="nbspace" unicode="&#xa0;" d=""  horiz-adv-x="305" vert-adv-y="1000"  />
      <glyph glyph-name="exclamdown" unicode="&#xa1;" d="M46 -202Q34 -202 36 -190L120 283Q122 295 134 295L183 295Q196 295 194 283L163 -190Q161 -202 150 -202ZM175 382Q147 382 128 402Q108 421 108 449Q108 479 130 500Q151 521 180 521Q209 521 229 502Q248 482 248 454Q248 424 227 403Q205 382 175 382Z"  horiz-adv-x="310" vert-adv-y="1000"  />
      <glyph glyph-name="cent" unicode="&#xa2;" d="M260 -30Q248 -30 250 -18L264 91Q182 107 142 167Q101 227 101 320Q101 394 128 457Q155 520 206 562Q256 604 327 614L341 721Q343 733 354 733L423 733Q435 733 433 721L420 614Q480 608 529 580Q539 573 534 562L497 491Q492 481 481 487Q462 498 435 506Q408 514 379 514Q326 514 292 488Q258 461 242 419Q225 377 225 331Q225 262 257 226Q288 189 352 189Q383 189 411 197Q438 205 460 218Q470 224 473 213L496 143Q499 133 489 126Q464 111 429 101Q393 91 355 87L342 -18Q340 -30 329 -30Z"  horiz-adv-x="582" vert-adv-y="1000"  />
      <glyph glyph-name="sterling" unicode="&#xa3;" d="M27 0Q15 0 17 12L27 98Q29 110 41 110L88 110Q114 147 130 187Q146 227 156 267L99 267Q87 267 89 279L99 366Q101 378 113 378L176 378Q180 407 184 437Q188 467 194 495Q206 556 232 606Q257 655 308 684Q358 713 443 713Q486 713 524 706Q561 698 589 687Q600 682 596 671L562 592Q559 580 547 586Q525 595 501 602Q476 608 446 608Q399 608 371 589Q342 570 328 536Q313 502 304 456Q300 436 297 417Q294 398 292 378L451 378Q463 378 461 366L451 279Q449 267 437 267L273 267Q264 228 249 189Q233 150 207 110L509 110Q522 110 520 98L509 12Q507 0 496 0Z"  horiz-adv-x="582" vert-adv-y="1000"  />
      <glyph glyph-name="currency" unicode="&#xa4;" d="M104 104Q95 95 88 105L46 155Q38 165 46 173L131 250Q120 273 117 299Q113 325 116 351Q120 378 130 404Q139 430 156 453L91 529Q84 540 92 546L150 599Q159 608 167 598L231 522Q281 551 333 551Q385 551 428 522L513 599Q522 608 529 598L572 548Q579 538 571 530L487 453Q509 404 503 351Q500 325 490 299Q479 273 462 250L527 174Q534 164 526 156L467 104Q458 95 451 105L386 181Q337 153 284 153Q259 153 235 160Q210 167 190 182ZM295 236Q340 236 378 269Q416 306 421 353Q424 376 419 397Q413 417 399 433Q368 467 324 467Q302 467 280 459Q257 450 239 433Q221 417 211 396Q200 375 197 353Q195 331 201 309Q206 287 220 269Q250 236 295 236Z"  horiz-adv-x="575" vert-adv-y="1000"  />
      <glyph glyph-name="yen" unicode="&#xa5;" d="M213 0Q201 0 203 12L219 151L64 151Q52 151 54 163L61 226Q63 238 75 238L230 238L235 281Q230 294 224 307Q218 320 213 334L86 334Q74 334 76 346L84 409Q84 421 97 421L178 421Q153 486 130 553Q106 619 86 676Q84 681 87 685Q89 688 94 689L199 708Q211 710 214 699Q229 653 248 597Q267 541 285 495Q293 473 302 448Q311 423 320 392L325 392Q341 423 356 449Q371 474 386 496Q416 543 451 599Q485 655 513 700Q518 710 530 707L615 688Q626 685 620 675Q586 620 543 553Q500 486 456 421L538 421Q550 421 548 409L540 346Q540 334 527 334L398 334L366 288L360 238L515 238Q528 238 526 226L518 163Q516 151 505 151L349 151L332 12Q330 0 319 0Z"  horiz-adv-x="582" vert-adv-y="1000"  />
      <glyph glyph-name="brokenbar" unicode="&#xa6;" d="M51 -192Q39 -192 41 -180L91 229Q93 241 104 241L201 241Q214 241 212 229L162 -180Q160 -192 148 -192ZM122 387Q110 387 112 399L162 808Q164 820 175 820L272 820Q285 820 283 808L233 399Q231 387 219 387Z"  horiz-adv-x="286" vert-adv-y="1000"  />
      <glyph glyph-name="section" unicode="&#xa7;" d="M206 -85Q108 -85 43 -54Q32 -49 37 -37L67 38Q72 48 82 43Q113 27 147 18Q181 9 221 9Q318 9 327 73Q330 100 313 115Q295 130 266 141Q237 151 204 163Q171 174 143 191Q115 208 99 237Q83 266 89 313Q94 352 116 385Q137 418 171 443Q152 462 143 490Q133 517 138 558Q145 611 177 646Q209 680 258 697Q307 713 364 713Q410 713 449 705Q487 697 515 685Q527 680 522 669L492 598Q487 587 476 592Q451 603 419 611Q387 618 353 618Q312 618 286 605Q260 592 256 564Q253 539 271 524Q288 509 317 499Q346 488 379 477Q411 466 440 449Q468 431 484 403Q499 374 493 327Q488 287 466 254Q443 220 408 195Q428 176 439 149Q450 122 445 82Q439 36 412 -2Q385 -40 334 -63Q283 -85 206 -85ZM319 243Q341 255 356 272Q370 289 373 312Q376 337 360 351Q344 365 317 375Q290 384 260 394Q238 382 225 365Q211 348 209 328Q206 304 222 289Q237 274 264 264Q290 254 319 243Z"  horiz-adv-x="541" vert-adv-y="1000"  />
      <glyph glyph-name="dieresis" unicode="&#xa8;" d="M221 603Q193 603 174 623Q154 642 154 670Q154 700 175 721Q196 742 226 742Q255 742 274 723Q293 703 293 674Q293 645 272 624Q251 603 221 603ZM421 603Q393 603 374 623Q354 642 354 670Q354 700 375 721Q396 742 426 742Q455 742 474 723Q493 703 493 674Q493 645 472 624Q451 603 421 603Z"  horiz-adv-x="526" vert-adv-y="1000"  />
      <glyph glyph-name="copyright" unicode="&#xa9;" d="M395 -10Q299 -10 228 30Q156 69 117 140Q77 210 77 302Q77 387 107 462Q136 536 190 593Q244 649 317 681Q390 713 477 713Q574 713 646 673Q717 633 757 563Q796 492 796 400Q796 315 766 241Q736 166 682 110Q628 54 555 22Q482 -10 395 -10ZM403 61Q472 61 531 87Q590 112 633 157Q676 202 700 262Q724 322 724 390Q724 464 693 521Q662 577 605 609Q548 641 470 641Q401 641 343 616Q284 590 241 545Q198 499 174 440Q150 380 150 312Q150 238 181 182Q212 125 269 93Q326 61 403 61ZM420 158Q341 158 302 204Q262 249 262 327Q262 385 285 434Q308 482 352 512Q395 541 456 541Q488 541 517 535Q545 529 570 514Q577 509 574 501L547 450Q543 443 535 447Q522 455 503 461Q483 467 462 467Q424 467 400 448Q375 429 363 399Q351 368 351 335Q351 232 443 232Q486 232 520 253Q527 257 530 249L546 199Q549 192 541 187Q519 174 487 166Q454 158 420 158Z"  horiz-adv-x="846" vert-adv-y="1000"  />
      <glyph glyph-name="ordfeminine" unicode="&#xaa;" d="M183 291Q141 291 116 311Q90 330 79 363Q67 395 67 432Q67 534 119 591Q170 647 250 647Q288 647 320 639Q351 630 378 618Q389 611 387 600L365 415Q362 390 364 372Q365 354 375 337Q381 326 371 321L334 300Q322 293 313 298Q292 309 283 342Q261 313 235 302Q209 291 183 291ZM206 360Q235 360 259 399Q283 438 293 518L299 568Q289 573 278 576Q266 579 253 579Q206 579 179 542Q152 505 152 441Q152 408 164 384Q176 360 206 360Z"  horiz-adv-x="390" vert-adv-y="1000"  />
      <glyph glyph-name="guillemotleft" unicode="&#xab;" d="M211 51Q203 44 194 53L55 245Q47 254 56 263L245 456Q254 465 263 457L317 410Q327 403 318 394L182 254L283 115Q290 106 280 99ZM437 51Q429 44 420 53L281 245Q273 254 282 263L471 456Q480 465 489 457L543 410Q553 403 544 394L408 254L509 115Q516 106 506 99Z"  horiz-adv-x="554" vert-adv-y="1000"  />
      <glyph glyph-name="logicalnot" unicode="&#xac;" d="M466 114Q454 114 456 126L477 294L76 294Q64 294 66 306L76 387Q78 399 89 399L578 399Q590 399 588 387L556 126Q554 114 542 114Z"  horiz-adv-x="619" vert-adv-y="1000"  />
      <glyph glyph-name="uni00AD" unicode="&#xad;" d="M104 236Q91 236 93 248L102 319Q104 331 115 331L444 331Q457 331 455 319L446 248Q444 236 433 236Z"  horiz-adv-x="514" vert-adv-y="1000"  />
      <glyph glyph-name="registered" unicode="&#xae;" d="M252 395Q178 395 132 440Q86 484 86 553Q86 611 115 659Q143 707 192 736Q240 764 298 764Q347 764 384 743Q421 722 442 686Q463 650 463 603Q463 545 435 498Q406 451 358 423Q310 395 252 395ZM319 486Q309 484 305 493Q296 510 286 528Q276 546 266 560L244 560L237 497Q235 487 226 487L196 487Q185 487 187 497L208 664Q210 674 219 676Q233 679 248 680Q262 681 277 681Q317 681 338 667Q359 653 355 620Q350 585 315 570Q324 557 337 537Q349 517 357 502Q362 493 352 491ZM257 434Q302 434 339 457Q375 479 397 517Q418 554 418 598Q418 654 384 690Q349 725 293 725Q248 725 212 702Q176 678 155 641Q134 603 134 559Q134 505 168 470Q202 434 257 434ZM270 598Q304 598 306 620Q309 644 275 644Q271 644 267 644Q262 644 254 642L249 599Q256 598 260 598Q264 598 270 598Z"  horiz-adv-x="480" vert-adv-y="1000"  />
      <glyph glyph-name="macron" unicode="&#xaf;" d="M183 613Q171 613 173 625L183 707Q185 719 196 719L428 719Q441 719 439 707L429 625Q427 613 415 613Z"  horiz-adv-x="491" vert-adv-y="1000"  />
      <glyph glyph-name="degree" unicode="&#xb0;" d="M263 383Q190 383 144 428Q97 472 97 542Q97 592 120 631Q143 669 184 691Q224 713 275 713Q322 713 359 693Q395 672 416 636Q436 600 436 552Q436 503 414 465Q391 426 352 405Q313 383 263 383ZM265 465Q300 465 324 489Q348 513 348 550Q348 586 327 608Q305 630 271 630Q234 630 210 606Q185 582 185 544Q185 509 207 487Q229 465 265 465Z"  horiz-adv-x="458" vert-adv-y="1000"  />
      <glyph glyph-name="plusminus" unicode="&#xb1;" d="M254 182Q241 182 243 194L267 390L77 390Q65 390 67 402L77 484Q79 496 90 496L280 496L304 692Q306 704 318 704L397 704Q409 704 407 692L383 496L572 496Q585 496 583 484L573 402Q571 390 559 390L370 390L346 194Q344 182 333 182ZM31 0Q19 0 21 12L31 94Q33 106 44 106L526 106Q539 106 537 94L527 12Q525 0 513 0Z"  horiz-adv-x="582" vert-adv-y="1000"  />
      <glyph glyph-name="twosuperior" unicode="&#xb2;" d="M71 288Q58 288 60 300L64 331Q69 378 95 410Q120 441 154 462Q188 483 221 501Q253 519 275 540Q297 560 297 589Q297 611 284 624Q271 636 242 636Q211 636 185 626Q159 616 133 599Q123 591 118 602L96 648Q89 658 100 665Q135 688 173 701Q210 713 255 713Q323 713 357 682Q390 651 390 600Q390 562 374 536Q357 509 331 490Q304 470 274 453Q243 435 215 415Q187 395 167 367L355 367Q368 367 366 355L359 300Q357 288 346 288Z"  horiz-adv-x="404" vert-adv-y="1000"  />
      <glyph glyph-name="threesuperior" unicode="&#xb3;" d="M181 282Q148 282 119 289Q89 296 65 312Q56 318 61 329L93 383Q99 392 108 385Q128 370 148 364Q167 358 188 358Q225 358 247 374Q268 390 268 418Q268 443 254 456Q239 469 201 469L159 469Q147 469 149 481L155 527Q155 539 168 539L210 539Q248 539 269 554Q290 569 290 594Q290 614 278 626Q266 637 234 637Q192 637 146 612Q135 607 130 617L109 663Q103 673 113 680Q144 697 179 705Q214 713 247 713Q313 713 344 685Q375 657 375 611Q375 574 353 548Q331 521 295 505Q330 492 345 469Q360 446 360 413Q360 355 311 319Q261 282 181 282Z"  horiz-adv-x="386" vert-adv-y="1000"  />
      <glyph glyph-name="acute" unicode="&#xb4;" d="M176 579Q165 579 172 588Q208 635 249 685Q289 734 326 777Q334 786 346 786L445 786Q456 786 448 778Q402 728 358 680Q314 632 276 588Q273 584 267 582Q261 579 256 579Z"  horiz-adv-x="489" vert-adv-y="1000"  />
      <glyph glyph-name="mu" unicode="&#xb5;" d="M26 -228Q13 -228 15 -216L104 499Q106 511 117 511L215 511Q227 511 225 499L193 240Q184 165 201 133Q217 100 266 100Q304 100 338 115Q372 129 401 151L444 499Q446 511 457 511L555 511Q568 511 566 499L525 173Q520 132 523 105Q526 77 543 50Q549 41 539 34L476 -2Q465 -8 454 -5Q439 2 427 18Q415 34 407 60Q365 32 317 11Q268 -10 213 -10Q198 -10 186 -8Q173 -6 162 -3L136 -216Q134 -228 122 -228Z"  horiz-adv-x="597" vert-adv-y="1000"  />
      <glyph glyph-name="paragraph" unicode="&#xb6;" d="M237 -146Q224 -146 226 -134L281 314Q225 315 181 341Q137 367 115 411Q92 454 98 507Q106 573 144 617Q182 660 241 682Q299 703 370 703L729 703Q742 703 740 691L731 617Q729 605 717 605L648 605L558 -134Q556 -146 544 -146L457 -146Q445 -146 447 -134L537 605L428 605L337 -134Q335 -146 324 -146Z"  horiz-adv-x="735" vert-adv-y="1000"  />
      <glyph glyph-name="periodcentered" unicode="&#xb7;" d="M158 193Q130 193 111 213Q91 232 91 260Q91 290 113 311Q134 332 164 332Q192 332 211 313Q230 293 230 265Q230 235 209 214Q188 193 158 193Z"  horiz-adv-x="280" vert-adv-y="1000"  />
      <glyph glyph-name="cedilla" unicode="&#xb8;" d="M208 -204Q191 -204 175 -202Q159 -200 145 -198Q132 -194 139 -184L156 -145Q163 -135 174 -138Q182 -139 190 -141Q198 -142 207 -142Q226 -142 238 -135Q249 -128 250 -115Q254 -86 199 -77Q187 -75 192 -65L220 0L272 0L255 -39Q303 -46 325 -65Q347 -84 342 -122Q338 -159 304 -182Q270 -204 208 -204Z"  horiz-adv-x="487" vert-adv-y="1000"  />
      <glyph glyph-name="onesuperior" unicode="&#xb9;" d="M187 288Q174 288 176 300L214 607L96 546Q85 541 87 552L95 617Q95 629 107 635L238 705Q248 710 261 710L312 710Q324 710 322 698L273 300Q271 288 260 288Z"  horiz-adv-x="397" vert-adv-y="1000"  />
      <glyph glyph-name="ordmasculine" unicode="&#xba;" d="M221 291Q142 291 107 332Q72 373 72 436Q72 493 92 541Q112 589 154 619Q195 648 258 648Q338 648 372 607Q406 566 406 504Q406 447 386 399Q366 350 326 321Q285 291 221 291ZM226 359Q263 359 284 380Q304 401 313 433Q322 465 322 498Q322 536 306 558Q290 579 252 579Q216 579 196 559Q175 538 166 506Q157 474 157 441Q157 404 173 382Q189 359 226 359Z"  horiz-adv-x="424" vert-adv-y="1000"  />
      <glyph glyph-name="guillemotright" unicode="&#xbb;" d="M89 51L35 98Q26 106 34 114L169 254L69 393Q63 402 72 410L141 458Q150 465 157 455L297 264Q303 254 295 246L107 52Q99 44 89 51ZM315 51L261 98Q252 106 260 114L395 254L295 393Q289 402 298 410L367 458Q376 465 383 455L523 264Q529 254 521 246L333 52Q325 44 315 51Z"  horiz-adv-x="554" vert-adv-y="1000"  />
      <glyph glyph-name="onequarter" unicode="&#xbc;" d="M198 -5Q187 -5 192 5L559 702Q566 713 577 713L652 713Q657 713 659 710Q661 707 658 702L292 5Q285 -5 274 -5ZM196 288Q183 288 185 300L223 607L105 546Q94 541 96 552L104 617Q104 629 116 635L247 705Q257 710 270 710L321 710Q333 710 331 698L282 300Q280 288 269 288ZM611 0Q599 0 601 12L612 101L453 101Q441 101 443 113L447 156Q449 168 456 177L639 410Q647 419 658 419L733 419Q745 419 743 407L714 175L768 175Q781 175 779 163L773 113Q771 101 760 101L706 101L695 12Q693 0 681 0ZM538 175L620 175L636 299Z"  horiz-adv-x="844" vert-adv-y="1000"  />
      <glyph glyph-name="onehalf" unicode="&#xbd;" d="M192 -5Q179 -5 186 5L552 702Q559 713 570 713L646 713Q658 713 652 702L285 5Q278 -5 267 -5ZM196 288Q183 288 185 300L223 607L103 546Q94 542 94 552L102 617Q104 630 114 635L247 705Q257 710 269 710L320 710Q332 710 330 698L281 300Q279 288 268 288ZM509 0Q496 0 498 12L502 43Q508 90 533 122Q558 153 592 174Q626 195 659 213Q691 231 713 252Q735 272 735 301Q735 323 722 336Q709 348 680 348Q649 348 623 338Q597 328 571 311Q561 303 556 314L534 360Q527 370 538 377Q573 400 611 413Q648 425 693 425Q761 425 795 394Q828 363 828 312Q828 274 812 248Q795 221 769 202Q742 182 712 165Q681 147 653 127Q625 107 605 79L793 79Q806 79 804 67L797 12Q795 0 784 0Z"  horiz-adv-x="872" vert-adv-y="1000"  />
      <glyph glyph-name="threequarters" unicode="&#xbe;" d="M232 -5Q221 -5 226 5L594 702Q600 713 612 713L687 713Q699 713 693 702L325 5Q320 -5 307 -5ZM188 282Q154 282 125 289Q95 296 71 312Q62 319 68 329L100 383Q105 393 115 385Q134 370 154 364Q173 358 194 358Q232 358 254 374Q275 390 275 418Q275 443 261 456Q246 469 208 469L166 469Q155 469 155 481L161 527Q163 539 175 539L217 539Q255 539 276 554Q297 569 297 594Q297 614 285 626Q272 637 240 637Q198 637 152 612Q143 607 136 617L115 663Q110 674 120 680Q150 697 185 705Q220 713 253 713Q320 713 351 685Q382 657 382 611Q382 574 360 548Q337 521 301 505Q336 492 352 469Q367 446 367 413Q367 355 318 319Q268 282 188 282ZM645 0Q633 0 635 12L646 101L487 101Q475 101 477 113L481 156Q483 168 490 177L672 410Q680 419 692 419L766 419Q779 419 777 407L748 175L802 175Q815 175 813 163L807 113Q805 101 794 101L739 101L728 12Q726 0 715 0ZM572 175L654 175L670 299Z"  horiz-adv-x="863" vert-adv-y="1000"  />
      <glyph glyph-name="questiondown" unicode="&#xbf;" d="M227 -202Q137 -202 90 -159Q42 -116 42 -45Q42 -1 60 31Q77 62 107 87Q136 112 171 135Q199 154 224 173Q248 192 265 218Q282 244 284 283Q286 295 296 295L346 295Q358 295 361 283Q370 250 366 223Q361 180 335 151Q308 121 271 95Q222 60 193 35Q164 10 164 -31Q164 -63 185 -81Q205 -99 245 -99Q317 -99 393 -45Q402 -39 407 -49L441 -126Q446 -136 436 -143Q381 -176 329 -189Q277 -202 227 -202ZM331 382Q303 382 284 402Q265 421 265 449Q265 479 286 500Q307 521 337 521Q365 521 385 502Q404 482 404 454Q404 424 383 403Q361 382 331 382Z"  horiz-adv-x="523" vert-adv-y="1000"  />
      <glyph glyph-name="Agrave" unicode="&#xc0;" d="M93 -4L-8 2Q-20 4 -15 14Q16 73 54 143Q91 213 131 288Q171 363 212 437Q252 510 289 577Q326 644 357 697Q363 708 375 708L472 708Q484 708 487 696Q502 626 520 541Q537 456 555 365Q573 273 590 184Q607 95 621 15Q623 4 611 2L501 -4Q489 -6 487 7Q485 17 482 39Q478 61 475 87Q471 112 468 133Q465 154 463 163L192 163Q189 157 177 135Q165 113 151 86Q137 58 125 36Q113 13 110 6Q104 -6 93 -4ZM245 270L445 270Q438 320 429 369Q419 418 410 464Q407 486 405 514Q402 541 402 569L396 569Q386 541 373 513Q359 485 347 463Q344 456 334 437Q323 417 310 392Q296 367 283 342Q269 316 259 297Q248 277 245 270ZM461 766Q450 766 443 776Q415 820 384 868Q352 915 318 964Q314 968 316 971Q318 973 323 973L421 973Q433 973 440 963Q467 920 495 872Q522 823 547 776Q554 766 541 766Z"  horiz-adv-x="646" vert-adv-y="1000"  />
      <glyph glyph-name="Aacute" unicode="&#xc1;" d="M93 -4L-8 2Q-20 4 -15 14Q16 73 54 143Q91 213 131 288Q171 363 212 437Q252 510 289 577Q326 644 357 697Q363 708 375 708L472 708Q484 708 487 696Q502 626 520 541Q537 456 555 365Q573 273 590 184Q607 95 621 15Q623 4 611 2L501 -4Q489 -6 487 7Q485 17 482 39Q478 61 475 87Q471 112 468 133Q465 154 463 163L192 163Q189 157 177 135Q165 113 151 86Q137 58 125 36Q113 13 110 6Q104 -6 93 -4ZM245 270L445 270Q438 320 429 369Q419 418 410 464Q407 486 405 514Q402 541 402 569L396 569Q386 541 373 513Q359 485 347 463Q344 456 334 437Q323 417 310 392Q296 367 283 342Q269 316 259 297Q248 277 245 270ZM296 766Q285 766 292 775Q328 822 369 872Q409 921 446 964Q454 973 466 973L565 973Q576 973 568 965Q522 915 478 867Q434 819 396 775Q393 771 387 769Q381 766 376 766Z"  horiz-adv-x="646" vert-adv-y="1000"  />
      <glyph glyph-name="Acircumflex" unicode="&#xc2;" d="M93 -4L-8 2Q-20 4 -15 14Q16 73 54 143Q91 213 131 288Q171 363 212 437Q252 510 289 577Q326 644 357 697Q363 708 375 708L472 708Q484 708 487 696Q502 626 520 541Q537 456 555 365Q573 273 590 184Q607 95 621 15Q623 4 611 2L501 -4Q489 -6 487 7Q485 17 482 39Q478 61 475 87Q471 112 468 133Q465 154 463 163L192 163Q189 157 177 135Q165 113 151 86Q137 58 125 36Q113 13 110 6Q104 -6 93 -4ZM245 270L445 270Q438 320 429 369Q419 418 410 464Q407 486 405 514Q402 541 402 569L396 569Q386 541 373 513Q359 485 347 463Q344 456 334 437Q323 417 310 392Q296 367 283 342Q269 316 259 297Q248 277 245 270ZM257 766Q245 766 252 775Q289 822 333 876Q376 929 415 972Q424 981 435 981L472 981Q485 981 490 971Q518 928 549 876Q579 823 604 776Q611 766 598 766L519 766Q507 766 500 776Q487 798 471 822Q455 846 440 868Q418 846 397 822Q376 797 356 775Q353 771 347 769Q341 766 336 766Z"  horiz-adv-x="646" vert-adv-y="1000"  />
      <glyph glyph-name="Atilde" unicode="&#xc3;" d="M93 -4L-8 2Q-20 4 -15 14Q16 73 54 143Q91 213 131 288Q171 363 212 437Q252 510 289 577Q326 644 357 697Q363 708 375 708L472 708Q484 708 487 696Q502 626 520 541Q537 456 555 365Q573 273 590 184Q607 95 621 15Q623 4 611 2L501 -4Q489 -6 487 7Q485 17 482 39Q478 61 475 87Q471 112 468 133Q465 154 463 163L192 163Q189 157 177 135Q165 113 151 86Q137 58 125 36Q113 13 110 6Q104 -6 93 -4ZM245 270L445 270Q438 320 429 369Q419 418 410 464Q407 486 405 514Q402 541 402 569L396 569Q386 541 373 513Q359 485 347 463Q344 456 334 437Q323 417 310 392Q296 367 283 342Q269 316 259 297Q248 277 245 270ZM484 782Q465 782 450 791Q434 800 420 811Q407 822 395 831Q382 840 369 840Q354 840 344 827Q334 813 325 793Q320 782 311 790L272 822Q262 830 266 841Q282 891 314 919Q346 947 379 947Q400 947 416 938Q432 928 445 917Q458 907 470 898Q481 889 494 889Q508 889 519 902Q529 915 538 936Q543 945 552 939L590 907Q601 898 596 887Q581 838 549 810Q517 782 484 782Z"  horiz-adv-x="646" vert-adv-y="1000"  />
      <glyph glyph-name="Adieresis" unicode="&#xc4;" d="M93 -4L-8 2Q-20 4 -15 14Q16 73 54 143Q91 213 131 288Q171 363 212 437Q252 510 289 577Q326 644 357 697Q363 708 375 708L472 708Q484 708 487 696Q502 626 520 541Q537 456 555 365Q573 273 590 184Q607 95 621 15Q623 4 611 2L501 -4Q489 -6 487 7Q485 17 482 39Q478 61 475 87Q471 112 468 133Q465 154 463 163L192 163Q189 157 177 135Q165 113 151 86Q137 58 125 36Q113 13 110 6Q104 -6 93 -4ZM245 270L445 270Q438 320 429 369Q419 418 410 464Q407 486 405 514Q402 541 402 569L396 569Q386 541 373 513Q359 485 347 463Q344 456 334 437Q323 417 310 392Q296 367 283 342Q269 316 259 297Q248 277 245 270ZM331 788Q303 788 284 808Q264 827 264 855Q264 885 285 906Q306 927 336 927Q365 927 384 908Q403 888 403 859Q403 830 382 809Q361 788 331 788ZM531 788Q503 788 484 808Q464 827 464 855Q464 885 485 906Q506 927 536 927Q565 927 584 908Q603 888 603 859Q603 830 582 809Q561 788 531 788Z"  horiz-adv-x="646" vert-adv-y="1000"  />
      <glyph glyph-name="Aring" unicode="&#xc5;" d="M93 -4L-8 2Q-20 4 -15 14Q16 73 54 143Q91 213 131 288Q171 363 212 437Q252 510 289 577Q326 644 357 697Q363 708 375 708L472 708Q484 708 487 696Q502 626 520 541Q537 456 555 365Q573 273 590 184Q607 95 621 15Q623 4 611 2L501 -4Q489 -6 487 7Q485 17 482 39Q478 61 475 87Q471 112 468 133Q465 154 463 163L192 163Q189 157 177 135Q165 113 151 86Q137 58 125 36Q113 13 110 6Q104 -6 93 -4ZM245 270L445 270Q438 320 429 369Q419 418 410 464Q407 486 405 514Q402 541 402 569L396 569Q386 541 373 513Q359 485 347 463Q344 456 334 437Q323 417 310 392Q296 367 283 342Q269 316 259 297Q248 277 245 270ZM429 776Q379 776 348 809Q316 842 316 888Q316 938 350 974Q384 1009 438 1009Q489 1009 520 976Q551 943 551 896Q551 847 517 812Q483 776 429 776ZM432 840Q456 840 472 856Q487 872 487 894Q487 915 473 930Q458 945 435 945Q412 945 397 929Q381 913 381 891Q381 870 396 855Q410 840 432 840Z"  horiz-adv-x="646" vert-adv-y="1000"  />
      <glyph glyph-name="AE" unicode="&#xc6;" d="M91 -4L-13 2Q-24 4 -18 13Q24 72 75 142Q125 212 180 287Q234 361 288 435Q342 508 392 574Q442 640 482 693Q490 703 502 703L982 703Q994 703 992 691L981 599Q979 587 967 587L648 587L626 414L914 414Q927 414 925 402L914 311Q912 299 900 299L612 299L590 115L916 115Q929 115 927 103L915 12Q913 0 902 0L458 0Q446 0 448 12L466 163L223 163Q219 157 203 135Q186 112 167 85Q147 57 131 35Q115 12 110 5Q103 -6 91 -4ZM299 270L479 270L516 569L510 569Q495 541 477 513Q458 485 441 463Q407 416 371 368Q334 319 299 270Z"  horiz-adv-x="982" vert-adv-y="1000"  />
      <glyph glyph-name="Ccedilla" unicode="&#xc7;" d="M310 -204Q293 -204 277 -202Q261 -200 247 -198Q234 -194 241 -184L258 -145Q265 -135 276 -138Q284 -139 292 -141Q300 -142 309 -142Q328 -142 340 -135Q351 -128 352 -115Q356 -86 301 -77Q289 -75 294 -65L318 -9Q231 -3 176 37Q120 77 93 145Q66 213 66 302Q66 385 88 460Q109 534 153 591Q197 648 264 681Q330 713 419 713Q481 713 529 701Q576 688 610 668Q620 663 615 651L570 563Q565 553 555 559Q523 581 486 590Q449 599 412 599Q343 599 295 562Q246 525 221 460Q196 394 196 308Q196 200 241 152Q285 104 373 104Q455 104 527 149Q536 157 541 145L568 63Q571 53 562 45Q522 19 474 6Q426 -7 370 -9L357 -39Q405 -46 427 -65Q449 -84 444 -122Q440 -159 406 -182Q372 -204 310 -204Z"  horiz-adv-x="590" vert-adv-y="1000"  />
      <glyph glyph-name="Egrave" unicode="&#xc8;" d="M63 0Q50 0 52 12L135 691Q137 703 149 703L585 703Q597 703 595 691L584 599Q582 587 571 587L252 587L231 414L518 414Q529 414 529 402L517 311Q517 299 504 299L217 299L194 115L520 115Q532 115 530 103L519 12Q517 0 506 0ZM400 766Q389 766 382 776Q354 820 323 868Q291 915 257 964Q253 968 255 971Q257 973 262 973L360 973Q372 973 379 963Q406 920 434 872Q461 823 486 776Q493 766 480 766Z"  horiz-adv-x="585" vert-adv-y="1000"  />
      <glyph glyph-name="Eacute" unicode="&#xc9;" d="M63 0Q50 0 52 12L135 691Q137 703 149 703L585 703Q597 703 595 691L584 599Q582 587 571 587L252 587L231 414L518 414Q529 414 529 402L517 311Q517 299 504 299L217 299L194 115L520 115Q532 115 530 103L519 12Q517 0 506 0ZM270 764Q259 764 266 773Q302 820 343 870Q383 919 420 962Q428 971 440 971L539 971Q550 971 542 963Q496 913 452 865Q408 817 370 773Q367 769 361 767Q355 764 350 764Z"  horiz-adv-x="585" vert-adv-y="1000"  />
      <glyph glyph-name="Ecircumflex" unicode="&#xca;" d="M63 0Q50 0 52 12L135 691Q137 703 149 703L585 703Q597 703 595 691L584 599Q582 587 571 587L252 587L231 414L518 414Q529 414 529 402L517 311Q517 299 504 299L217 299L194 115L520 115Q532 115 530 103L519 12Q517 0 506 0ZM199 766Q187 766 194 775Q231 822 275 876Q318 929 357 972Q366 981 377 981L414 981Q427 981 432 971Q460 928 491 876Q521 823 546 776Q553 766 540 766L461 766Q449 766 442 776Q429 798 413 822Q397 846 382 868Q360 846 339 822Q318 797 298 775Q295 771 289 769Q283 766 278 766Z"  horiz-adv-x="585" vert-adv-y="1000"  />
      <glyph glyph-name="Edieresis" unicode="&#xcb;" d="M63 0Q50 0 52 12L135 691Q137 703 149 703L585 703Q597 703 595 691L584 599Q582 587 571 587L252 587L231 414L518 414Q529 414 529 402L517 311Q517 299 504 299L217 299L194 115L520 115Q532 115 530 103L519 12Q517 0 506 0ZM273 790Q245 790 226 810Q206 829 206 857Q206 887 227 908Q248 929 278 929Q307 929 326 910Q345 890 345 861Q345 832 324 811Q303 790 273 790ZM473 790Q445 790 426 810Q406 829 406 857Q406 887 427 908Q448 929 478 929Q507 929 526 910Q545 890 545 861Q545 832 524 811Q503 790 473 790Z"  horiz-adv-x="585" vert-adv-y="1000"  />
      <glyph glyph-name="Igrave" unicode="&#xcc;" d="M63 0Q50 0 52 12L135 691Q137 703 149 703L254 703Q267 703 265 691L182 12Q180 0 168 0ZM251 766Q240 766 233 776Q205 820 174 868Q142 915 108 964Q104 968 106 971Q108 973 113 973L211 973Q223 973 230 963Q257 920 285 872Q312 823 337 776Q344 766 331 766Z"  horiz-adv-x="275" vert-adv-y="1000"  />
      <glyph glyph-name="Iacute" unicode="&#xcd;" d="M63 0Q50 0 52 12L135 691Q137 703 149 703L254 703Q267 703 265 691L182 12Q180 0 168 0ZM87 766Q76 766 83 775Q119 822 160 872Q200 921 237 964Q245 973 257 973L356 973Q367 973 359 965Q313 915 269 867Q225 819 187 775Q184 771 178 769Q172 766 167 766Z"  horiz-adv-x="275" vert-adv-y="1000"  />
      <glyph glyph-name="Icircumflex" unicode="&#xce;" d="M63 0Q50 0 52 12L135 691Q137 703 149 703L254 703Q267 703 265 691L182 12Q180 0 168 0ZM39 766Q27 766 34 775Q71 822 115 876Q158 929 197 972Q206 981 217 981L254 981Q267 981 272 971Q300 928 331 876Q361 823 386 776Q393 766 380 766L301 766Q289 766 282 776Q269 798 253 822Q237 846 222 868Q200 846 179 822Q158 797 138 775Q135 771 129 769Q123 766 118 766Z"  horiz-adv-x="275" vert-adv-y="1000"  />
      <glyph glyph-name="Idieresis" unicode="&#xcf;" d="M63 0Q50 0 52 12L135 691Q137 703 149 703L254 703Q267 703 265 691L182 12Q180 0 168 0ZM120 790Q92 790 73 810Q53 829 53 857Q53 887 74 908Q95 929 125 929Q154 929 173 910Q192 890 192 861Q192 832 171 811Q150 790 120 790ZM320 790Q292 790 273 810Q253 829 253 857Q253 887 274 908Q295 929 325 929Q354 929 373 910Q392 890 392 861Q392 832 371 811Q350 790 320 790Z"  horiz-adv-x="275" vert-adv-y="1000"  />
      <glyph glyph-name="Eth" unicode="&#xd0;" d="M256 -10Q203 -10 155 -7Q106 -3 63 5Q50 9 52 20L86 297L17 297Q5 297 7 309L17 391Q19 403 30 403L99 403L134 689Q136 701 148 703Q214 713 301 713Q430 713 506 673Q582 632 615 561Q648 489 648 396Q648 196 552 93Q456 -10 256 -10ZM275 103Q391 103 455 171Q518 238 518 386Q518 496 468 547Q418 598 317 598Q299 598 283 597Q267 596 252 594L228 403L326 403Q338 403 336 391L326 309Q324 297 313 297L215 297L192 108Q212 106 233 105Q253 103 275 103Z"  horiz-adv-x="671" vert-adv-y="1000"  />
      <glyph glyph-name="Ntilde" unicode="&#xd1;" d="M63 0Q59 0 55 3Q51 6 52 12L135 691Q137 703 148 703L229 703Q241 703 247 692Q274 646 306 590Q337 534 378 461Q418 387 470 288Q476 277 483 263Q489 249 493 235L499 235Q500 258 502 282Q503 305 506 330L550 691Q552 703 563 703L665 703Q670 703 674 700Q677 697 676 691L594 12Q592 0 581 0L501 0Q489 0 483 11Q452 73 416 141Q380 209 343 278Q306 346 271 408Q262 423 253 443Q244 463 237 485L231 485Q230 463 228 440Q226 416 223 390L177 12Q175 0 164 0ZM481 780Q462 780 447 789Q431 798 417 809Q404 820 392 829Q379 838 366 838Q351 838 341 825Q331 811 322 791Q317 780 308 788L269 820Q259 828 263 839Q279 889 311 917Q343 945 376 945Q397 945 413 936Q429 926 442 915Q455 905 467 896Q478 887 491 887Q505 887 516 900Q526 913 535 934Q540 943 549 937L587 905Q598 896 593 885Q578 836 546 808Q514 780 481 780Z"  horiz-adv-x="687" vert-adv-y="1000"  />
      <glyph glyph-name="Ograve" unicode="&#xd2;" d="M325 -10Q195 -10 131 67Q66 143 66 273Q66 360 86 439Q106 518 147 580Q188 642 252 678Q315 713 402 713Q533 713 597 636Q661 559 661 429Q661 342 641 263Q621 184 580 123Q539 61 476 26Q412 -10 325 -10ZM334 103Q400 103 443 146Q486 188 508 260Q529 331 529 416Q529 599 392 599Q327 599 284 557Q240 514 219 443Q197 372 197 286Q197 103 334 103ZM454 766Q443 766 436 776Q408 820 377 868Q345 915 311 964Q307 968 309 971Q311 973 316 973L414 973Q426 973 433 963Q460 920 488 872Q515 823 540 776Q547 766 534 766Z"  horiz-adv-x="684" vert-adv-y="1000"  />
      <glyph glyph-name="Oacute" unicode="&#xd3;" d="M325 -10Q195 -10 131 67Q66 143 66 273Q66 360 86 439Q106 518 147 580Q188 642 252 678Q315 713 402 713Q533 713 597 636Q661 559 661 429Q661 342 641 263Q621 184 580 123Q539 61 476 26Q412 -10 325 -10ZM334 103Q400 103 443 146Q486 188 508 260Q529 331 529 416Q529 599 392 599Q327 599 284 557Q240 514 219 443Q197 372 197 286Q197 103 334 103ZM290 766Q279 766 286 775Q322 822 363 872Q403 921 440 964Q448 973 460 973L559 973Q570 973 562 965Q516 915 472 867Q428 819 390 775Q387 771 381 769Q375 766 370 766Z"  horiz-adv-x="684" vert-adv-y="1000"  />
      <glyph glyph-name="Ocircumflex" unicode="&#xd4;" d="M325 -10Q195 -10 131 67Q66 143 66 273Q66 360 86 439Q106 518 147 580Q188 642 252 678Q315 713 402 713Q533 713 597 636Q661 559 661 429Q661 342 641 263Q621 184 580 123Q539 61 476 26Q412 -10 325 -10ZM334 103Q400 103 443 146Q486 188 508 260Q529 331 529 416Q529 599 392 599Q327 599 284 557Q240 514 219 443Q197 372 197 286Q197 103 334 103ZM241 766Q229 766 236 775Q273 822 317 876Q360 929 399 972Q408 981 419 981L456 981Q469 981 474 971Q502 928 533 876Q563 823 588 776Q595 766 582 766L503 766Q491 766 484 776Q471 798 455 822Q439 846 424 868Q402 846 381 822Q360 797 340 775Q337 771 331 769Q325 766 320 766Z"  horiz-adv-x="684" vert-adv-y="1000"  />
      <glyph glyph-name="Otilde" unicode="&#xd5;" d="M325 -10Q195 -10 131 67Q66 143 66 273Q66 360 86 439Q106 518 147 580Q188 642 252 678Q315 713 402 713Q533 713 597 636Q661 559 661 429Q661 342 641 263Q621 184 580 123Q539 61 476 26Q412 -10 325 -10ZM334 103Q400 103 443 146Q486 188 508 260Q529 331 529 416Q529 599 392 599Q327 599 284 557Q240 514 219 443Q197 372 197 286Q197 103 334 103ZM477 782Q458 782 443 791Q427 800 413 811Q400 822 388 831Q375 840 362 840Q347 840 337 827Q327 813 318 793Q313 782 304 790L265 822Q255 830 259 841Q275 891 307 919Q339 947 372 947Q393 947 409 938Q425 928 438 917Q451 907 463 898Q474 889 487 889Q501 889 512 902Q522 915 531 936Q536 945 545 939L583 907Q594 898 589 887Q574 838 542 810Q510 782 477 782Z"  horiz-adv-x="684" vert-adv-y="1000"  />
      <glyph glyph-name="Odieresis" unicode="&#xd6;" d="M325 -10Q195 -10 131 67Q66 143 66 273Q66 360 86 439Q106 518 147 580Q188 642 252 678Q315 713 402 713Q533 713 597 636Q661 559 661 429Q661 342 641 263Q621 184 580 123Q539 61 476 26Q412 -10 325 -10ZM334 103Q400 103 443 146Q486 188 508 260Q529 331 529 416Q529 599 392 599Q327 599 284 557Q240 514 219 443Q197 372 197 286Q197 103 334 103ZM319 788Q291 788 272 808Q252 827 252 855Q252 885 273 906Q294 927 324 927Q353 927 372 908Q391 888 391 859Q391 830 370 809Q349 788 319 788ZM519 788Q491 788 472 808Q452 827 452 855Q452 885 473 906Q494 927 524 927Q553 927 572 908Q591 888 591 859Q591 830 570 809Q549 788 519 788Z"  horiz-adv-x="684" vert-adv-y="1000"  />
      <glyph glyph-name="multiply" unicode="&#xd7;" d="M109 55Q100 46 93 56L45 112Q38 122 46 130L235 303L89 476Q82 486 90 494L155 553Q165 561 171 551L317 379L508 553Q518 561 524 551L573 495Q580 484 572 478L381 304L529 131Q536 120 528 114L462 55Q453 46 446 56L299 228Z"  horiz-adv-x="582" vert-adv-y="1000"  />
      <glyph glyph-name="Oslash" unicode="&#xd8;" d="M164 -46Q153 -46 156 -35L180 25Q123 59 95 123Q66 186 66 273Q66 360 86 439Q106 518 147 580Q188 642 252 678Q315 713 402 713Q418 713 433 712Q447 710 461 708L473 738Q479 749 490 749L564 749Q576 749 572 738L547 677Q604 643 633 579Q661 515 661 429Q661 342 641 263Q621 184 580 123Q539 61 476 26Q412 -10 325 -10Q309 -10 295 -9Q281 -7 267 -5L255 -35Q250 -46 238 -46ZM231 148L415 597Q410 598 404 599Q398 599 392 599Q327 599 284 557Q240 514 219 443Q197 372 197 286Q197 192 231 148ZM334 103Q400 103 443 146Q486 188 508 260Q529 331 529 416Q529 507 496 553L312 104Q317 103 323 103Q328 103 334 103Z"  horiz-adv-x="684" vert-adv-y="1000"  />
      <glyph glyph-name="Ugrave" unicode="&#xd9;" d="M319 -10Q186 -10 125 66Q63 142 83 307L131 691Q133 703 144 703L250 703Q262 703 260 691L212 299Q199 194 229 149Q258 104 334 104Q411 104 452 147Q492 190 505 299L554 691Q556 703 567 703L673 703Q685 703 683 691L636 307Q622 189 581 120Q540 50 475 20Q409 -10 319 -10ZM455 766Q444 766 437 776Q409 820 378 868Q346 915 312 964Q308 968 310 971Q312 973 317 973L415 973Q427 973 434 963Q461 920 489 872Q516 823 541 776Q548 766 535 766Z"  horiz-adv-x="687" vert-adv-y="1000"  />
      <glyph glyph-name="Uacute" unicode="&#xda;" d="M319 -10Q186 -10 125 66Q63 142 83 307L131 691Q133 703 144 703L250 703Q262 703 260 691L212 299Q199 194 229 149Q258 104 334 104Q411 104 452 147Q492 190 505 299L554 691Q556 703 567 703L673 703Q685 703 683 691L636 307Q622 189 581 120Q540 50 475 20Q409 -10 319 -10ZM292 766Q281 766 288 775Q324 822 365 872Q405 921 442 964Q450 973 462 973L561 973Q572 973 564 965Q518 915 474 867Q430 819 392 775Q389 771 383 769Q377 766 372 766Z"  horiz-adv-x="687" vert-adv-y="1000"  />
      <glyph glyph-name="Ucircumflex" unicode="&#xdb;" d="M319 -10Q186 -10 125 66Q63 142 83 307L131 691Q133 703 144 703L250 703Q262 703 260 691L212 299Q199 194 229 149Q258 104 334 104Q411 104 452 147Q492 190 505 299L554 691Q556 703 567 703L673 703Q685 703 683 691L636 307Q622 189 581 120Q540 50 475 20Q409 -10 319 -10ZM243 766Q231 766 238 775Q275 822 319 876Q362 929 401 972Q410 981 421 981L458 981Q471 981 476 971Q504 928 535 876Q565 823 590 776Q597 766 584 766L505 766Q493 766 486 776Q473 798 457 822Q441 846 426 868Q404 846 383 822Q362 797 342 775Q339 771 333 769Q327 766 322 766Z"  horiz-adv-x="687" vert-adv-y="1000"  />
      <glyph glyph-name="Udieresis" unicode="&#xdc;" d="M319 -10Q186 -10 125 66Q63 142 83 307L131 691Q133 703 144 703L250 703Q262 703 260 691L212 299Q199 194 229 149Q258 104 334 104Q411 104 452 147Q492 190 505 299L554 691Q556 703 567 703L673 703Q685 703 683 691L636 307Q622 189 581 120Q540 50 475 20Q409 -10 319 -10ZM323 788Q295 788 276 808Q256 827 256 855Q256 885 277 906Q298 927 328 927Q357 927 376 908Q395 888 395 859Q395 830 374 809Q353 788 323 788ZM523 788Q495 788 476 808Q456 827 456 855Q456 885 477 906Q498 927 528 927Q557 927 576 908Q595 888 595 859Q595 830 574 809Q553 788 523 788Z"  horiz-adv-x="687" vert-adv-y="1000"  />
      <glyph glyph-name="Yacute" unicode="&#xdd;" d="M233 0Q221 0 223 12L255 281Q225 340 191 410Q157 479 125 549Q92 618 66 676Q60 687 73 689L180 708Q192 710 197 699Q217 653 242 597Q267 541 289 494Q300 471 312 447Q323 422 334 391L340 391Q359 422 377 448Q395 473 412 495Q435 526 462 563Q488 599 515 635Q541 671 562 700Q569 710 581 707L675 688Q686 685 680 675Q650 633 613 584Q576 534 537 482Q497 430 458 380Q419 330 385 288L352 12Q350 0 339 0ZM261 766Q250 766 257 775Q293 822 334 872Q374 921 411 964Q419 973 431 973L530 973Q541 973 533 965Q487 915 443 867Q399 819 361 775Q358 771 352 769Q346 766 341 766Z"  horiz-adv-x="624" vert-adv-y="1000"  />
      <glyph glyph-name="Thorn" unicode="&#xde;" d="M63 0Q50 0 52 12L135 691Q137 703 149 703L254 703Q267 703 265 691L251 575Q263 576 275 576Q287 576 298 576Q436 576 505 525Q574 473 574 364Q574 301 550 258Q525 215 485 189Q445 163 397 152Q348 141 301 141Q270 141 245 143Q220 144 198 147L182 12Q180 0 168 0ZM297 244Q369 244 407 275Q445 305 445 363Q445 412 413 443Q381 473 304 473Q286 473 270 472Q254 471 237 469L211 250Q253 244 297 244Z"  horiz-adv-x="589" vert-adv-y="1000"  />
      <glyph glyph-name="germandbls" unicode="&#xdf;" d="M339 -10Q308 -10 278 -6Q248 -1 225 8Q214 11 218 23L244 104Q247 115 258 110Q280 100 304 94Q327 87 348 87Q404 87 431 107Q458 127 458 164Q458 193 442 213Q426 232 403 249Q379 265 356 284Q332 302 316 330Q300 357 300 399Q300 455 338 494Q376 532 431 551Q439 602 420 636Q400 669 353 669Q301 669 270 630Q239 590 228 500L168 12Q166 0 154 0L57 0Q44 0 46 12L106 491Q122 625 183 695Q244 764 363 764Q467 764 514 704Q561 643 542 536Q539 525 528 522Q478 510 448 484Q418 458 418 419Q418 389 435 370Q451 350 475 333Q499 316 523 296Q547 276 564 246Q580 216 580 170Q580 108 547 68Q513 28 458 9Q403 -10 339 -10Z"  horiz-adv-x="618" vert-adv-y="1000"  />
      <glyph glyph-name="agrave" unicode="&#xe0;" d="M220 -10Q157 -10 119 19Q81 48 64 96Q47 143 47 199Q47 301 82 373Q117 445 179 483Q241 521 321 521Q379 521 427 508Q474 494 516 475Q527 468 525 457L491 174Q486 133 488 106Q490 78 508 51Q514 42 504 35L441 0Q431 -6 420 -2Q383 16 373 73Q339 27 300 9Q261 -10 220 -10ZM254 89Q299 89 336 147Q372 205 387 327L397 405Q381 413 363 418Q344 423 324 423Q254 423 212 366Q170 308 170 213Q170 162 189 126Q208 89 254 89ZM359 579Q348 579 341 589Q313 633 282 681Q250 728 216 777Q212 781 214 784Q216 786 221 786L319 786Q331 786 338 776Q365 733 393 685Q420 636 445 589Q452 579 439 579Z"  horiz-adv-x="561" vert-adv-y="1000"  />
      <glyph glyph-name="aacute" unicode="&#xe1;" d="M220 -10Q157 -10 119 19Q81 48 64 96Q47 143 47 199Q47 301 82 373Q117 445 179 483Q241 521 321 521Q379 521 427 508Q474 494 516 475Q527 468 525 457L491 174Q486 133 488 106Q490 78 508 51Q514 42 504 35L441 0Q431 -6 420 -2Q383 16 373 73Q339 27 300 9Q261 -10 220 -10ZM254 89Q299 89 336 147Q372 205 387 327L397 405Q381 413 363 418Q344 423 324 423Q254 423 212 366Q170 308 170 213Q170 162 189 126Q208 89 254 89ZM218 579Q207 579 214 588Q250 635 291 685Q331 734 368 777Q376 786 388 786L487 786Q498 786 490 778Q444 728 400 680Q356 632 318 588Q315 584 309 582Q303 579 298 579Z"  horiz-adv-x="561" vert-adv-y="1000"  />
      <glyph glyph-name="acircumflex" unicode="&#xe2;" d="M220 -10Q157 -10 119 19Q81 48 64 96Q47 143 47 199Q47 301 82 373Q117 445 179 483Q241 521 321 521Q379 521 427 508Q474 494 516 475Q527 468 525 457L491 174Q486 133 488 106Q490 78 508 51Q514 42 504 35L441 0Q431 -6 420 -2Q383 16 373 73Q339 27 300 9Q261 -10 220 -10ZM254 89Q299 89 336 147Q372 205 387 327L397 405Q381 413 363 418Q344 423 324 423Q254 423 212 366Q170 308 170 213Q170 162 189 126Q208 89 254 89ZM161 579Q149 579 156 588Q193 635 237 689Q280 742 319 785Q328 794 339 794L376 794Q389 794 394 784Q422 741 453 689Q483 636 508 589Q515 579 502 579L423 579Q411 579 404 589Q391 611 375 635Q359 659 344 681Q322 659 301 635Q280 610 260 588Q257 584 251 582Q245 579 240 579Z"  horiz-adv-x="561" vert-adv-y="1000"  />
      <glyph glyph-name="atilde" unicode="&#xe3;" d="M220 -10Q157 -10 119 19Q81 48 64 96Q47 143 47 199Q47 301 82 373Q117 445 179 483Q241 521 321 521Q379 521 427 508Q474 494 516 475Q527 468 525 457L491 174Q486 133 488 106Q490 78 508 51Q514 42 504 35L441 0Q431 -6 420 -2Q383 16 373 73Q339 27 300 9Q261 -10 220 -10ZM254 89Q299 89 336 147Q372 205 387 327L397 405Q381 413 363 418Q344 423 324 423Q254 423 212 366Q170 308 170 213Q170 162 189 126Q208 89 254 89ZM401 595Q382 595 367 604Q351 613 337 624Q324 635 312 644Q299 653 286 653Q271 653 261 640Q251 626 242 606Q237 595 228 603L189 635Q179 643 183 654Q199 704 231 732Q263 760 296 760Q317 760 333 751Q349 741 362 730Q375 720 387 711Q398 702 411 702Q425 702 436 715Q446 728 455 749Q460 758 469 752L507 720Q518 711 513 700Q498 651 466 623Q434 595 401 595Z"  horiz-adv-x="561" vert-adv-y="1000"  />
      <glyph glyph-name="adieresis" unicode="&#xe4;" d="M220 -10Q157 -10 119 19Q81 48 64 96Q47 143 47 199Q47 301 82 373Q117 445 179 483Q241 521 321 521Q379 521 427 508Q474 494 516 475Q527 468 525 457L491 174Q486 133 488 106Q490 78 508 51Q514 42 504 35L441 0Q431 -6 420 -2Q383 16 373 73Q339 27 300 9Q261 -10 220 -10ZM254 89Q299 89 336 147Q372 205 387 327L397 405Q381 413 363 418Q344 423 324 423Q254 423 212 366Q170 308 170 213Q170 162 189 126Q208 89 254 89ZM238 603Q210 603 191 623Q171 642 171 670Q171 700 192 721Q213 742 243 742Q272 742 291 723Q310 703 310 674Q310 645 289 624Q268 603 238 603ZM438 603Q410 603 391 623Q371 642 371 670Q371 700 392 721Q413 742 443 742Q472 742 491 723Q510 703 510 674Q510 645 489 624Q468 603 438 603Z"  horiz-adv-x="561" vert-adv-y="1000"  />
      <glyph glyph-name="aring" unicode="&#xe5;" d="M220 -10Q157 -10 119 19Q81 48 64 96Q47 143 47 199Q47 301 82 373Q117 445 179 483Q241 521 321 521Q379 521 427 508Q474 494 516 475Q527 468 525 457L491 174Q486 133 488 106Q490 78 508 51Q514 42 504 35L441 0Q431 -6 420 -2Q383 16 373 73Q339 27 300 9Q261 -10 220 -10ZM254 89Q299 89 336 147Q372 205 387 327L397 405Q381 413 363 418Q344 423 324 423Q254 423 212 366Q170 308 170 213Q170 162 189 126Q208 89 254 89ZM337 591Q287 591 256 624Q224 657 224 703Q224 753 258 789Q292 824 346 824Q397 824 428 791Q459 758 459 711Q459 662 425 627Q391 591 337 591ZM340 655Q364 655 380 671Q395 687 395 709Q395 730 381 745Q366 760 343 760Q320 760 305 744Q289 728 289 706Q289 685 304 670Q318 655 340 655Z"  horiz-adv-x="561" vert-adv-y="1000"  />
      <glyph glyph-name="ae" unicode="&#xe6;" d="M221 -10Q158 -10 120 19Q82 48 65 96Q48 143 48 199Q48 301 83 373Q118 445 180 483Q242 521 322 521Q379 521 426 508Q473 494 514 476Q549 497 590 509Q630 521 676 521Q732 521 767 502Q802 482 818 451Q834 419 834 383Q834 294 751 239Q667 184 506 176Q516 133 545 110Q573 87 623 87Q662 87 697 98Q732 109 760 128Q770 134 773 123L791 57Q794 45 784 38Q750 17 702 4Q653 -10 598 -10Q521 -10 472 20Q422 49 398 100Q362 42 318 16Q274 -10 221 -10ZM255 89Q300 89 337 147Q373 205 388 327L398 405Q382 413 364 418Q345 423 325 423Q255 423 213 366Q171 308 171 213Q171 162 190 126Q209 89 255 89ZM502 254Q564 255 614 267Q663 278 692 303Q721 328 721 367Q721 391 705 409Q689 426 657 426Q614 426 581 399Q547 372 527 333Q507 293 502 254Z"  horiz-adv-x="856" vert-adv-y="1000"  />
      <glyph glyph-name="ccedilla" unicode="&#xe7;" d="M237 -204Q220 -204 204 -202Q188 -200 174 -198Q161 -194 168 -184L185 -145Q192 -135 203 -138Q211 -139 219 -141Q227 -142 236 -142Q255 -142 267 -135Q278 -128 279 -115Q283 -86 228 -77Q216 -75 221 -65L245 -9Q147 -2 98 60Q48 121 48 224Q48 305 81 373Q113 440 174 481Q234 521 318 521Q363 521 403 513Q442 504 476 484Q486 477 481 466L444 395Q439 385 428 391Q409 402 382 410Q355 418 326 418Q273 418 239 392Q205 365 189 323Q172 281 172 235Q172 166 204 130Q235 93 299 93Q330 93 358 101Q385 109 407 122Q417 128 420 117L443 47Q446 37 436 30Q410 14 373 4Q336 -6 297 -9L284 -39Q332 -46 354 -65Q376 -84 371 -122Q367 -159 333 -182Q299 -204 237 -204Z"  horiz-adv-x="481" vert-adv-y="1000"  />
      <glyph glyph-name="egrave" unicode="&#xe8;" d="M270 -10Q155 -10 102 53Q48 116 48 216Q48 302 87 371Q126 440 194 481Q262 521 348 521Q404 521 439 502Q474 482 490 451Q506 419 506 383Q506 294 423 239Q339 184 178 176Q188 133 217 110Q245 87 295 87Q334 87 369 98Q404 109 432 128Q442 134 445 123L463 57Q466 45 456 38Q422 17 374 4Q325 -10 270 -10ZM174 254Q236 255 286 267Q335 278 364 303Q393 328 393 367Q393 391 377 409Q361 426 329 426Q286 426 253 399Q219 372 199 333Q179 293 174 254ZM349 579Q338 579 331 589Q303 633 272 681Q240 728 206 777Q202 781 204 784Q206 786 211 786L309 786Q321 786 328 776Q355 733 383 685Q410 636 435 589Q442 579 429 579Z"  horiz-adv-x="527" vert-adv-y="1000"  />
      <glyph glyph-name="eacute" unicode="&#xe9;" d="M270 -10Q155 -10 102 53Q48 116 48 216Q48 302 87 371Q126 440 194 481Q262 521 348 521Q404 521 439 502Q474 482 490 451Q506 419 506 383Q506 294 423 239Q339 184 178 176Q188 133 217 110Q245 87 295 87Q334 87 369 98Q404 109 432 128Q442 134 445 123L463 57Q466 45 456 38Q422 17 374 4Q325 -10 270 -10ZM174 254Q236 255 286 267Q335 278 364 303Q393 328 393 367Q393 391 377 409Q361 426 329 426Q286 426 253 399Q219 372 199 333Q179 293 174 254ZM199 579Q188 579 195 588Q231 635 272 685Q312 734 349 777Q357 786 369 786L468 786Q479 786 471 778Q425 728 381 680Q337 632 299 588Q296 584 290 582Q284 579 279 579Z"  horiz-adv-x="527" vert-adv-y="1000"  />
      <glyph glyph-name="ecircumflex" unicode="&#xea;" d="M270 -10Q155 -10 102 53Q48 116 48 216Q48 302 87 371Q126 440 194 481Q262 521 348 521Q404 521 439 502Q474 482 490 451Q506 419 506 383Q506 294 423 239Q339 184 178 176Q188 133 217 110Q245 87 295 87Q334 87 369 98Q404 109 432 128Q442 134 445 123L463 57Q466 45 456 38Q422 17 374 4Q325 -10 270 -10ZM174 254Q236 255 286 267Q335 278 364 303Q393 328 393 367Q393 391 377 409Q361 426 329 426Q286 426 253 399Q219 372 199 333Q179 293 174 254ZM157 579Q145 579 152 588Q189 635 233 689Q276 742 315 785Q324 794 335 794L372 794Q385 794 390 784Q418 741 449 689Q479 636 504 589Q511 579 498 579L419 579Q407 579 400 589Q387 611 371 635Q355 659 340 681Q318 659 297 635Q276 610 256 588Q253 584 247 582Q241 579 236 579Z"  horiz-adv-x="527" vert-adv-y="1000"  />
      <glyph glyph-name="edieresis" unicode="&#xeb;" d="M270 -10Q155 -10 102 53Q48 116 48 216Q48 302 87 371Q126 440 194 481Q262 521 348 521Q404 521 439 502Q474 482 490 451Q506 419 506 383Q506 294 423 239Q339 184 178 176Q188 133 217 110Q245 87 295 87Q334 87 369 98Q404 109 432 128Q442 134 445 123L463 57Q466 45 456 38Q422 17 374 4Q325 -10 270 -10ZM174 254Q236 255 286 267Q335 278 364 303Q393 328 393 367Q393 391 377 409Q361 426 329 426Q286 426 253 399Q219 372 199 333Q179 293 174 254ZM236 603Q208 603 189 623Q169 642 169 670Q169 700 190 721Q211 742 241 742Q270 742 289 723Q308 703 308 674Q308 645 287 624Q266 603 236 603ZM436 603Q408 603 389 623Q369 642 369 670Q369 700 390 721Q411 742 441 742Q470 742 489 723Q508 703 508 674Q508 645 487 624Q466 603 436 603Z"  horiz-adv-x="527" vert-adv-y="1000"  />
      <glyph glyph-name="igrave" unicode="&#xec;" d="M54 0Q42 0 44 12L104 499Q106 511 117 511L215 511Q227 511 225 499L165 12Q163 0 152 0ZM200 579Q189 579 182 589Q154 633 123 681Q91 728 57 777Q53 781 55 784Q57 786 62 786L160 786Q172 786 179 776Q206 733 234 685Q261 636 286 589Q293 579 280 579Z"  horiz-adv-x="256" vert-adv-y="1000"  />
      <glyph glyph-name="iacute" unicode="&#xed;" d="M54 0Q42 0 44 12L104 499Q106 511 117 511L215 511Q227 511 225 499L165 12Q163 0 152 0ZM47 579Q36 579 43 588Q79 635 120 685Q160 734 197 777Q205 786 217 786L316 786Q327 786 319 778Q273 728 229 680Q185 632 147 588Q144 584 138 582Q132 579 127 579Z"  horiz-adv-x="256" vert-adv-y="1000"  />
      <glyph glyph-name="icircumflex" unicode="&#xee;" d="M54 0Q42 0 44 12L104 499Q106 511 117 511L215 511Q227 511 225 499L165 12Q163 0 152 0ZM-2 579Q-14 579 -7 588Q30 635 74 689Q117 742 156 785Q165 794 176 794L213 794Q226 794 231 784Q259 741 290 689Q320 636 345 589Q352 579 339 579L260 579Q248 579 241 589Q228 611 212 635Q196 659 181 681Q159 659 138 635Q117 610 97 588Q94 584 88 582Q82 579 77 579Z"  horiz-adv-x="256" vert-adv-y="1000"  />
      <glyph glyph-name="idieresis" unicode="&#xef;" d="M54 0Q42 0 44 12L104 499Q106 511 117 511L215 511Q227 511 225 499L165 12Q163 0 152 0ZM79 603Q51 603 32 623Q12 642 12 670Q12 700 33 721Q54 742 84 742Q113 742 132 723Q151 703 151 674Q151 645 130 624Q109 603 79 603ZM279 603Q251 603 232 623Q212 642 212 670Q212 700 233 721Q254 742 284 742Q313 742 332 723Q351 703 351 674Q351 645 330 624Q309 603 279 603Z"  horiz-adv-x="256" vert-adv-y="1000"  />
      <glyph glyph-name="eth" unicode="&#xf0;" d="M275 -10Q169 -10 110 47Q51 103 51 192Q51 259 81 316Q110 373 165 408Q220 443 294 443Q368 443 424 407Q402 490 337 544L202 463Q198 460 195 462Q192 464 193 469L198 518Q200 529 210 536L284 581Q240 605 187 620Q176 623 181 633L222 704Q229 714 240 711Q328 689 394 647L497 709Q508 716 506 704L501 655Q499 643 489 636L443 608Q555 507 555 341Q555 276 538 214Q521 151 487 101Q452 50 400 20Q347 -10 275 -10ZM282 76Q322 76 350 98Q378 120 396 155Q414 190 423 230Q432 270 433 306Q408 332 378 347Q347 361 310 361Q250 361 212 316Q173 271 173 198Q173 141 202 109Q231 76 282 76Z"  horiz-adv-x="588" vert-adv-y="1000"  />
      <glyph glyph-name="ntilde" unicode="&#xf1;" d="M64 0Q52 0 54 12L93 336Q98 377 96 405Q94 432 76 459Q70 470 80 475L143 510Q155 517 164 512Q207 490 214 413Q253 473 303 497Q352 521 407 521Q471 521 505 491Q538 460 548 406Q558 352 549 279L529 116Q526 88 525 64Q524 39 525 19Q527 8 514 6L416 0Q404 0 402 11Q401 30 402 55Q403 79 407 113L427 271Q435 341 420 376Q405 411 355 411Q321 411 289 390Q256 369 231 314Q206 259 193 158L175 12Q173 0 162 0ZM411 595Q392 595 377 604Q361 613 347 624Q334 635 322 644Q309 653 296 653Q281 653 271 640Q261 626 252 606Q247 595 238 603L199 635Q189 643 193 654Q209 704 241 732Q273 760 306 760Q327 760 343 751Q359 741 372 730Q385 720 397 711Q408 702 421 702Q435 702 446 715Q456 728 465 749Q470 758 479 752L517 720Q528 711 523 700Q508 651 476 623Q444 595 411 595Z"  horiz-adv-x="607" vert-adv-y="1000"  />
      <glyph glyph-name="ograve" unicode="&#xf2;" d="M269 -10Q191 -10 142 18Q93 45 71 94Q48 143 48 205Q48 290 78 362Q107 433 169 477Q230 521 325 521Q404 521 453 494Q502 466 525 418Q547 369 547 306Q547 222 518 150Q488 78 427 34Q365 -10 269 -10ZM278 87Q319 87 347 106Q375 124 392 155Q408 186 416 224Q423 261 423 298Q423 356 398 390Q373 424 317 424Q262 424 230 392Q198 360 185 312Q171 263 171 213Q171 155 196 121Q221 87 278 87ZM364 579Q353 579 346 589Q318 633 287 681Q255 728 221 777Q217 781 219 784Q221 786 226 786L324 786Q336 786 343 776Q370 733 398 685Q425 636 450 589Q457 579 444 579Z"  horiz-adv-x="582" vert-adv-y="1000"  />
      <glyph glyph-name="oacute" unicode="&#xf3;" d="M269 -10Q191 -10 142 18Q93 45 71 94Q48 143 48 205Q48 290 78 362Q107 433 169 477Q230 521 325 521Q404 521 453 494Q502 466 525 418Q547 369 547 306Q547 222 518 150Q488 78 427 34Q365 -10 269 -10ZM278 87Q319 87 347 106Q375 124 392 155Q408 186 416 224Q423 261 423 298Q423 356 398 390Q373 424 317 424Q262 424 230 392Q198 360 185 312Q171 263 171 213Q171 155 196 121Q221 87 278 87ZM207 579Q196 579 203 588Q239 635 280 685Q320 734 357 777Q365 786 377 786L476 786Q487 786 479 778Q433 728 389 680Q345 632 307 588Q304 584 298 582Q292 579 287 579Z"  horiz-adv-x="582" vert-adv-y="1000"  />
      <glyph glyph-name="ocircumflex" unicode="&#xf4;" d="M269 -10Q191 -10 142 18Q93 45 71 94Q48 143 48 205Q48 290 78 362Q107 433 169 477Q230 521 325 521Q404 521 453 494Q502 466 525 418Q547 369 547 306Q547 222 518 150Q488 78 427 34Q365 -10 269 -10ZM278 87Q319 87 347 106Q375 124 392 155Q408 186 416 224Q423 261 423 298Q423 356 398 390Q373 424 317 424Q262 424 230 392Q198 360 185 312Q171 263 171 213Q171 155 196 121Q221 87 278 87ZM160 579Q148 579 155 588Q192 635 236 689Q279 742 318 785Q327 794 338 794L375 794Q388 794 393 784Q421 741 452 689Q482 636 507 589Q514 579 501 579L422 579Q410 579 403 589Q390 611 374 635Q358 659 343 681Q321 659 300 635Q279 610 259 588Q256 584 250 582Q244 579 239 579Z"  horiz-adv-x="582" vert-adv-y="1000"  />
      <glyph glyph-name="otilde" unicode="&#xf5;" d="M269 -10Q191 -10 142 18Q93 45 71 94Q48 143 48 205Q48 290 78 362Q107 433 169 477Q230 521 325 521Q404 521 453 494Q502 466 525 418Q547 369 547 306Q547 222 518 150Q488 78 427 34Q365 -10 269 -10ZM278 87Q319 87 347 106Q375 124 392 155Q408 186 416 224Q423 261 423 298Q423 356 398 390Q373 424 317 424Q262 424 230 392Q198 360 185 312Q171 263 171 213Q171 155 196 121Q221 87 278 87ZM395 595Q376 595 361 604Q345 613 331 624Q318 635 306 644Q293 653 280 653Q265 653 255 640Q245 626 236 606Q231 595 222 603L183 635Q173 643 177 654Q193 704 225 732Q257 760 290 760Q311 760 327 751Q343 741 356 730Q369 720 381 711Q392 702 405 702Q419 702 430 715Q440 728 449 749Q454 758 463 752L501 720Q512 711 507 700Q492 651 460 623Q428 595 395 595Z"  horiz-adv-x="582" vert-adv-y="1000"  />
      <glyph glyph-name="odieresis" unicode="&#xf6;" d="M269 -10Q191 -10 142 18Q93 45 71 94Q48 143 48 205Q48 290 78 362Q107 433 169 477Q230 521 325 521Q404 521 453 494Q502 466 525 418Q547 369 547 306Q547 222 518 150Q488 78 427 34Q365 -10 269 -10ZM278 87Q319 87 347 106Q375 124 392 155Q408 186 416 224Q423 261 423 298Q423 356 398 390Q373 424 317 424Q262 424 230 392Q198 360 185 312Q171 263 171 213Q171 155 196 121Q221 87 278 87ZM240 603Q212 603 193 623Q173 642 173 670Q173 700 194 721Q215 742 245 742Q274 742 293 723Q312 703 312 674Q312 645 291 624Q270 603 240 603ZM440 603Q412 603 393 623Q373 642 373 670Q373 700 394 721Q415 742 445 742Q474 742 493 723Q512 703 512 674Q512 645 491 624Q470 603 440 603Z"  horiz-adv-x="582" vert-adv-y="1000"  />
      <glyph glyph-name="divide" unicode="&#xf7;" d="M264 26Q238 26 219 45Q200 63 200 89Q200 118 221 138Q241 157 269 157Q295 157 314 139Q332 120 332 94Q332 66 312 46Q292 26 264 26ZM43 251Q31 251 33 263L43 345Q45 357 56 357L538 357Q551 357 549 345L539 263Q537 251 525 251ZM316 454Q290 454 271 473Q252 491 252 517Q252 546 273 566Q293 585 321 585Q347 585 366 567Q384 548 384 522Q384 494 364 474Q344 454 316 454Z"  horiz-adv-x="582" vert-adv-y="1000"  />
      <glyph glyph-name="oslash" unicode="&#xf8;" d="M144 -44Q132 -44 137 -33L156 11Q99 36 74 87Q48 138 48 205Q48 290 78 362Q107 433 169 477Q230 521 325 521Q339 521 352 520Q364 519 376 517L388 545Q394 556 405 556L453 556Q466 556 460 545L440 499Q496 474 522 423Q547 372 547 306Q547 222 518 150Q488 78 427 34Q365 -10 269 -10Q256 -10 244 -9Q231 -7 219 -6L208 -33Q203 -44 191 -44ZM201 115L335 423Q331 423 327 424Q322 424 317 424Q262 424 230 392Q198 360 185 312Q171 263 171 213Q171 146 201 115ZM278 87Q319 87 347 106Q375 124 392 155Q408 186 416 224Q423 261 423 298Q423 362 394 394L260 88Q265 87 270 87Q274 87 278 87Z"  horiz-adv-x="582" vert-adv-y="1000"  />
      <glyph glyph-name="ugrave" unicode="&#xf9;" d="M223 -10Q123 -10 90 53Q57 116 70 225L104 499Q106 511 118 511L215 511Q228 511 226 499L193 237Q185 167 201 134Q216 100 265 100Q300 100 333 121Q365 142 390 197Q415 252 427 353L445 499Q447 511 459 511L556 511Q569 511 567 499L527 175Q522 134 525 107Q527 79 544 52Q550 41 541 36L478 1Q466 -6 456 -1Q435 10 422 34Q409 57 406 96Q369 41 323 16Q276 -10 223 -10ZM385 579Q374 579 367 589Q339 633 308 681Q276 728 242 777Q238 781 240 784Q242 786 247 786L345 786Q357 786 364 776Q391 733 419 685Q446 636 471 589Q478 579 465 579Z"  horiz-adv-x="598" vert-adv-y="1000"  />
      <glyph glyph-name="uacute" unicode="&#xfa;" d="M223 -10Q123 -10 90 53Q57 116 70 225L104 499Q106 511 118 511L215 511Q228 511 226 499L193 237Q185 167 201 134Q216 100 265 100Q300 100 333 121Q365 142 390 197Q415 252 427 353L445 499Q447 511 459 511L556 511Q569 511 567 499L527 175Q522 134 525 107Q527 79 544 52Q550 41 541 36L478 1Q466 -6 456 -1Q435 10 422 34Q409 57 406 96Q369 41 323 16Q276 -10 223 -10ZM227 579Q216 579 223 588Q259 635 300 685Q340 734 377 777Q385 786 397 786L496 786Q507 786 499 778Q453 728 409 680Q365 632 327 588Q324 584 318 582Q312 579 307 579Z"  horiz-adv-x="598" vert-adv-y="1000"  />
      <glyph glyph-name="ucircumflex" unicode="&#xfb;" d="M223 -10Q123 -10 90 53Q57 116 70 225L104 499Q106 511 118 511L215 511Q228 511 226 499L193 237Q185 167 201 134Q216 100 265 100Q300 100 333 121Q365 142 390 197Q415 252 427 353L445 499Q447 511 459 511L556 511Q569 511 567 499L527 175Q522 134 525 107Q527 79 544 52Q550 41 541 36L478 1Q466 -6 456 -1Q435 10 422 34Q409 57 406 96Q369 41 323 16Q276 -10 223 -10ZM176 579Q164 579 171 588Q208 635 252 689Q295 742 334 785Q343 794 354 794L391 794Q404 794 409 784Q437 741 468 689Q498 636 523 589Q530 579 517 579L438 579Q426 579 419 589Q406 611 390 635Q374 659 359 681Q337 659 316 635Q295 610 275 588Q272 584 266 582Q260 579 255 579Z"  horiz-adv-x="598" vert-adv-y="1000"  />
      <glyph glyph-name="udieresis" unicode="&#xfc;" d="M223 -10Q123 -10 90 53Q57 116 70 225L104 499Q106 511 118 511L215 511Q228 511 226 499L193 237Q185 167 201 134Q216 100 265 100Q300 100 333 121Q365 142 390 197Q415 252 427 353L445 499Q447 511 459 511L556 511Q569 511 567 499L527 175Q522 134 525 107Q527 79 544 52Q550 41 541 36L478 1Q466 -6 456 -1Q435 10 422 34Q409 57 406 96Q369 41 323 16Q276 -10 223 -10ZM253 603Q225 603 206 623Q186 642 186 670Q186 700 207 721Q228 742 258 742Q287 742 306 723Q325 703 325 674Q325 645 304 624Q283 603 253 603ZM453 603Q425 603 406 623Q386 642 386 670Q386 700 407 721Q428 742 458 742Q487 742 506 723Q525 703 525 674Q525 645 504 624Q483 603 453 603Z"  horiz-adv-x="598" vert-adv-y="1000"  />
      <glyph glyph-name="yacute" unicode="&#xfd;" d="M79 -264L18 -201Q10 -193 19 -185Q63 -148 108 -102Q153 -55 187 -4Q174 35 155 95Q136 155 115 224Q94 293 75 361Q55 429 41 483Q39 495 50 497L156 516Q168 518 170 506Q184 441 202 366Q220 291 238 223Q243 203 248 181Q253 159 259 128L264 128Q278 159 289 181Q300 203 310 223Q346 293 385 368Q423 442 453 507Q459 518 470 515L565 497Q570 496 572 493Q574 489 571 484Q548 439 519 386Q489 332 458 276Q426 219 396 166Q365 113 340 69Q314 24 297 -6Q270 -53 237 -101Q203 -148 167 -190Q131 -232 97 -264Q87 -272 79 -264ZM192 579Q181 579 188 588Q224 635 265 685Q305 734 342 777Q350 786 362 786L461 786Q472 786 464 778Q418 728 374 680Q330 632 292 588Q289 584 283 582Q277 579 272 579Z"  horiz-adv-x="544" vert-adv-y="1000"  />
      <glyph glyph-name="thorn" unicode="&#xfe;" d="M30 -250Q17 -250 19 -238L141 752Q143 764 155 764L252 764Q265 764 263 752L225 447Q260 489 299 505Q337 521 372 521Q436 521 472 493Q508 464 523 417Q538 370 538 312Q538 204 505 133Q471 61 411 26Q350 -10 270 -10Q242 -10 217 -7Q192 -3 170 3L141 -238Q139 -250 127 -250ZM263 87Q334 87 374 141Q414 194 414 297Q414 349 397 386Q379 422 333 422Q288 422 248 364Q208 306 193 183L182 101Q199 95 220 91Q241 87 263 87Z"  horiz-adv-x="577" vert-adv-y="1000"  />
      </font>
</defs>
</svg>
