<?xml version="1.0" standalone="no"?>
  <!DOCTYPE svg PUBLIC "-//W3C//DTD SVG 1.1//EN" "http://www.w3.org/Graphics/SVG/1.1/DTD/svg11.dtd" >
  <svg>
  <metadata>
  Created by TNB FontFinisher
  </metadata>
  <defs>
  <font id="SunLifeSans-Italic"  horiz-adv-x="1310" vert-adv-y="1385" >
    <font-face
      font-family="Sun Life Sans Regular Italic"
      font-style="Regular"
      font-weight="400"
      font-stretch="normal"
      panose-1="2 11 5 4 3 3 4 10 3 3"
      units-per-em="1000"
      ascent="1265"
      descent="-356"
    />
      <missing-glyph  d="M27 0L113 703L607 703L521 0ZM101 53L458 53L311 307ZM93 119L285 351L150 584ZM485 119L542 584L349 351ZM322 396L532 650L175 650Z"  horiz-adv-x="592" vert-adv-y="1000"  /> 
      <glyph glyph-name="space" unicode="&#x20;" d=""  horiz-adv-x="299" vert-adv-y="1000"  />
      <glyph glyph-name="exclam" unicode="&#x21;" d="M158 -10Q136 -10 121 6Q105 21 105 43Q105 66 122 83Q139 100 163 100Q185 100 200 85Q215 70 215 47Q215 24 198 7Q181 -10 158 -10ZM164 203Q152 203 154 214L192 702Q194 713 204 713L279 713Q290 713 288 702L208 214Q206 203 195 203Z"  horiz-adv-x="302" vert-adv-y="1000"  />
      <glyph glyph-name="quotedbl" unicode="&#x22;" d="M114 497Q102 497 104 508L117 702Q119 713 129 713L195 713Q206 713 204 702L172 508Q170 497 159 497ZM280 497Q268 497 270 508L283 702Q285 713 295 713L361 713Q372 713 370 702L338 508Q336 497 325 497Z"  horiz-adv-x="391" vert-adv-y="1000"  />
      <glyph glyph-name="numbersign" unicode="&#x23;" d="M120 0Q109 0 112 11L163 198L51 198Q41 198 41 209L48 257Q48 268 60 268L183 268L229 434L115 434Q105 434 105 445L112 494Q112 505 124 505L248 505L300 692Q303 703 314 703L367 703Q378 703 375 692L323 505L480 505L532 692Q535 703 546 703L599 703Q610 703 607 692L555 505L668 505Q678 505 678 494L671 445Q671 434 659 434L536 434L490 268L604 268Q614 268 614 257L607 209Q607 198 595 198L470 198L419 11Q416 0 405 0L352 0Q341 0 344 11L395 198L238 198L187 11Q184 0 173 0ZM258 268L415 268L461 434L304 434Z"  horiz-adv-x="676" vert-adv-y="1000"  />
      <glyph glyph-name="dollar" unicode="&#x24;" d="M241 -110Q229 -110 231 -99L245 14Q195 16 150 27Q105 37 71 55Q61 60 64 70L85 137Q89 146 97 141Q137 119 183 107Q228 94 277 94Q354 94 392 124Q429 154 429 205Q429 242 406 264Q383 285 347 299Q311 312 270 325Q229 338 193 358Q157 378 134 412Q111 446 111 502Q111 586 170 635Q228 684 328 688L343 802Q345 813 355 813L407 813Q418 813 416 802L401 684Q440 680 473 671Q506 662 529 651Q538 647 535 637L513 574Q510 565 501 569Q470 584 428 595Q386 606 341 606Q269 606 235 577Q201 548 201 508Q201 472 224 451Q247 429 284 415Q320 401 362 388Q403 374 440 354Q476 334 499 301Q522 267 522 213Q522 136 473 82Q423 27 319 16L305 -99Q303 -110 293 -110Z"  horiz-adv-x="582" vert-adv-y="1000"  />
      <glyph glyph-name="percent" unicode="&#x25;" d="M162 -46Q151 -46 156 -36L560 739Q565 749 576 749L629 749Q640 749 635 739L232 -36Q227 -46 215 -46ZM194 341Q127 341 98 381Q69 420 69 482Q69 523 78 564Q87 604 108 638Q128 672 161 693Q194 713 242 713Q307 713 337 674Q367 634 367 572Q367 531 358 490Q349 449 329 416Q308 382 275 362Q242 341 194 341ZM550 -10Q484 -10 454 30Q424 69 424 131Q424 172 433 213Q442 253 463 287Q483 321 516 342Q549 362 597 362Q662 362 693 323Q723 283 723 221Q723 181 714 140Q704 99 684 65Q664 31 631 11Q598 -10 550 -10ZM201 402Q231 402 250 418Q269 434 280 459Q291 484 296 512Q300 540 300 563Q300 597 287 625Q274 652 234 652Q205 652 186 636Q166 619 155 594Q144 568 140 541Q135 513 135 490Q135 456 149 429Q162 402 201 402ZM557 51Q586 51 606 67Q625 83 636 109Q647 134 652 162Q656 189 656 212Q656 245 643 273Q629 301 590 301Q560 301 541 285Q521 269 511 244Q500 218 496 190Q491 162 491 139Q491 105 504 78Q517 51 557 51Z"  horiz-adv-x="750" vert-adv-y="1000"  />
      <glyph glyph-name="ampersand" unicode="&#x26;" d="M236 -10Q136 -10 84 38Q32 86 32 168Q32 229 60 270Q87 310 131 338Q174 366 222 389L220 392Q194 430 178 464Q162 497 162 543Q162 593 187 632Q211 670 253 692Q294 713 345 713Q420 713 461 674Q501 634 501 572Q501 521 479 485Q456 448 420 422Q383 395 341 373L464 199Q485 237 497 279Q508 320 510 360Q512 371 522 371L584 371Q595 371 595 360Q592 302 572 241Q551 180 513 129L598 9Q604 0 594 0L508 0Q498 0 490 9L451 64Q409 30 356 10Q302 -10 236 -10ZM248 66Q298 66 337 83Q376 99 407 126L261 333Q224 314 193 292Q162 270 143 243Q124 215 124 177Q124 132 154 99Q184 66 248 66ZM302 427Q351 453 385 485Q419 516 419 565Q419 595 399 617Q379 638 344 638Q301 638 277 611Q253 584 253 546Q253 514 267 486Q281 458 302 427Z"  horiz-adv-x="632" vert-adv-y="1000"  />
      <glyph glyph-name="quotesingle" unicode="&#x27;" d="M114 497Q102 497 104 508L117 702Q119 713 129 713L195 713Q206 713 204 702L172 508Q170 497 159 497Z"  horiz-adv-x="226" vert-adv-y="1000"  />
      <glyph glyph-name="parenleft" unicode="&#x28;" d="M201 -166Q192 -171 186 -163Q130 -76 104 29Q78 134 78 240Q78 335 104 434Q130 533 181 625Q231 717 304 790Q312 798 320 791L360 761Q368 753 362 745Q309 680 266 599Q223 518 198 426Q172 333 172 235Q172 138 192 53Q212 -33 255 -119Q261 -129 252 -134Z"  horiz-adv-x="328" vert-adv-y="1000"  />
      <glyph glyph-name="parenright" unicode="&#x29;" d="M43 -165L3 -135Q-5 -127 1 -119Q54 -54 97 27Q140 108 166 201Q191 293 191 391Q191 488 171 574Q151 660 108 745Q102 755 111 760L162 792Q171 797 177 789Q233 702 259 598Q285 493 285 386Q285 291 259 192Q233 93 183 1Q132 -91 59 -164Q51 -172 43 -165Z"  horiz-adv-x="328" vert-adv-y="1000"  />
      <glyph glyph-name="asterisk" unicode="&#x2a;" d="M373 427Q364 420 359 431L307 529L229 430Q222 421 214 428L183 453Q175 460 181 469L264 563L156 598Q146 601 151 611L171 655Q175 666 185 661L289 621L300 742Q302 753 312 753L357 753Q369 753 365 742L346 621L462 661Q471 666 475 654L483 612Q485 601 474 598L358 563L417 469Q421 460 414 453Z"  horiz-adv-x="528" vert-adv-y="1000"  />
      <glyph glyph-name="plus" unicode="&#x2b;" d="M250 45Q238 45 240 56L265 264L65 264Q53 264 55 275L62 333Q64 344 74 344L275 344L301 551Q303 562 313 562L369 562Q381 562 379 551L353 344L553 344Q565 344 563 333L556 275Q554 264 544 264L343 264L318 56Q316 45 305 45Z"  horiz-adv-x="582" vert-adv-y="1000"  />
      <glyph glyph-name="comma" unicode="&#x2c;" d="M30 -123Q19 -123 24 -113Q44 -64 63 -16Q81 33 95 82Q100 93 110 93L176 93Q186 93 183 83Q165 33 144 -16Q123 -65 100 -113Q95 -123 84 -123Z"  horiz-adv-x="244" vert-adv-y="1000"  />
      <glyph glyph-name="hyphen" unicode="&#x2d;" d="M107 246Q95 246 97 257L103 309Q105 320 116 320L424 320Q436 320 434 309L428 257Q426 246 415 246Z"  horiz-adv-x="497" vert-adv-y="1000"  />
      <glyph glyph-name="period" unicode="&#x2e;" d="M121 -10Q99 -10 84 6Q68 21 68 43Q68 66 85 83Q102 100 126 100Q148 100 163 85Q178 70 178 47Q178 24 161 7Q144 -10 121 -10Z"  horiz-adv-x="242" vert-adv-y="1000"  />
      <glyph glyph-name="slash" unicode="&#x2f;" d="M22 -46L-34 -46Q-44 -46 -41 -36L277 739Q280 749 292 749L348 749Q359 749 354 739L37 -36Q34 -46 22 -46Z"  horiz-adv-x="270" vert-adv-y="1000"  />
      <glyph glyph-name="zero" unicode="&#x30;" d="M269 -10Q157 -10 105 64Q52 137 52 264Q52 358 71 440Q90 521 128 583Q165 644 221 679Q277 713 351 713Q462 713 515 640Q567 567 567 439Q567 345 549 264Q530 182 493 121Q455 59 399 25Q343 -10 269 -10ZM278 73Q333 73 371 107Q408 141 430 196Q452 250 462 313Q471 375 471 432Q471 527 439 579Q407 630 341 630Q286 630 249 596Q211 562 189 508Q167 453 158 391Q148 328 148 271Q148 175 181 124Q213 73 278 73Z"  horiz-adv-x="582" vert-adv-y="1000"  />
      <glyph glyph-name="one" unicode="&#x31;" d="M287 0Q275 0 277 11L350 604L137 491Q133 488 130 490Q127 492 128 496L137 568Q139 578 148 584L376 702Q384 708 397 708L449 708Q461 708 459 697L374 11Q372 0 362 0Z"  horiz-adv-x="582" vert-adv-y="1000"  />
      <glyph glyph-name="two" unicode="&#x32;" d="M51 0Q39 0 41 11L44 44Q51 106 77 151Q102 196 140 229Q177 262 221 289Q264 315 306 339Q348 362 383 388Q418 414 439 448Q460 481 460 527Q460 574 431 603Q402 631 337 631Q278 631 232 612Q185 593 144 564Q135 558 130 567L108 619Q103 630 112 636Q163 673 221 693Q278 713 351 713Q426 713 471 688Q515 663 535 621Q554 578 554 527Q554 467 527 423Q499 379 455 346Q411 312 361 284Q310 255 264 227Q217 198 186 164Q154 130 147 85L498 85Q510 85 508 74L500 11Q498 0 488 0Z"  horiz-adv-x="582" vert-adv-y="1000"  />
      <glyph glyph-name="three" unicode="&#x33;" d="M232 -10Q183 -10 136 1Q89 12 56 37Q46 42 52 52L89 112Q94 123 103 114Q134 91 166 81Q198 70 236 70Q324 70 371 111Q418 151 418 212Q418 269 383 298Q348 326 271 326L210 326Q198 326 200 337L207 392Q209 403 219 403L272 403Q362 403 405 439Q447 475 447 532Q447 573 419 603Q391 632 325 632Q288 632 253 622Q218 611 180 590Q170 583 166 594L145 646Q140 655 149 662Q190 687 241 700Q292 713 344 713Q414 713 457 691Q499 668 519 630Q538 591 538 542Q538 482 500 435Q462 387 394 365Q455 350 484 311Q512 272 512 212Q512 146 478 96Q443 46 380 18Q317 -10 232 -10Z"  horiz-adv-x="582" vert-adv-y="1000"  />
      <glyph glyph-name="four" unicode="&#x34;" d="M324 0Q312 0 314 11L335 188L49 188Q38 188 40 199L47 258Q49 269 55 277L379 694Q385 703 397 703L480 703Q491 703 489 692L437 269L546 269Q558 269 556 258L548 199Q546 188 536 188L427 188L406 11Q404 0 394 0ZM137 269L345 269L384 586Z"  horiz-adv-x="582" vert-adv-y="1000"  />
      <glyph glyph-name="five" unicode="&#x35;" d="M230 -10Q176 -10 127 4Q78 17 43 42Q35 49 41 58L80 117Q86 126 95 119Q162 71 243 71Q328 71 378 115Q428 158 428 231Q428 288 397 321Q366 354 298 354Q261 354 229 345Q197 335 168 319Q159 313 147 316L113 325Q101 327 105 338L171 692Q173 703 184 703L549 703Q559 703 559 692L550 629Q550 618 538 618L242 618L202 405Q230 416 262 423Q294 429 328 429Q429 429 476 378Q523 326 523 240Q523 166 488 110Q452 53 387 22Q321 -10 230 -10Z"  horiz-adv-x="582" vert-adv-y="1000"  />
      <glyph glyph-name="six" unicode="&#x36;" d="M281 -10Q167 -10 115 62Q62 133 62 252Q62 341 97 425Q131 508 193 574Q255 640 341 678Q426 715 528 712Q540 712 538 701L534 639Q532 628 522 629Q442 632 372 601Q302 569 251 511Q199 453 174 373Q212 400 256 418Q300 435 349 435Q447 435 492 382Q537 328 537 245Q537 172 505 114Q472 56 415 23Q357 -10 281 -10ZM288 69Q353 69 398 112Q443 155 443 237Q443 293 415 327Q386 360 321 360Q279 360 237 342Q194 324 158 294Q157 282 157 271Q156 259 156 247Q156 158 192 114Q228 69 288 69Z"  horiz-adv-x="582" vert-adv-y="1000"  />
      <glyph glyph-name="seven" unicode="&#x37;" d="M121 0Q110 0 116 10L482 618L131 618Q120 618 122 629L129 692Q131 703 142 703L561 703Q571 703 573 692L578 656Q579 646 574 635L224 10Q220 0 207 0Z"  horiz-adv-x="582" vert-adv-y="1000"  />
      <glyph glyph-name="eight" unicode="&#x38;" d="M273 -10Q208 -10 154 7Q100 24 69 62Q37 99 37 160Q37 216 64 256Q91 295 134 322Q176 348 221 366Q176 390 145 428Q113 465 113 529Q113 582 142 624Q171 665 224 689Q277 713 350 713Q423 713 468 692Q513 671 535 636Q556 600 556 557Q556 513 535 479Q514 444 481 419Q447 393 407 375Q444 359 475 336Q506 313 526 280Q545 246 545 195Q545 133 511 87Q476 41 415 16Q353 -10 273 -10ZM283 66Q362 66 407 102Q451 138 451 193Q451 233 428 258Q405 283 369 301Q333 318 292 334Q252 319 215 297Q178 274 155 243Q131 212 131 171Q131 112 174 89Q217 66 283 66ZM334 405Q394 429 430 464Q466 498 466 546Q466 587 438 612Q410 637 345 637Q279 637 241 609Q203 581 203 532Q203 498 221 475Q239 451 269 435Q299 419 334 405Z"  horiz-adv-x="582" vert-adv-y="1000"  />
      <glyph glyph-name="nine" unicode="&#x39;" d="M95 -9Q83 -9 85 2L88 64Q90 76 100 74Q180 71 250 102Q320 133 372 192Q424 250 448 329Q411 301 367 285Q322 268 273 268Q176 268 131 321Q86 374 86 458Q86 532 119 590Q151 647 209 680Q266 713 342 713Q455 713 508 642Q560 570 560 451Q560 362 526 279Q492 195 430 129Q367 63 282 26Q197 -12 95 -9ZM302 342Q344 342 386 361Q428 379 464 409Q467 432 467 456Q467 545 431 589Q394 633 334 633Q269 633 224 590Q179 547 179 466Q179 411 208 377Q237 342 302 342Z"  horiz-adv-x="582" vert-adv-y="1000"  />
      <glyph glyph-name="colon" unicode="&#x3a;" d="M109 -10Q87 -10 72 6Q56 21 56 43Q56 66 73 83Q90 100 114 100Q136 100 151 85Q166 70 166 47Q166 24 150 7Q133 -10 109 -10ZM161 405Q139 405 123 421Q107 436 107 458Q107 481 124 498Q141 515 165 515Q187 515 203 500Q218 485 218 462Q218 439 201 422Q184 405 161 405Z"  horiz-adv-x="242" vert-adv-y="1000"  />
      <glyph glyph-name="semicolon" unicode="&#x3b;" d="M18 -123Q8 -123 11 -113Q31 -64 50 -16Q68 33 82 82Q85 93 97 93L162 93Q173 93 170 83Q152 33 132 -16Q111 -65 88 -113Q81 -123 71 -123ZM161 405Q139 405 123 421Q107 436 107 458Q107 481 124 498Q141 515 165 515Q187 515 203 500Q218 485 218 462Q218 439 201 422Q184 405 161 405Z"  horiz-adv-x="244" vert-adv-y="1000"  />
      <glyph glyph-name="less" unicode="&#x3c;" d="M507 12L58 263Q47 268 49 279L55 321Q57 332 66 337L579 589Q590 593 588 582L578 506Q576 494 567 491L170 300L519 110Q530 105 528 94L518 18Q517 8 507 12Z"  horiz-adv-x="582" vert-adv-y="1000"  />
      <glyph glyph-name="equal" unicode="&#x3d;" d="M80 393Q68 393 70 404L77 462Q79 473 89 473L568 473Q580 473 578 462L571 404Q569 393 559 393ZM50 135Q38 135 40 146L47 204Q49 215 59 215L538 215Q550 215 548 204L541 146Q539 135 529 135Z"  horiz-adv-x="582" vert-adv-y="1000"  />
      <glyph glyph-name="greater" unicode="&#x3e;" d="M32 11Q22 8 23 18L33 94Q35 106 44 109L441 300L92 490Q81 495 83 506L93 582Q94 592 104 588L553 337Q564 332 562 321L556 279Q554 268 545 263Z"  horiz-adv-x="582" vert-adv-y="1000"  />
      <glyph glyph-name="question" unicode="&#x3f;" d="M216 -10Q194 -10 179 6Q163 21 163 43Q163 66 180 83Q197 100 221 100Q243 100 258 85Q273 70 273 47Q273 24 256 7Q239 -10 216 -10ZM219 203Q208 203 205 214Q202 229 201 243Q200 256 201 269Q207 315 237 346Q267 377 306 405Q344 432 369 453Q394 473 407 496Q419 518 419 549Q419 589 395 611Q370 633 322 633Q284 633 247 621Q209 608 171 581Q163 576 157 585L134 641Q129 651 139 658Q189 688 238 701Q286 713 335 713Q421 713 466 670Q511 626 511 555Q511 511 493 478Q474 445 444 419Q414 393 377 368Q350 349 325 329Q299 309 283 282Q266 255 263 214Q261 203 251 203Z"  horiz-adv-x="531" vert-adv-y="1000"  />
      <glyph glyph-name="at" unicode="&#x40;" d="M428 -55Q297 -55 214 -9Q130 38 95 122Q59 205 72 317Q81 391 115 462Q149 532 206 589Q262 645 341 679Q419 713 516 713Q626 713 702 676Q777 638 813 570Q848 501 836 407Q826 320 786 259Q746 198 691 166Q636 134 580 134Q538 134 518 151Q498 168 496 196Q473 169 442 152Q410 134 369 134Q308 134 280 175Q251 216 258 272Q266 340 304 396Q341 451 399 485Q456 518 525 518Q606 518 657 493Q668 488 663 478L594 305Q581 272 579 253Q577 235 584 224Q590 212 611 212Q641 212 673 234Q705 256 730 299Q755 342 762 405Q771 476 745 530Q718 584 658 615Q597 645 505 645Q426 645 363 617Q300 589 255 543Q209 496 182 438Q155 379 147 317Q136 225 166 156Q195 86 264 48Q333 10 438 10Q480 10 521 16Q561 22 591 30Q601 33 603 22L609 -17Q611 -27 600 -31Q565 -41 517 -48Q469 -55 428 -55ZM400 208Q433 208 454 221Q474 234 487 255Q499 276 508 298L565 441Q555 444 544 446Q533 448 517 448Q474 448 436 427Q398 406 373 369Q348 331 343 283Q340 250 356 229Q371 208 400 208Z"  horiz-adv-x="861" vert-adv-y="1000"  />
      <glyph glyph-name="A" unicode="&#x41;" d="M63 -3L-8 2Q-19 4 -14 13Q27 91 76 181Q124 271 175 363Q225 455 274 542Q322 628 362 698Q367 708 378 708L448 708Q459 708 461 697Q476 624 494 539Q511 454 529 364Q547 274 564 185Q580 96 595 14Q597 4 586 2L509 -3Q498 -5 496 7Q493 27 488 60Q482 93 477 126Q471 159 468 177L171 177Q169 174 160 157Q151 140 138 116Q125 92 112 68Q99 43 90 26Q81 9 80 6Q73 -4 63 -3ZM211 258L454 258Q444 314 433 370Q422 425 412 479Q408 506 404 537Q399 568 397 599L391 599Q378 567 362 536Q346 504 331 478Q329 475 317 453Q305 431 288 400Q271 368 254 337Q237 306 225 284Q213 262 211 258Z"  horiz-adv-x="621" vert-adv-y="1000"  />
      <glyph glyph-name="B" unicode="&#x42;" d="M248 -10Q196 -10 151 -7Q106 -4 65 3Q53 5 55 16L137 691Q139 702 149 704Q229 713 306 713Q428 713 493 671Q558 628 558 535Q558 470 525 430Q492 390 445 372Q504 353 540 315Q576 276 576 203Q576 104 499 47Q422 -10 248 -10ZM284 68Q382 68 431 104Q479 139 479 206Q479 326 324 326L189 326L158 76Q189 72 222 70Q254 68 284 68ZM199 403L321 403Q379 403 420 431Q461 459 461 523Q461 583 422 608Q382 633 308 633Q283 633 264 633Q244 632 226 630Z"  horiz-adv-x="619" vert-adv-y="1000"  />
      <glyph glyph-name="C" unicode="&#x43;" d="M341 -10Q245 -10 185 29Q125 67 98 137Q70 207 70 299Q70 385 92 460Q114 535 157 592Q200 649 265 681Q329 713 413 713Q475 713 522 701Q569 688 602 668Q612 662 606 653L573 588Q570 578 560 585Q525 608 485 618Q445 627 404 627Q330 627 277 586Q224 545 196 472Q167 398 167 300Q167 184 215 130Q262 76 357 76Q402 76 446 89Q490 102 527 125Q536 131 540 122L559 62Q563 53 554 46Q509 17 455 4Q400 -10 341 -10Z"  horiz-adv-x="585" vert-adv-y="1000"  />
      <glyph glyph-name="D" unicode="&#x44;" d="M245 -10Q195 -10 150 -7Q105 -3 65 5Q53 7 55 18L138 690Q140 702 150 703Q216 713 293 713Q419 713 494 672Q568 630 600 559Q632 487 632 396Q632 200 539 95Q445 -10 245 -10ZM258 76Q341 76 404 107Q466 137 501 206Q535 274 535 387Q535 514 476 570Q417 626 300 626Q278 626 261 625Q243 624 225 622L159 81Q182 79 207 78Q232 76 258 76Z"  horiz-adv-x="661" vert-adv-y="1000"  />
      <glyph glyph-name="E" unicode="&#x45;" d="M65 0Q53 0 55 11L139 692Q141 703 151 703L573 703Q585 703 583 692L575 627Q573 616 562 616L226 616L200 401L504 401Q514 401 514 390L505 326Q505 315 493 315L189 315L161 87L505 87Q517 87 515 76L507 11Q505 0 494 0Z"  horiz-adv-x="574" vert-adv-y="1000"  />
      <glyph glyph-name="F" unicode="&#x46;" d="M65 0Q53 0 55 11L139 692Q141 703 151 703L558 703Q570 703 568 692L560 626Q558 615 548 615L226 615L199 393L488 393Q498 393 498 382L489 317Q489 306 477 306L188 306L152 11Q150 0 140 0Z"  horiz-adv-x="540" vert-adv-y="1000"  />
      <glyph glyph-name="G" unicode="&#x47;" d="M367 -10Q216 -10 143 72Q70 153 70 299Q70 385 92 460Q114 535 158 592Q201 649 266 681Q330 713 414 713Q476 713 523 700Q570 687 604 667Q613 662 609 652L575 586Q572 576 562 583Q527 607 487 617Q446 627 404 627Q331 627 278 587Q224 546 196 473Q167 399 167 301Q167 75 373 75Q431 75 476 88L499 275L371 275Q361 275 361 286L369 349Q371 360 382 360L588 360Q598 360 598 349L559 43Q557 32 548 27Q504 6 459 -2Q414 -10 367 -10Z"  horiz-adv-x="643" vert-adv-y="1000"  />
      <glyph glyph-name="H" unicode="&#x48;" d="M65 0Q53 0 55 11L139 692Q141 703 151 703L226 703Q237 703 235 692L199 400L550 400L586 692Q588 703 598 703L673 703Q685 703 683 692L599 11Q597 0 587 0L512 0Q500 0 502 11L539 314L189 314L152 11Q150 0 140 0Z"  horiz-adv-x="696" vert-adv-y="1000"  />
      <glyph glyph-name="I" unicode="&#x49;" d="M65 0Q53 0 55 11L139 692Q141 703 151 703L226 703Q237 703 235 692L152 11Q150 0 140 0Z"  horiz-adv-x="249" vert-adv-y="1000"  />
      <glyph glyph-name="J" unicode="&#x4a;" d="M-110 -186Q-122 -186 -122 -175L-131 -116Q-133 -105 -122 -105Q-37 -102 8 -54Q53 -6 64 89L139 692Q141 703 151 703L225 703Q237 703 235 692L160 87Q144 -51 73 -117Q2 -183 -110 -186Z"  horiz-adv-x="248" vert-adv-y="1000"  />
      <glyph glyph-name="K" unicode="&#x4b;" d="M474 -7Q463 -11 458 -1Q435 32 404 76Q372 120 336 169Q299 217 263 265Q226 313 193 353L152 11Q150 0 140 0L65 0Q53 0 55 11L139 692Q141 703 151 703L226 703Q237 703 235 692L197 387Q255 436 315 492Q375 547 432 602Q488 657 532 705Q540 713 550 709L623 690Q634 686 626 678Q598 649 558 610Q517 571 471 529Q424 486 379 446Q333 405 295 372Q327 335 364 289Q400 242 437 194Q474 146 507 102Q539 58 561 25Q564 21 563 18Q561 15 557 14Z"  horiz-adv-x="582" vert-adv-y="1000"  />
      <glyph glyph-name="L" unicode="&#x4c;" d="M65 0Q53 0 55 11L139 692Q141 703 151 703L226 703Q237 703 235 692L161 87L483 87Q495 87 493 76L485 11Q483 0 473 0Z"  horiz-adv-x="525" vert-adv-y="1000"  />
      <glyph glyph-name="M" unicode="&#x4d;" d="M112 -3L45 2Q34 4 36 14Q58 121 83 238Q107 354 133 471Q158 587 182 692Q184 703 195 703L256 703Q268 703 271 692Q305 582 341 466Q377 349 409 242Q414 229 418 210Q422 191 424 170L428 170Q436 191 446 212Q456 232 464 247Q521 355 585 470Q649 585 710 693Q715 703 726 703L790 703Q801 703 801 692Q799 592 796 477Q793 361 789 243Q785 124 780 14Q780 4 769 2L694 -3Q683 -5 683 7Q688 102 694 209Q700 316 704 411L712 532L706 532Q693 500 676 469Q658 438 644 412Q595 323 544 227Q492 130 445 43Q438 34 428 34L385 34Q374 34 371 45Q349 124 321 220Q292 316 263 413Q256 437 248 470Q240 502 233 530L228 530Q224 502 217 470Q210 438 205 412Q186 319 165 212Q143 105 125 7Q123 -5 112 -3Z"  horiz-adv-x="858" vert-adv-y="1000"  />
      <glyph glyph-name="N" unicode="&#x4e;" d="M65 0Q54 0 55 11L138 692Q140 703 150 703L206 703Q217 703 222 693Q239 663 264 620Q288 577 316 528Q344 478 372 428Q399 378 424 333Q448 288 466 256Q475 240 485 219Q495 198 502 178L508 178Q509 200 511 224Q513 247 516 272L568 692Q570 703 580 703L652 703Q663 703 662 692L579 11Q577 0 567 0L510 0Q499 0 494 10Q430 131 372 240Q314 349 252 457Q243 473 233 494Q222 515 214 535L208 535Q207 513 205 490Q203 467 200 441L148 11Q146 0 136 0Z"  horiz-adv-x="675" vert-adv-y="1000"  />
      <glyph glyph-name="O" unicode="&#x4f;" d="M323 -10Q196 -10 133 67Q70 143 70 273Q70 359 90 438Q109 516 149 579Q189 641 252 677Q314 713 400 713Q527 713 590 637Q652 561 652 430Q652 343 633 264Q613 185 573 124Q533 62 471 26Q409 -10 323 -10ZM329 76Q388 76 431 104Q473 131 501 179Q528 227 542 289Q555 350 555 419Q555 522 516 575Q477 627 393 627Q335 627 292 600Q249 572 222 524Q195 476 182 415Q168 353 168 284Q168 181 207 129Q246 76 329 76Z"  horiz-adv-x="680" vert-adv-y="1000"  />
      <glyph glyph-name="P" unicode="&#x50;" d="M65 0Q53 0 55 11L138 689Q140 701 151 701Q187 708 229 711Q270 713 309 713Q440 713 511 664Q582 614 581 506Q581 435 545 386Q508 337 445 313Q381 288 299 288Q265 288 238 290Q211 292 186 295L152 11Q150 0 140 0ZM305 366Q394 366 439 403Q484 440 484 505Q484 560 446 597Q407 634 312 634Q289 634 269 633Q248 632 227 630L196 374Q223 370 252 368Q280 366 305 366Z"  horiz-adv-x="582" vert-adv-y="1000"  />
      <glyph glyph-name="Q" unicode="&#x51;" d="M614 -158Q582 -138 542 -108Q501 -77 463 -48Q425 -18 399 -1Q363 -10 323 -10Q196 -10 133 67Q70 143 70 273Q70 359 90 438Q109 516 149 579Q189 641 252 677Q314 713 400 713Q527 713 590 637Q652 561 652 430Q652 346 634 269Q616 191 578 130Q540 68 481 32Q510 13 545 -9Q579 -30 612 -49Q645 -68 669 -80Q677 -87 672 -95L630 -155Q622 -163 614 -158ZM329 76Q388 76 431 104Q473 131 501 179Q528 227 542 289Q555 350 555 419Q555 522 516 575Q477 627 393 627Q335 627 292 600Q249 572 222 524Q195 476 182 415Q168 353 168 284Q168 181 207 129Q246 76 329 76Z"  horiz-adv-x="677" vert-adv-y="1000"  />
      <glyph glyph-name="R" unicode="&#x52;" d="M493 -7Q482 -11 477 0Q442 69 400 148Q358 227 316 297L292 297Q235 297 187 303L152 11Q150 0 140 0L65 0Q53 0 55 11L138 688Q140 699 151 701Q187 707 225 710Q263 713 306 713Q435 713 507 665Q578 617 575 505Q572 435 531 385Q490 334 410 311Q437 268 467 218Q496 167 524 118Q552 68 573 26Q579 17 568 13ZM304 374Q383 374 430 407Q476 440 478 505Q480 571 435 603Q390 634 310 634Q290 634 269 633Q248 632 228 630L197 380Q247 374 304 374Z"  horiz-adv-x="602" vert-adv-y="1000"  />
      <glyph glyph-name="S" unicode="&#x53;" d="M248 -10Q187 -10 131 1Q75 12 34 34Q23 39 27 50L50 122Q53 132 63 126Q106 103 155 90Q203 76 257 76Q340 76 380 108Q420 140 420 195Q420 229 402 251Q383 272 353 286Q322 300 286 312Q249 323 213 337Q176 351 146 373Q115 394 97 428Q78 462 78 513Q78 607 146 660Q213 713 328 713Q390 713 442 701Q494 688 528 673Q539 669 535 658L511 590Q508 580 498 585Q465 602 420 614Q374 625 326 625Q248 625 212 594Q175 563 175 520Q175 486 194 465Q212 443 243 429Q274 415 311 403Q348 391 385 377Q422 362 453 341Q484 320 503 287Q521 254 521 204Q521 143 492 95Q463 46 403 18Q342 -10 248 -10Z"  horiz-adv-x="547" vert-adv-y="1000"  />
      <glyph glyph-name="T" unicode="&#x54;" d="M229 0Q217 0 219 11L294 616L78 616Q67 616 69 627L77 692Q79 703 89 703L615 703Q627 703 625 692L617 627Q615 616 605 616L390 616L316 11Q314 0 304 0Z"  horiz-adv-x="576" vert-adv-y="1000"  />
      <glyph glyph-name="U" unicode="&#x55;" d="M312 -10Q178 -10 122 66Q66 141 85 298L134 692Q136 703 146 703L221 703Q233 703 231 692L181 292Q167 174 202 125Q236 76 323 76Q412 76 459 124Q505 172 520 292L569 692Q571 703 582 703L656 703Q668 703 666 692L617 298Q604 186 566 118Q528 50 465 20Q402 -10 312 -10Z"  horiz-adv-x="673" vert-adv-y="1000"  />
      <glyph glyph-name="V" unicode="&#x56;" d="M253 -5Q241 -5 238 6Q228 38 213 97Q197 156 179 231Q160 305 140 386Q120 466 102 543Q84 619 70 680Q68 691 79 693L159 707Q170 709 172 698Q194 598 220 482Q246 365 274 258Q282 227 289 194Q296 160 303 113L309 113Q329 160 345 194Q361 227 375 258Q412 329 450 406Q487 482 523 557Q558 632 588 699Q593 709 604 706L672 691Q682 688 679 678Q649 617 612 541Q574 465 534 385Q493 304 456 230Q418 155 387 96Q356 37 338 5Q334 -5 322 -5Z"  horiz-adv-x="626" vert-adv-y="1000"  />
      <glyph glyph-name="W" unicode="&#x57;" d="M213 -5Q202 -5 200 6Q192 38 180 97Q168 156 154 231Q139 306 124 387Q109 467 95 544Q81 620 70 681Q68 692 79 694L158 708Q169 710 171 699Q182 632 195 557Q207 482 221 406Q234 329 247 258Q254 227 260 194Q266 160 270 113L275 113Q293 160 307 194Q321 227 334 258Q383 365 433 482Q482 599 522 700Q526 710 537 710L605 710Q616 710 618 699Q628 632 641 557Q653 482 668 406Q682 329 697 258Q704 227 710 194Q715 160 721 113L726 113Q743 160 757 194Q771 227 784 258Q831 365 880 482Q929 599 970 700Q974 710 985 708L1053 694Q1058 693 1060 690Q1061 686 1059 682Q1033 620 1001 544Q968 467 933 386Q898 305 865 231Q832 156 806 97Q779 37 763 5Q760 -5 748 -5L675 -5Q664 -5 662 6Q653 40 640 102Q626 164 610 242Q594 320 578 400Q571 434 566 470Q560 505 554 556L549 556Q531 505 517 471Q502 437 486 403Q450 322 415 243Q380 164 351 102Q322 39 305 5Q300 -5 289 -5Z"  horiz-adv-x="1006" vert-adv-y="1000"  />
      <glyph glyph-name="X" unicode="&#x58;" d="M504 -7Q500 -8 496 -7Q491 -5 489 0Q452 64 407 140Q361 215 317 285Q256 215 192 139Q127 62 74 -1Q70 -10 57 -6L-7 14Q-17 19 -10 27Q26 71 75 128Q123 185 176 246Q229 306 277 360Q244 413 209 469Q173 525 141 579Q108 632 84 675Q79 685 89 688L166 709Q177 713 182 703Q216 645 257 574Q297 502 337 438Q391 503 450 575Q508 646 557 704Q560 709 565 710Q570 711 574 709L640 689Q649 684 644 676Q609 634 564 581Q518 528 470 472Q422 416 377 364Q411 310 449 249Q486 187 521 130Q556 72 582 28Q587 17 577 14Z"  horiz-adv-x="609" vert-adv-y="1000"  />
      <glyph glyph-name="Y" unicode="&#x59;" d="M232 0Q220 0 222 11L255 284Q224 346 190 415Q156 483 124 552Q92 621 65 681Q62 692 72 693L150 707Q162 709 165 699Q186 648 212 591Q238 534 263 481Q276 456 288 429Q300 401 313 368L319 368Q340 401 361 430Q381 458 401 483Q440 535 483 594Q526 652 560 700Q568 709 578 706L645 691Q657 687 649 679Q608 622 557 553Q505 484 452 416Q399 347 352 289L319 11Q317 0 306 0Z"  horiz-adv-x="592" vert-adv-y="1000"  />
      <glyph glyph-name="Z" unicode="&#x5a;" d="M21 0Q11 0 9 11L7 58Q6 63 9 68Q11 73 14 76Q43 107 76 144Q108 181 136 214L348 484Q407 557 464 621L260 614L99 614Q88 614 90 625L98 692Q100 703 111 703L571 703Q582 703 582 692L584 642Q584 629 576 623Q548 592 516 556Q483 519 457 487L242 219Q213 182 184 148Q154 114 125 82L353 88L506 88Q517 88 515 77L507 11Q505 0 495 0Z"  horiz-adv-x="552" vert-adv-y="1000"  />
      <glyph glyph-name="bracketleft" unicode="&#x5b;" d="M34 -162Q22 -162 24 -151L139 778Q141 789 151 789L344 789Q355 789 353 778L347 722Q345 711 334 711L227 711L129 -84L237 -84Q248 -84 246 -95L239 -151Q239 -162 227 -162Z"  horiz-adv-x="314" vert-adv-y="1000"  />
      <glyph glyph-name="backslash" unicode="&#x5c;" d="M398 -46Q386 -46 383 -36L66 739Q61 749 72 749L128 749Q140 749 143 739L461 -36Q464 -46 454 -46Z"  horiz-adv-x="484" vert-adv-y="1000"  />
      <glyph glyph-name="bracketright" unicode="&#x5d;" d="M7 -162Q-4 -162 -2 -151L4 -95Q6 -84 17 -84L124 -84L222 711L114 711Q103 711 105 722L112 778Q112 789 124 789L317 789Q329 789 327 778L212 -151Q210 -162 200 -162Z"  horiz-adv-x="314" vert-adv-y="1000"  />
      <glyph glyph-name="asciicircum" unicode="&#x5e;" d="M118 185L59 205Q49 208 53 219Q74 261 102 312Q129 363 158 417Q187 470 215 520Q243 569 266 609Q289 649 303 672Q308 681 319 681L374 681Q385 681 388 671Q399 642 416 588Q433 534 454 468Q474 402 493 337Q512 272 526 220Q529 210 519 205L453 185Q443 180 440 192Q426 250 408 315Q390 379 371 445Q351 511 332 571Q299 511 264 445Q228 379 195 314Q161 249 132 191Q129 181 118 185Z"  horiz-adv-x="580" vert-adv-y="1000"  />
      <glyph glyph-name="underscore" unicode="&#x5f;" d="M-38 -176Q-50 -176 -48 -165L-42 -114Q-40 -103 -29 -103L479 -103Q491 -103 489 -114L483 -165Q481 -176 470 -176Z"  horiz-adv-x="504" vert-adv-y="1000"  />
      <glyph glyph-name="grave" unicode="&#x60;" d="M339 574Q326 574 322 584Q296 626 266 672Q235 717 203 764Q196 773 207 773L284 773Q295 773 300 764Q327 721 354 675Q381 629 406 584Q411 574 400 574Z"  horiz-adv-x="490" vert-adv-y="1000"  />
      <glyph glyph-name="a" unicode="&#x61;" d="M218 -10Q157 -10 120 19Q83 47 67 94Q50 141 50 197Q50 296 84 368Q118 439 178 477Q238 515 317 515Q370 515 415 501Q460 487 496 470Q507 465 505 454L467 152Q463 116 466 91Q468 65 484 42Q489 32 481 27L435 1Q422 -5 415 1Q383 22 375 81Q341 30 301 10Q260 -10 218 -10ZM242 66Q295 66 338 132Q381 198 398 333L408 417Q389 426 367 433Q344 440 318 440Q263 440 224 410Q185 380 165 328Q144 275 144 207Q144 169 154 137Q163 105 185 86Q206 66 242 66Z"  horiz-adv-x="544" vert-adv-y="1000"  />
      <glyph glyph-name="b" unicode="&#x62;" d="M237 -10Q179 -10 135 2Q91 14 60 31Q50 37 52 48L139 753Q141 764 151 764L221 764Q232 764 230 753L188 413Q223 472 267 494Q311 515 351 515Q413 515 448 487Q482 459 496 412Q510 365 510 308Q510 201 476 131Q441 60 380 25Q318 -10 237 -10ZM242 65Q325 65 371 125Q416 184 416 298Q416 336 409 368Q401 399 381 419Q361 438 325 438Q272 438 224 372Q176 306 159 172L148 82Q168 75 192 70Q215 65 242 65Z"  horiz-adv-x="550" vert-adv-y="1000"  />
      <glyph glyph-name="c" unicode="&#x63;" d="M262 -10Q157 -10 104 53Q51 116 51 222Q51 301 82 368Q113 434 172 475Q230 515 312 515Q357 515 395 506Q433 496 464 476Q473 472 468 460L440 408Q435 398 426 404Q405 418 376 427Q346 436 314 436Q256 436 219 406Q181 375 163 328Q145 280 145 229Q145 153 179 111Q213 69 285 69Q318 69 348 78Q378 87 402 102Q412 107 415 98L431 46Q434 37 426 30Q396 12 351 1Q306 -10 262 -10Z"  horiz-adv-x="473" vert-adv-y="1000"  />
      <glyph glyph-name="d" unicode="&#x64;" d="M221 -10Q160 -10 123 19Q85 47 68 94Q51 141 51 197Q51 300 84 371Q117 442 176 479Q234 515 312 515Q344 515 372 507Q400 499 422 488L455 753Q457 764 468 764L537 764Q549 764 547 753L473 152Q469 116 471 91Q473 65 489 42Q496 32 486 27L440 1Q428 -5 421 1Q403 12 393 35Q383 58 380 90Q346 35 304 13Q261 -10 221 -10ZM243 66Q296 66 342 132Q387 198 403 333L412 410Q393 422 369 431Q344 440 316 440Q237 440 191 379Q145 317 145 207Q145 169 155 137Q164 105 186 86Q207 66 243 66Z"  horiz-adv-x="548" vert-adv-y="1000"  />
      <glyph glyph-name="e" unicode="&#x65;" d="M259 -10Q151 -10 101 52Q51 113 51 210Q51 296 89 365Q127 434 194 475Q260 515 343 515Q398 515 431 496Q463 476 478 446Q492 415 492 381Q492 285 401 234Q310 182 149 177Q157 123 189 95Q220 66 279 66Q321 66 358 79Q395 91 424 109Q432 117 436 105L449 56Q452 46 443 39Q412 19 364 5Q315 -10 259 -10ZM146 241Q273 242 339 274Q404 305 404 370Q404 399 386 420Q367 441 326 441Q287 441 255 423Q223 404 200 375Q176 345 163 310Q149 275 146 241Z"  horiz-adv-x="516" vert-adv-y="1000"  />
      <glyph glyph-name="f" unicode="&#x66;" d="M-23 -227Q-34 -232 -37 -222L-59 -168Q-62 -158 -53 -153Q-6 -128 21 -88Q47 -47 56 23L113 434L47 434Q37 434 37 445L45 494Q45 505 57 505L123 505L129 545Q138 608 160 660Q181 712 226 743Q270 774 346 774Q373 774 397 770Q421 766 442 759Q452 753 447 744L424 686Q420 675 410 680Q394 686 376 690Q358 693 339 693Q288 693 260 661Q232 628 221 548L215 505L345 505Q355 505 355 494L348 445Q346 434 335 434L205 434L147 23Q138 -49 114 -97Q90 -145 56 -176Q21 -206 -23 -227Z"  horiz-adv-x="319" vert-adv-y="1000"  />
      <glyph glyph-name="g" unicode="&#x67;" d="M195 -252Q138 -252 94 -239Q50 -226 20 -204Q11 -199 16 -187L43 -129Q49 -120 56 -127Q82 -148 116 -161Q150 -173 190 -173Q242 -173 276 -155Q310 -137 331 -90Q352 -43 363 44L366 68Q333 25 295 8Q257 -10 218 -10Q157 -10 120 19Q83 47 67 94Q50 141 50 197Q50 296 84 368Q118 439 178 477Q238 515 317 515Q370 515 415 502Q460 488 496 471Q507 466 505 455L454 43Q442 -57 414 -123Q385 -188 333 -220Q280 -252 195 -252ZM242 66Q295 66 338 131Q381 195 398 329L408 417Q389 426 367 433Q344 440 318 440Q263 440 224 410Q185 380 165 328Q144 275 144 207Q144 169 154 137Q163 105 185 86Q206 66 242 66Z"  horiz-adv-x="544" vert-adv-y="1000"  />
      <glyph glyph-name="h" unicode="&#x68;" d="M57 0Q46 0 48 11L139 753Q141 764 151 764L221 764Q232 764 230 753L187 402Q224 465 272 490Q319 515 376 515Q471 515 501 451Q530 386 516 273L497 115Q494 87 493 63Q492 39 493 19Q495 7 483 7L413 1Q402 -1 400 11Q399 29 400 54Q401 78 405 112L425 273Q435 353 418 393Q400 432 343 432Q303 432 266 408Q228 384 199 325Q170 265 157 159L139 11Q137 0 127 0Z"  horiz-adv-x="578" vert-adv-y="1000"  />
      <glyph glyph-name="i" unicode="&#x69;" d="M57 0Q46 0 48 11L107 494Q109 505 119 505L188 505Q200 505 198 494L139 11Q137 0 127 0ZM178 662Q155 662 140 678Q124 693 124 716Q124 740 141 757Q158 774 182 774Q205 774 221 758Q236 742 236 719Q236 696 219 679Q202 662 178 662Z"  horiz-adv-x="233" vert-adv-y="1000"  />
      <glyph glyph-name="j" unicode="&#x6a;" d="M-97 -251Q-108 -251 -110 -240L-118 -179Q-118 -168 -108 -168Q-66 -166 -34 -149Q-2 -131 19 -91Q40 -51 48 18L107 494Q109 505 119 505L188 505Q200 505 198 494L139 18Q123 -118 65 -183Q6 -248 -97 -251ZM178 662Q155 662 140 678Q124 693 124 716Q124 740 141 757Q158 774 182 774Q205 774 221 758Q236 742 236 719Q236 696 219 679Q202 662 178 662Z"  horiz-adv-x="233" vert-adv-y="1000"  />
      <glyph glyph-name="k" unicode="&#x6b;" d="M403 -4Q391 -6 385 2Q359 33 323 76Q286 119 246 164Q205 209 168 247L139 11Q137 0 127 0L57 0Q46 0 48 11L139 753Q141 764 151 764L221 764Q232 764 230 753L172 285Q240 338 308 396Q375 454 427 503Q435 511 446 509L523 493Q534 491 527 483Q504 462 472 434Q439 406 402 377Q365 347 329 319Q293 291 263 269Q289 243 320 211Q351 178 382 144Q413 110 441 79Q468 47 487 23Q493 14 482 12Z"  horiz-adv-x="509" vert-adv-y="1000"  />
      <glyph glyph-name="l" unicode="&#x6c;" d="M168 -5Q127 -2 105 16Q82 34 74 63Q65 92 65 126Q65 161 71 198L138 753Q140 764 151 764L220 764Q232 764 230 753L162 210Q160 188 158 170Q156 151 156 135Q156 106 166 88Q175 70 203 62Q214 59 209 50L185 5Q179 -5 168 -5Z"  horiz-adv-x="239" vert-adv-y="1000"  />
      <glyph glyph-name="m" unicode="&#x6d;" d="M67 0Q55 0 57 11L99 353Q104 389 102 415Q99 440 83 463Q77 472 86 478L132 504Q142 509 151 504Q171 491 181 466Q191 440 192 405Q228 467 274 491Q320 515 372 515Q434 515 467 485Q499 454 509 397Q546 463 596 489Q646 515 700 515Q792 515 822 451Q851 386 837 273L817 115Q814 87 813 63Q812 39 813 19Q815 7 803 7L734 1Q723 -1 721 11Q720 29 721 54Q722 78 726 112L745 273Q756 353 739 393Q722 432 667 432Q630 432 596 408Q561 384 535 325Q508 265 495 159L476 11Q474 0 464 0L394 0Q383 0 385 11L418 273Q428 353 411 393Q393 432 340 432Q303 432 268 408Q232 384 206 325Q179 265 167 159L149 11Q147 0 136 0Z"  horiz-adv-x="899" vert-adv-y="1000"  />
      <glyph glyph-name="n" unicode="&#x6e;" d="M67 0Q55 0 57 11L99 353Q104 389 102 415Q99 440 83 463Q77 472 86 478L132 504Q142 509 151 504Q172 491 182 464Q191 437 192 399Q230 464 280 490Q329 515 386 515Q481 515 511 451Q540 386 526 273L507 115Q504 87 503 63Q502 39 503 19Q505 7 493 7L423 1Q412 -1 410 11Q409 29 410 54Q411 78 415 112L435 273Q445 353 428 393Q410 432 353 432Q313 432 276 408Q238 384 209 325Q180 265 167 159L149 11Q147 0 136 0Z"  horiz-adv-x="588" vert-adv-y="1000"  />
      <glyph glyph-name="o" unicode="&#x6f;" d="M264 -10Q188 -10 141 18Q94 45 73 93Q51 141 51 202Q51 264 67 320Q82 376 114 420Q146 464 197 490Q248 515 318 515Q394 515 441 488Q487 460 509 413Q530 365 530 303Q530 242 515 186Q499 129 467 85Q435 41 385 16Q334 -10 264 -10ZM269 65Q332 65 369 99Q405 133 421 186Q437 239 437 297Q437 362 408 401Q379 440 312 440Q249 440 213 406Q176 372 160 319Q144 266 144 208Q144 143 174 104Q203 65 269 65Z"  horiz-adv-x="571" vert-adv-y="1000"  />
      <glyph glyph-name="p" unicode="&#x70;" d="M36 -250Q25 -250 27 -239L99 353Q104 389 102 415Q99 440 83 463Q77 472 86 478L132 504Q142 509 151 504Q187 478 192 406Q229 469 275 492Q320 515 361 515Q423 515 458 487Q492 459 507 412Q521 365 521 308Q521 201 488 131Q454 60 394 25Q334 -10 255 -10Q224 -10 198 -6Q171 -2 148 5L118 -239Q116 -250 106 -250ZM252 65Q335 65 382 125Q428 184 428 298Q428 336 420 368Q411 399 391 419Q371 438 335 438Q282 438 234 372Q186 306 169 172L158 81Q178 74 202 70Q225 65 252 65Z"  horiz-adv-x="562" vert-adv-y="1000"  />
      <glyph glyph-name="q" unicode="&#x71;" d="M339 -250Q327 -250 329 -239L366 65Q313 -10 229 -10Q144 -10 98 44Q51 97 51 199Q51 294 81 365Q111 436 167 476Q222 515 297 515Q340 515 375 501Q409 486 434 464Q454 497 477 508Q487 513 496 506L533 481Q542 475 535 466Q516 446 508 422Q499 397 494 364L421 -239Q419 -250 408 -250ZM243 66Q285 66 317 98Q348 130 368 184Q388 237 395 301L408 404Q387 420 362 430Q336 440 306 440Q231 440 188 377Q145 313 145 207Q145 169 155 137Q164 105 186 86Q207 66 243 66Z"  horiz-adv-x="544" vert-adv-y="1000"  />
      <glyph glyph-name="r" unicode="&#x72;" d="M67 0Q55 0 57 11L99 353Q103 382 102 411Q100 439 83 463Q77 472 86 478L132 504Q142 509 151 504Q175 489 184 464Q192 438 193 409Q216 461 252 488Q287 515 342 515Q359 515 373 513Q386 511 396 508Q406 505 403 493L382 428Q379 418 368 421Q346 429 324 429Q266 429 226 371Q186 313 172 200L149 11Q147 0 136 0Z"  horiz-adv-x="379" vert-adv-y="1000"  />
      <glyph glyph-name="s" unicode="&#x73;" d="M192 -10Q137 -10 96 -1Q54 9 21 27Q9 32 15 42L35 97Q40 107 49 101Q81 82 117 70Q152 58 197 59Q245 59 274 78Q302 97 302 136Q302 163 285 179Q268 195 241 206Q213 217 183 228Q153 239 126 256Q98 272 81 300Q64 327 64 370Q64 419 89 451Q113 483 155 499Q196 515 248 515Q298 515 340 504Q381 493 406 479Q417 474 412 464L394 412Q389 404 380 408Q355 422 321 432Q287 442 246 442Q201 442 176 423Q151 404 151 375Q151 349 169 333Q186 317 213 306Q240 294 271 283Q302 271 329 254Q356 237 374 211Q391 185 391 144Q391 74 342 32Q293 -10 192 -10Z"  horiz-adv-x="433" vert-adv-y="1000"  />
      <glyph glyph-name="t" unicode="&#x74;" d="M227 -10Q159 -10 128 19Q96 48 91 98Q85 148 93 210L125 434L50 434Q39 434 41 445L48 494Q50 505 61 505L135 505L157 659Q157 670 169 670L238 670Q248 670 248 659L226 505L372 505Q383 505 381 494L375 445Q373 434 362 434L216 434L182 195Q173 129 190 100Q207 71 253 71Q270 71 287 75Q303 78 319 84Q329 87 329 77L327 20Q327 8 317 5Q297 -2 274 -6Q250 -10 227 -10Z"  horiz-adv-x="366" vert-adv-y="1000"  />
      <glyph glyph-name="u" unicode="&#x75;" d="M221 -10Q123 -10 92 53Q60 116 74 226L108 494Q110 505 120 505L189 505Q201 505 199 494L166 229Q156 148 174 111Q192 73 249 73Q289 73 327 97Q364 121 393 181Q421 240 434 346L453 494Q455 505 465 505L534 505Q546 505 544 494L502 152Q498 116 501 91Q503 65 519 42Q524 33 515 27L469 1Q459 -4 450 1Q429 15 420 42Q410 68 409 105Q372 42 325 16Q277 -10 221 -10Z"  horiz-adv-x="578" vert-adv-y="1000"  />
      <glyph glyph-name="v" unicode="&#x76;" d="M196 -5Q186 -5 181 5Q172 29 159 71Q146 113 131 166Q115 218 99 275Q83 331 68 385Q53 438 42 481Q40 492 51 494L124 509Q135 511 137 500Q153 432 173 354Q192 275 211 202Q218 180 223 158Q228 135 235 102L241 102Q256 135 268 158Q280 180 292 202Q333 275 375 354Q417 433 451 501Q456 511 467 509L533 495Q544 492 539 482Q515 438 485 384Q455 330 423 274Q391 217 361 165Q330 112 305 70Q280 28 265 4Q261 -5 248 -5Z"  horiz-adv-x="512" vert-adv-y="1000"  />
      <glyph glyph-name="w" unicode="&#x77;" d="M171 -5Q160 -5 157 6Q150 30 139 72Q128 114 116 166Q103 218 90 275Q76 331 64 385Q51 438 42 481Q40 492 51 494L124 509Q135 511 137 500Q150 432 166 353Q181 273 197 202Q202 180 207 158Q211 135 217 102L221 102Q235 135 245 158Q254 180 264 202Q298 275 333 354Q368 432 396 501Q401 511 412 511L459 511Q470 511 472 500Q484 432 500 353Q515 274 530 202Q535 180 539 158Q543 135 548 102L553 102Q566 135 577 158Q587 180 597 202Q632 274 667 353Q702 432 731 501Q734 511 746 509L812 495Q823 491 818 482Q798 438 773 384Q747 330 720 274Q692 217 667 165Q641 112 620 71Q599 29 586 5Q581 -5 569 -5L513 -5Q502 -5 499 6Q492 29 483 69Q473 108 462 158Q451 208 439 260Q434 283 430 306Q426 329 421 363L417 363Q404 329 394 306Q383 283 372 260Q348 208 325 158Q302 108 283 68Q263 28 251 5Q246 -5 235 -5Z"  horiz-adv-x="790" vert-adv-y="1000"  />
      <glyph glyph-name="x" unicode="&#x78;" d="M55 -7L-11 10Q-20 13 -15 21Q11 51 48 93Q85 134 125 178Q165 222 198 257Q175 292 148 334Q121 375 97 415Q72 454 55 483Q50 491 59 495L130 512Q141 516 145 505Q168 465 198 416Q227 367 255 322Q293 367 335 417Q377 466 412 506Q417 516 429 512L494 496Q503 492 497 484Q473 456 438 417Q403 377 366 336Q329 294 297 260Q321 224 350 180Q378 135 405 94Q431 52 450 22Q454 13 445 10L373 -7Q362 -11 357 -1Q332 43 301 95Q269 146 239 193Q197 146 153 94Q109 42 72 -1Q65 -11 55 -7Z"  horiz-adv-x="481" vert-adv-y="1000"  />
      <glyph glyph-name="y" unicode="&#x79;" d="M69 -262Q60 -268 53 -261L10 -216Q6 -213 7 -209Q7 -204 11 -202Q57 -163 103 -113Q149 -62 185 -7Q172 31 154 92Q135 152 115 222Q95 291 76 359Q56 427 42 481Q40 492 51 494L124 509Q135 511 138 500Q154 430 174 350Q194 269 214 194Q220 173 226 150Q231 126 237 92L243 92Q259 126 271 149Q283 172 295 194Q335 271 377 351Q418 431 452 501Q455 511 467 509L534 495Q545 492 540 482Q511 426 474 357Q436 288 397 219Q358 150 325 91Q291 31 270 -6Q230 -79 176 -147Q121 -215 69 -262Z"  horiz-adv-x="513" vert-adv-y="1000"  />
      <glyph glyph-name="z" unicode="&#x7a;" d="M12 0Q1 0 1 11L2 41Q2 52 10 60Q30 80 54 106Q77 131 96 153L255 340Q277 366 298 390Q319 414 340 436L188 431L69 431Q57 431 59 442L65 494Q67 505 78 505L449 505Q460 505 460 494L460 463Q461 459 459 454Q456 448 453 445Q431 424 409 400Q386 375 366 352L207 166Q185 140 164 116Q142 92 121 69L291 74L402 74Q414 74 412 63L405 11Q403 0 393 0Z"  horiz-adv-x="454" vert-adv-y="1000"  />
      <glyph glyph-name="braceleft" unicode="&#x7b;" d="M206 -162Q138 -162 107 -120Q75 -78 83 -8Q89 41 106 89Q122 137 128 184Q133 225 122 245Q111 265 94 272Q77 278 63 278L54 278Q43 278 45 289L51 338Q53 349 63 349L71 349Q85 349 104 356Q123 362 139 382Q155 402 160 443Q166 490 161 538Q156 586 162 634Q170 705 213 747Q255 789 323 789L351 789Q363 789 361 778L354 722Q352 711 342 711L336 711Q265 711 255 622Q250 577 254 531Q258 484 252 436Q245 379 217 353Q189 326 153 315L153 312Q186 300 208 274Q229 247 222 191Q216 142 200 96Q184 50 179 4Q169 -84 238 -84L244 -84Q254 -84 254 -95L247 -151Q245 -162 234 -162Z"  horiz-adv-x="327" vert-adv-y="1000"  />
      <glyph glyph-name="bar" unicode="&#x7c;" d="M54 -192Q42 -192 44 -181L165 809Q167 820 178 820L246 820Q257 820 255 809L134 -181Q132 -192 122 -192Z"  horiz-adv-x="261" vert-adv-y="1000"  />
      <glyph glyph-name="braceright" unicode="&#x7d;" d="M15 -162Q3 -162 5 -151L12 -95Q14 -84 24 -84L30 -84Q101 -84 111 5Q116 50 112 97Q108 143 114 191Q122 248 150 275Q177 301 213 312L213 315Q180 327 159 354Q137 380 144 436Q150 485 166 531Q182 577 187 623Q197 711 128 711L122 711Q112 711 112 722L119 778Q121 789 132 789L160 789Q228 789 260 747Q291 705 283 635Q277 586 261 538Q244 490 238 443Q233 402 244 382Q255 362 272 356Q289 349 303 349L312 349Q323 349 321 338L315 289Q313 278 303 278L295 278Q281 278 262 272Q243 265 228 245Q212 225 206 184Q200 137 205 89Q210 41 204 -7Q196 -77 154 -120Q111 -162 43 -162Z"  horiz-adv-x="327" vert-adv-y="1000"  />
      <glyph glyph-name="asciitilde" unicode="&#x7e;" d="M92 222Q80 222 82 233Q93 298 132 339Q171 380 232 380Q264 380 290 371Q315 361 345 346Q373 331 399 318Q425 305 450 305Q510 305 525 372Q528 383 539 383L591 383Q602 383 600 372Q590 307 551 266Q512 225 450 225Q419 225 394 235Q368 244 339 260Q310 275 284 288Q258 300 232 300Q172 300 157 233Q155 222 144 222Z"  horiz-adv-x="648" vert-adv-y="1000"  />
      <glyph glyph-name="nbspace" unicode="&#xa0;" d=""  horiz-adv-x="299" vert-adv-y="1000"  />
      <glyph glyph-name="exclamdown" unicode="&#xa1;" d="M47 -208Q36 -208 38 -197L118 291Q120 302 131 302L162 302Q174 302 172 291L134 -197Q132 -208 122 -208ZM163 405Q141 405 126 421Q111 436 111 458Q111 481 128 498Q145 515 168 515Q191 515 206 500Q221 485 221 462Q221 439 204 422Q187 405 163 405Z"  horiz-adv-x="290" vert-adv-y="1000"  />
      <glyph glyph-name="cent" unicode="&#xa2;" d="M266 -30Q254 -30 256 -19L270 92Q188 106 148 167Q107 227 107 321Q107 394 134 457Q161 520 212 562Q262 603 334 612L347 723Q349 734 360 734L411 734Q423 734 421 723L407 612Q439 608 468 600Q496 591 520 575Q529 571 524 559L496 507Q491 497 482 503Q461 517 432 526Q402 535 370 535Q312 535 275 505Q237 474 219 427Q201 379 201 328Q201 252 235 210Q269 168 341 168Q374 168 404 177Q434 186 458 201Q468 206 471 197L487 145Q490 136 482 129Q457 113 420 103Q382 93 344 90L330 -19Q328 -30 317 -30Z"  horiz-adv-x="582" vert-adv-y="1000"  />
      <glyph glyph-name="sterling" unicode="&#xa3;" d="M29 0Q17 0 19 11L27 72Q29 83 39 83L81 83Q116 128 136 178Q156 228 167 279L102 279Q90 279 92 290L100 352Q102 363 112 363L181 363Q186 396 191 428Q195 460 201 491Q212 553 237 604Q262 654 311 684Q360 713 443 713Q485 713 522 706Q559 698 586 686Q596 680 591 671L565 613Q562 603 551 607Q528 618 501 625Q474 632 440 632Q389 632 359 612Q328 591 312 555Q296 519 287 470Q282 443 278 416Q274 389 270 363L444 363Q456 363 454 352L446 290Q444 279 434 279L256 279Q246 230 227 182Q208 133 173 83L503 83Q515 83 513 72L505 11Q503 0 493 0Z"  horiz-adv-x="582" vert-adv-y="1000"  />
      <glyph glyph-name="currency" unicode="&#xa4;" d="M475 108Q467 100 460 110L393 187Q366 169 338 161Q310 153 282 153Q253 153 227 161Q201 169 179 187L92 109Q84 101 76 110L46 145Q39 154 47 161L133 241Q120 266 115 295Q110 323 113 351Q117 380 129 409Q140 437 160 462L94 540Q87 549 95 556L138 595Q146 603 153 593L219 516Q272 551 331 551Q390 551 433 515L521 594Q530 603 536 593L567 557Q574 548 566 541L479 462Q508 412 500 351Q494 291 452 240L519 162Q525 153 518 146ZM291 221Q342 221 384 258Q428 299 433 353Q441 404 409 444Q374 482 323 482Q298 482 273 473Q248 463 228 444Q207 425 195 401Q182 377 179 352Q173 298 205 258Q239 221 291 221Z"  horiz-adv-x="570" vert-adv-y="1000"  />
      <glyph glyph-name="yen" unicode="&#xa5;" d="M227 0Q215 0 217 11L236 165L71 165Q59 165 61 176L67 223Q69 234 79 234L244 234L251 285Q245 297 240 310Q234 323 229 336L91 336Q81 336 81 347L88 394Q88 405 100 405L200 405Q172 475 145 547Q117 618 93 681Q90 691 100 693L175 707Q186 709 189 699Q206 648 228 590Q249 532 271 481Q291 433 313 368L318 368Q337 402 355 430Q373 458 391 484Q426 535 464 594Q502 652 533 700Q539 709 549 706L609 691Q620 687 613 679Q574 619 526 547Q478 475 430 405L528 405Q538 405 538 394L532 347Q530 336 519 336L381 336L348 289L341 234L507 234Q519 234 517 223L511 176Q509 165 499 165L333 165L314 11Q312 0 302 0Z"  horiz-adv-x="582" vert-adv-y="1000"  />
      <glyph glyph-name="brokenbar" unicode="&#xa6;" d="M54 -192Q42 -192 44 -181L94 230Q96 241 107 241L175 241Q186 241 184 230L134 -181Q132 -192 122 -192ZM125 387Q113 387 115 398L165 809Q167 820 178 820L246 820Q257 820 255 809L205 398Q203 387 193 387Z"  horiz-adv-x="261" vert-adv-y="1000"  />
      <glyph glyph-name="section" unicode="&#xa7;" d="M202 -86Q159 -86 121 -79Q82 -72 50 -57Q40 -51 45 -42L66 14Q71 24 80 19Q112 3 145 -5Q177 -13 217 -13Q331 -13 340 66Q344 98 326 117Q308 135 278 147Q248 159 214 171Q179 182 150 199Q120 216 104 245Q87 274 93 321Q98 362 122 395Q146 428 180 453Q161 471 151 499Q140 526 145 566Q152 617 183 650Q213 682 259 698Q305 713 358 713Q401 713 438 706Q474 698 499 687Q511 683 505 672L483 620Q480 610 469 614Q444 625 414 632Q383 639 349 639Q302 639 271 623Q239 606 235 571Q231 540 249 522Q267 503 297 491Q327 479 361 468Q395 456 425 439Q455 422 472 393Q488 364 482 317Q477 275 453 242Q428 208 393 184Q413 165 424 139Q434 112 429 72Q421 3 366 -42Q310 -86 202 -86ZM326 223Q354 239 371 260Q388 280 392 308Q396 342 374 360Q352 377 318 389Q283 400 247 414Q219 398 203 377Q186 356 183 330Q179 297 201 279Q222 261 257 249Q291 237 326 223Z"  horiz-adv-x="534" vert-adv-y="1000"  />
      <glyph glyph-name="dieresis" unicode="&#xa8;" d="M231 607Q209 607 194 623Q178 638 178 660Q178 683 195 699Q212 715 235 715Q257 715 272 701Q287 686 287 663Q287 640 271 624Q254 607 231 607ZM411 607Q389 607 374 623Q358 638 358 660Q358 683 375 699Q392 715 415 715Q437 715 452 701Q467 686 467 663Q467 640 451 624Q434 607 411 607Z"  horiz-adv-x="525" vert-adv-y="1000"  />
      <glyph glyph-name="copyright" unicode="&#xa9;" d="M398 -10Q302 -10 231 30Q159 69 120 140Q80 210 80 302Q80 387 110 462Q139 536 193 593Q247 649 320 681Q393 713 480 713Q577 713 649 673Q720 633 760 563Q799 492 799 400Q799 315 769 241Q739 166 685 110Q631 54 558 22Q485 -10 398 -10ZM405 53Q476 53 536 80Q596 106 641 153Q685 199 710 261Q734 322 734 392Q734 468 702 526Q669 583 611 616Q552 649 473 649Q401 649 341 623Q281 596 237 550Q193 503 169 442Q145 380 145 310Q145 235 177 177Q209 119 268 86Q326 53 405 53ZM422 150Q343 150 303 198Q263 246 263 326Q263 386 287 437Q310 487 354 518Q398 549 460 549Q495 549 524 542Q552 535 576 519Q583 516 579 507L557 468Q553 459 547 464Q531 475 509 482Q486 489 462 489Q418 489 390 466Q361 443 348 407Q334 371 334 332Q334 274 360 242Q385 210 440 210Q465 210 488 217Q510 224 529 235Q536 240 538 232L551 193Q553 185 547 181Q524 168 490 159Q456 150 422 150Z"  horiz-adv-x="854" vert-adv-y="1000"  />
      <glyph glyph-name="ordfeminine" unicode="&#xaa;" d="M183 291Q142 291 117 311Q91 330 80 362Q69 394 69 432Q69 533 119 591Q169 648 249 648Q285 648 315 639Q344 629 367 618Q378 613 376 602L352 402Q350 381 352 365Q353 348 362 331Q369 323 359 317L331 300Q319 294 312 300Q292 313 286 347Q263 316 237 304Q211 291 183 291ZM198 348Q233 348 262 392Q290 436 301 524L308 578Q295 584 281 588Q266 592 251 592Q196 592 166 550Q135 507 135 439Q135 403 150 376Q164 348 198 348Z"  horiz-adv-x="379" vert-adv-y="1000"  />
      <glyph glyph-name="guillemotleft" unicode="&#xab;" d="M201 57Q193 50 186 59L52 244Q45 252 53 260L235 447Q242 455 251 448L291 414Q301 407 292 400L150 253L255 107Q261 99 253 91ZM398 57Q390 50 383 59L249 244Q242 252 250 260L432 447Q439 455 448 448L488 414Q498 407 489 400L347 253L452 107Q458 99 450 91Z"  horiz-adv-x="504" vert-adv-y="1000"  />
      <glyph glyph-name="logicalnot" unicode="&#xac;" d="M475 125Q463 125 465 136L488 315L79 315Q67 315 69 326L76 382Q78 393 89 393L562 393Q574 393 572 382L541 136Q539 125 529 125Z"  horiz-adv-x="603" vert-adv-y="1000"  />
      <glyph glyph-name="uni00AD" unicode="&#xad;" d="M107 246Q95 246 97 257L103 309Q105 320 116 320L424 320Q436 320 434 309L428 257Q426 246 415 246Z"  horiz-adv-x="497" vert-adv-y="1000"  />
      <glyph glyph-name="registered" unicode="&#xae;" d="M253 395Q180 395 135 440Q89 484 89 553Q89 611 117 659Q145 706 193 735Q241 764 299 764Q348 764 385 743Q422 722 443 686Q464 650 464 603Q464 545 436 498Q407 451 359 423Q311 395 253 395ZM323 486Q313 484 308 493Q299 510 289 528Q279 546 268 561L243 561L236 497Q234 487 225 487L198 487Q187 487 189 497L210 665Q212 675 221 677Q235 679 250 680Q264 681 279 681Q318 681 340 667Q361 653 357 621Q352 585 315 570Q325 557 337 537Q349 517 358 502Q363 493 353 491ZM259 433Q304 433 341 456Q377 479 399 517Q420 554 420 598Q420 654 386 690Q351 726 295 726Q250 726 214 703Q178 679 157 641Q135 603 135 559Q135 504 170 469Q204 433 259 433ZM271 597Q307 597 310 621Q313 646 277 646Q272 646 267 646Q262 646 254 644L249 598Q256 597 261 597Q265 597 271 597Z"  horiz-adv-x="483" vert-adv-y="1000"  />
      <glyph glyph-name="macron" unicode="&#xaf;" d="M191 612Q179 612 181 623L189 683Q191 694 201 694L420 694Q432 694 430 683L422 623Q420 612 410 612Z"  horiz-adv-x="492" vert-adv-y="1000"  />
      <glyph glyph-name="degree" unicode="&#xb0;" d="M264 393Q193 393 148 436Q103 479 103 547Q103 596 126 633Q148 670 187 692Q226 713 275 713Q344 713 388 670Q432 626 432 557Q432 509 410 472Q388 435 350 414Q312 393 264 393ZM265 458Q306 458 333 486Q360 513 360 556Q360 597 336 622Q311 647 272 647Q230 647 203 620Q175 592 175 549Q175 508 200 483Q225 458 265 458Z"  horiz-adv-x="452" vert-adv-y="1000"  />
      <glyph glyph-name="plusminus" unicode="&#xb1;" d="M263 158Q251 158 253 169L278 377L78 377Q66 377 68 388L75 446Q77 457 87 457L288 457L314 664Q316 675 326 675L382 675Q394 675 392 664L366 457L566 457Q578 457 576 446L569 388Q567 377 557 377L356 377L331 169Q329 158 318 158ZM33 0Q21 0 23 11L30 69Q32 80 42 80L521 80Q533 80 531 69L524 11Q522 0 512 0Z"  horiz-adv-x="582" vert-adv-y="1000"  />
      <glyph glyph-name="twosuperior" unicode="&#xb2;" d="M74 288Q63 288 65 299L67 322Q72 364 92 393Q111 422 139 442Q167 462 197 478Q227 494 253 510Q279 526 296 546Q312 566 312 595Q312 621 297 636Q282 651 247 651Q214 651 188 640Q161 628 135 611Q126 605 120 614L101 649Q96 658 105 665Q140 688 177 701Q214 713 257 713Q324 713 356 683Q387 652 387 603Q387 562 367 534Q347 506 317 485Q286 464 252 445Q218 426 189 404Q160 382 145 351L350 351Q362 351 360 340L355 299Q353 288 343 288Z"  horiz-adv-x="401" vert-adv-y="1000"  />
      <glyph glyph-name="threesuperior" unicode="&#xb3;" d="M178 282Q147 282 118 289Q89 296 66 310Q57 317 63 327L87 367Q92 377 101 370Q121 356 141 350Q161 344 183 344Q227 344 253 363Q278 381 278 416Q278 445 262 461Q245 477 201 477L159 477Q149 477 149 488L154 522Q156 533 167 533L205 533Q250 533 275 551Q300 569 300 600Q300 623 285 638Q270 652 233 652Q192 652 144 628Q134 622 129 632L113 666Q108 676 117 681Q146 698 180 706Q213 713 242 713Q307 713 338 685Q368 657 368 613Q368 576 346 549Q324 522 286 506Q322 493 338 469Q353 445 353 413Q353 356 306 319Q258 282 178 282Z"  horiz-adv-x="382" vert-adv-y="1000"  />
      <glyph glyph-name="acute" unicode="&#xb4;" d="M188 574Q177 574 184 583Q220 628 259 675Q297 722 334 765Q342 773 353 773L429 773Q434 773 435 771Q436 768 432 765Q388 718 347 672Q305 626 267 583Q265 579 260 577Q255 574 250 574Z"  horiz-adv-x="490" vert-adv-y="1000"  />
      <glyph glyph-name="mu" unicode="&#xb5;" d="M28 -232Q16 -232 18 -221L107 494Q109 505 119 505L188 505Q200 505 198 494L165 232Q155 147 174 110Q193 73 250 73Q294 73 334 89Q373 105 406 129L451 494Q453 505 463 505L533 505Q544 505 542 494L500 150Q496 114 499 89Q501 63 516 40Q524 30 513 25L468 -2Q457 -7 448 -3Q420 11 409 60Q367 33 318 12Q268 -10 213 -10Q189 -10 170 -6Q151 -1 137 6L108 -221Q106 -232 96 -232Z"  horiz-adv-x="577" vert-adv-y="1000"  />
      <glyph glyph-name="paragraph" unicode="&#xb6;" d="M237 -146Q225 -146 227 -135L283 322Q224 323 180 349Q136 374 114 417Q92 459 98 511Q106 577 144 620Q181 662 240 683Q298 703 369 703L668 703Q680 703 678 692L671 640Q669 629 659 629L600 629L506 -135Q504 -146 494 -146L430 -146Q418 -146 420 -135L514 629L407 629L313 -135Q311 -146 301 -146Z"  horiz-adv-x="677" vert-adv-y="1000"  />
      <glyph glyph-name="periodcentered" unicode="&#xb7;" d="M141 207Q119 207 104 223Q88 238 88 260Q88 283 105 300Q122 317 146 317Q168 317 183 302Q198 287 198 264Q198 241 181 224Q164 207 141 207Z"  horiz-adv-x="251" vert-adv-y="1000"  />
      <glyph glyph-name="cedilla" unicode="&#xb8;" d="M210 -201Q177 -201 153 -195Q142 -191 147 -183L161 -148Q166 -139 177 -141Q187 -144 196 -145Q205 -146 216 -146Q261 -146 264 -116Q269 -81 205 -72Q194 -70 199 -61L224 0L274 0L257 -39Q301 -46 322 -65Q343 -83 338 -120Q334 -156 302 -179Q269 -201 210 -201Z"  horiz-adv-x="491" vert-adv-y="1000"  />
      <glyph glyph-name="onesuperior" unicode="&#xb9;" d="M190 288Q179 288 181 299L221 626L99 562Q90 558 90 568L97 618Q97 629 108 634L240 705Q250 710 261 710L296 710Q308 710 306 699L256 299Q254 288 244 288Z"  horiz-adv-x="382" vert-adv-y="1000"  />
      <glyph glyph-name="ordmasculine" unicode="&#xba;" d="M221 291Q144 291 111 332Q77 373 77 435Q77 492 96 541Q115 589 155 619Q194 648 257 648Q335 648 368 608Q401 567 401 505Q401 449 383 400Q364 351 325 321Q285 291 221 291ZM225 347Q266 347 291 369Q315 391 326 427Q336 462 336 501Q336 542 317 567Q297 592 253 592Q213 592 189 570Q164 548 154 513Q143 478 143 439Q143 398 163 373Q182 347 225 347Z"  horiz-adv-x="423" vert-adv-y="1000"  />
      <glyph glyph-name="guillemotright" unicode="&#xbb;" d="M75 57L36 91Q26 97 35 106L177 253L72 399Q65 406 74 414L125 448Q133 454 141 446L275 261Q282 253 274 245L92 58Q84 51 75 57ZM273 57L234 91Q224 97 233 106L375 253L270 399Q263 406 272 414L323 448Q331 454 339 446L473 261Q480 253 472 245L290 58Q282 51 273 57Z"  horiz-adv-x="504" vert-adv-y="1000"  />
      <glyph glyph-name="onequarter" unicode="&#xbc;" d="M186 -3Q181 -3 180 0Q178 3 180 7L544 703Q549 713 560 713L616 713Q626 713 621 703L258 7Q252 -3 241 -3ZM199 288Q188 288 190 299L230 626L108 562Q99 558 99 568L106 618Q106 629 117 634L249 705Q259 710 270 710L305 710Q317 710 315 699L265 299Q263 288 253 288ZM577 0Q565 0 567 11L579 107L415 107Q403 107 405 118L409 149Q410 154 412 160Q413 165 417 169L606 410Q614 419 624 419L681 419Q693 419 691 408L661 167L719 167Q731 167 729 156L725 118Q723 107 712 107L654 107L642 11Q640 0 630 0ZM486 167L586 167L604 318Z"  horiz-adv-x="782" vert-adv-y="1000"  />
      <glyph glyph-name="onehalf" unicode="&#xbd;" d="M179 -3Q175 -3 174 0Q172 3 174 7L537 703Q542 713 554 713L609 713Q620 713 615 703L251 7Q245 -3 235 -3ZM473 0Q461 0 463 11L466 34Q471 76 491 105Q510 134 538 154Q566 174 596 190Q626 206 652 222Q678 238 695 258Q711 278 711 307Q711 333 696 348Q681 363 646 363Q613 363 586 352Q559 340 533 323Q524 316 519 326L500 361Q495 371 504 377Q538 400 575 413Q612 425 656 425Q722 425 754 395Q786 364 786 315Q786 274 766 246Q746 218 715 197Q684 176 650 157Q616 138 587 116Q558 94 543 63L749 63Q760 63 758 52L754 11Q752 0 741 0ZM199 288Q188 288 190 299L230 626L107 562Q98 558 98 568L105 618Q105 629 116 634L249 705Q257 710 270 710L304 710Q316 710 314 699L265 299Q263 288 252 288Z"  horiz-adv-x="824" vert-adv-y="1000"  />
      <glyph glyph-name="threequarters" unicode="&#xbe;" d="M232 -3Q227 -3 226 0Q224 3 226 7L590 703Q595 713 606 713L662 713Q674 713 667 703L304 7Q301 3 297 0Q292 -3 287 -3ZM185 282Q155 282 126 289Q97 296 73 310Q65 316 70 327L94 367Q100 376 108 370Q129 356 149 350Q169 344 191 344Q234 344 260 363Q285 381 285 416Q285 445 269 461Q252 477 208 477L166 477Q155 477 157 488L162 522Q162 533 174 533L212 533Q257 533 282 551Q307 569 307 600Q307 623 292 638Q277 652 241 652Q199 652 151 628Q141 622 136 632L120 666Q115 676 124 681Q154 698 188 706Q221 713 250 713Q315 713 345 685Q375 657 375 613Q375 575 353 549Q331 522 293 506Q329 493 345 469Q360 445 360 413Q360 356 313 319Q265 282 185 282ZM622 0Q610 0 612 11L624 107L460 107Q448 107 450 118L454 149Q455 154 457 160Q458 165 462 169L651 410Q659 419 669 419L726 419Q737 419 735 408L705 167L764 167Q776 167 774 156L770 118Q768 107 757 107L699 107L687 11Q685 0 674 0ZM530 167L631 167L649 318Z"  horiz-adv-x="822" vert-adv-y="1000"  />
      <glyph glyph-name="questiondown" unicode="&#xbf;" d="M221 -208Q135 -208 90 -165Q45 -121 45 -50Q45 -5 64 28Q82 60 113 86Q143 112 179 137Q207 156 232 176Q257 196 274 224Q291 251 293 291Q295 302 305 302L337 302Q348 302 351 291Q354 276 356 263Q357 249 355 236Q349 190 319 159Q289 128 250 100Q213 74 188 53Q162 32 150 10Q137 -12 137 -44Q137 -84 162 -106Q186 -128 234 -128Q272 -128 310 -116Q348 -103 385 -76Q393 -71 399 -80L422 -136Q427 -146 417 -153Q368 -183 320 -196Q271 -208 221 -208ZM335 405Q313 405 298 421Q283 436 283 458Q283 481 300 498Q317 515 340 515Q363 515 378 500Q393 485 393 462Q393 439 376 422Q359 405 335 405Z"  horiz-adv-x="509" vert-adv-y="1000"  />
      <glyph glyph-name="Agrave" unicode="&#xc0;" d="M63 -3L-8 2Q-19 4 -14 13Q27 91 76 181Q124 271 175 363Q225 455 274 542Q322 628 362 698Q367 708 378 708L448 708Q459 708 461 697Q476 624 494 539Q511 454 529 364Q547 274 564 185Q580 96 595 14Q597 4 586 2L509 -3Q498 -5 496 7Q493 27 488 60Q482 93 477 126Q471 159 468 177L171 177Q169 174 160 157Q151 140 138 116Q125 92 112 68Q99 43 90 26Q81 9 80 6Q73 -4 63 -3ZM211 258L454 258Q444 314 433 370Q422 425 412 479Q408 506 404 537Q399 568 397 599L391 599Q378 567 362 536Q346 504 331 478Q329 475 317 453Q305 431 288 400Q271 368 254 337Q237 306 225 284Q213 262 211 258ZM459 769Q446 769 442 779Q416 821 386 867Q355 912 323 959Q316 968 327 968L404 968Q415 968 420 959Q447 916 474 870Q501 824 526 779Q531 769 520 769Z"  horiz-adv-x="621" vert-adv-y="1000"  />
      <glyph glyph-name="Aacute" unicode="&#xc1;" d="M63 -3L-8 2Q-19 4 -14 13Q27 91 76 181Q124 271 175 363Q225 455 274 542Q322 628 362 698Q367 708 378 708L448 708Q459 708 461 697Q476 624 494 539Q511 454 529 364Q547 274 564 185Q580 96 595 14Q597 4 586 2L509 -3Q498 -5 496 7Q493 27 488 60Q482 93 477 126Q471 159 468 177L171 177Q169 174 160 157Q151 140 138 116Q125 92 112 68Q99 43 90 26Q81 9 80 6Q73 -4 63 -3ZM211 258L454 258Q444 314 433 370Q422 425 412 479Q408 506 404 537Q399 568 397 599L391 599Q378 567 362 536Q346 504 331 478Q329 475 317 453Q305 431 288 400Q271 368 254 337Q237 306 225 284Q213 262 211 258ZM300 769Q289 769 296 778Q332 823 371 870Q409 917 446 960Q454 968 465 968L541 968Q546 968 547 966Q548 963 544 960Q500 913 459 867Q417 821 379 778Q377 774 372 772Q367 769 362 769Z"  horiz-adv-x="621" vert-adv-y="1000"  />
      <glyph glyph-name="Acircumflex" unicode="&#xc2;" d="M63 -3L-8 2Q-19 4 -14 13Q27 91 76 181Q124 271 175 363Q225 455 274 542Q322 628 362 698Q367 708 378 708L448 708Q459 708 461 697Q476 624 494 539Q511 454 529 364Q547 274 564 185Q580 96 595 14Q597 4 586 2L509 -3Q498 -5 496 7Q493 27 488 60Q482 93 477 126Q471 159 468 177L171 177Q169 174 160 157Q151 140 138 116Q125 92 112 68Q99 43 90 26Q81 9 80 6Q73 -4 63 -3ZM211 258L454 258Q444 314 433 370Q422 425 412 479Q408 506 404 537Q399 568 397 599L391 599Q378 567 362 536Q346 504 331 478Q329 475 317 453Q305 431 288 400Q271 368 254 337Q237 306 225 284Q213 262 211 258ZM258 769Q247 769 254 778Q290 823 330 872Q369 920 408 963Q414 971 426 971L459 971Q471 971 475 962Q503 919 531 872Q559 824 584 779Q589 769 578 769L517 769Q506 769 500 779Q485 804 467 831Q449 858 431 884Q407 858 384 831Q360 803 337 777Q331 769 319 769Z"  horiz-adv-x="621" vert-adv-y="1000"  />
      <glyph glyph-name="Atilde" unicode="&#xc3;" d="M63 -3L-8 2Q-19 4 -14 13Q27 91 76 181Q124 271 175 363Q225 455 274 542Q322 628 362 698Q367 708 378 708L448 708Q459 708 461 697Q476 624 494 539Q511 454 529 364Q547 274 564 185Q580 96 595 14Q597 4 586 2L509 -3Q498 -5 496 7Q493 27 488 60Q482 93 477 126Q471 159 468 177L171 177Q169 174 160 157Q151 140 138 116Q125 92 112 68Q99 43 90 26Q81 9 80 6Q73 -4 63 -3ZM211 258L454 258Q444 314 433 370Q422 425 412 479Q408 506 404 537Q399 568 397 599L391 599Q378 567 362 536Q346 504 331 478Q329 475 317 453Q305 431 288 400Q271 368 254 337Q237 306 225 284Q213 262 211 258ZM472 787Q453 787 438 797Q423 807 409 818Q397 829 385 839Q373 848 361 848Q345 848 335 835Q324 821 315 800Q311 789 302 797L273 822Q263 829 268 840Q284 883 312 907Q340 931 370 931Q390 931 406 921Q421 911 434 900Q446 889 458 880Q469 870 481 870Q497 870 508 884Q518 897 527 918Q531 929 540 921L569 896Q580 889 574 879Q559 836 531 812Q502 787 472 787Z"  horiz-adv-x="621" vert-adv-y="1000"  />
      <glyph glyph-name="Adieresis" unicode="&#xc4;" d="M63 -3L-8 2Q-19 4 -14 13Q27 91 76 181Q124 271 175 363Q225 455 274 542Q322 628 362 698Q367 708 378 708L448 708Q459 708 461 697Q476 624 494 539Q511 454 529 364Q547 274 564 185Q580 96 595 14Q597 4 586 2L509 -3Q498 -5 496 7Q493 27 488 60Q482 93 477 126Q471 159 468 177L171 177Q169 174 160 157Q151 140 138 116Q125 92 112 68Q99 43 90 26Q81 9 80 6Q73 -4 63 -3ZM211 258L454 258Q444 314 433 370Q422 425 412 479Q408 506 404 537Q399 568 397 599L391 599Q378 567 362 536Q346 504 331 478Q329 475 317 453Q305 431 288 400Q271 368 254 337Q237 306 225 284Q213 262 211 258ZM332 799Q310 799 295 815Q279 830 279 852Q279 875 296 891Q313 907 336 907Q358 907 373 893Q388 878 388 855Q388 832 372 816Q355 799 332 799ZM512 799Q490 799 475 815Q459 830 459 852Q459 875 476 891Q493 907 516 907Q538 907 553 893Q568 878 568 855Q568 832 552 816Q535 799 512 799Z"  horiz-adv-x="621" vert-adv-y="1000"  />
      <glyph glyph-name="Aring" unicode="&#xc5;" d="M63 -3L-8 2Q-19 4 -14 13Q27 91 76 181Q124 271 175 363Q225 455 274 542Q322 628 362 698Q367 708 378 708L448 708Q459 708 461 697Q476 624 494 539Q511 454 529 364Q547 274 564 185Q580 96 595 14Q597 4 586 2L509 -3Q498 -5 496 7Q493 27 488 60Q482 93 477 126Q471 159 468 177L171 177Q169 174 160 157Q151 140 138 116Q125 92 112 68Q99 43 90 26Q81 9 80 6Q73 -4 63 -3ZM211 258L454 258Q444 314 433 370Q422 425 412 479Q408 506 404 537Q399 568 397 599L391 599Q378 567 362 536Q346 504 331 478Q329 475 317 453Q305 431 288 400Q271 368 254 337Q237 306 225 284Q213 262 211 258ZM421 774Q371 774 341 806Q310 838 310 884Q310 933 344 968Q377 1002 429 1002Q479 1002 510 970Q540 938 540 892Q540 843 507 809Q474 774 421 774ZM423 829Q449 829 467 847Q484 865 484 889Q484 912 468 930Q452 947 427 947Q400 947 383 929Q366 910 366 886Q366 863 382 846Q398 829 423 829Z"  horiz-adv-x="621" vert-adv-y="1000"  />
      <glyph glyph-name="AE" unicode="&#xc6;" d="M59 -3L-13 2Q-25 4 -18 12Q38 89 104 179Q169 268 237 361Q305 453 369 539Q433 624 486 694Q492 703 503 703L959 703Q971 703 969 692L961 627Q959 616 949 616L611 616L585 401L890 401Q901 401 899 390L891 326Q889 315 879 315L574 315L547 87L891 87Q902 87 900 76L892 11Q890 0 880 0L450 0Q438 0 440 11L461 177L202 177L77 5Q68 -4 59 -3ZM259 258L471 258L513 599L507 599Q488 567 466 536Q444 504 423 478Z"  horiz-adv-x="961" vert-adv-y="1000"  />
      <glyph glyph-name="Ccedilla" unicode="&#xc7;" d="M304 -201Q271 -201 247 -195Q236 -191 241 -183L255 -148Q260 -139 271 -141Q281 -144 290 -145Q299 -146 310 -146Q355 -146 358 -116Q363 -81 299 -72Q288 -70 293 -61L314 -9Q227 -3 174 37Q120 76 95 144Q70 211 70 299Q70 385 92 460Q114 535 157 592Q200 649 265 681Q329 713 413 713Q475 713 522 701Q569 688 602 668Q612 662 606 653L573 588Q570 578 560 585Q525 608 485 618Q445 627 404 627Q330 627 277 586Q224 545 196 472Q167 398 167 300Q167 184 215 130Q262 76 357 76Q402 76 446 89Q490 102 527 125Q536 131 540 122L559 62Q563 53 554 46Q514 20 465 7Q416 -7 364 -9L351 -39Q395 -46 416 -65Q437 -83 432 -120Q428 -156 396 -179Q363 -201 304 -201Z"  horiz-adv-x="585" vert-adv-y="1000"  />
      <glyph glyph-name="Egrave" unicode="&#xc8;" d="M65 0Q53 0 55 11L139 692Q141 703 151 703L573 703Q585 703 583 692L575 627Q573 616 562 616L226 616L200 401L504 401Q514 401 514 390L505 326Q505 315 493 315L189 315L161 87L505 87Q517 87 515 76L507 11Q505 0 494 0ZM403 769Q390 769 386 779Q360 821 330 867Q299 912 267 959Q260 968 271 968L348 968Q359 968 364 959Q391 916 418 870Q445 824 470 779Q475 769 464 769Z"  horiz-adv-x="574" vert-adv-y="1000"  />
      <glyph glyph-name="Eacute" unicode="&#xc9;" d="M65 0Q53 0 55 11L139 692Q141 703 151 703L573 703Q585 703 583 692L575 627Q573 616 562 616L226 616L200 401L504 401Q514 401 514 390L505 326Q505 315 493 315L189 315L161 87L505 87Q517 87 515 76L507 11Q505 0 494 0ZM273 766Q262 766 269 775Q305 820 344 867Q382 914 419 957Q427 965 438 965L514 965Q519 965 520 963Q521 960 517 957Q473 910 432 864Q390 818 352 775Q350 771 345 769Q340 766 335 766Z"  horiz-adv-x="574" vert-adv-y="1000"  />
      <glyph glyph-name="Ecircumflex" unicode="&#xca;" d="M65 0Q53 0 55 11L139 692Q141 703 151 703L573 703Q585 703 583 692L575 627Q573 616 562 616L226 616L200 401L504 401Q514 401 514 390L505 326Q505 315 493 315L189 315L161 87L505 87Q517 87 515 76L507 11Q505 0 494 0ZM204 769Q193 769 200 778Q236 823 276 872Q315 920 354 963Q360 971 372 971L405 971Q417 971 421 962Q449 919 477 872Q505 824 530 779Q535 769 524 769L463 769Q452 769 446 779Q431 804 413 831Q395 858 377 884Q353 858 330 831Q306 803 283 777Q277 769 265 769Z"  horiz-adv-x="574" vert-adv-y="1000"  />
      <glyph glyph-name="Edieresis" unicode="&#xcb;" d="M65 0Q53 0 55 11L139 692Q141 703 151 703L573 703Q585 703 583 692L575 627Q573 616 562 616L226 616L200 401L504 401Q514 401 514 390L505 326Q505 315 493 315L189 315L161 87L505 87Q517 87 515 76L507 11Q505 0 494 0ZM278 802Q256 802 241 818Q225 833 225 855Q225 878 242 894Q259 910 282 910Q304 910 319 896Q334 881 334 858Q334 835 318 819Q301 802 278 802ZM458 802Q436 802 421 818Q405 833 405 855Q405 878 422 894Q439 910 462 910Q484 910 499 896Q514 881 514 858Q514 835 498 819Q481 802 458 802Z"  horiz-adv-x="574" vert-adv-y="1000"  />
      <glyph glyph-name="Igrave" unicode="&#xcc;" d="M65 0Q53 0 55 11L139 692Q141 703 151 703L226 703Q237 703 235 692L152 11Q150 0 140 0ZM244 769Q231 769 227 779Q201 821 171 867Q140 912 108 959Q101 968 112 968L189 968Q200 968 205 959Q232 916 259 870Q286 824 311 779Q316 769 305 769Z"  horiz-adv-x="249" vert-adv-y="1000"  />
      <glyph glyph-name="Iacute" unicode="&#xcd;" d="M65 0Q53 0 55 11L139 692Q141 703 151 703L226 703Q237 703 235 692L152 11Q150 0 140 0ZM88 769Q77 769 84 778Q120 823 159 870Q197 917 234 960Q242 968 253 968L329 968Q334 968 335 966Q336 963 332 960Q288 913 247 867Q205 821 167 778Q165 774 160 772Q155 769 150 769Z"  horiz-adv-x="249" vert-adv-y="1000"  />
      <glyph glyph-name="Icircumflex" unicode="&#xce;" d="M65 0Q53 0 55 11L139 692Q141 703 151 703L226 703Q237 703 235 692L152 11Q150 0 140 0ZM37 769Q26 769 33 778Q69 823 109 872Q148 920 187 963Q193 971 205 971L238 971Q250 971 254 962Q282 919 310 872Q338 824 363 779Q368 769 357 769L296 769Q285 769 279 779Q264 804 246 831Q228 858 210 884Q186 858 163 831Q139 803 116 777Q110 769 98 769Z"  horiz-adv-x="249" vert-adv-y="1000"  />
      <glyph glyph-name="Idieresis" unicode="&#xcf;" d="M65 0Q53 0 55 11L139 692Q141 703 151 703L226 703Q237 703 235 692L152 11Q150 0 140 0ZM118 802Q96 802 81 818Q65 833 65 855Q65 878 82 894Q99 910 122 910Q144 910 159 896Q174 881 174 858Q174 835 158 819Q141 802 118 802ZM298 802Q276 802 261 818Q245 833 245 855Q245 878 262 894Q279 910 302 910Q324 910 339 896Q354 881 354 858Q354 835 338 819Q321 802 298 802Z"  horiz-adv-x="249" vert-adv-y="1000"  />
      <glyph glyph-name="Eth" unicode="&#xd0;" d="M245 -10Q195 -10 150 -7Q105 -3 65 5Q53 7 55 18L91 311L18 311Q6 311 8 322L15 380Q17 391 28 391L101 391L138 690Q140 702 150 703Q216 713 293 713Q419 713 494 672Q568 630 600 559Q632 487 632 396Q632 200 539 95Q445 -10 245 -10ZM258 76Q341 76 404 107Q466 137 501 206Q535 274 535 387Q535 514 476 570Q417 626 300 626Q278 626 261 625Q243 624 225 622L197 391L311 391Q323 391 321 380L314 322Q312 311 301 311L187 311L159 81Q182 79 207 78Q232 76 258 76Z"  horiz-adv-x="661" vert-adv-y="1000"  />
      <glyph glyph-name="Ntilde" unicode="&#xd1;" d="M65 0Q54 0 55 11L138 692Q140 703 150 703L206 703Q217 703 222 693Q239 663 264 620Q288 577 316 528Q344 478 372 428Q399 378 424 333Q448 288 466 256Q475 240 485 219Q495 198 502 178L508 178Q509 200 511 224Q513 247 516 272L568 692Q570 703 580 703L652 703Q663 703 662 692L579 11Q577 0 567 0L510 0Q499 0 494 10Q430 131 372 240Q314 349 252 457Q243 473 233 494Q222 515 214 535L208 535Q207 513 205 490Q203 467 200 441L148 11Q146 0 136 0ZM475 784Q456 784 441 794Q426 804 412 815Q400 826 388 836Q376 845 364 845Q348 845 338 832Q327 818 318 797Q314 786 305 794L276 819Q266 826 271 837Q287 880 315 904Q343 928 373 928Q393 928 409 918Q424 908 437 897Q449 886 461 877Q472 867 484 867Q500 867 511 881Q521 894 530 915Q534 926 543 918L572 893Q583 886 577 876Q562 833 534 809Q505 784 475 784Z"  horiz-adv-x="675" vert-adv-y="1000"  />
      <glyph glyph-name="Ograve" unicode="&#xd2;" d="M323 -10Q196 -10 133 67Q70 143 70 273Q70 359 90 438Q109 516 149 579Q189 641 252 677Q314 713 400 713Q527 713 590 637Q652 561 652 430Q652 343 633 264Q613 185 573 124Q533 62 471 26Q409 -10 323 -10ZM329 76Q388 76 431 104Q473 131 501 179Q528 227 542 289Q555 350 555 419Q555 522 516 575Q477 627 393 627Q335 627 292 600Q249 572 222 524Q195 476 182 415Q168 353 168 284Q168 181 207 129Q246 76 329 76ZM458 769Q445 769 441 779Q415 821 385 867Q354 912 322 959Q315 968 326 968L403 968Q414 968 419 959Q446 916 473 870Q500 824 525 779Q530 769 519 769Z"  horiz-adv-x="680" vert-adv-y="1000"  />
      <glyph glyph-name="Oacute" unicode="&#xd3;" d="M323 -10Q196 -10 133 67Q70 143 70 273Q70 359 90 438Q109 516 149 579Q189 641 252 677Q314 713 400 713Q527 713 590 637Q652 561 652 430Q652 343 633 264Q613 185 573 124Q533 62 471 26Q409 -10 323 -10ZM329 76Q388 76 431 104Q473 131 501 179Q528 227 542 289Q555 350 555 419Q555 522 516 575Q477 627 393 627Q335 627 292 600Q249 572 222 524Q195 476 182 415Q168 353 168 284Q168 181 207 129Q246 76 329 76ZM302 769Q291 769 298 778Q334 823 373 870Q411 917 448 960Q456 968 467 968L543 968Q548 968 549 966Q550 963 546 960Q502 913 461 867Q419 821 381 778Q379 774 374 772Q369 769 364 769Z"  horiz-adv-x="680" vert-adv-y="1000"  />
      <glyph glyph-name="Ocircumflex" unicode="&#xd4;" d="M323 -10Q196 -10 133 67Q70 143 70 273Q70 359 90 438Q109 516 149 579Q189 641 252 677Q314 713 400 713Q527 713 590 637Q652 561 652 430Q652 343 633 264Q613 185 573 124Q533 62 471 26Q409 -10 323 -10ZM329 76Q388 76 431 104Q473 131 501 179Q528 227 542 289Q555 350 555 419Q555 522 516 575Q477 627 393 627Q335 627 292 600Q249 572 222 524Q195 476 182 415Q168 353 168 284Q168 181 207 129Q246 76 329 76ZM250 769Q239 769 246 778Q282 823 322 872Q361 920 400 963Q406 971 418 971L451 971Q463 971 467 962Q495 919 523 872Q551 824 576 779Q581 769 570 769L509 769Q498 769 492 779Q477 804 459 831Q441 858 423 884Q399 858 376 831Q352 803 329 777Q323 769 311 769Z"  horiz-adv-x="680" vert-adv-y="1000"  />
      <glyph glyph-name="Otilde" unicode="&#xd5;" d="M323 -10Q196 -10 133 67Q70 143 70 273Q70 359 90 438Q109 516 149 579Q189 641 252 677Q314 713 400 713Q527 713 590 637Q652 561 652 430Q652 343 633 264Q613 185 573 124Q533 62 471 26Q409 -10 323 -10ZM329 76Q388 76 431 104Q473 131 501 179Q528 227 542 289Q555 350 555 419Q555 522 516 575Q477 627 393 627Q335 627 292 600Q249 572 222 524Q195 476 182 415Q168 353 168 284Q168 181 207 129Q246 76 329 76ZM473 787Q454 787 439 797Q424 807 410 818Q398 829 386 839Q374 848 362 848Q346 848 336 835Q325 821 316 800Q312 789 303 797L274 822Q264 829 269 840Q285 883 313 907Q341 931 371 931Q391 931 407 921Q422 911 435 900Q447 889 459 880Q470 870 482 870Q498 870 509 884Q519 897 528 918Q532 929 541 921L570 896Q581 889 575 879Q560 836 532 812Q503 787 473 787Z"  horiz-adv-x="680" vert-adv-y="1000"  />
      <glyph glyph-name="Odieresis" unicode="&#xd6;" d="M323 -10Q196 -10 133 67Q70 143 70 273Q70 359 90 438Q109 516 149 579Q189 641 252 677Q314 713 400 713Q527 713 590 637Q652 561 652 430Q652 343 633 264Q613 185 573 124Q533 62 471 26Q409 -10 323 -10ZM329 76Q388 76 431 104Q473 131 501 179Q528 227 542 289Q555 350 555 419Q555 522 516 575Q477 627 393 627Q335 627 292 600Q249 572 222 524Q195 476 182 415Q168 353 168 284Q168 181 207 129Q246 76 329 76ZM327 799Q305 799 290 815Q274 830 274 852Q274 875 291 891Q308 907 331 907Q353 907 368 893Q383 878 383 855Q383 832 367 816Q350 799 327 799ZM507 799Q485 799 470 815Q454 830 454 852Q454 875 471 891Q488 907 511 907Q533 907 548 893Q563 878 563 855Q563 832 547 816Q530 799 507 799Z"  horiz-adv-x="680" vert-adv-y="1000"  />
      <glyph glyph-name="multiply" unicode="&#xd7;" d="M102 65Q99 62 95 62Q90 62 88 66L53 105Q48 115 54 121L254 303L100 485Q93 495 101 501L147 543Q156 550 162 542L316 360L516 543Q519 546 524 546Q528 546 530 542L565 503Q570 493 564 486L364 304L518 123Q524 113 517 106L471 65Q462 58 456 66L302 247Z"  horiz-adv-x="582" vert-adv-y="1000"  />
      <glyph glyph-name="Oslash" unicode="&#xd8;" d="M171 -46Q161 -46 164 -36L187 21Q129 54 100 119Q70 184 70 273Q70 359 90 438Q109 516 149 579Q189 641 252 677Q314 713 400 713Q418 713 435 712Q452 710 468 706L482 739Q485 749 497 749L553 749Q564 749 559 739L535 681Q594 648 623 584Q652 519 652 430Q652 343 633 264Q613 185 573 124Q533 62 471 26Q409 -10 323 -10Q305 -10 288 -9Q271 -7 255 -3L242 -36Q239 -46 227 -46ZM224 110L434 623Q425 625 415 626Q404 627 393 627Q335 627 292 600Q249 572 222 524Q195 476 182 415Q168 353 168 284Q168 159 224 110ZM329 76Q388 76 431 104Q473 131 501 179Q528 227 542 289Q555 350 555 419Q555 480 542 524Q528 567 499 592L289 79Q307 76 329 76Z"  horiz-adv-x="680" vert-adv-y="1000"  />
      <glyph glyph-name="Ugrave" unicode="&#xd9;" d="M312 -10Q178 -10 122 66Q66 141 85 298L134 692Q136 703 146 703L221 703Q233 703 231 692L181 292Q167 174 202 125Q236 76 323 76Q412 76 459 124Q505 172 520 292L569 692Q571 703 582 703L656 703Q668 703 666 692L617 298Q604 186 566 118Q528 50 465 20Q402 -10 312 -10ZM454 769Q441 769 437 779Q411 821 381 867Q350 912 318 959Q311 968 322 968L399 968Q410 968 415 959Q442 916 469 870Q496 824 521 779Q526 769 515 769Z"  horiz-adv-x="673" vert-adv-y="1000"  />
      <glyph glyph-name="Uacute" unicode="&#xda;" d="M312 -10Q178 -10 122 66Q66 141 85 298L134 692Q136 703 146 703L221 703Q233 703 231 692L181 292Q167 174 202 125Q236 76 323 76Q412 76 459 124Q505 172 520 292L569 692Q571 703 582 703L656 703Q668 703 666 692L617 298Q604 186 566 118Q528 50 465 20Q402 -10 312 -10ZM299 769Q288 769 295 778Q331 823 370 870Q408 917 445 960Q453 968 464 968L540 968Q545 968 546 966Q547 963 543 960Q499 913 458 867Q416 821 378 778Q376 774 371 772Q366 769 361 769Z"  horiz-adv-x="673" vert-adv-y="1000"  />
      <glyph glyph-name="Ucircumflex" unicode="&#xdb;" d="M312 -10Q178 -10 122 66Q66 141 85 298L134 692Q136 703 146 703L221 703Q233 703 231 692L181 292Q167 174 202 125Q236 76 323 76Q412 76 459 124Q505 172 520 292L569 692Q571 703 582 703L656 703Q668 703 666 692L617 298Q604 186 566 118Q528 50 465 20Q402 -10 312 -10ZM247 769Q236 769 243 778Q279 823 319 872Q358 920 397 963Q403 971 415 971L448 971Q460 971 464 962Q492 919 520 872Q548 824 573 779Q578 769 567 769L506 769Q495 769 489 779Q474 804 456 831Q438 858 420 884Q396 858 373 831Q349 803 326 777Q320 769 308 769Z"  horiz-adv-x="673" vert-adv-y="1000"  />
      <glyph glyph-name="Udieresis" unicode="&#xdc;" d="M312 -10Q178 -10 122 66Q66 141 85 298L134 692Q136 703 146 703L221 703Q233 703 231 692L181 292Q167 174 202 125Q236 76 323 76Q412 76 459 124Q505 172 520 292L569 692Q571 703 582 703L656 703Q668 703 666 692L617 298Q604 186 566 118Q528 50 465 20Q402 -10 312 -10ZM327 799Q305 799 290 815Q274 830 274 852Q274 875 291 891Q308 907 331 907Q353 907 368 893Q383 878 383 855Q383 832 367 816Q350 799 327 799ZM507 799Q485 799 470 815Q454 830 454 852Q454 875 471 891Q488 907 511 907Q533 907 548 893Q563 878 563 855Q563 832 547 816Q530 799 507 799Z"  horiz-adv-x="673" vert-adv-y="1000"  />
      <glyph glyph-name="Yacute" unicode="&#xdd;" d="M232 0Q220 0 222 11L255 284Q224 346 190 415Q156 483 124 552Q92 621 65 681Q62 692 72 693L150 707Q162 709 165 699Q186 648 212 591Q238 534 263 481Q276 456 288 429Q300 401 313 368L319 368Q340 401 361 430Q381 458 401 483Q440 535 483 594Q526 652 560 700Q568 709 578 706L645 691Q657 687 649 679Q608 622 557 553Q505 484 452 416Q399 347 352 289L319 11Q317 0 306 0ZM260 769Q249 769 256 778Q292 823 331 870Q369 917 406 960Q414 968 425 968L501 968Q506 968 507 966Q508 963 504 960Q460 913 419 867Q377 821 339 778Q337 774 332 772Q327 769 322 769Z"  horiz-adv-x="592" vert-adv-y="1000"  />
      <glyph glyph-name="Thorn" unicode="&#xde;" d="M65 0Q53 0 55 11L139 692Q141 703 151 703L226 703Q237 703 235 692L220 570Q255 573 288 573Q421 573 489 523Q557 473 557 367Q557 308 534 266Q511 224 473 198Q434 172 386 160Q337 148 285 148Q250 148 222 150Q194 152 170 155L152 11Q150 0 140 0ZM286 226Q372 226 416 263Q460 299 460 366Q460 421 423 458Q385 494 294 494Q270 494 251 493Q231 492 210 490L179 233Q206 229 234 228Q261 226 286 226Z"  horiz-adv-x="574" vert-adv-y="1000"  />
      <glyph glyph-name="germandbls" unicode="&#xdf;" d="M318 -10Q288 -10 257 -5Q226 0 203 10Q193 14 197 25L217 83Q220 91 231 88Q252 78 278 72Q303 65 327 65Q395 65 426 89Q456 113 456 157Q456 191 439 213Q422 234 398 251Q373 268 349 287Q324 306 307 334Q290 361 290 404Q290 463 332 501Q373 538 433 555Q442 614 419 652Q396 690 342 690Q282 690 248 646Q213 601 200 503L140 11Q138 0 128 0L58 0Q47 0 49 11L109 499Q125 628 182 696Q239 764 348 764Q447 764 491 704Q535 643 516 536Q514 525 503 523Q447 512 413 486Q379 459 379 415Q379 384 396 364Q413 344 439 327Q464 310 489 290Q514 269 531 240Q548 210 548 164Q548 105 518 66Q488 27 436 9Q384 -10 318 -10Z"  horiz-adv-x="590" vert-adv-y="1000"  />
      <glyph glyph-name="agrave" unicode="&#xe0;" d="M218 -10Q157 -10 120 19Q83 47 67 94Q50 141 50 197Q50 296 84 368Q118 439 178 477Q238 515 317 515Q370 515 415 501Q460 487 496 470Q507 465 505 454L467 152Q463 116 466 91Q468 65 484 42Q489 32 481 27L435 1Q422 -5 415 1Q383 22 375 81Q341 30 301 10Q260 -10 218 -10ZM242 66Q295 66 338 132Q381 198 398 333L408 417Q389 426 367 433Q344 440 318 440Q263 440 224 410Q185 380 165 328Q144 275 144 207Q144 169 154 137Q163 105 185 86Q206 66 242 66ZM362 574Q349 574 345 584Q319 626 289 672Q258 717 226 764Q219 773 230 773L307 773Q318 773 323 764Q350 721 377 675Q404 629 429 584Q434 574 423 574Z"  horiz-adv-x="544" vert-adv-y="1000"  />
      <glyph glyph-name="aacute" unicode="&#xe1;" d="M218 -10Q157 -10 120 19Q83 47 67 94Q50 141 50 197Q50 296 84 368Q118 439 178 477Q238 515 317 515Q370 515 415 501Q460 487 496 470Q507 465 505 454L467 152Q463 116 466 91Q468 65 484 42Q489 32 481 27L435 1Q422 -5 415 1Q383 22 375 81Q341 30 301 10Q260 -10 218 -10ZM242 66Q295 66 338 132Q381 198 398 333L408 417Q389 426 367 433Q344 440 318 440Q263 440 224 410Q185 380 165 328Q144 275 144 207Q144 169 154 137Q163 105 185 86Q206 66 242 66ZM221 574Q210 574 217 583Q253 628 292 675Q330 722 367 765Q375 773 386 773L462 773Q467 773 468 771Q469 768 465 765Q421 718 380 672Q338 626 300 583Q298 579 293 577Q288 574 283 574Z"  horiz-adv-x="544" vert-adv-y="1000"  />
      <glyph glyph-name="acircumflex" unicode="&#xe2;" d="M218 -10Q157 -10 120 19Q83 47 67 94Q50 141 50 197Q50 296 84 368Q118 439 178 477Q238 515 317 515Q370 515 415 501Q460 487 496 470Q507 465 505 454L467 152Q463 116 466 91Q468 65 484 42Q489 32 481 27L435 1Q422 -5 415 1Q383 22 375 81Q341 30 301 10Q260 -10 218 -10ZM242 66Q295 66 338 132Q381 198 398 333L408 417Q389 426 367 433Q344 440 318 440Q263 440 224 410Q185 380 165 328Q144 275 144 207Q144 169 154 137Q163 105 185 86Q206 66 242 66ZM166 574Q155 574 162 583Q198 628 238 677Q277 725 316 768Q322 776 334 776L367 776Q379 776 383 767Q411 724 439 677Q467 629 492 584Q497 574 486 574L425 574Q414 574 408 584Q393 609 375 636Q357 663 339 689Q315 663 292 636Q268 608 245 582Q239 574 227 574Z"  horiz-adv-x="544" vert-adv-y="1000"  />
      <glyph glyph-name="atilde" unicode="&#xe3;" d="M218 -10Q157 -10 120 19Q83 47 67 94Q50 141 50 197Q50 296 84 368Q118 439 178 477Q238 515 317 515Q370 515 415 501Q460 487 496 470Q507 465 505 454L467 152Q463 116 466 91Q468 65 484 42Q489 32 481 27L435 1Q422 -5 415 1Q383 22 375 81Q341 30 301 10Q260 -10 218 -10ZM242 66Q295 66 338 132Q381 198 398 333L408 417Q389 426 367 433Q344 440 318 440Q263 440 224 410Q185 380 165 328Q144 275 144 207Q144 169 154 137Q163 105 185 86Q206 66 242 66ZM389 592Q370 592 355 602Q340 612 326 623Q314 634 302 644Q290 653 278 653Q262 653 252 640Q241 626 232 605Q228 594 219 602L190 627Q180 634 185 645Q201 688 229 712Q257 736 287 736Q307 736 323 726Q338 716 351 705Q363 694 375 685Q386 675 398 675Q414 675 425 689Q435 702 444 723Q448 734 457 726L486 701Q497 694 491 684Q476 641 448 617Q419 592 389 592Z"  horiz-adv-x="544" vert-adv-y="1000"  />
      <glyph glyph-name="adieresis" unicode="&#xe4;" d="M218 -10Q157 -10 120 19Q83 47 67 94Q50 141 50 197Q50 296 84 368Q118 439 178 477Q238 515 317 515Q370 515 415 501Q460 487 496 470Q507 465 505 454L467 152Q463 116 466 91Q468 65 484 42Q489 32 481 27L435 1Q422 -5 415 1Q383 22 375 81Q341 30 301 10Q260 -10 218 -10ZM242 66Q295 66 338 132Q381 198 398 333L408 417Q389 426 367 433Q344 440 318 440Q263 440 224 410Q185 380 165 328Q144 275 144 207Q144 169 154 137Q163 105 185 86Q206 66 242 66ZM244 607Q222 607 207 623Q191 638 191 660Q191 683 208 699Q225 715 248 715Q270 715 285 701Q300 686 300 663Q300 640 284 624Q267 607 244 607ZM424 607Q402 607 387 623Q371 638 371 660Q371 683 388 699Q405 715 428 715Q450 715 465 701Q480 686 480 663Q480 640 464 624Q447 607 424 607Z"  horiz-adv-x="544" vert-adv-y="1000"  />
      <glyph glyph-name="aring" unicode="&#xe5;" d="M218 -10Q157 -10 120 19Q83 47 67 94Q50 141 50 197Q50 296 84 368Q118 439 178 477Q238 515 317 515Q370 515 415 501Q460 487 496 470Q507 465 505 454L467 152Q463 116 466 91Q468 65 484 42Q489 32 481 27L435 1Q422 -5 415 1Q383 22 375 81Q341 30 301 10Q260 -10 218 -10ZM242 66Q295 66 338 132Q381 198 398 333L408 417Q389 426 367 433Q344 440 318 440Q263 440 224 410Q185 380 165 328Q144 275 144 207Q144 169 154 137Q163 105 185 86Q206 66 242 66ZM332 582Q282 582 252 614Q221 646 221 692Q221 741 255 776Q288 810 340 810Q390 810 421 778Q451 746 451 700Q451 651 418 617Q385 582 332 582ZM334 637Q360 637 378 655Q395 673 395 697Q395 720 379 738Q363 755 338 755Q311 755 294 737Q277 718 277 694Q277 671 293 654Q309 637 334 637Z"  horiz-adv-x="544" vert-adv-y="1000"  />
      <glyph glyph-name="ae" unicode="&#xe6;" d="M219 -10Q158 -10 121 19Q84 47 68 94Q51 141 51 197Q51 296 85 368Q119 439 179 477Q239 515 318 515Q371 515 416 501Q461 487 497 470Q503 467 505 460Q541 486 585 501Q628 515 677 515Q732 515 765 496Q797 476 812 446Q826 415 826 381Q826 285 735 234Q644 182 483 177Q491 123 523 95Q554 66 613 66Q655 66 692 79Q729 91 758 109Q766 117 770 105L783 56Q786 46 777 39Q746 19 698 5Q649 -10 593 -10Q514 -10 467 24Q419 57 399 114Q362 47 317 19Q272 -10 219 -10ZM243 66Q296 66 339 132Q382 198 399 333L409 417Q390 426 368 433Q345 440 319 440Q264 440 225 410Q186 380 166 328Q145 275 145 207Q145 169 155 137Q164 105 186 86Q207 66 243 66ZM480 241Q607 242 673 274Q738 305 738 370Q738 399 720 420Q701 441 660 441Q621 441 589 423Q557 404 534 375Q510 345 497 310Q483 275 480 241Z"  horiz-adv-x="850" vert-adv-y="1000"  />
      <glyph glyph-name="ccedilla" unicode="&#xe7;" d="M229 -201Q196 -201 172 -195Q161 -191 166 -183L180 -148Q185 -139 196 -141Q206 -144 215 -145Q224 -146 235 -146Q280 -146 283 -116Q288 -81 224 -72Q213 -70 218 -61L239 -9Q145 -2 98 60Q51 122 51 222Q51 301 82 368Q113 434 172 475Q230 515 312 515Q357 515 395 506Q433 496 464 476Q473 472 468 460L440 408Q435 398 426 404Q405 418 376 427Q346 436 314 436Q256 436 219 406Q181 375 163 328Q145 280 145 229Q145 153 179 111Q213 69 285 69Q318 69 348 78Q378 87 402 102Q412 107 415 98L431 46Q434 37 426 30Q401 14 364 4Q327 -6 289 -9L276 -39Q320 -46 341 -65Q362 -83 357 -120Q353 -156 321 -179Q288 -201 229 -201Z"  horiz-adv-x="473" vert-adv-y="1000"  />
      <glyph glyph-name="egrave" unicode="&#xe8;" d="M259 -10Q151 -10 101 52Q51 113 51 210Q51 296 89 365Q127 434 194 475Q260 515 343 515Q398 515 431 496Q463 476 478 446Q492 415 492 381Q492 285 401 234Q310 182 149 177Q157 123 189 95Q220 66 279 66Q321 66 358 79Q395 91 424 109Q432 117 436 105L449 56Q452 46 443 39Q412 19 364 5Q315 -10 259 -10ZM146 241Q273 242 339 274Q404 305 404 370Q404 399 386 420Q367 441 326 441Q287 441 255 423Q223 404 200 375Q176 345 163 310Q149 275 146 241ZM354 574Q341 574 337 584Q311 626 281 672Q250 717 218 764Q211 773 222 773L299 773Q310 773 315 764Q342 721 369 675Q396 629 421 584Q426 574 415 574Z"  horiz-adv-x="516" vert-adv-y="1000"  />
      <glyph glyph-name="eacute" unicode="&#xe9;" d="M259 -10Q151 -10 101 52Q51 113 51 210Q51 296 89 365Q127 434 194 475Q260 515 343 515Q398 515 431 496Q463 476 478 446Q492 415 492 381Q492 285 401 234Q310 182 149 177Q157 123 189 95Q220 66 279 66Q321 66 358 79Q395 91 424 109Q432 117 436 105L449 56Q452 46 443 39Q412 19 364 5Q315 -10 259 -10ZM146 241Q273 242 339 274Q404 305 404 370Q404 399 386 420Q367 441 326 441Q287 441 255 423Q223 404 200 375Q176 345 163 310Q149 275 146 241ZM207 574Q196 574 203 583Q239 628 278 675Q316 722 353 765Q361 773 372 773L448 773Q453 773 454 771Q455 768 451 765Q407 718 366 672Q324 626 286 583Q284 579 279 577Q274 574 269 574Z"  horiz-adv-x="516" vert-adv-y="1000"  />
      <glyph glyph-name="ecircumflex" unicode="&#xea;" d="M259 -10Q151 -10 101 52Q51 113 51 210Q51 296 89 365Q127 434 194 475Q260 515 343 515Q398 515 431 496Q463 476 478 446Q492 415 492 381Q492 285 401 234Q310 182 149 177Q157 123 189 95Q220 66 279 66Q321 66 358 79Q395 91 424 109Q432 117 436 105L449 56Q452 46 443 39Q412 19 364 5Q315 -10 259 -10ZM146 241Q273 242 339 274Q404 305 404 370Q404 399 386 420Q367 441 326 441Q287 441 255 423Q223 404 200 375Q176 345 163 310Q149 275 146 241ZM162 574Q151 574 158 583Q194 628 234 677Q273 725 312 768Q318 776 330 776L363 776Q375 776 379 767Q407 724 435 677Q463 629 488 584Q493 574 482 574L421 574Q410 574 404 584Q389 609 371 636Q353 663 335 689Q311 663 288 636Q264 608 241 582Q235 574 223 574Z"  horiz-adv-x="516" vert-adv-y="1000"  />
      <glyph glyph-name="edieresis" unicode="&#xeb;" d="M259 -10Q151 -10 101 52Q51 113 51 210Q51 296 89 365Q127 434 194 475Q260 515 343 515Q398 515 431 496Q463 476 478 446Q492 415 492 381Q492 285 401 234Q310 182 149 177Q157 123 189 95Q220 66 279 66Q321 66 358 79Q395 91 424 109Q432 117 436 105L449 56Q452 46 443 39Q412 19 364 5Q315 -10 259 -10ZM146 241Q273 242 339 274Q404 305 404 370Q404 399 386 420Q367 441 326 441Q287 441 255 423Q223 404 200 375Q176 345 163 310Q149 275 146 241ZM240 607Q218 607 203 623Q187 638 187 660Q187 683 204 699Q221 715 244 715Q266 715 281 701Q296 686 296 663Q296 640 280 624Q263 607 240 607ZM420 607Q398 607 383 623Q367 638 367 660Q367 683 384 699Q401 715 424 715Q446 715 461 701Q476 686 476 663Q476 640 460 624Q443 607 420 607Z"  horiz-adv-x="516" vert-adv-y="1000"  />
      <glyph glyph-name="igrave" unicode="&#xec;" d="M57 0Q45 0 47 11L107 494Q109 505 119 505L188 505Q200 505 198 494L139 11Q137 0 126 0ZM199 574Q186 574 182 584Q156 626 126 672Q95 717 63 764Q56 773 67 773L144 773Q155 773 160 764Q187 721 214 675Q241 629 266 584Q271 574 260 574Z"  horiz-adv-x="233" vert-adv-y="1000"  />
      <glyph glyph-name="iacute" unicode="&#xed;" d="M57 0Q45 0 47 11L107 494Q109 505 119 505L188 505Q200 505 198 494L139 11Q137 0 126 0ZM48 574Q37 574 44 583Q80 628 119 675Q157 722 194 765Q202 773 213 773L289 773Q294 773 295 771Q296 768 292 765Q248 718 207 672Q165 626 127 583Q125 579 120 577Q115 574 110 574Z"  horiz-adv-x="233" vert-adv-y="1000"  />
      <glyph glyph-name="icircumflex" unicode="&#xee;" d="M57 0Q45 0 47 11L107 494Q109 505 119 505L188 505Q200 505 198 494L139 11Q137 0 126 0ZM-3 574Q-14 574 -7 583Q29 628 69 677Q108 725 147 768Q153 776 165 776L198 776Q210 776 214 767Q242 724 270 677Q298 629 323 584Q328 574 317 574L256 574Q245 574 239 584Q224 609 206 636Q188 663 170 689Q146 663 123 636Q99 608 76 582Q70 574 58 574Z"  horiz-adv-x="233" vert-adv-y="1000"  />
      <glyph glyph-name="idieresis" unicode="&#xef;" d="M57 0Q45 0 47 11L107 494Q109 505 119 505L188 505Q200 505 198 494L139 11Q137 0 126 0ZM77 607Q55 607 40 623Q24 638 24 660Q24 683 41 699Q58 715 81 715Q103 715 118 701Q133 686 133 663Q133 640 117 624Q100 607 77 607ZM257 607Q235 607 220 623Q204 638 204 660Q204 683 221 699Q238 715 261 715Q283 715 298 701Q313 686 313 663Q313 640 297 624Q280 607 257 607Z"  horiz-adv-x="233" vert-adv-y="1000"  />
      <glyph glyph-name="eth" unicode="&#xf0;" d="M269 -10Q167 -10 111 46Q54 102 54 190Q54 256 83 313Q112 370 166 405Q219 440 291 440Q332 440 372 427Q412 414 441 389Q433 442 409 486Q385 529 348 562L205 472Q195 466 197 476L201 519Q203 530 211 537L303 595Q257 624 198 640Q186 643 192 653L221 704Q226 714 238 711Q321 687 383 646L485 710Q495 717 493 705L489 662Q488 652 479 645L426 612Q481 563 510 495Q538 427 538 342Q538 278 522 216Q506 153 473 102Q440 51 390 21Q339 -10 269 -10ZM273 57Q317 57 349 80Q381 103 401 140Q421 177 432 221Q443 264 445 305Q418 337 381 356Q343 375 303 375Q257 375 222 352Q186 329 166 289Q146 248 146 195Q146 133 179 95Q212 57 273 57Z"  horiz-adv-x="574" vert-adv-y="1000"  />
      <glyph glyph-name="ntilde" unicode="&#xf1;" d="M67 0Q55 0 57 11L99 353Q104 389 102 415Q99 440 83 463Q77 472 86 478L132 504Q142 509 151 504Q172 491 182 464Q191 437 192 399Q230 464 280 490Q329 515 386 515Q481 515 511 451Q540 386 526 273L507 115Q504 87 503 63Q502 39 503 19Q505 7 493 7L423 1Q412 -1 410 11Q409 29 410 54Q411 78 415 112L435 273Q445 353 428 393Q410 432 353 432Q313 432 276 408Q238 384 209 325Q180 265 167 159L149 11Q147 0 136 0ZM399 592Q380 592 365 602Q350 612 336 623Q324 634 312 644Q300 653 288 653Q272 653 262 640Q251 626 242 605Q238 594 229 602L200 627Q190 634 195 645Q211 688 239 712Q267 736 297 736Q317 736 333 726Q348 716 361 705Q373 694 385 685Q396 675 408 675Q424 675 435 689Q445 702 454 723Q458 734 467 726L496 701Q507 694 501 684Q486 641 458 617Q429 592 399 592Z"  horiz-adv-x="588" vert-adv-y="1000"  />
      <glyph glyph-name="ograve" unicode="&#xf2;" d="M264 -10Q188 -10 141 18Q94 45 73 93Q51 141 51 202Q51 264 67 320Q82 376 114 420Q146 464 197 490Q248 515 318 515Q394 515 441 488Q487 460 509 413Q530 365 530 303Q530 242 515 186Q499 129 467 85Q435 41 385 16Q334 -10 264 -10ZM269 65Q332 65 369 99Q405 133 421 186Q437 239 437 297Q437 362 408 401Q379 440 312 440Q249 440 213 406Q176 372 160 319Q144 266 144 208Q144 143 174 104Q203 65 269 65ZM369 574Q356 574 352 584Q326 626 296 672Q265 717 233 764Q226 773 237 773L314 773Q325 773 330 764Q357 721 384 675Q411 629 436 584Q441 574 430 574Z"  horiz-adv-x="571" vert-adv-y="1000"  />
      <glyph glyph-name="oacute" unicode="&#xf3;" d="M264 -10Q188 -10 141 18Q94 45 73 93Q51 141 51 202Q51 264 67 320Q82 376 114 420Q146 464 197 490Q248 515 318 515Q394 515 441 488Q487 460 509 413Q530 365 530 303Q530 242 515 186Q499 129 467 85Q435 41 385 16Q334 -10 264 -10ZM269 65Q332 65 369 99Q405 133 421 186Q437 239 437 297Q437 362 408 401Q379 440 312 440Q249 440 213 406Q176 372 160 319Q144 266 144 208Q144 143 174 104Q203 65 269 65ZM213 574Q202 574 209 583Q245 628 284 675Q322 722 359 765Q367 773 378 773L454 773Q459 773 460 771Q461 768 457 765Q413 718 372 672Q330 626 292 583Q290 579 285 577Q280 574 275 574Z"  horiz-adv-x="571" vert-adv-y="1000"  />
      <glyph glyph-name="ocircumflex" unicode="&#xf4;" d="M264 -10Q188 -10 141 18Q94 45 73 93Q51 141 51 202Q51 264 67 320Q82 376 114 420Q146 464 197 490Q248 515 318 515Q394 515 441 488Q487 460 509 413Q530 365 530 303Q530 242 515 186Q499 129 467 85Q435 41 385 16Q334 -10 264 -10ZM269 65Q332 65 369 99Q405 133 421 186Q437 239 437 297Q437 362 408 401Q379 440 312 440Q249 440 213 406Q176 372 160 319Q144 266 144 208Q144 143 174 104Q203 65 269 65ZM164 574Q153 574 160 583Q196 628 236 677Q275 725 314 768Q320 776 332 776L365 776Q377 776 381 767Q409 724 437 677Q465 629 490 584Q495 574 484 574L423 574Q412 574 406 584Q391 609 373 636Q355 663 337 689Q313 663 290 636Q266 608 243 582Q237 574 225 574Z"  horiz-adv-x="571" vert-adv-y="1000"  />
      <glyph glyph-name="otilde" unicode="&#xf5;" d="M264 -10Q188 -10 141 18Q94 45 73 93Q51 141 51 202Q51 264 67 320Q82 376 114 420Q146 464 197 490Q248 515 318 515Q394 515 441 488Q487 460 509 413Q530 365 530 303Q530 242 515 186Q499 129 467 85Q435 41 385 16Q334 -10 264 -10ZM269 65Q332 65 369 99Q405 133 421 186Q437 239 437 297Q437 362 408 401Q379 440 312 440Q249 440 213 406Q176 372 160 319Q144 266 144 208Q144 143 174 104Q203 65 269 65ZM387 592Q368 592 353 602Q338 612 324 623Q312 634 300 644Q288 653 276 653Q260 653 250 640Q239 626 230 605Q226 594 217 602L188 627Q178 634 183 645Q199 688 227 712Q255 736 285 736Q305 736 321 726Q336 716 349 705Q361 694 373 685Q384 675 396 675Q412 675 423 689Q433 702 442 723Q446 734 455 726L484 701Q495 694 489 684Q474 641 446 617Q417 592 387 592Z"  horiz-adv-x="571" vert-adv-y="1000"  />
      <glyph glyph-name="odieresis" unicode="&#xf6;" d="M264 -10Q188 -10 141 18Q94 45 73 93Q51 141 51 202Q51 264 67 320Q82 376 114 420Q146 464 197 490Q248 515 318 515Q394 515 441 488Q487 460 509 413Q530 365 530 303Q530 242 515 186Q499 129 467 85Q435 41 385 16Q334 -10 264 -10ZM269 65Q332 65 369 99Q405 133 421 186Q437 239 437 297Q437 362 408 401Q379 440 312 440Q249 440 213 406Q176 372 160 319Q144 266 144 208Q144 143 174 104Q203 65 269 65ZM244 607Q222 607 207 623Q191 638 191 660Q191 683 208 699Q225 715 248 715Q270 715 285 701Q300 686 300 663Q300 640 284 624Q267 607 244 607ZM424 607Q402 607 387 623Q371 638 371 660Q371 683 388 699Q405 715 428 715Q450 715 465 701Q480 686 480 663Q480 640 464 624Q447 607 424 607Z"  horiz-adv-x="571" vert-adv-y="1000"  />
      <glyph glyph-name="divide" unicode="&#xf7;" d="M265 42Q243 42 228 57Q213 72 213 94Q213 117 230 133Q246 149 269 149Q291 149 306 135Q320 120 320 98Q320 76 304 59Q288 42 265 42ZM47 264Q35 264 37 275L44 333Q46 344 56 344L535 344Q547 344 545 333L538 275Q536 264 526 264ZM315 460Q293 460 278 475Q263 490 263 512Q263 535 280 551Q296 567 319 567Q341 567 356 553Q370 538 370 516Q370 494 354 477Q338 460 315 460Z"  horiz-adv-x="582" vert-adv-y="1000"  />
      <glyph glyph-name="oslash" unicode="&#xf8;" d="M148 -39Q137 -39 142 -29L158 9Q101 33 76 84Q51 135 51 202Q51 264 67 320Q82 376 114 420Q146 464 197 490Q248 515 318 515Q332 515 345 514Q357 513 369 511L379 535Q384 545 395 545L435 545Q445 545 442 535L425 495Q481 470 506 420Q530 369 530 303Q530 242 515 186Q499 129 467 85Q435 41 385 16Q334 -10 264 -10Q250 -10 237 -9Q224 -7 212 -6L203 -29Q200 -39 188 -39ZM191 87L338 438Q332 439 326 440Q319 440 312 440Q249 440 213 406Q176 372 160 319Q144 266 144 208Q144 167 155 136Q166 105 191 87ZM269 65Q332 65 369 99Q405 133 421 186Q437 239 437 297Q437 337 426 368Q415 398 392 416L243 66Q249 65 256 65Q262 65 269 65Z"  horiz-adv-x="571" vert-adv-y="1000"  />
      <glyph glyph-name="ugrave" unicode="&#xf9;" d="M221 -10Q123 -10 92 53Q60 116 74 226L108 494Q110 505 120 505L189 505Q201 505 199 494L166 229Q156 148 174 111Q192 73 249 73Q289 73 327 97Q364 121 393 181Q421 240 434 346L453 494Q455 505 465 505L534 505Q546 505 544 494L502 152Q498 116 501 91Q503 65 519 42Q524 33 515 27L469 1Q459 -4 450 1Q429 15 420 42Q410 68 409 105Q372 42 325 16Q277 -10 221 -10ZM379 574Q366 574 362 584Q336 626 306 672Q275 717 243 764Q236 773 247 773L324 773Q335 773 340 764Q367 721 394 675Q421 629 446 584Q451 574 440 574Z"  horiz-adv-x="578" vert-adv-y="1000"  />
      <glyph glyph-name="uacute" unicode="&#xfa;" d="M221 -10Q123 -10 92 53Q60 116 74 226L108 494Q110 505 120 505L189 505Q201 505 199 494L166 229Q156 148 174 111Q192 73 249 73Q289 73 327 97Q364 121 393 181Q421 240 434 346L453 494Q455 505 465 505L534 505Q546 505 544 494L502 152Q498 116 501 91Q503 65 519 42Q524 33 515 27L469 1Q459 -4 450 1Q429 15 420 42Q410 68 409 105Q372 42 325 16Q277 -10 221 -10ZM230 574Q219 574 226 583Q262 628 301 675Q339 722 376 765Q384 773 395 773L471 773Q476 773 477 771Q478 768 474 765Q430 718 389 672Q347 626 309 583Q307 579 302 577Q297 574 292 574Z"  horiz-adv-x="578" vert-adv-y="1000"  />
      <glyph glyph-name="ucircumflex" unicode="&#xfb;" d="M221 -10Q123 -10 92 53Q60 116 74 226L108 494Q110 505 120 505L189 505Q201 505 199 494L166 229Q156 148 174 111Q192 73 249 73Q289 73 327 97Q364 121 393 181Q421 240 434 346L453 494Q455 505 465 505L534 505Q546 505 544 494L502 152Q498 116 501 91Q503 65 519 42Q524 33 515 27L469 1Q459 -4 450 1Q429 15 420 42Q410 68 409 105Q372 42 325 16Q277 -10 221 -10ZM177 574Q166 574 173 583Q209 628 249 677Q288 725 327 768Q333 776 345 776L378 776Q390 776 394 767Q422 724 450 677Q478 629 503 584Q508 574 497 574L436 574Q425 574 419 584Q404 609 386 636Q368 663 350 689Q326 663 303 636Q279 608 256 582Q250 574 238 574Z"  horiz-adv-x="578" vert-adv-y="1000"  />
      <glyph glyph-name="udieresis" unicode="&#xfc;" d="M221 -10Q123 -10 92 53Q60 116 74 226L108 494Q110 505 120 505L189 505Q201 505 199 494L166 229Q156 148 174 111Q192 73 249 73Q289 73 327 97Q364 121 393 181Q421 240 434 346L453 494Q455 505 465 505L534 505Q546 505 544 494L502 152Q498 116 501 91Q503 65 519 42Q524 33 515 27L469 1Q459 -4 450 1Q429 15 420 42Q410 68 409 105Q372 42 325 16Q277 -10 221 -10ZM253 607Q231 607 216 623Q200 638 200 660Q200 683 217 699Q234 715 257 715Q279 715 294 701Q309 686 309 663Q309 640 293 624Q276 607 253 607ZM433 607Q411 607 396 623Q380 638 380 660Q380 683 397 699Q414 715 437 715Q459 715 474 701Q489 686 489 663Q489 640 473 624Q456 607 433 607Z"  horiz-adv-x="578" vert-adv-y="1000"  />
      <glyph glyph-name="yacute" unicode="&#xfd;" d="M69 -262Q60 -268 53 -261L10 -216Q6 -213 7 -209Q7 -204 11 -202Q57 -163 103 -113Q149 -62 185 -7Q172 31 154 92Q135 152 115 222Q95 291 76 359Q56 427 42 481Q40 492 51 494L124 509Q135 511 138 500Q154 430 174 350Q194 269 214 194Q220 173 226 150Q231 126 237 92L243 92Q259 126 271 149Q283 172 295 194Q335 271 377 351Q418 431 452 501Q455 511 467 509L534 495Q545 492 540 482Q511 426 474 357Q436 288 397 219Q358 150 325 91Q291 31 270 -6Q230 -79 176 -147Q121 -215 69 -262ZM189 574Q178 574 185 583Q221 628 260 675Q298 722 335 765Q343 773 354 773L430 773Q435 773 436 771Q437 768 433 765Q389 718 348 672Q306 626 268 583Q266 579 261 577Q256 574 251 574Z"  horiz-adv-x="513" vert-adv-y="1000"  />
      </font>
</defs>
</svg>
